<svg width="158" height="100" viewBox="0 0 158 100" fill="none" xmlns="http://www.w3.org/2000/svg">
<g clip-path="url(#clip0_1503_3568)">
<path d="M149.167 0H8.4275C3.77312 0 0 3.77312 0 8.4275V91.2978C0 95.9522 3.77312 99.7253 8.4275 99.7253H149.167C153.821 99.7253 157.594 95.9522 157.594 91.2978V8.4275C157.594 3.77312 153.821 0 149.167 0Z" fill="url(#paint0_linear_1503_3568)"/>
<rect x="47" y="-16.707" width="127.366" height="161.352" transform="rotate(-29.7977 47 -16.707)" fill="url(#paint1_linear_1503_3568)" fill-opacity="0.38"/>
<g opacity="0.44">
<circle cx="142.09" cy="-18.5795" r="56.1314" transform="rotate(173.361 142.09 -18.5795)" stroke="#B6B6B6" stroke-width="0.318046"/>
<circle cx="122.775" cy="-9.84266" r="56.1314" transform="rotate(173.361 122.775 -9.84266)" stroke="#B6B6B6" stroke-width="0.318046"/>
<circle cx="97.1657" cy="-6.86194" r="56.1314" transform="rotate(173.361 97.1657 -6.86194)" stroke="#B6B6B6" stroke-width="0.318046"/>
</g>
</g>
<defs>
<linearGradient id="paint0_linear_1503_3568" x1="-0.0195936" y1="99.7256" x2="144.623" y2="-12.8648" gradientUnits="userSpaceOnUse">
<stop offset="0.138303" stop-color="#252731"/>
<stop offset="1" stop-color="#9EA0AD"/>
</linearGradient>
<linearGradient id="paint1_linear_1503_3568" x1="166.019" y1="28.9671" x2="0.417874" y2="89.5169" gradientUnits="userSpaceOnUse">
<stop stop-color="#A3A3A3"/>
<stop offset="0.742198" stop-color="white" stop-opacity="0"/>
</linearGradient>
<clipPath id="clip0_1503_3568">
<rect width="158" height="100" rx="10" fill="white"/>
</clipPath>
</defs>
</svg>
