<svg width="17" height="20" viewBox="0 0 17 20" fill="none" xmlns="http://www.w3.org/2000/svg">
<path d="M4.82819 18.5822L5.14897 16.5447L4.43443 16.5281H1.02246L3.39361 1.49347C3.40097 1.44809 3.42489 1.40577 3.45985 1.37571C3.49481 1.34566 3.53958 1.3291 3.58619 1.3291H9.33926C11.2492 1.3291 12.5672 1.72654 13.2554 2.51099C13.578 2.87899 13.7835 3.26355 13.8828 3.68675C13.9871 4.13081 13.9889 4.66134 13.8871 5.30841L13.8798 5.35564V5.77025L14.2024 5.95302C14.4741 6.09715 14.69 6.26214 14.8556 6.45105C15.1316 6.76569 15.3101 7.16558 15.3855 7.63969C15.4634 8.12729 15.4376 8.7075 15.3101 9.36438C15.1629 10.12 14.9249 10.7781 14.6035 11.3166C14.3079 11.8128 13.9313 12.2244 13.4842 12.5433C13.0573 12.8463 12.5501 13.0763 11.9766 13.2235C11.4209 13.3682 10.7873 13.4412 10.0924 13.4412H9.6447C9.32454 13.4412 9.01358 13.5565 8.76947 13.7632C8.52475 13.9742 8.36283 14.2625 8.31315 14.5777L8.27942 14.7611L7.7127 18.3522L7.68694 18.484C7.68019 18.5257 7.66854 18.5466 7.65137 18.5607C7.63603 18.5736 7.61395 18.5822 7.59249 18.5822H4.82819Z" fill="#253B80"/>
<path d="M14.5079 5.40308C14.4907 5.51286 14.4711 5.6251 14.449 5.74041C13.6903 9.63569 11.0947 10.9813 7.7796 10.9813H6.0917C5.68629 10.9813 5.34466 11.2757 5.28149 11.6756L4.4173 17.1564L4.17258 18.71C4.13149 18.9725 4.33389 19.2092 4.59885 19.2092H7.59253C7.94704 19.2092 8.24818 18.9516 8.304 18.602L8.33344 18.4499L8.89709 14.8729L8.93328 14.6767C8.98847 14.3259 9.29024 14.0682 9.64474 14.0682H10.0925C12.9929 14.0682 15.2635 12.8907 15.9271 9.48297C16.2043 8.05942 16.0608 6.87078 15.3273 6.03481C15.1052 5.78273 14.8299 5.57358 14.5079 5.40308Z" fill="#179BD7"/>
<path d="M13.7146 5.08677C13.5987 5.05304 13.4791 5.02237 13.3564 4.99477C13.2331 4.96779 13.1068 4.94387 12.9768 4.92301C12.5217 4.84941 12.023 4.81445 11.4888 4.81445H6.9796C6.86858 4.81445 6.76309 4.8396 6.66864 4.88499C6.46072 4.98496 6.30616 5.18184 6.26874 5.42288L5.30949 11.4986L5.28189 11.6758C5.34506 11.2759 5.68669 10.9815 6.0921 10.9815H7.78C11.0951 10.9815 13.6907 9.63525 14.4494 5.74059C14.4721 5.62528 14.4911 5.51304 14.5083 5.40325C14.3163 5.30144 14.1084 5.21435 13.8845 5.14013C13.8293 5.12173 13.7723 5.10395 13.7146 5.08677Z" fill="#222D65"/>
<path d="M6.26822 5.42274C6.30564 5.1817 6.4602 4.98482 6.66812 4.88546C6.76318 4.84007 6.86806 4.81492 6.97908 4.81492H11.4883C12.0225 4.81492 12.5212 4.84988 12.9762 4.92348C13.1063 4.94434 13.2326 4.96826 13.3559 4.99524C13.4786 5.02284 13.5982 5.05351 13.7141 5.08724C13.7717 5.10442 13.8288 5.1222 13.8846 5.13999C14.1085 5.2142 14.3164 5.30191 14.5084 5.40311C14.7341 3.96362 14.5065 2.98351 13.7282 2.09602C12.8701 1.11898 11.3215 0.700684 9.3398 0.700684H3.58673C3.18193 0.700684 2.83662 0.995084 2.77406 1.39559L0.37777 16.5848C0.330543 16.8853 0.562383 17.1564 0.86537 17.1564H4.41718L5.30897 11.4984L6.26822 5.42274Z" fill="#253B80"/>
</svg>
