<svg width="15" height="15" viewBox="0 0 15 15" fill="none" xmlns="http://www.w3.org/2000/svg">
<path d="M8.44534 1.65088L9.61487 3.98993C9.77435 4.31553 10.1996 4.62785 10.5585 4.68765L12.6782 5.03984C14.0338 5.26577 14.3528 6.24924 13.376 7.21941L11.728 8.86738C11.4489 9.14647 11.2961 9.68472 11.3824 10.0701L11.8542 12.1102C12.2264 13.7249 11.3692 14.3495 9.94047 13.5056L7.95361 12.3294C7.59478 12.1168 7.00337 12.1168 6.63789 12.3294L4.65103 13.5056C3.22899 14.3495 2.36514 13.7183 2.73726 12.1102L3.20906 10.0701C3.29544 9.68472 3.14261 9.14647 2.86351 8.86738L1.21555 7.21941C0.245372 6.24924 0.557689 5.26577 1.91327 5.03984L4.03304 4.68765C4.38523 4.62785 4.81051 4.31553 4.96999 3.98993L6.13951 1.65088C6.77744 0.381674 7.81406 0.381674 8.44534 1.65088Z" fill="#F4C500" stroke="#F4C500" stroke-width="0.996755" stroke-linecap="round" stroke-linejoin="round"/>
</svg>
