<svg width="31" height="10" viewBox="0 0 31 10" fill="none" xmlns="http://www.w3.org/2000/svg">
<path d="M11.0777 9.57138L12.5625 0.860598H14.9366L13.4514 9.57138H11.0777ZM22.0181 1.05169C21.3368 0.804889 20.6171 0.681046 19.8925 0.68593C17.5494 0.68593 15.8988 1.8659 15.8846 3.55739C15.8717 4.80757 17.0632 5.50486 17.9627 5.92084C18.8858 6.34749 19.196 6.61949 19.1916 7.00036C19.1858 7.58345 18.4543 7.84966 17.773 7.84966C16.8237 7.84966 16.3197 7.71635 15.5406 7.39325L15.2353 7.25502L14.9024 9.20251C15.4562 9.44517 16.4806 9.65582 17.5437 9.66649C20.0364 9.66649 21.6546 8.5003 21.6733 6.69414C21.6822 5.7044 21.0511 4.9511 19.6822 4.33024C18.8534 3.93025 18.3458 3.65915 18.3512 3.25161C18.3512 2.89029 18.7809 2.50366 19.7093 2.50366C20.3176 2.49004 20.9221 2.60357 21.484 2.83698L21.6964 2.93741L22.0181 1.05169ZM28.1175 0.860598H26.2909C25.7251 0.860598 25.3016 1.01527 25.0531 1.57969L21.5422 9.52693H24.0412C24.0412 9.52693 24.4412 8.47009 24.5332 8.2381L27.5273 8.24165C27.5971 8.54209 27.8117 9.52693 27.8117 9.52693H30.0303L28.1175 0.860598ZM25.2131 6.46038C25.4091 5.95907 26.158 4.02847 26.158 4.02847C26.1438 4.05158 26.3526 3.52449 26.4722 3.19784L26.6326 3.94805C26.6326 3.94805 27.0868 6.02485 27.1815 6.46038H25.2131ZM9.06307 0.860598L6.74673 6.77993L6.50006 5.57687C6.06897 4.19025 4.72546 2.68809 3.2233 1.93612L5.34145 9.52693L7.84445 9.52427L11.5692 0.860598H9.05153" fill="url(#paint0_linear_1450_3449)"/>
<path d="M4.4812 0.860422H0.67379L0.643127 1.0413C3.61813 1.76171 5.58648 3.5021 6.40378 5.59269L5.57226 1.59284C5.42871 1.04219 5.01274 0.877753 4.49765 0.858643" fill="url(#paint1_linear_1450_3449)"/>
<defs>
<linearGradient id="paint0_linear_1450_3449" x1="16.6268" y1="0.685791" x2="16.6268" y2="9.66649" gradientUnits="userSpaceOnUse">
<stop stop-color="white"/>
<stop offset="1" stop-color="white" stop-opacity="0.75"/>
</linearGradient>
<linearGradient id="paint1_linear_1450_3449" x1="3.52345" y1="0.858643" x2="3.52345" y2="5.59269" gradientUnits="userSpaceOnUse">
<stop stop-color="white"/>
<stop offset="1" stop-color="white" stop-opacity="0.75"/>
</linearGradient>
</defs>
</svg>
