<svg width="10" height="12" viewBox="0 0 10 12" fill="none" xmlns="http://www.w3.org/2000/svg">
<path fill-rule="evenodd" clip-rule="evenodd" d="M1.52145 7.85687L1.51979 7.85911L1.51818 7.86139C1.42849 7.98839 1.22756 8.02571 1.07044 7.91473C0.944653 7.8259 0.906842 7.62795 1.01395 7.47151C1.17376 7.2678 1.28982 7.02964 1.36605 6.79682C1.44541 6.55445 1.48232 6.27903 1.48088 6.00891C1.47944 5.73879 1.4396 5.46378 1.35766 5.22226C1.27896 4.99027 1.16037 4.75336 0.998399 4.55137C0.889632 4.39607 0.925333 4.19774 1.05016 4.10756C1.2061 3.99492 1.40741 4.0301 1.49845 4.15613L1.50008 4.15839L1.50177 4.16062C1.70337 4.42645 1.86871 4.72181 1.96753 5.01158C2.07154 5.35246 2.13779 5.6822 2.13951 6.0054C2.14132 6.34552 2.10882 6.66744 1.98401 6.98434C1.84809 7.32948 1.71646 7.59396 1.52145 7.85687ZM2.97905 8.48815L2.98299 8.48257L2.9866 8.47678C3.43342 7.76091 3.69113 6.89708 3.68634 5.99716C3.68155 5.09748 3.41478 4.23664 2.96058 3.52567C2.86215 3.36958 2.90636 3.18503 3.07227 3.06518C3.1837 2.98469 3.39288 3.01319 3.517 3.17952C4.02981 3.99315 4.33956 4.97669 4.34497 5.99366C4.35057 7.04534 4.05155 7.99696 3.54696 8.81653C3.43024 8.97719 3.25154 9.0222 3.09745 8.93115C2.93039 8.80874 2.89985 8.60028 2.97905 8.48815ZM5.59466 2.11009L5.59907 2.11878L5.60416 2.12709C6.29904 3.25998 6.68519 4.56673 6.69272 5.98116C6.70025 7.39493 6.32838 8.70517 5.64621 9.84502C5.54163 10.0132 5.36506 10.0606 5.18606 9.97728C5.02314 9.87111 4.97938 9.69516 5.06447 9.51745C5.64463 8.48713 6.00538 7.273 5.99852 5.98485C5.99169 4.70244 5.65635 3.49026 5.02566 2.45986C4.94033 2.28392 4.98258 2.1087 5.14357 2.00131C5.33779 1.90853 5.527 1.97654 5.59466 2.11009ZM7.65214 1.03194L7.65515 1.03788L7.65849 1.04364C8.50054 2.49919 8.99527 4.16331 9.00488 5.96884C9.01449 7.77252 8.5385 9.44023 7.71356 10.9036C7.6088 11.0698 7.43305 11.1164 7.2549 11.0335C7.0925 10.9276 7.0485 10.7524 7.13252 10.5753C7.92723 9.21896 8.35517 7.64756 8.34625 5.97235C8.33731 4.29282 7.85498 2.72751 7.08453 1.38455C6.988 1.1885 7.05602 0.996498 7.19077 0.928223C7.38856 0.828009 7.58328 0.896036 7.65214 1.03194Z" fill="url(#paint0_linear_1450_3452)"/>
<defs>
<linearGradient id="paint0_linear_1450_3452" x1="4.94655" y1="0.893329" x2="5.00083" y2="11.0865" gradientUnits="userSpaceOnUse">
<stop stop-color="white" stop-opacity="0.73"/>
<stop offset="1" stop-color="white"/>
</linearGradient>
</defs>
</svg>
