<svg id="Capa_1" data-name="Capa 1" xmlns="http://www.w3.org/2000/svg" viewBox="0 0 250 50"><defs><style>.cls-1{fill:#007a54;}.cls-2{fill:#fff;}</style></defs><rect class="cls-1" width="250" height="50" rx="4"/><path class="cls-2" d="M33.39,11.87q7.28,0,7.27,5.11a4.6,4.6,0,0,1-2.56,4.11,4.88,4.88,0,0,1,3.57,5,6.45,6.45,0,0,1-.65,3A4.8,4.8,0,0,1,39.23,31a8.37,8.37,0,0,1-2.48,1,13.26,13.26,0,0,1-2.93.3H23.07V11.87Zm-4.22,7.81H32.7a2.18,2.18,0,0,0,1.4-.41,1.42,1.42,0,0,0,.5-1.14c0-1.07-.73-1.61-2.19-1.61H29.17Zm0,7.79h3.88c1.59,0,2.38-.63,2.38-1.89s-.79-2-2.38-2H29.17Z"/><path class="cls-2" d="M53.68,32.33A6.2,6.2,0,0,1,53.45,31a6.42,6.42,0,0,1-4.74,1.87,5.82,5.82,0,0,1-4-1.24,4.27,4.27,0,0,1-1.42-3.42,3.91,3.91,0,0,1,.46-1.95,5.43,5.43,0,0,1,.93-1.28,4.29,4.29,0,0,1,1.63-.81A15.38,15.38,0,0,1,48,23.68c.32-.06.95-.15,1.89-.29l.1,0h.12l.13,0c.09,0,.32,0,.69-.07a8.37,8.37,0,0,0,.85-.1,5.08,5.08,0,0,0,.72-.2,1.23,1.23,0,0,0,.61-.43,1.13,1.13,0,0,0,.2-.69q0-1.29-1.86-1.29a2.75,2.75,0,0,0-1.5.31,1.65,1.65,0,0,0-.6,1.18H44q.19-5,7.42-5,5.72,0,7,2.76a6.58,6.58,0,0,1,.4,2.7c0,.59,0,1.47,0,2.63s0,2.14,0,2.94a10,10,0,0,0,.64,4.23Zm-3-5.89c-1,.23-1.55.74-1.55,1.55a1.41,1.41,0,0,0,.43,1.09,1.66,1.66,0,0,0,1.18.4A2.41,2.41,0,0,0,53,28.33a3.76,3.76,0,0,0,.34-1.86v-.89A8.86,8.86,0,0,1,50.69,26.44Z"/><path class="cls-2" d="M67.27,19.34A5.76,5.76,0,0,1,72,17.1a4.85,4.85,0,0,1,4.08,1.61A6.64,6.64,0,0,1,77.33,23v9.37H71.61V24c0-1.57-.64-2.35-1.93-2.35-1.45,0-2.18.83-2.18,2.5v8.16H61.81V17.5h5.46Z"/><path class="cls-2" d="M93,31.5a9.53,9.53,0,0,1-4.82,1.26,8.91,8.91,0,0,1-6-2,7,7,0,0,1-2.39-5.63,7.62,7.62,0,0,1,2.31-5.72,8.1,8.1,0,0,1,5.88-2.25,7.9,7.9,0,0,1,6,2.33,8.72,8.72,0,0,1,2.22,6.27v.43H85.2A3.15,3.15,0,0,0,86,28.33a2.78,2.78,0,0,0,2.08.78,2.66,2.66,0,0,0,2.39-1.24h5.32A5.92,5.92,0,0,1,93,31.5ZM88,20.78q-2.29,0-2.73,2.52h5.35A2.41,2.41,0,0,0,88,20.78Z"/><path class="cls-2" d="M107.13,21.84a1.57,1.57,0,0,0-.58-1.09,2.61,2.61,0,0,0-1.44-.29c-1,0-1.55.3-1.55.89a.75.75,0,0,0,.25.56,1.73,1.73,0,0,0,.73.4,7.88,7.88,0,0,0,.83.23c.23.05.53.1.89.15l.58.07q1,.19,1.71.36a8.85,8.85,0,0,1,1.54.53,5.53,5.53,0,0,1,1.38.83,3.8,3.8,0,0,1,.87,1.24,4.19,4.19,0,0,1,.36,1.78,4.4,4.4,0,0,1-2,3.82,9.48,9.48,0,0,1-5.49,1.38q-7.1,0-7.53-5.31h5.37a1.94,1.94,0,0,0,.65,1.33,2.59,2.59,0,0,0,1.62.42,2.33,2.33,0,0,0,1.31-.32,1,1,0,0,0,.48-.86.83.83,0,0,0-.46-.78,9.07,9.07,0,0,0-1.76-.51l-.69-.15a19.46,19.46,0,0,1-3.91-1.12A3.77,3.77,0,0,1,98,21.75a3.9,3.9,0,0,1,1.85-3.48,9.9,9.9,0,0,1,5.36-1.2,10.07,10.07,0,0,1,4.91,1.05,4.33,4.33,0,0,1,2.13,3.72Z"/><path class="cls-2" d="M127.8,31a9.21,9.21,0,0,1-11.15-.46A7.3,7.3,0,0,1,114.39,25a7.58,7.58,0,0,1,2.25-5.71,8.13,8.13,0,0,1,5.89-2.17,8.34,8.34,0,0,1,5.3,1.64,5.93,5.93,0,0,1,2.32,4.31h-5.44a2.17,2.17,0,0,0-.7-1.41,2.1,2.1,0,0,0-1.42-.51q-2.5,0-2.5,3.88c0,2.34.82,3.5,2.47,3.5,1.28,0,2-.72,2.27-2.18h5.43A7,7,0,0,1,127.8,31Z"/><path class="cls-2" d="M146,19.22a7.46,7.46,0,0,1,2.24,5.64,7.56,7.56,0,0,1-2.27,5.7,8.05,8.05,0,0,1-5.86,2.2,8.15,8.15,0,0,1-5.89-2.18,7.5,7.5,0,0,1-2.27-5.67,7.5,7.5,0,0,1,2.28-5.66,8.25,8.25,0,0,1,5.94-2.18A8.08,8.08,0,0,1,146,19.22Zm-8.36,5.69q0,3.77,2.47,3.77t2.44-3.82c0-2.46-.83-3.68-2.5-3.68S137.59,22.42,137.59,24.91Z"/><path class="cls-2" d="M160,11.87a7,7,0,0,1,4.7,1.48,5.26,5.26,0,0,1,1.74,4.26,5.59,5.59,0,0,1-1.76,4.46A7,7,0,0,1,160,23.59h-6.75v8.74h-2V11.87ZM153.22,22h6.21a6.14,6.14,0,0,0,3.68-1,3.67,3.67,0,0,0,1.4-3.17,3.86,3.86,0,0,0-1.29-3.18,5.54,5.54,0,0,0-3.59-1.05h-6.41Z"/><path class="cls-2" d="M181.9,32.24a4.18,4.18,0,0,1-1.44.23,1.58,1.58,0,0,1-1.55-.72,4.31,4.31,0,0,1-.37-2,6.16,6.16,0,0,1-5.58,3,5.29,5.29,0,0,1-3.55-1.09,3.8,3.8,0,0,1-1.28-3.05q0-4,5.49-4.57l.81-.07.76-.07.63-.07.57-.07.46-.09a3.24,3.24,0,0,0,.44-.12l.33-.12.31-.16a1.58,1.58,0,0,0,.52-1.41,2.87,2.87,0,0,0-1-2.47,4.8,4.8,0,0,0-2.87-.72,4.25,4.25,0,0,0-2.86.85,3.8,3.8,0,0,0-1.17,2.63h-1.72a4.84,4.84,0,0,1,1.67-3.68,7.72,7.72,0,0,1,8.26-.2,3.69,3.69,0,0,1,1.45,3.16v8a7.56,7.56,0,0,0,0,.82.77.77,0,0,0,.24.46,1,1,0,0,0,.71.22,2.5,2.5,0,0,0,.69-.09Zm-4.3-7.48a9.45,9.45,0,0,1-1.08.27c-.32.06-.88.13-1.66.23l-.43.06a11.29,11.29,0,0,0-1.51.26,7.55,7.55,0,0,0-1.35.47,2.5,2.5,0,0,0-1.15.92,2.57,2.57,0,0,0-.39,1.45,2.53,2.53,0,0,0,.92,2.06,3.78,3.78,0,0,0,2.47.76A5.3,5.3,0,0,0,177,30a4.12,4.12,0,0,0,1.47-3.29V24.28A2,2,0,0,1,177.6,24.76Z"/><path class="cls-2" d="M196.38,31.52q0,6.61-6.61,6.61A7,7,0,0,1,185.49,37a4.23,4.23,0,0,1-1.73-3.29h1.81q.44,3,4.29,3a4.56,4.56,0,0,0,3.72-1.35,6.19,6.19,0,0,0,1.11-4V28.91a5.24,5.24,0,0,1-5.12,3.25,5.88,5.88,0,0,1-4.67-2,7.83,7.83,0,0,1-1.74-5.33,8.28,8.28,0,0,1,1.8-5.58,5.93,5.93,0,0,1,4.75-2.1,5.19,5.19,0,0,1,5,3.19V17.56h1.64Zm-10.1-11.2A6.71,6.71,0,0,0,185,24.68,6.67,6.67,0,0,0,186.26,29a4.23,4.23,0,0,0,3.48,1.61A4.34,4.34,0,0,0,193.33,29a6.9,6.9,0,0,0,1.33-4.47,6.29,6.29,0,0,0-1.33-4.21,4.39,4.39,0,0,0-3.53-1.56A4.27,4.27,0,0,0,186.28,20.32Z"/><path class="cls-2" d="M211.19,19.25A8.36,8.36,0,0,1,213.08,25a8.22,8.22,0,0,1-1.87,5.68,6.49,6.49,0,0,1-5.09,2.08A6.59,6.59,0,0,1,201,30.65a8.21,8.21,0,0,1-1.91-5.71A8.23,8.23,0,0,1,201,19.25a6.57,6.57,0,0,1,5.13-2.13A6.41,6.41,0,0,1,211.19,19.25Zm-8.86,1.11a7,7,0,0,0-1.41,4.58,7.07,7.07,0,0,0,1.39,4.63,4.71,4.71,0,0,0,3.84,1.7,4.58,4.58,0,0,0,3.74-1.7,7.07,7.07,0,0,0,1.38-4.6,7,7,0,0,0-1.41-4.61,5,5,0,0,0-7.53,0Z"/><path class="cls-2" d="M224.66,21.87q-.27-3.23-4-3.22a4.27,4.27,0,0,0-2.51.66,2.06,2.06,0,0,0-.94,1.78,2.15,2.15,0,0,0,.2.95,2.58,2.58,0,0,0,.46.65,2.78,2.78,0,0,0,.91.47c.43.15.8.27,1.12.36s.83.21,1.54.36l1.52.37a10.59,10.59,0,0,1,1.42.51,5.15,5.15,0,0,1,1.34.77,3.56,3.56,0,0,1,.85,1.12,3.46,3.46,0,0,1,.36,1.6,3.93,3.93,0,0,1-1.63,3.29,6.76,6.76,0,0,1-4.24,1.25,6.5,6.5,0,0,1-4.42-1.38A5.06,5.06,0,0,1,215,27.5h1.75a3.51,3.51,0,0,0,1.15,2.82,4.84,4.84,0,0,0,3.22,1A4.9,4.9,0,0,0,224,30.5a2.43,2.43,0,0,0,1.11-2.08,2.08,2.08,0,0,0-.36-1.21,2.52,2.52,0,0,0-1-.82,7.8,7.8,0,0,0-1.19-.48,10.84,10.84,0,0,0-1.25-.33l-.29-.06-.92-.22c-.48-.1-.81-.18-1-.23l-.92-.27a5.5,5.5,0,0,1-.92-.37c-.19-.12-.44-.28-.74-.49a2.48,2.48,0,0,1-.66-.68,4.51,4.51,0,0,1-.37-.85,3.9,3.9,0,0,1,1.29-4.14,7.52,7.52,0,0,1,8,.09,4.23,4.23,0,0,1,1.52,3.51Z"/></svg>