<?xml version="1.0" encoding="utf-8"?>
<!-- Generator: Adobe Illustrator 19.1.0, SVG Export Plug-In . SVG Version: 6.00 Build 0)  -->
<svg version="1.1" id="Capa_1" xmlns="http://www.w3.org/2000/svg" xmlns:xlink="http://www.w3.org/1999/xlink" x="0px" y="0px"
	 viewBox="-230.2 360.5 68.6 68.3" style="enable-background:new -230.2 360.5 68.6 68.3;" xml:space="preserve">
<style type="text/css">
	.st0{fill:#F18B00;}
	.st1{fill:#003E7E;}
	.st2{fill:#05A54A;}
</style>
<path class="st0" d="M-219.2,415.6h0.8c0.8-0.1,1.5-0.5,2-1c0.5-0.6,0.7-1.5,0.5-2.2c-0.1-0.3-0.4-0.6-0.7-0.7h-2.3l-0.9,3.8
	L-219.2,415.6z M-221.9,423.5h1.4c1,0.1,1.9-0.1,2.7-0.7c0.8-0.7,0.9-2,0.2-2.8c-0.1-0.1-0.1-0.1-0.2-0.2c-0.1-0.1-0.3-0.1-0.4-0.1
	h-2.6L-221.9,423.5L-221.9,423.5z M-230.2,428.2l5.6-21.3h13.6c0.6,0,1.3,0.2,1.8,0.5c1.6,1,2.3,2.9,1.8,4.7c-0.3,2-1.7,3.7-3.5,4.6
	c1.9,1.3,2.8,3.6,2.3,5.9c-0.8,4.1-5.5,5.2-6.8,5.4C-217.5,428.3-230.2,428.2-230.2,428.2"/>
<polygon class="st1" points="-190.3,406.9 -192.7,418.5 -194.6,406.9 -204.8,406.9 -209.2,428.2 -202.4,428.2 -199.8,415.8 
	-197.8,428.2 -187.9,428.2 -183.5,406.9 "/>
<path class="st2" d="M-171.6,414.9h9.1c-0.1-1.3-0.4-2.5-1-3.7c-2.6-5.2-9.3-6.5-15-3s-8.3,10.5-5.7,15.7c2.6,5.2,9.3,6.5,15,3
	c2.5-1.5,4.4-3.7,5.6-6.4h-9.2c-0.8,1.9-2,3.1-2.9,3c-1.3-0.2-1.8-3-1-6.2c0.8-3.2,2.4-5.6,3.7-5.4
	C-172.1,412-171.7,413.2-171.6,414.9"/>
<path class="st1" d="M-226.2,371.8c3.4-3.7,7.7-6.6,12.5-8.2l-6.8,29.9L-226.2,371.8z M-212.6,363.2c5.4-1.8,11-2.7,16.6-2.7
	c1.1,0,2.3,0,3.4,0.1l-24.4,33.3L-212.6,363.2z M-192.2,360.6c17.2,1.2,30.5,10.2,30.5,21.2c0,11.8-15.3,21.4-34.3,21.4
	c-4.1,0-8.2-0.5-12.3-1.4l40.3-9.4l-43.5,6.4l35.4-25.5l-37.7,22.8L-192.2,360.6z M-230.2,381.9c0-3.1,1-6,2.8-8.5l3.1,20.5
	C-228,390.4-230.2,386.3-230.2,381.9"/>
</svg>
