<svg width="23" height="17" viewBox="0 0 23 17" fill="none" xmlns="http://www.w3.org/2000/svg">
<path d="M14.4575 0.318848H1.59475C1.04892 0.318848 0.606445 0.781288 0.606445 1.35174V9.86068C0.606445 10.4311 1.04892 10.8936 1.59475 10.8936H14.4575C15.0033 10.8936 15.4458 10.4311 15.4458 9.86068V1.35174C15.4458 0.781288 15.0033 0.318848 14.4575 0.318848Z" fill="#B1B7BF"/>
<path d="M15.4458 3.13916H0.606445V4.54905H15.4458V3.13916Z" fill="#34444D"/>
<path d="M21.8772 5.25439H9.01442C8.4686 5.25439 8.02612 5.71683 8.02612 6.28728V15.5007C8.02612 16.0711 8.4686 16.5335 9.01442 16.5335H21.8772C22.423 16.5335 22.8655 16.0711 22.8655 15.5007V6.28728C22.8655 5.71683 22.423 5.25439 21.8772 5.25439Z" fill="#34444D"/>
<path d="M13.1086 8.07324H11.7122C11.1664 8.07324 10.7239 8.53568 10.7239 9.10613V9.86014C10.7239 10.4306 11.1664 10.893 11.7122 10.893H13.1086C13.6545 10.893 14.0969 10.4306 14.0969 9.86014V9.10613C14.0969 8.53568 13.6545 8.07324 13.1086 8.07324Z" fill="#F4C500"/>
<path d="M13.1091 8.84766H11.7127C11.5762 8.84766 11.4656 8.96327 11.4656 9.10588V9.85989C11.4656 10.0025 11.5762 10.1181 11.7127 10.1181H13.1091C13.2456 10.1181 13.3562 10.0025 13.3562 9.85989V9.10588C13.3562 8.96327 13.2456 8.84766 13.1091 8.84766Z" stroke="#F4C500" stroke-width="1.39951"/>
<path d="M10.6575 13.7991H19.1816" stroke="#B1B7BF" stroke-width="1.39951" stroke-linecap="round"/>
</svg>
