<?xml version="1.0" encoding="utf-8"?>
<!-- Generator: Adobe Illustrator 22.1.0, SVG Export Plug-In . SVG Version: 6.00 Build 0)  -->
<svg version="1.1" id="Capa_1" xmlns="http://www.w3.org/2000/svg" xmlns:xlink="http://www.w3.org/1999/xlink" x="0px" y="0px"
	 width="120px" height="23px" viewBox="0 0 120 23" style="enable-background:new 0 0 120 23;" xml:space="preserve">
<style type="text/css">
	.st0{fill:url(#SVGID_1_);}
	.st1{fill:url(#SVGID_2_);}
	.st2{fill:url(#SVGID_3_);}
	.st3{fill:#E4A931;}
	.st4{fill:#003091;}
</style>
<g id="Capa_1_1_">
	<g>
		<g>
			
				<linearGradient id="SVGID_1_" gradientUnits="userSpaceOnUse" x1="83.2504" y1="19.3304" x2="104.0232" y2="8.7396" gradientTransform="matrix(1 0 0 -1 0 25)">
				<stop  offset="0" style="stop-color:#081F7B"/>
				<stop  offset="1" style="stop-color:#3FA9F5"/>
			</linearGradient>
			<path class="st0" d="M88.8,13.4C89.9,5.6,81.5,3,81.5,3s7.1-0.4,10.4,2.3c0,0,0,0,0.1,0.1c0.7,0.6,1.3,1.4,1.5,2.4
				C94.4,11.3,88.8,13.4,88.8,13.4z"/>
			
				<linearGradient id="SVGID_2_" gradientUnits="userSpaceOnUse" x1="85.7149" y1="7.6011" x2="94.0587" y2="15.373" gradientTransform="matrix(1 0 0 -1 0 25)">
				<stop  offset="0" style="stop-color:#EB4F12"/>
				<stop  offset="1" style="stop-color:#E5A930"/>
			</linearGradient>
			<path class="st1" d="M94.9,14.5c-1.8,3.4-5.7,4.7-8.2,5.2C85.3,20,84.3,20,84.3,20s4-2.4,4.5-6.6c0,0,5.6-2.1,4.6-5.7
				c-0.2-1-0.7-1.8-1.5-2.4C92.5,5.7,97.6,9.3,94.9,14.5z"/>
			
				<linearGradient id="SVGID_3_" gradientUnits="userSpaceOnUse" x1="78.9253" y1="11.348" x2="87.9356" y2="7.7289" gradientTransform="matrix(1 0 0 -1 0 25)">
				<stop  offset="0" style="stop-color:#EB4F12"/>
				<stop  offset="1" style="stop-color:#E5A930"/>
			</linearGradient>
			<path class="st2" d="M88.8,13.4c-0.5,4.2-4.5,6.6-4.5,6.6c-0.7-3.7-5.2-4.4-5.2-4.4C85.6,15.1,88.8,13.4,88.8,13.4z"/>
		</g>
		<g>
			<path class="st4" d="M32.2,15.7l0.6-4.3c0.1-0.9,0.3-2.3,0.5-3.4h-0.1c-0.5,1.1-1,2.3-1.5,3.2l-2.3,4.4h-1.2l-0.5-4.3
				c-0.1-1-0.2-2.3-0.2-3.3l0,0c-0.2,1-0.5,2.4-0.7,3.4l-1,4.3h-1.5l2.3-9.1h2.1l0.5,4.3c0.1,0.8,0.2,1.8,0.2,2.6h0.1
				c0.3-0.9,0.7-1.8,1.2-2.6l2.2-4.3h2.1l-1.2,9.1L32.2,15.7L32.2,15.7z"/>
			<path class="st4" d="M40.4,15.3c-0.7,0.4-1.5,0.5-2.3,0.5c-1.8,0-2.7-1.2-2.7-2.7c0-2,1.5-4.1,3.8-4.1c1.3,0,2.1,0.7,2.1,1.9
				c0,1.7-1.8,2.3-4.3,2.2c0,0.2,0,0.7,0.2,0.9c0.2,0.4,0.7,0.7,1.3,0.7c0.7,0,1.3-0.2,1.8-0.4L40.4,15.3z M39.8,10.8
				c0-0.4-0.4-0.7-0.9-0.7c-1,0-1.6,0.9-1.8,1.7C38.7,11.8,39.8,11.6,39.8,10.8L39.8,10.8z"/>
			<path class="st4" d="M41.7,15.7l0.8-4.1c0.2-0.9,0.2-2,0.4-2.6h1.3c-0.1,0.4-0.1,0.9-0.1,1.4h0.1c0.4-0.9,1.2-1.5,2.1-1.5
				c0.1,0,0.2,0,0.4,0l-0.3,1.5c-0.1,0-0.2,0-0.3,0c-1.2,0-1.8,1.2-2.1,2.6l-0.5,2.7H41.7z"/>
			<path class="st4" d="M51,15.5c-0.4,0.2-1,0.4-1.9,0.4c-1.6,0-2.7-1.1-2.7-2.6c0-2.3,1.8-4.3,4.2-4.3c0.6,0,1.1,0.1,1.3,0.2
				l-0.4,1.2c-0.2-0.1-0.5-0.2-1-0.2C49,10.2,48,11.6,48,13c0,1,0.5,1.5,1.5,1.5c0.6,0,1.1-0.2,1.4-0.3L51,15.5z"/>
			<path class="st4" d="M56.2,15.7c0-0.4,0.1-0.9,0.1-1.5h-0.1c-0.7,1.2-1.5,1.6-2.4,1.6c-1.2,0-2-0.9-2-2.3c0-2.3,1.6-4.6,4.6-4.6
				c0.7,0,1.5,0.1,2,0.3l-0.7,3.5c-0.2,1-0.3,2.3-0.2,3C57.6,15.7,56.2,15.7,56.2,15.7z M56.8,10.2c-0.2-0.1-0.4-0.1-0.7-0.1
				c-1.5,0-2.6,1.6-2.6,3.2c0,0.7,0.2,1.3,1,1.3c0.7,0,1.6-0.9,2-2.6L56.8,10.2z"/>
			<path class="st4" d="M59.1,15.7l0.9-4.6c0.2-0.8,0.2-1.5,0.4-2.1h1.4l-0.1,1.2l0,0C62.2,9.3,63,8.9,64,8.9c0.9,0,1.7,0.5,1.7,1.8
				c0,0.3-0.1,0.7-0.1,1.1l-0.7,3.8h-1.6l0.7-3.7c0.1-0.2,0.1-0.5,0.1-0.8c0-0.5-0.2-1-0.9-1c-0.7,0-1.6,0.9-2,2.4l-0.5,3H59.1z"/>
			<path class="st4" d="M69.9,7.4l-0.4,1.7H71l-0.2,1.2h-1.5L68.8,13c-0.1,0.3-0.1,0.7-0.1,0.9c0,0.4,0.2,0.6,0.6,0.6
				c0.2,0,0.4,0,0.5-0.1l-0.1,1.3c-0.2,0.1-0.7,0.1-1,0.1c-1.1,0-1.6-0.6-1.6-1.4c0-0.4,0.1-0.7,0.1-1.2l0.5-2.9h-0.9l0.2-1.2H68
				l0.2-1.2L69.9,7.4z"/>
			<path class="st4" d="M70.9,15.7l1.3-6.6h1.6l-1.3,6.6L70.9,15.7L70.9,15.7z M73.2,8.1c-0.5,0-0.8-0.4-0.8-0.9c0-0.5,0.4-1,1-1
				c0.5,0,0.9,0.4,0.9,0.9C74.2,7.7,73.8,8.1,73.2,8.1L73.2,8.1z"/>
			<path class="st4" d="M74.2,15.7L76,6h1.6l-1.8,9.6H74.2z"/>
		</g>
	</g>
</g>
</svg>
