<svg id="Capa_1" data-name="Capa 1" xmlns="http://www.w3.org/2000/svg" width="120" height="23" viewBox="0 0 120 23"><defs><style>.cls-1{fill:#e6edf2;}.cls-2{fill:#7986cb;}.cls-3{fill:#263238;}.cls-4{fill:#ffc400;}.cls-5{fill:#ffab00;}.cls-6{fill:#e56565;}.cls-7{fill:#ffd600;}.cls-8{fill:#37474f;}</style></defs><title>pago movil-01</title><rect class="cls-1" x="53.3868" width="13.3629" height="23" rx="2" ry="2"/><rect class="cls-2" x="57.8411" y="4.8255" width="13.3629" height="8.9086" rx="1" ry="1"/><rect class="cls-3" x="57.8411" y="6.3103" width="13.3629" height="2.1333"/><circle class="cls-4" cx="53.758" cy="13.3629" r="4.6371"/><path class="cls-5" d="M54.0892,10.73v-.6794h-.6624V10.73a1.4864,1.4864,0,0,0,.1656,2.964h.3312a.8281.8281,0,1,1,0,1.6561h-.3312a.829.829,0,0,1-.8281-.828v-.1656h-.6624v.1656a1.4871,1.4871,0,0,0,1.3249,1.4736v.6793h.6624v-.6793a1.4865,1.4865,0,0,0-.1656-2.9641h-.3312a.8281.8281,0,1,1,0-1.6561h.3312a.8291.8291,0,0,1,.8281.8281v.1656h.6624v-.1656A1.4869,1.4869,0,0,0,54.0892,10.73Z"/><rect class="cls-3" x="59.6971" y="14.8477" width="0.7424" height="0.7424"/><rect class="cls-3" x="61.1818" y="14.8477" width="0.7424" height="0.7424"/><rect class="cls-3" x="62.6666" y="14.8477" width="0.7424" height="0.7424"/><circle class="cls-6" cx="67.225" cy="11.2611" r="1.2389"/><circle class="cls-7" cx="68.8309" cy="11.2611" r="1.2389"/><path class="cls-3" d="M55.3868,0h9.4043a2,2,0,0,1,2,2v.9583a0,0,0,0,1,0,0H53.3868a0,0,0,0,1,0,0V2A2,2,0,0,1,55.3868,0Z"/><path class="cls-3" d="M55.3454,19.302H64.75a2,2,0,0,1,2,2v1.7063a0,0,0,0,1,0,0H53.3454a0,0,0,0,1,0,0V21.302A2,2,0,0,1,55.3454,19.302Z" transform="translate(120.0951 42.3103) rotate(180)"/><rect class="cls-8" x="57.9584" y="20.4156" width="4.0831" height="0.7424"/></svg>