<svg id="paypal" xmlns="http://www.w3.org/2000/svg" width="80" height="19.41" viewBox="0 0 80 19.41">
  <g id="g16" transform="translate(23.449 4.34)">
    <g id="g14">
      <path id="path2" d="M94.344,6.933h-4.4a.612.612,0,0,0-.6.516l-1.779,11.28a.367.367,0,0,0,.363.423h2.257a.427.427,0,0,0,.422-.361l.505-3.2a.611.611,0,0,1,.6-.516H93.1c2.9,0,4.57-1.4,5.007-4.181a3.387,3.387,0,0,0-.561-2.84A4.077,4.077,0,0,0,94.344,6.933Zm.508,4.119c-.24,1.579-1.446,1.579-2.613,1.579h-.664l.466-2.948a.367.367,0,0,1,.362-.31h.3c.795,0,1.545,0,1.931.453A1.465,1.465,0,0,1,94.852,11.052Z" transform="translate(-56.183 -6.932)" fill="#009cde"/>
      <path id="path4" d="M44.236,6.933h-4.4a.612.612,0,0,0-.6.516l-1.779,11.28a.367.367,0,0,0,.363.423h2.1a.611.611,0,0,0,.6-.515L41,15.594a.612.612,0,0,1,.6-.516H43c2.9,0,4.57-1.4,5.007-4.181a3.391,3.391,0,0,0-.561-2.84A4.08,4.08,0,0,0,44.236,6.933Zm.508,4.119c-.24,1.579-1.446,1.579-2.613,1.579h-.664l.465-2.948a.367.367,0,0,1,.363-.31h.3c.794,0,1.544,0,1.93.453A1.469,1.469,0,0,1,44.744,11.052Z" transform="translate(-37.45 -6.932)" fill="#003087"/>
      <path id="path6" d="M63.339,13.313H61.233a.366.366,0,0,0-.363.309l-.092.589L60.631,14a3,3,0,0,0-2.488-.883,4.843,4.843,0,0,0-4.7,4.236,3.978,3.978,0,0,0,.784,3.236,3.3,3.3,0,0,0,2.653,1.071,4.034,4.034,0,0,0,2.916-1.2l-.094.585a.367.367,0,0,0,.362.424h1.9a.612.612,0,0,0,.6-.515L63.7,13.737A.367.367,0,0,0,63.339,13.313Zm-2.935,4.1a2.348,2.348,0,0,1-2.377,2.011,1.631,1.631,0,0,1-1.744-2.047,2.358,2.358,0,0,1,2.361-2.027,1.774,1.774,0,0,1,1.4.574A1.815,1.815,0,0,1,60.4,17.413Z" transform="translate(-43.405 -9.244)" fill="#003087"/>
      <path id="path8" d="M113.447,13.313h-2.106a.366.366,0,0,0-.362.309l-.093.589L110.739,14a3,3,0,0,0-2.488-.883,4.843,4.843,0,0,0-4.7,4.236,3.98,3.98,0,0,0,.784,3.236,3.3,3.3,0,0,0,2.653,1.071,4.034,4.034,0,0,0,2.916-1.2l-.094.585a.367.367,0,0,0,.362.424h1.9a.612.612,0,0,0,.6-.515l1.138-7.211A.366.366,0,0,0,113.447,13.313Zm-2.935,4.1a2.348,2.348,0,0,1-2.377,2.011,1.63,1.63,0,0,1-1.744-2.047,2.358,2.358,0,0,1,2.361-2.027,1.772,1.772,0,0,1,1.4.574A1.813,1.813,0,0,1,110.511,17.413Z" transform="translate(-62.139 -9.244)" fill="#009cde"/>
      <path id="path10" d="M81.343,13.432H79.225a.613.613,0,0,0-.506.267L75.8,18l-1.238-4.133a.61.61,0,0,0-.585-.436H71.894a.367.367,0,0,0-.348.485l2.332,6.843-2.193,3.094a.367.367,0,0,0,.3.579H74.1a.612.612,0,0,0,.5-.263l7.041-10.162A.367.367,0,0,0,81.343,13.432Z" transform="translate(-50.19 -9.362)" fill="#003087"/>
      <path id="path12" d="M122.278,7.242l-1.805,11.486a.366.366,0,0,0,.362.423h1.816a.611.611,0,0,0,.6-.515l1.78-11.28a.367.367,0,0,0-.362-.424H122.64A.368.368,0,0,0,122.278,7.242Z" transform="translate(-68.488 -6.932)" fill="#009cde"/>
    </g>
  </g>
  <g id="g24" transform="translate(0)">
    <path id="path18" d="M14.824,4.931a3.855,3.855,0,0,0-.818-3.468C13.106.439,11.482,0,9.4,0H3.371a.864.864,0,0,0-.853.729L.006,16.658a.518.518,0,0,0,.512.6H4.242l-.257,1.63a.453.453,0,0,0,.448.523H7.572a.756.756,0,0,0,.746-.637l.031-.16.591-3.75.038-.207a.756.756,0,0,1,.746-.638h.47c3.041,0,5.422-1.235,6.118-4.809a4.092,4.092,0,0,0-.628-3.615,3.014,3.014,0,0,0-.86-.662h0" transform="translate(0)" fill="#009cde"/>
    <path id="path20" d="M14.824,4.931a3.855,3.855,0,0,0-.818-3.468C13.106.439,11.482,0,9.4,0H3.371a.864.864,0,0,0-.853.729L.006,16.658a.518.518,0,0,0,.512.6H4.242l.935-5.933-.029.187A.86.86,0,0,1,6,10.781h1.77c3.476,0,6.2-1.413,6.994-5.5.023-.121.043-.237.061-.353" transform="translate(0)" fill="#012169"/>
    <path id="path22" d="M6.183,4.951a.754.754,0,0,1,.746-.637h4.729a9.852,9.852,0,0,1,1.56.114q.2.033.4.076t.376.1c.061.018.12.036.179.056a4.27,4.27,0,0,1,.654.276,3.855,3.855,0,0,0-.818-3.468C13.106.439,11.482,0,9.4,0H3.371a.864.864,0,0,0-.853.729L.006,16.658a.518.518,0,0,0,.512.6H4.242l.935-5.933Z" transform="translate(0)" fill="#003087"/>
  </g>
</svg>
