<svg version="1.1" id="Layer_1" xmlns="http://www.w3.org/2000/svg" x="0" y="0" width="33" height="34.8" viewBox="1 -0.9 33 34.8" style="enable-background:new 1-.9 33 34.8" xml:space="preserve"><style>.st0{fill:#b1b7bf}.st1{fill:#34444d}</style><g id="Grupo_4" transform="translate(-1310 5601.04)"><path class="st0" d="M1343.1-5571.7h-31.3v3.7h31.3v-3.7z" id="Trazado_16"/><g id="Grupo_2" transform="translate(1310 -5601.04)"><path class="st0" d="M26.7 9.2h6.4V3.7S25.3 0 17.5 0 1.9 3.7 1.9 3.7v5.5h24.8zm-9.2-6.4c1 0 1.8.8 1.8 1.8s-.8 1.8-1.8 1.8-1.8-.8-1.8-1.8.8-1.8 1.8-1.8z" id="Trazado_12"/><path class="st0" d="M4.7 9.2h3.7v16.5H4.7V9.2z" id="Trazado_13"/><path class="st0" d="M26.7 9.2h3.7v16.5h-3.7V9.2z" id="Trazado_14"/><path class="st0" d="M31.2 25.7H3.7v3.7h27.5v-3.7z" id="Trazado_15"/><path class="st1" d="M33.3 2.8 17.7-.9h-.4L1.7 2.8c-.4.1-.7.4-.7.9v5.5c0 .5.4.9.9.9h2.5v14.7c-.5 0-1.5.4-1.5.9v2.8h-1c-.5 0-.9.4-.9.9V33c0 .5.4.9.9.9h31.2c.5 0 .9-.4.9-.9v-3.7c0-.5-.4-.9-.9-.9h-.9v-2.8c0-.5-.9-.9-1.4-.9V10.1h2.4c.5 0 .9-.4.9-.9V3.7c-.1-.5-.4-.8-.8-.9zm-28 7.3h2.1v14.7H5.3V10.1zm21.3 0v14.7H8.3V10.1h18.3zM33.1 33H1.8v-3.7H33l.1 3.7zM3.8 28.4v-2.8h27.5v2.8H3.8zm26-3.7h-2.2V10.1h2.2v14.6zm3.3-15.5H1.9V3.7L17.5.2l15.6 3.5v5.5z" id="Trazado_17"/><circle class="st1" cx="17.5" cy="4.4" r="2.7" id="Elipse_3"/><circle cx="17.5" cy="4.4" r="1.8" style="fill:#fff" id="Elipse_4"/><g style="enable-background:new"><path d="M18 21.4v1.3h-.9v-1.3c-.8 0-1.6-.2-2.3-.6v-1.7c.2.2.6.4 1.1.5s.9.3 1.2.3v-2.2c-.9-.4-1.6-.7-1.9-1.1-.3-.4-.5-.9-.5-1.5s.2-1.2.7-1.6c.4-.4 1-.7 1.8-.8v-1.1h.8v1.1c.9 0 1.5.2 1.9.4v1.6c-.6-.3-1.2-.6-1.9-.6v2.3c.9.3 1.5.7 1.9 1.1.4.4.6.9.6 1.5 0 .7-.2 1.2-.6 1.6-.5.4-1.1.7-1.9.8zm-.9-5.4v-1.9c-.6.1-.8.4-.8.9 0 .4.2.8.8 1zm.9 2.1v1.8c.6-.1.9-.4.9-.9 0-.3-.3-.7-.9-.9z" style="fill:#f4c500"/></g></g></g></svg>