<svg version="1.1" id="Layer_1" xmlns="http://www.w3.org/2000/svg" x="0" y="0" width="33" height="34.8" viewBox="19.9 -1.3 33 34.8" style="enable-background:new 19.9-1.3 33 34.8" xml:space="preserve"><style>.st0{fill:#b1b7bf}.st1{fill:#34444d}</style><g id="Grupo_3" transform="translate(-1075 5601.04)"><path class="st0" d="M1125.2-5575.7h-27.5v3.7h27.5v-3.7z" id="Trazado_7"/><path class="st0" d="M1127-5572.1h-31.3v3.7h31.3v-3.7z" id="Trazado_8"/><g id="Grupo_1" transform="translate(1075 -5601.04)"><path class="st0" d="M45.6 8.8H52V3.3S44.2-.4 36.4-.4 20.8 3.3 20.8 3.3v5.5h24.8zm-9.2-6.4c1 0 1.8.8 1.8 1.8S37.4 6 36.4 6s-1.8-.8-1.8-1.8.8-1.8 1.8-1.8z" id="Trazado_4"/><path class="st0" d="M23.6 8.8h3.7v16.5h-3.7V8.8z" id="Trazado_5"/><path class="st0" d="M45.6 8.8h3.7v16.5h-3.7V8.8z" id="Trazado_6"/><path class="st1" d="M52.2 2.4 36.6-1.3h-.4L20.6 2.4c-.4.1-.7.5-.7.9v5.5c0 .5.4.9.9.9h2.5v14.7c-.5 0-1.5.4-1.5.9V28h-.9c-.5 0-.9.4-.9.9v3.7c0 .5.4.9.9.9h31.2c.5 0 .9-.4.9-.9V29c0-.5-.4-.9-.9-.9h-.9v-2.7c0-.5-.9-.9-1.4-.9V9.7H52c.5 0 .9-.4.9-.9V3.3c0-.4-.3-.8-.7-.9zm-28 7.3h2.1v14.7h-2.1V9.7zm21.3 0v14.7H27.2V9.7h18.3zM52 32.6H20.7V29H52v3.6zM22.7 28v-2.7h27.5V28H22.7zm26-3.6h-2.2V9.7h2.2v14.7zM52 8.8H20.8V3.3L36.4-.2 52 3.3v5.5z" id="Trazado_9"/><circle class="st1" cx="36.4" cy="4.1" r="2.7" id="Elipse_1"/><circle cx="36.4" cy="4.1" r="1.8" style="fill:#fff" id="Elipse_2"/><g style="enable-background:new"><path d="M38.6 20.7c-.5.3-1.1.4-1.9.4-.9 0-1.7-.3-2.2-.8-.6-.5-1-1.2-1.1-2.2h-.7V17h.6v-.9h-.6V15h.8c.2-.9.6-1.7 1.3-2.2.6-.5 1.4-.8 2.3-.8.7 0 1.2.1 1.6.3V14c-.5-.4-1-.5-1.5-.5-.4 0-.8.1-1.2.4-.3.3-.6.7-.7 1.2h2.6v1.1H35v.9h2.8v1.2h-2.6c.3 1 .9 1.5 1.8 1.5.6 0 1.1-.2 1.6-.5v1.4z" style="fill:#f4c500"/></g></g></g></svg>