<svg xmlns="http://www.w3.org/2000/svg" width="50" height="20.428" viewBox="0 0 50 20.428">
  <g id="Grupo_3129" data-name="Grupo 3129" transform="translate(-34.184 -0.544)">
    <path id="path6" d="M38.789,3.373l-4.324-.04V6.2h7.166l-7.448,9.547v2.428h4.605v2.8h2.763v-2.8h4.7a.74.74,0,0,0-.2-.69,6.711,6.711,0,0,1-1.047-1.548c-.138-.269-.243-.593-.282-.619-.925-.042-6.247-.031-6.244-.065l7.454-9.6V3.373H41.553V.544H38.789Z" transform="translate(0)" fill="#6c1cd3"/>
    <path id="path8" d="M60.522,2.143c-.066.026-.086,1.48-.086,6.987,0,7.441-.007,7.317.323,7.954a2.931,2.931,0,0,0,1.829,1.3,7.689,7.689,0,0,0,2.269.026c.652-.138.777-.336.52-.843a5.584,5.584,0,0,1-.434-1.388c-.072-.453-.164-.526-.717-.513a2.031,2.031,0,0,1-.559-.039c-.269-.172-.269-.217-.269-6.882,0-4.283-.02-6.435-.066-6.519-.065-.118-.151-.125-1.4-.118C61.2,2.1,60.561,2.123,60.522,2.143Z" transform="translate(-1.778 -0.106)" fill="#6c1cd3"/>
    <path id="path10" d="M66.992,2.162c-.086.053-.1.895-.1,6.921,0,6.493.007,6.889.125,7.343a2.542,2.542,0,0,0,1.691,1.842,2.887,2.887,0,0,0,1.276.2,3.856,3.856,0,0,0,2.006-.3c.5-.243.514-.415.086-1.039-.171-.25-.434-.678-.579-.948l-.263-.493-.48-.007c-.6-.013-.658-.039-.77-.323-.086-.19-.1-1.171-.1-6.612,0-4.283-.02-6.435-.065-6.519-.066-.118-.152-.125-1.4-.125A9.387,9.387,0,0,0,66.992,2.162Z" transform="translate(-2.215 -0.105)" fill="#6c1cd3"/>
    <path id="path12" d="M85.712,3.678a1.3,1.3,0,0,0-.817,1.25,1.27,1.27,0,0,0,.613,1.151,1.444,1.444,0,0,0,1.763-.211,1.391,1.391,0,0,0-.237-2.052A1.57,1.57,0,0,0,85.712,3.678Zm1.053.244a1.135,1.135,0,0,1,.224,1.894.961.961,0,0,1-.875.25,1.152,1.152,0,0,1-.3-2.2A1.09,1.09,0,0,1,86.764,3.922Z" transform="translate(-3.434 -0.206)" fill="#6c1cd3"/>
    <path id="path14" d="M85.817,4.26a7.354,7.354,0,0,0-.007,1.427.153.153,0,0,0,.131.105c.066,0,.092-.091.092-.328,0-.3.013-.329.151-.329.105,0,.2.091.342.329.118.2.237.328.31.328.158,0,.151-.026-.092-.381-.145-.211-.185-.31-.125-.329a.549.549,0,0,0,.336-.441c0-.3-.211-.427-.684-.427A1.259,1.259,0,0,0,85.817,4.26Zm.8.211a.213.213,0,0,1,.065.211c-.02.138-.059.158-.328.177l-.316.02v-.23c0-.23.007-.237.25-.237A.775.775,0,0,1,86.613,4.47Z" transform="translate(-3.494 -0.249)" fill="#6c1cd3"/>
    <path id="path16" d="M51.3,6.576c-.033.013-.289.072-.559.131a5.512,5.512,0,0,0-3.816,3.329,6.8,6.8,0,0,0-.48,2.658,6.02,6.02,0,0,0,.968,3.573A5.623,5.623,0,0,0,50.738,18.6a5.862,5.862,0,0,0,1.842.151A5.881,5.881,0,0,0,54.4,18.6a6.869,6.869,0,0,0,2.941-1.612c.506-.474.5-.605-.014-1a8.2,8.2,0,0,1-.842-.8c-.316-.336-.506-.493-.605-.493a1.105,1.105,0,0,0-.506.329,3.858,3.858,0,0,1-2.757.934,2.962,2.962,0,0,1-2.336-.848,3.482,3.482,0,0,1-.631-1.289l-.039-.244h4.1c2.257,0,4.145-.026,4.191-.059.217-.138.27-1.093.112-2.132a5.352,5.352,0,0,0-4.2-4.716,5.569,5.569,0,0,0-1.494-.125C51.791,6.55,51.337,6.563,51.3,6.576Zm1.756,2.54a2.784,2.784,0,0,1,1.349.743A2.92,2.92,0,0,1,54.988,11l.047.211H49.672L49.719,11a2.583,2.583,0,0,1,1.907-1.868A3.469,3.469,0,0,1,53.054,9.116Z" transform="translate(-0.83 -0.407)" fill="#6c1cd3"/>
    <path id="path18" d="M76.971,6.635a5.593,5.593,0,0,0-4.408,4.592,7.288,7.288,0,0,0,.428,4.3,5.44,5.44,0,0,0,4.046,3.118,6.042,6.042,0,0,0,1.776.112,7,7,0,0,0,1.592-.171,6.539,6.539,0,0,0,2.869-1.56c.579-.559.579-.585-.047-1.1a8.162,8.162,0,0,1-.861-.829c-.428-.494-.54-.5-1.02-.066a3.791,3.791,0,0,1-2.763.934,2.652,2.652,0,0,1-2.96-2.171l-.047-.171h8.336c.283-.2.178-2.362-.164-3.362a7.654,7.654,0,0,0-.388-.869,5.165,5.165,0,0,0-3.711-2.75A10.423,10.423,0,0,0,76.971,6.635Zm2.053,2.481a2.839,2.839,0,0,1,1.237.625,3.175,3.175,0,0,1,.723,1.316v.158H75.643l.046-.185A2.734,2.734,0,0,1,79.024,9.116Z" transform="translate(-2.589 -0.407)" fill="#6c1cd3"/>
  </g>
</svg>
