<svg width="50" height="33" viewBox="0 0 50 33" fill="none" xmlns="http://www.w3.org/2000/svg">
<path d="M50.0006 10.9196H0.000732422V0.86211C0.000732422 0.38603 0.386767 0 0.862835 0H49.1386C49.6147 0 50.0007 0.38603 50.0007 0.86211L50.0006 10.9196Z" fill="#82AFFF"/>
<path d="M49.1378 32.7586H0.862105C0.386035 32.7586 0 32.3726 0 31.8965V21.8391H49.9999V31.8965C49.9999 32.3727 49.6139 32.7586 49.1378 32.7586Z" fill="#82AFFF"/>
<path d="M50.0005 10.9194H0.000610352V21.8383H50.0005V10.9194Z" fill="#F5F5F5"/>
<path d="M29.3111 16.1637H26.2072C26.2651 16.1197 26.3109 16.0765 26.3523 16.0357C26.4281 15.9615 26.4883 15.9027 26.6482 15.8369C26.8089 15.7696 26.8931 15.7688 26.9996 15.7671C27.128 15.7662 27.2733 15.7638 27.5107 15.666C27.7477 15.5675 27.8512 15.4664 27.9426 15.3773C28.0184 15.3031 28.0786 15.2443 28.2389 15.1777C28.3984 15.1112 28.4823 15.1103 28.5882 15.1095C28.7162 15.1077 28.8614 15.1062 29.0988 15.0076L28.9329 14.6102C28.7735 14.6767 28.6896 14.6776 28.5836 14.6783C28.4556 14.6801 28.3105 14.6817 28.0735 14.7794C27.8366 14.878 27.7329 14.979 27.6415 15.0682C27.5658 15.1423 27.5055 15.2012 27.3456 15.2669C27.1849 15.3343 27.1007 15.3351 26.9942 15.3367C26.8659 15.3376 26.7205 15.3401 26.4831 15.4386C26.2462 15.5363 26.1426 15.6382 26.0512 15.7274C25.9766 15.7999 25.915 15.858 25.7616 15.9229L28.201 13.4837L27.8962 13.1789L25.7004 15.3745C25.7101 15.3028 25.7127 15.2389 25.7133 15.181C25.7146 15.074 25.7155 14.9906 25.782 14.8299C25.8485 14.6692 25.9074 14.6093 25.9816 14.5336C26.0716 14.4418 26.1731 14.3375 26.2715 14.1001C26.3696 13.8627 26.3713 13.7179 26.3726 13.59C26.3739 13.4839 26.3747 13.3996 26.4408 13.2398C26.5073 13.0798 26.5658 13.02 26.6399 12.9443C26.7295 12.8525 26.8309 12.7489 26.9291 12.5123L26.531 12.3474C26.4645 12.5074 26.406 12.5671 26.3319 12.6429C26.2422 12.7347 26.1409 12.8383 26.0426 13.0748C25.9446 13.3122 25.9428 13.4571 25.9415 13.585C25.9403 13.691 25.9394 13.7753 25.8734 13.9352C25.8069 14.0959 25.748 14.1558 25.6738 14.2315C25.5837 14.3233 25.4823 14.4276 25.3838 14.665C25.2858 14.9024 25.284 15.0481 25.2825 15.176C25.2816 15.2798 25.2786 15.3637 25.2164 15.5178V12.0688H24.7854V15.1726C24.7414 15.1151 24.6983 15.0694 24.6578 15.028C24.5834 14.9522 24.5248 14.8915 24.4582 14.7317C24.3917 14.5709 24.3905 14.4867 24.3892 14.3797C24.3879 14.2517 24.3863 14.1061 24.2878 13.8687C24.1898 13.6322 24.0882 13.5286 23.9986 13.4367C23.9245 13.361 23.8661 13.3012 23.7995 13.1412C23.7334 12.9813 23.7326 12.8971 23.7313 12.791C23.73 12.663 23.7284 12.5183 23.6302 12.2817L23.2321 12.4466C23.2981 12.6066 23.299 12.69 23.3002 12.7959C23.3015 12.924 23.3032 13.0687 23.4013 13.3061C23.4994 13.5426 23.6009 13.6461 23.6906 13.738C23.7647 13.8138 23.8231 13.8736 23.8897 14.0335C23.9562 14.1943 23.9575 14.2784 23.9587 14.3855C23.96 14.5135 23.9617 14.6591 24.0601 14.8965C24.1581 15.1339 24.2597 15.2374 24.3494 15.3292C24.4224 15.4034 24.4802 15.4655 24.5451 15.6185L22.1054 13.1791L21.8006 13.4839L24.2365 15.9195C24.1029 15.8588 24.0384 15.803 23.9684 15.7351C23.8763 15.645 23.7723 15.5432 23.534 15.4447C23.2966 15.347 23.1514 15.3445 23.023 15.3428C22.9161 15.3419 22.832 15.3404 22.6699 15.273C22.5078 15.2065 22.4472 15.1476 22.3702 15.0727C22.2781 14.9834 22.1736 14.8817 21.9349 14.7822C21.6966 14.6837 21.5509 14.6821 21.4222 14.6804C21.3149 14.6786 21.2303 14.6771 21.0682 14.6097L20.9033 15.0087C21.1415 15.1072 21.2873 15.1089 21.416 15.1106C21.5233 15.1123 21.6079 15.1139 21.77 15.1813C21.9325 15.2478 21.993 15.3067 22.0701 15.3816C22.1622 15.4716 22.2666 15.5726 22.5048 15.6712C22.7431 15.7705 22.8888 15.7723 23.0171 15.7739C23.1241 15.7757 23.2081 15.7764 23.3695 15.8438C23.5307 15.9103 23.591 15.9692 23.6671 16.0434C23.7063 16.0818 23.75 16.1224 23.803 16.1638H20.6902V16.5948H24.1329C23.9969 16.6466 23.9119 16.6531 23.8143 16.6546C23.686 16.6555 23.5407 16.6579 23.3029 16.7557C23.0651 16.8542 22.9606 16.956 22.8685 17.0453C22.7918 17.1202 22.7317 17.1791 22.5704 17.2456C22.4083 17.313 22.3238 17.3147 22.2164 17.3163C22.0876 17.3181 21.942 17.3196 21.7038 17.4182C21.4651 17.5175 21.3607 17.6185 21.2685 17.7086C21.1914 17.7835 21.1309 17.8424 20.9688 17.9089L21.1337 18.3079C21.372 18.2086 21.4764 18.1076 21.5685 18.0175C21.6455 17.9426 21.7061 17.8837 21.8686 17.8172C22.0307 17.7498 22.1153 17.7482 22.2226 17.7465C22.3514 17.7447 22.497 17.7432 22.7358 17.6438C22.9732 17.5452 23.0772 17.4442 23.1693 17.3541C23.2454 17.28 23.3061 17.2211 23.4678 17.1545C23.6286 17.0871 23.7132 17.0863 23.8198 17.0847C23.8743 17.0844 23.9357 17.0808 24.0022 17.0726L21.8001 19.2743L22.1049 19.5791L24.5396 17.1448C24.4796 17.2778 24.4243 17.342 24.3561 17.4122C24.2664 17.504 24.1651 17.6083 24.0664 17.8457C23.9678 18.0831 23.9658 18.2297 23.9646 18.3575C23.9628 18.4645 23.9621 18.5486 23.8951 18.7103C23.8282 18.8728 23.7688 18.9333 23.6943 19.01C23.6042 19.1018 23.5028 19.2069 23.4038 19.4452C23.3049 19.6835 23.3032 19.8292 23.3016 19.9579C23.2998 20.0649 23.2987 20.1498 23.2318 20.3114L23.6299 20.4764C23.7288 20.2381 23.7306 20.0924 23.7322 19.9637C23.7339 19.8567 23.7351 19.7718 23.802 19.6102C23.8689 19.4477 23.9283 19.3871 24.0028 19.3105C24.0928 19.2187 24.1943 19.1135 24.2932 18.8752C24.3917 18.6378 24.3939 18.4912 24.3951 18.3634C24.3968 18.2565 24.3975 18.1724 24.4646 18.0107C24.5311 17.849 24.59 17.7892 24.6645 17.7126C24.7028 17.6734 24.7435 17.6295 24.7849 17.5764V20.6895H25.216V17.2469C25.2673 17.3826 25.2739 17.4675 25.2753 17.5653C25.2766 17.6934 25.2786 17.839 25.3772 18.0764C25.4752 18.3147 25.5771 18.4191 25.6668 18.5108C25.7412 18.5874 25.8002 18.648 25.8671 18.8096C25.934 18.9712 25.9353 19.0563 25.9369 19.1631C25.9387 19.2919 25.9403 19.4375 26.0392 19.6758C26.1381 19.9141 26.2395 20.0193 26.3296 20.111C26.404 20.1877 26.4634 20.2483 26.5304 20.4108L26.9285 20.2458C26.8296 20.0075 26.7283 19.9023 26.6381 19.8106C26.5637 19.7339 26.5043 19.6734 26.4373 19.5109C26.3704 19.3492 26.3692 19.2642 26.3675 19.1573C26.3658 19.0285 26.3642 18.8829 26.2653 18.6446C26.1667 18.4064 26.0654 18.302 25.9756 18.2103C25.9012 18.1336 25.8422 18.0731 25.7753 17.9114C25.7084 17.7507 25.7076 17.6665 25.7058 17.5595C25.7052 17.5051 25.7017 17.4436 25.6935 17.3771L27.8958 19.5792L28.2006 19.2744L26.0051 17.0793C26.0764 17.0888 26.1403 17.0916 26.1978 17.0924C26.3042 17.0933 26.3881 17.0942 26.5489 17.1606C26.7096 17.2279 26.7699 17.286 26.846 17.3609C26.9378 17.4501 27.0417 17.5519 27.2792 17.6505C27.5162 17.7482 27.6615 17.7498 27.7894 17.7507C27.8954 17.7525 27.9792 17.7531 28.1392 17.8197C28.2991 17.8854 28.3589 17.9444 28.4347 18.0185C28.5265 18.1077 28.6301 18.2095 28.867 18.3081L29.032 17.9091C28.872 17.8435 28.8122 17.7845 28.7365 17.7104C28.6447 17.6211 28.541 17.5194 28.3041 17.4207C28.0672 17.3231 27.9219 17.3214 27.794 17.3205C27.6879 17.3188 27.6041 17.3181 27.4442 17.2515C27.2834 17.185 27.2232 17.1269 27.147 17.0519C27.0552 16.9626 26.9513 16.8609 26.7138 16.7631C26.4764 16.6638 26.3312 16.662 26.2028 16.6612C26.0983 16.6595 26.0136 16.6575 25.8586 16.5947H29.3108L29.3111 16.1637Z" fill="#F09146"/>
<path d="M25.0007 18.5347C26.191 18.5347 27.1559 17.5697 27.1559 16.3794C27.1559 15.1891 26.191 14.2241 25.0007 14.2241C23.8103 14.2241 22.8454 15.1891 22.8454 16.3794C22.8454 17.5697 23.8103 18.5347 25.0007 18.5347Z" fill="#FFE15A"/>
</svg>
