<svg width="50" height="33" viewBox="0 0 50 33" fill="none" xmlns="http://www.w3.org/2000/svg">
<path d="M49.1378 32.6923H0.862108C0.386034 32.6923 0 32.3071 0 31.832V0.86036C0 0.38525 0.386034 0 0.862108 0H49.1379C49.614 0 50 0.38525 50 0.86036V31.832C49.9999 32.3072 49.6139 32.6923 49.1378 32.6923Z" fill="#41479B"/>
<path d="M24.1378 0H22.6403L14.655 5.22125V0H10.3447V5.22125L2.35937 0H0.862106C0.386034 0 0 0.38515 0 0.86026V1.54265L6.85105 6.02215H0V10.3238H6.85105L0 14.8033V15.4858C0 15.9609 0.386034 16.3461 0.862106 16.3461H2.35956L10.3449 11.1249V16.3461H14.6552V11.1249L22.6404 16.3461H24.1379C24.614 16.3461 25 15.9609 25 15.4858V14.8033L18.149 10.3238H24.9999V6.02225H18.1489L24.9999 1.54275V0.86036C24.9999 0.38515 24.6139 0 24.1378 0Z" fill="#F5F5F5"/>
<path d="M25 6.88265H13.7931V0H11.2069V6.88265H0V9.46355H11.2069V16.3461H13.7931V9.46355H25V6.88265Z" fill="#D0353E"/>
<path d="M9.61539 5.76925L0.416588 0C0.171804 0.14963 0 0.40116 0 0.70176V0.745581L8.00983 5.76925H9.61539Z" fill="#D0353E"/>
<path d="M16.0628 5.76925L25 0.413321C24.8447 0.170671 24.5706 0 24.243 0H24.05L14.4231 5.76925H16.0628Z" fill="#D0353E"/>
<path d="M8.93447 10.5769L0 15.9225C0.154065 16.171 0.432821 16.3461 0.765667 16.3461H0.934318L10.5769 10.5769H8.93447Z" fill="#D0353E"/>
<path d="M25 15.6571L16.9613 10.5769H15.3846L24.5132 16.3461C24.7866 16.2225 24.9742 15.9636 25 15.6571Z" fill="#D0353E"/>
<path d="M12.6816 21.2918L13.3191 23.4477L15.362 22.6141C15.5363 22.5429 15.6948 22.7466 15.5884 22.9048L14.3404 24.7595L16.2503 25.8759C16.4132 25.9712 16.3567 26.2251 16.1695 26.2385L13.9758 26.3954L14.3146 28.6212C14.3435 28.8111 14.1144 28.9241 13.9876 28.7825L12.5 27.1234L11.0124 28.7825C10.8856 28.924 10.6565 28.811 10.6854 28.6212L11.0242 26.3954L8.83043 26.2385C8.64329 26.2251 8.58674 25.9712 8.74968 25.8759L10.6596 24.7595L9.41156 22.9048C9.30517 22.7466 9.46361 22.5429 9.63793 22.6141L11.6809 23.4477L12.3184 21.2918C12.373 21.1078 12.6272 21.1078 12.6816 21.2918Z" fill="#F5F5F5"/>
<path d="M38.5525 5.83829L38.8712 6.91619L39.8926 6.49949C39.9796 6.46389 40.059 6.56569 40.0057 6.64479L39.3818 7.57229L40.3367 8.13049C40.4182 8.17809 40.3899 8.30509 40.2962 8.31169L39.1995 8.39009L39.3688 9.50299C39.3833 9.59799 39.2687 9.65439 39.2053 9.58359L38.4615 8.75409L37.7178 9.58359C37.6543 9.65429 37.5399 9.59789 37.5543 9.50299L37.7236 8.39009L36.6268 8.31169C36.5332 8.30509 36.5049 8.17809 36.5864 8.13049L37.5412 7.57229L36.9174 6.64479C36.8641 6.56569 36.9434 6.46389 37.0305 6.49949L38.0518 6.91619L38.3706 5.83829C38.3982 5.74629 38.5254 5.74629 38.5525 5.83829Z" fill="#F5F5F5"/>
<path d="M30.8602 13.5307L31.1789 14.6086L32.2003 14.1919C32.2873 14.1564 32.3666 14.2581 32.3134 14.3372L31.6895 15.2647L32.6444 15.8229C32.7258 15.8705 32.6975 15.9975 32.6039 16.0041L31.5072 16.0826L31.6765 17.1954C31.691 17.2904 31.5764 17.3469 31.5129 17.276L30.7692 16.4465L30.0255 17.276C29.962 17.3468 29.8475 17.2903 29.8619 17.1954L30.0313 16.0826L28.9345 16.0041C28.8409 15.9975 28.8126 15.8705 28.8941 15.8229L29.8489 15.2647L29.225 14.3372C29.1718 14.2581 29.2511 14.1564 29.3381 14.1919L30.3595 14.6086L30.6782 13.5307C30.7059 13.4387 30.833 13.4387 30.8602 13.5307Z" fill="#F5F5F5"/>
<path d="M45.2832 10.6459L45.602 11.7238L46.6234 11.3071C46.7104 11.2715 46.7897 11.3733 46.7365 11.4524L46.1126 12.3798L47.0675 12.9381C47.1489 12.9857 47.1206 13.1127 47.027 13.1193L45.9302 13.1977L46.0995 14.3106C46.114 14.4056 45.9995 14.462 45.9361 14.3912L45.1924 13.5617L44.4486 14.3912C44.3851 14.4619 44.2707 14.4055 44.2851 14.3106L44.4544 13.1977L43.3576 13.1193C43.264 13.1127 43.2357 12.9857 43.3172 12.9381L44.272 12.3798L43.6481 11.4524C43.5949 11.3733 43.6742 11.2715 43.7613 11.3071L44.7826 11.7238L45.1014 10.6459C45.1289 10.5539 45.256 10.5539 45.2832 10.6459Z" fill="#F5F5F5"/>
<path d="M38.5525 24.1076L38.8712 25.1855L39.8926 24.7687C39.9796 24.7332 40.059 24.8349 40.0057 24.9141L39.3818 25.8415L40.3367 26.3998C40.4182 26.4474 40.3899 26.5744 40.2962 26.581L39.1995 26.6594L39.3688 27.7723C39.3833 27.8673 39.2687 27.9238 39.2053 27.8529L38.4615 27.0234L37.7178 27.8529C37.6543 27.9237 37.5399 27.8672 37.5543 27.7723L37.7236 26.6594L36.6268 26.581C36.5332 26.5744 36.5049 26.4474 36.5864 26.3998L37.5412 25.8415L36.9174 24.9141C36.8641 24.8349 36.9434 24.7332 37.0305 24.7687L38.0518 25.1855L38.3706 24.1076C38.3982 24.0156 38.5254 24.0156 38.5525 24.1076Z" fill="#F5F5F5"/>
<path d="M40.7486 15.4729L40.4594 16.3805L39.5455 16.388C39.4272 16.389 39.3781 16.547 39.4734 16.6205L40.2086 17.1889L39.9328 18.101C39.8972 18.2192 40.0256 18.3168 40.1218 18.2448L40.8654 17.6884L41.609 18.2448C41.7053 18.3168 41.8336 18.219 41.798 18.101L41.5223 17.1889L42.2574 16.6205C42.3527 16.5469 42.3036 16.389 42.1853 16.388L41.2714 16.3805L40.9823 15.4729C40.9447 15.3554 40.786 15.3554 40.7486 15.4729Z" fill="#F5F5F5"/>
</svg>
