<svg width="50" height="33" viewBox="0 0 50 33" fill="none" xmlns="http://www.w3.org/2000/svg">
<path d="M49.1382 32.7586H0.862535C0.386465 32.7586 0.000427246 32.3725 0.000427246 31.8965V0.86211C0.000427246 0.38603 0.386465 0 0.862535 0H49.1383C49.6144 0 50.0004 0.38603 50.0004 0.86211V31.8965C50.0003 32.3726 49.6143 32.7586 49.1382 32.7586Z" fill="#4173CD"/>
<path d="M50.0004 22.4136H0.000488281V24.1377H50.0004V22.4136Z" fill="#FFE15A"/>
<path d="M49.9999 25.8616H0V27.5858H49.9999V25.8616Z" fill="#FFE15A"/>
<path d="M6.37077 8.56104L3.16296 7.46564L6.37077 6.37024L7.46617 3.16284L8.56148 6.37024L11.7693 7.46564L8.56148 8.56104L7.46617 11.7685L6.37077 8.56104Z" fill="#D0353E"/>
<path d="M7.46604 3.73928L8.41467 6.51708L11.1925 7.46568L8.41467 8.41438L7.46604 11.1922L6.5174 8.41438L3.73958 7.46568L6.5174 6.51708L7.46604 3.73928ZM7.46604 2.58618L7.1133 3.61878L6.22385 6.22358L3.61917 7.11298L2.58655 7.46568L3.61917 7.81828L6.22385 8.70768L7.1133 11.3124L7.46604 12.345L7.81877 11.3124L8.70822 8.70768L11.3129 7.81828L12.3455 7.46568L11.3129 7.11318L8.70822 6.22378L7.81877 3.61908L7.46604 2.58618Z" fill="#F5F5F5"/>
</svg>
