<svg width="50" height="33" viewBox="0 0 50 33" fill="none" xmlns="http://www.w3.org/2000/svg">
<path d="M0 21.8391H49.9999V31.8965C49.9999 32.3726 49.6139 32.7586 49.1378 32.7586H0.862104C0.386034 32.7586 0 32.3726 0 31.8965V21.8391Z" fill="#73AF00"/>
<path d="M0.862104 0H49.1379C49.614 0 50 0.386031 50 0.862101V10.9195H0V0.862101C0 0.386031 0.386034 0 0.862104 0Z" fill="#D0353E"/>
<path d="M49.9999 10.9194H0V21.8383H49.9999V10.9194Z" fill="#FFE15A"/>
<path d="M23.8863 11.4923C23.8863 11.4923 23.8642 11.5201 23.8226 11.5721C23.7879 11.6202 23.7358 11.694 23.679 11.7923C23.5672 11.9875 23.4498 12.2901 23.4466 12.6508C23.4454 12.8267 23.4817 13.0403 23.5417 13.2101C23.6067 13.3976 23.7147 13.5769 23.8511 13.7371C23.9877 13.8987 24.1702 14.0233 24.3654 14.1153C24.4622 14.1644 24.5685 14.1926 24.6738 14.2186C24.7261 14.2345 24.7817 14.2353 24.8354 14.2459C24.8623 14.2509 24.8902 14.2487 24.9175 14.2508L24.9587 14.2527L24.9793 14.2538L24.9896 14.2544L24.9947 14.2546L24.9973 14.2547C24.989 14.255 25.0194 14.2544 24.9793 14.2554C25.0461 14.2515 25.1272 14.251 25.1822 14.2443C25.2303 14.2331 25.2707 14.235 25.3258 14.2187C25.4313 14.1927 25.5374 14.1645 25.6342 14.1154C25.8293 14.0234 26.0119 13.8988 26.1485 13.7372C26.285 13.577 26.3929 13.3977 26.4579 13.2102C26.5202 13.0195 26.5535 12.837 26.553 12.6501C26.55 12.2909 26.4325 11.9872 26.3207 11.7922C26.2643 11.6943 26.212 11.62 26.1748 11.5699C26.1361 11.5206 26.1155 11.4941 26.1155 11.4941L26.1104 11.4876C26.0731 11.4401 26.0815 11.3716 26.129 11.3344C26.1665 11.3051 26.2173 11.3043 26.2551 11.3285C26.2551 11.3285 26.2869 11.3489 26.3466 11.3871C26.403 11.4295 26.4905 11.4893 26.5848 11.5862C26.7739 11.7735 27.0194 12.1071 27.108 12.5919C27.1519 12.8239 27.1566 13.1046 27.0962 13.3804C27.0376 13.6591 26.9187 13.9473 26.7269 14.1995C26.5384 14.4528 26.2852 14.6768 25.9841 14.8279C25.8355 14.9071 25.6739 14.9646 25.5081 15.0046C25.4286 15.028 25.3277 15.0377 25.2379 15.0518C25.1537 15.0611 25.0938 15.0613 25.0205 15.0665L24.992 15.0666L24.984 15.0662L24.968 15.0654L24.9359 15.0637L24.8718 15.0603C24.8291 15.0569 24.7862 15.0575 24.7439 15.0502C24.6597 15.0353 24.5739 15.0284 24.4917 15.0046C24.3259 14.9647 24.1642 14.9071 24.0157 14.8279C23.7147 14.6768 23.4614 14.4527 23.273 14.1995C23.0812 13.9472 22.9623 13.659 22.9036 13.3804C22.8409 13.0836 22.8487 12.8339 22.8919 12.591C22.9803 12.1077 23.226 11.7729 23.415 11.586C23.5089 11.4895 23.5967 11.4291 23.6556 11.3847C23.7122 11.3492 23.7425 11.3301 23.7425 11.3301C23.7939 11.2979 23.8616 11.3133 23.8939 11.3647C23.9192 11.4055 23.9147 11.4568 23.8863 11.4923Z" fill="#73AF00"/>
<path d="M24.7833 20.0771V21.4414C24.7833 21.5776 24.6188 21.6457 24.5226 21.5495L24.4475 21.4744C24.3851 21.412 24.35 21.3275 24.35 21.2393V20.0771H24.7833Z" fill="#D0353E"/>
<path d="M24.1334 19.8606V20.8509C24.1334 20.9104 24.1571 20.9675 24.1993 21.0096L24.3506 21.1605V19.8606H24.1334Z" fill="#FFE15A"/>
<path d="M23.9167 19.8606V20.392C23.9167 20.4679 23.947 20.5407 24.0006 20.5943L24.1339 20.7272V19.8606H23.9167Z" fill="#73AF00"/>
<path d="M25.2167 20.0771V21.4414C25.2167 21.5776 25.3813 21.6457 25.4775 21.5495L25.5526 21.4744C25.615 21.412 25.65 21.3275 25.65 21.2393V20.0771H25.2167Z" fill="#D0353E"/>
<path d="M25.8671 19.8606V20.8509C25.8671 20.9104 25.8434 20.9675 25.8012 21.0096L25.6499 21.1605V19.8606H25.8671Z" fill="#FFE15A"/>
<path d="M26.0837 19.8606V20.392C26.0837 20.4679 26.0535 20.5407 25.9998 20.5943L25.8666 20.7272V19.8606H26.0837Z" fill="#73AF00"/>
<path d="M26.0831 15.9607L28.4662 14.2275V17.7917C28.4662 18.8146 27.637 19.6437 26.6143 19.6437C26.2672 19.6437 25.9271 19.5461 25.6327 19.3622L24.35 18.5605V15.9306L26.0831 15.9607Z" fill="#D0353E"/>
<path d="M27.5997 14.8579V17.3586C27.5997 18.3815 26.7705 19.2106 25.7478 19.2106C25.594 19.2106 25.4424 19.1884 25.2946 19.151L24.35 18.5606V15.9307L26.0832 15.9608L27.5997 14.8579Z" fill="#FFE15A"/>
<path d="M26.9498 15.3306V16.945C26.9498 17.9678 26.1206 18.7969 25.0979 18.7969C24.9441 18.7969 24.7924 18.7748 24.6447 18.7374L24.35 18.5532V15.9308L26.0832 15.9609L26.9498 15.3306Z" fill="#73AF00"/>
<path d="M28.5961 13.8376L29.5494 13.3611L28.8561 14.2276H28.4661L28.5961 13.8376Z" fill="#F5F5F5"/>
<path d="M27.383 17.044L29.7661 15.3108V18.875C29.7661 19.8979 28.9369 20.727 27.9142 20.727C27.5671 20.727 27.2269 20.6294 26.9326 20.4456L25.6499 19.6438V17.014L27.383 17.044Z" fill="#D0353E"/>
<path d="M28.2497 16.4138V18.0282C28.2497 19.051 27.4205 19.8801 26.3978 19.8801C26.2439 19.8801 26.0924 19.8579 25.9446 19.8205L25.6499 19.6364V17.014L27.3831 17.0441L28.2497 16.4138Z" fill="#73AF00"/>
<path d="M29.8961 14.921L30.8494 14.4443L30.156 15.3109H29.7661L29.8961 14.921Z" fill="#F5F5F5"/>
<path d="M26.7331 16.6106L29.1162 14.8774V18.4416C29.1162 19.4645 28.287 20.2936 27.2642 20.2936C26.9171 20.2936 26.577 20.196 26.2827 20.0121L25 19.2104V16.5805L26.7331 16.6106Z" fill="#D0353E"/>
<path d="M28.2498 15.5078V18.0085C28.2498 19.0314 27.4206 19.8605 26.3978 19.8605C26.244 19.8605 26.0924 19.8383 25.9447 19.8009L25 19.2106V16.5807L26.7332 16.6108L28.2498 15.5078Z" fill="#FFE15A"/>
<path d="M27.5998 15.9805V17.5949C27.5998 18.6177 26.7706 19.4468 25.7478 19.4468C25.594 19.4468 25.4424 19.4247 25.2947 19.3873L25 19.2032V16.5808L26.7332 16.6109L27.5998 15.9805Z" fill="#73AF00"/>
<path d="M29.2463 14.4876L30.1995 14.011L29.5062 14.8776H29.1163L29.2463 14.4876Z" fill="#F5F5F5"/>
<path d="M23.9167 15.9607L21.5336 14.2275V17.7917C21.5336 18.8146 22.3628 19.6437 23.3856 19.6437C23.7326 19.6437 24.0728 19.5461 24.3671 19.3622L25.6498 18.5605V15.9306L23.9167 15.9607Z" fill="#D0353E"/>
<path d="M22.4001 14.8579V17.3586C22.4001 18.3815 23.2293 19.2106 24.2521 19.2106C24.4059 19.2106 24.5575 19.1884 24.7052 19.151L25.6499 18.5606V15.9307L23.9166 15.9608L22.4001 14.8579Z" fill="#FFE15A"/>
<path d="M23.0502 15.3306V16.945C23.0502 17.9678 23.8794 18.7969 24.9022 18.7969C25.056 18.7969 25.2076 18.7748 25.3553 18.7374L25.65 18.5532V15.9308L23.9168 15.9609L23.0502 15.3306Z" fill="#73AF00"/>
<path d="M21.4035 13.8376L20.4503 13.3611L21.1437 14.2276H21.5335L21.4035 13.8376Z" fill="#F5F5F5"/>
<path d="M22.6167 17.044L20.2336 15.3108V18.875C20.2336 19.8979 21.0628 20.727 22.0856 20.727C22.4326 20.727 22.7728 20.6294 23.0671 20.4456L24.3498 19.6438V17.014L22.6167 17.044Z" fill="#D0353E"/>
<path d="M21.7502 16.4138V18.0282C21.7502 19.051 22.5794 19.8801 23.6021 19.8801C23.756 19.8801 23.9075 19.8579 24.0553 19.8205L24.35 19.6364V17.014L22.6168 17.0441L21.7502 16.4138Z" fill="#73AF00"/>
<path d="M20.1036 14.921L19.1504 14.4443L19.8438 15.3109H20.2336L20.1036 14.921Z" fill="#F5F5F5"/>
<path d="M23.2668 16.6106L20.8837 14.8774V18.4416C20.8837 19.4645 21.7129 20.2936 22.7356 20.2936C23.0827 20.2936 23.4228 20.196 23.7172 20.0121L24.9999 19.2104V16.5805L23.2668 16.6106Z" fill="#D0353E"/>
<path d="M21.7502 15.5078V18.0085C21.7502 19.0314 22.5794 19.8605 23.6021 19.8605C23.756 19.8605 23.9075 19.8383 24.0553 19.8009L24.9999 19.2105V16.5806L23.2667 16.6107L21.7502 15.5078Z" fill="#FFE15A"/>
<path d="M22.4001 15.9805V17.5949C22.4001 18.6177 23.2293 19.4468 24.2521 19.4468C24.4059 19.4468 24.5575 19.4247 24.7052 19.3873L25 19.2031V16.5807L23.2667 16.6108L22.4001 15.9805Z" fill="#73AF00"/>
<path d="M22.1627 19.8317L21.8771 19.546C21.704 19.3729 21.7085 19.0906 21.8875 18.9232L26.6157 14.4802L27.2285 15.093L22.7855 19.8212C22.6182 20.0002 22.336 20.005 22.1627 19.8317Z" fill="#FFBE5A"/>
<path d="M22.0206 19.9056C22.1402 19.9056 22.2372 19.8086 22.2372 19.689C22.2372 19.5693 22.1402 19.4724 22.0206 19.4724C21.901 19.4724 21.804 19.5693 21.804 19.689C21.804 19.8086 21.901 19.9056 22.0206 19.9056Z" fill="#FFBE5A"/>
<path d="M27.0756 14.6342C26.9064 14.4651 26.7007 14.3965 26.6161 14.4811C26.5315 14.5657 26.6001 14.7714 26.7693 14.9406C26.9385 15.1097 27.1442 15.1783 27.2288 15.0937C27.3134 15.0091 27.2448 14.8034 27.0756 14.6342Z" fill="#F5F5F5"/>
<path d="M27.8369 19.8317L28.1226 19.546C28.2957 19.3729 28.2911 19.0906 28.1122 18.9232L23.384 14.4802L22.7712 15.093L27.2142 19.8212C27.3816 20.0002 27.6638 20.005 27.8369 19.8317Z" fill="#FFBE5A"/>
<path d="M27.9795 19.9056C28.0992 19.9056 28.1961 19.8086 28.1961 19.689C28.1961 19.5693 28.0992 19.4724 27.9795 19.4724C27.8599 19.4724 27.7629 19.5693 27.7629 19.689C27.7629 19.8086 27.8599 19.9056 27.9795 19.9056Z" fill="#FFBE5A"/>
<path d="M23.2316 14.9407C23.4008 14.7716 23.4693 14.5658 23.3847 14.4813C23.3002 14.3967 23.0944 14.4652 22.9253 14.6344C22.7561 14.8036 22.6875 15.0093 22.7721 15.0939C22.8567 15.1785 23.0624 15.1099 23.2316 14.9407Z" fill="#F5F5F5"/>
<path d="M25 19.6443C26.058 19.6443 26.9156 18.6258 26.9156 17.3695C26.9156 16.1131 26.058 15.0947 25 15.0947C23.942 15.0947 23.0844 16.1131 23.0844 17.3695C23.0844 18.6258 23.942 19.6443 25 19.6443Z" fill="#FFBE5A"/>
<path d="M24.9998 15.3108L25.1016 15.7522L25.3347 15.3638L25.295 15.815L25.6366 15.5177L25.4595 15.9345L25.8763 15.7574L25.5789 16.0991L26.0301 16.0593L25.6418 16.2924L26.0831 16.3941L25.6418 16.4958L26.0301 16.7289L25.5789 16.6892L25.8763 17.0307L25.4595 16.8537L25.6366 17.2705L25.295 16.9732L25.3347 17.4243L25.1016 17.036L24.9998 17.4773L24.8983 17.036L24.6652 17.4243L24.7048 16.9732L24.3632 17.2705L24.5403 16.8537L24.1236 17.0307L24.4208 16.6892L23.9698 16.7289L24.3579 16.4958L23.9167 16.3941L24.3579 16.2924L23.9698 16.0593L24.4208 16.0991L24.1236 15.7574L24.5403 15.9345L24.3632 15.5177L24.7048 15.815L24.6652 15.3638L24.8983 15.7522L24.9998 15.3108Z" fill="#D0353E"/>
<path d="M27.3963 17.3284C27.3963 17.3284 26.6787 17.5179 26.2116 17.1252C25.6924 16.6888 25.3032 16.4828 25.1364 16.4054C25.0793 16.3789 25.0154 16.3789 24.9582 16.4053C24.8386 16.4605 24.6187 16.5748 24.4242 16.7461C24.1398 16.9967 23.2665 17.4909 23.0905 17.4909V18.5679L24.4648 19.7589L26.0897 19.7115L27.3963 17.3284Z" fill="#73AF00"/>
<path d="M24.9999 20.1855C23.626 20.1855 22.5084 18.922 22.5084 17.3691C22.5084 15.8161 23.6259 14.5527 24.9999 14.5527C26.3738 14.5527 27.4914 15.8161 27.4914 17.3691C27.4914 18.922 26.3737 20.1855 24.9999 20.1855ZM24.9999 15.2026C23.9844 15.2026 23.1584 16.1745 23.1584 17.3691C23.1584 18.5636 23.9844 19.5356 24.9999 19.5356C26.0153 19.5356 26.8414 18.5636 26.8414 17.3691C26.8414 16.1745 26.0153 15.2026 24.9999 15.2026Z" fill="#3CC8FF"/>
<path d="M24.6273 19.5966L24.6751 19.7397L24.826 19.7409C24.8455 19.741 24.8535 19.766 24.8379 19.7775L24.7166 19.8672L24.7621 20.011C24.7681 20.0297 24.7468 20.0451 24.7309 20.0337L24.6081 19.946L24.4854 20.0337C24.4695 20.045 24.4482 20.0296 24.4541 20.011L24.4996 19.8672L24.3783 19.7775C24.3626 19.7659 24.3707 19.741 24.3902 19.7409L24.5411 19.7397L24.5889 19.5966C24.595 19.5781 24.6212 19.5781 24.6273 19.5966Z" fill="#FFBE5A"/>
<path d="M23.9503 19.3055L23.9981 19.4486L24.149 19.4497C24.1685 19.4498 24.1765 19.4748 24.1609 19.4864L24.0396 19.576L24.0851 19.7199C24.0911 19.7385 24.0698 19.7539 24.0538 19.7425L23.9311 19.6548L23.8083 19.7425C23.7925 19.7538 23.7712 19.7384 23.7771 19.7199L23.8226 19.576L23.7013 19.4864C23.6856 19.4747 23.6937 19.4498 23.7132 19.4497L23.8641 19.4486L23.9119 19.3055C23.918 19.2869 23.9442 19.2869 23.9503 19.3055Z" fill="#FFBE5A"/>
<path d="M23.4063 18.8113L23.4541 18.9544L23.6049 18.9555C23.6245 18.9556 23.6325 18.9806 23.6169 18.9921L23.4956 19.0818L23.5411 19.2256C23.547 19.2443 23.5257 19.2597 23.5098 19.2483L23.3871 19.1606L23.2643 19.2483C23.2485 19.2596 23.2272 19.2442 23.2331 19.2256L23.2786 19.0818L23.1573 18.9921C23.1416 18.9805 23.1497 18.9556 23.1692 18.9555L23.3201 18.9544L23.3678 18.8113C23.374 18.7927 23.4002 18.7927 23.4063 18.8113Z" fill="#FFBE5A"/>
<path d="M23.036 18.1534L23.0838 18.2964L23.2347 18.2976C23.2542 18.2977 23.2622 18.3227 23.2466 18.3342L23.1253 18.4239L23.1708 18.5677C23.1768 18.5864 23.1555 18.6018 23.1395 18.5904L23.0168 18.5027L22.894 18.5904C22.8782 18.6017 22.8569 18.5863 22.8628 18.5677L22.9083 18.4239L22.787 18.3342C22.7713 18.3226 22.7794 18.2977 22.7989 18.2976L22.9498 18.2964L22.9976 18.1534C23.0037 18.1348 23.0299 18.1348 23.036 18.1534Z" fill="#FFBE5A"/>
<path d="M22.8709 17.3886L22.9187 17.5317L23.0695 17.5329C23.0891 17.533 23.0971 17.558 23.0815 17.5695L22.9602 17.6592L23.0057 17.803C23.0116 17.8217 22.9903 17.8371 22.9744 17.8257L22.8517 17.738L22.7289 17.8257C22.7131 17.837 22.6918 17.8216 22.6977 17.803L22.7432 17.6592L22.6219 17.5695C22.6062 17.5579 22.6143 17.533 22.6338 17.5329L22.7847 17.5317L22.8324 17.3886C22.8385 17.3701 22.8648 17.3701 22.8709 17.3886Z" fill="#FFBE5A"/>
<path d="M25.3731 19.5966L25.3254 19.7397L25.1745 19.7409C25.155 19.741 25.1469 19.766 25.1626 19.7775L25.2839 19.8672L25.2384 20.011C25.2324 20.0297 25.2537 20.0451 25.2696 20.0337L25.3924 19.946L25.5151 20.0337C25.5309 20.045 25.5522 20.0296 25.5464 20.011L25.5009 19.8672L25.6222 19.7775C25.6379 19.7659 25.6298 19.741 25.6102 19.7409L25.4594 19.7397L25.4116 19.5966C25.4055 19.5781 25.3793 19.5781 25.3731 19.5966Z" fill="#FFBE5A"/>
<path d="M26.0501 19.3055L26.0024 19.4486L25.8515 19.4497C25.832 19.4498 25.8239 19.4748 25.8396 19.4864L25.9609 19.576L25.9153 19.7199C25.9094 19.7385 25.9307 19.7539 25.9466 19.7425L26.0694 19.6548L26.1921 19.7425C26.2079 19.7538 26.2292 19.7384 26.2234 19.7199L26.1778 19.576L26.2991 19.4864C26.3149 19.4747 26.3068 19.4498 26.2872 19.4497L26.1363 19.4486L26.0886 19.3055C26.0824 19.2869 26.0563 19.2869 26.0501 19.3055Z" fill="#FFBE5A"/>
<path d="M26.5941 18.8113L26.5464 18.9544L26.3955 18.9555C26.376 18.9556 26.368 18.9806 26.3836 18.9921L26.5049 19.0818L26.4594 19.2256C26.4534 19.2443 26.4747 19.2597 26.4906 19.2483L26.6134 19.1606L26.7361 19.2483C26.7519 19.2596 26.7732 19.2442 26.7674 19.2256L26.7219 19.0818L26.8432 18.9921C26.8589 18.9805 26.8508 18.9556 26.8312 18.9555L26.6804 18.9544L26.6326 18.8113C26.6266 18.7927 26.6003 18.7927 26.5941 18.8113Z" fill="#FFBE5A"/>
<path d="M26.965 18.1534L26.9173 18.2964L26.7664 18.2976C26.7469 18.2977 26.7389 18.3227 26.7545 18.3342L26.8758 18.4239L26.8303 18.5677C26.8243 18.5864 26.8456 18.6018 26.8615 18.5904L26.9843 18.5027L27.107 18.5904C27.1229 18.6017 27.1441 18.5863 27.1383 18.5677L27.0928 18.4239L27.2141 18.3342C27.2298 18.3226 27.2217 18.2977 27.2021 18.2976L27.0513 18.2964L27.0035 18.1534C26.9974 18.1348 26.9712 18.1348 26.965 18.1534Z" fill="#FFBE5A"/>
<path d="M27.1287 17.3886L27.0809 17.5317L26.9301 17.5329C26.9105 17.533 26.9025 17.558 26.9182 17.5695L27.0394 17.6592L26.9939 17.803C26.988 17.8216 27.0093 17.8371 27.0252 17.8257L27.1479 17.738L27.2707 17.8257C27.2865 17.837 27.3078 17.8216 27.3019 17.803L27.2564 17.6592L27.3777 17.5695C27.3934 17.5579 27.3853 17.533 27.3658 17.5329L27.2149 17.5317L27.1672 17.3886C27.1611 17.3701 27.1349 17.3701 27.1287 17.3886Z" fill="#FFBE5A"/>
<path d="M24.0587 18.7578L24.1307 19.1022H24.1617V18.8672C24.1617 18.8672 24.2129 19.0311 24.2854 19.1022H24.344C24.3159 19.0661 24.2655 18.9914 24.2655 18.914C24.2655 18.8075 24.3503 18.7929 24.3503 18.6789H24.423V19.1021H24.4654L24.5441 18.725C24.5441 18.725 24.609 18.9609 24.7311 19.1021H24.7854C24.7462 19.0446 24.6648 18.8961 24.6798 18.6717C24.6798 18.6717 24.7961 18.6135 24.7961 18.4561V18.2321C24.7961 18.1902 24.8302 18.1561 24.8721 18.1561H24.9243C24.9243 18.1561 24.8466 18.0053 24.7635 17.9834V17.8889L24.7009 17.9835C24.6411 17.9964 24.6059 18.0517 24.6059 18.1109V18.2473C24.6059 18.2892 24.5719 18.3233 24.5299 18.3233H24.2583C24.1779 18.3233 24.0491 18.4037 24.0491 18.5067C24.0491 18.6097 24.1264 18.6773 24.1264 18.6773L24.0587 18.7578Z" fill="#F5F5F5"/>
<path d="M25.2753 18.4148H25.2504C25.0535 18.4255 24.9435 18.555 24.9435 18.555L25.1432 18.7547V19.1305H25.3822V18.7547L25.5819 18.555C25.5819 18.555 25.4721 18.4255 25.2753 18.4148Z" fill="#FFBE5A"/>
<path d="M25.7681 17.8003H25.6957V19.1317H25.7681V17.8003Z" fill="#F5F5F5"/>
<path d="M25.7336 17.7898L25.3443 18.2604C25.3443 18.2604 25.2935 18.0336 25.5204 17.8102L25.0194 17.9016C25.0194 17.9016 25.1717 17.6173 25.5711 17.6477L25.1616 17.3058C25.1616 17.3058 25.5136 17.2856 25.693 17.5496C25.693 17.5496 25.7945 17.245 26.0789 17.2314L25.8442 17.588C25.8442 17.588 26.0789 17.4683 26.4039 17.5733L25.9198 17.702C25.9198 17.702 26.1906 17.7291 26.3023 18.1252L25.8826 17.8375C25.8826 17.8375 26.0113 17.9898 25.9638 18.2877L25.7336 17.7898Z" fill="#F5F5F5"/>
<path d="M20.7537 14.4876L19.8004 14.011L20.4937 14.8776H20.8837L20.7537 14.4876Z" fill="#F5F5F5"/>
<path d="M25.6776 13.9358L28.2496 13.1444L26.8843 12.6325C26.6411 12.5412 26.3834 12.4946 26.1236 12.4946H25.8665C25.7469 12.4946 25.6499 12.5916 25.6499 12.7112V12.9278H24.9998H24.3499V12.7112C24.3499 12.5916 24.2529 12.4946 24.1333 12.4946H23.8762C23.6164 12.4946 23.3587 12.5414 23.1155 12.6325L21.7502 13.1444L24.3222 13.9358C24.4501 13.9752 24.512 14.12 24.4522 14.2398L24.1333 14.8776H25.8665L25.5476 14.2398C25.4877 14.1201 25.5496 13.9753 25.6776 13.9358Z" fill="#825546"/>
<path d="M25 13.5771C25.2392 13.5771 25.4332 13.3832 25.4332 13.1439C25.4332 12.9047 25.2392 12.7107 25 12.7107C24.7607 12.7107 24.5668 12.9047 24.5668 13.1439C24.5668 13.3832 24.7607 13.5771 25 13.5771Z" fill="#F5F5F5"/>
<path d="M25.2166 13.1444C25.2166 13.264 25.1196 13.361 25 13.361H24.1334L24.5032 12.9912C24.5439 12.9505 24.5989 12.9277 24.6565 12.9277H24.9999C25.1196 12.9278 25.2166 13.0248 25.2166 13.1444Z" fill="#FFBE5A"/>
</svg>
