<svg width="50" height="33" viewBox="0 0 50 33" fill="none" xmlns="http://www.w3.org/2000/svg">
<path d="M49.1378 32.7586H0.862111C0.386034 32.7586 0 32.3726 0 31.8965V0.862101C0 0.386031 0.386034 0 0.862111 0H49.1379C49.6139 0 50 0.386031 50 0.862101V31.8965C49.9999 32.3727 49.6138 32.7586 49.1378 32.7586Z" fill="#73AF00"/>
<path d="M24.5518 4.58322L6.38227 15.6428C5.83042 15.9787 5.83042 16.7796 6.38227 17.1156L24.5518 28.1753C24.8271 28.3429 25.1729 28.3429 25.4483 28.1753L43.6179 17.1157C44.1697 16.7798 44.1697 15.9789 43.6179 15.6429L25.4483 4.58322C25.173 4.41562 24.8271 4.41562 24.5518 4.58322Z" fill="#FFE15A"/>
<path d="M25 23.2758C28.8088 23.2758 31.8965 20.1882 31.8965 16.3794C31.8965 12.5705 28.8088 9.48291 25 9.48291C21.1912 9.48291 18.1035 12.5705 18.1035 16.3794C18.1035 20.1882 21.1912 23.2758 25 23.2758Z" fill="#41479B"/>
<path d="M19.0819 12.8512C18.7565 13.396 18.5052 13.988 18.3392 14.6166C22.1624 14.3289 27.8179 15.3984 31.4175 18.8913C31.6525 18.2916 31.8076 17.6527 31.8658 16.9848C28.1489 13.8566 23.0103 12.7442 19.0819 12.8512Z" fill="#F5F5F5"/>
<path d="M25.2852 18.7329L25.4687 19.2835L26.0491 19.288C26.1242 19.2886 26.1554 19.3845 26.095 19.4291L25.6281 19.7739L25.8032 20.3272C25.8259 20.3989 25.7442 20.4582 25.6832 20.4144L25.211 20.0769L24.7389 20.4144C24.6777 20.4582 24.5962 20.3989 24.6189 20.3272L24.7939 19.7739L24.3271 19.4291C24.2666 19.3845 24.2978 19.2886 24.3729 19.288L24.9532 19.2835L25.1368 18.7329C25.1605 18.6616 25.2613 18.6616 25.2852 18.7329Z" fill="#F5F5F5"/>
<path d="M27.5411 20.1571L27.6201 20.394L27.8699 20.396C27.9022 20.3962 27.9157 20.4375 27.8896 20.4567L27.6886 20.6051L27.7639 20.8432C27.7737 20.8741 27.7386 20.8996 27.7123 20.8807L27.509 20.7355L27.3058 20.8807C27.2796 20.8996 27.2444 20.8741 27.2542 20.8432L27.3295 20.6051L27.1285 20.4567C27.1025 20.4376 27.1159 20.3963 27.1482 20.396L27.398 20.394L27.477 20.1571C27.4874 20.1264 27.5308 20.1264 27.5411 20.1571Z" fill="#F5F5F5"/>
<path d="M24.31 17.6868L24.389 17.9237L24.6388 17.9256C24.6711 17.9258 24.6846 17.9671 24.6585 17.9864L24.4576 18.1347L24.5328 18.3729C24.5426 18.4038 24.5075 18.4292 24.4812 18.4104L24.278 18.2652L24.0747 18.4104C24.0485 18.4292 24.0133 18.4038 24.0231 18.3729L24.0984 18.1347L23.8974 17.9864C23.8714 17.9672 23.8848 17.9259 23.9171 17.9256L24.1669 17.9237L24.2459 17.6868C24.2563 17.6561 24.2997 17.6561 24.31 17.6868Z" fill="#F5F5F5"/>
<path d="M19.9345 17.3997L20.0135 17.6366L20.2633 17.6385C20.2956 17.6387 20.3091 17.68 20.283 17.6993L20.082 17.8476L20.1573 18.0858C20.1671 18.1167 20.132 18.1422 20.1056 18.1233L19.9024 17.9781L19.6992 18.1233C19.6729 18.1422 19.6378 18.1167 19.6475 18.0858L19.7228 17.8476L19.5219 17.6993C19.4959 17.6801 19.5093 17.6388 19.5416 17.6385L19.7914 17.6366L19.8704 17.3997C19.8808 17.369 19.9242 17.369 19.9345 17.3997Z" fill="#F5F5F5"/>
<path d="M23.5949 20.0754L23.6739 20.3123L23.9237 20.3142C23.956 20.3144 23.9695 20.3557 23.9434 20.375L23.7424 20.5233L23.8177 20.7615C23.8275 20.7923 23.7924 20.8178 23.7661 20.799L23.5628 20.6538L23.3596 20.799C23.3334 20.8178 23.2982 20.7923 23.308 20.7615L23.3833 20.5233L23.1823 20.375C23.1563 20.3558 23.1697 20.3145 23.202 20.3142L23.4518 20.3123L23.5308 20.0754C23.5413 20.0448 23.5847 20.0448 23.5949 20.0754Z" fill="#F5F5F5"/>
<path d="M21.5807 17.2344L21.6453 17.4281L21.8496 17.4298C21.876 17.43 21.887 17.4638 21.8659 17.4795L21.7015 17.6008L21.7631 17.7955C21.7711 17.8207 21.7424 17.8416 21.7208 17.8262L21.5546 17.7074L21.3884 17.8262C21.3668 17.8416 21.3382 17.8207 21.3461 17.7955L21.4077 17.6008L21.2434 17.4795C21.2222 17.4638 21.233 17.43 21.2596 17.4298L21.4639 17.4281L21.5285 17.2344C21.5369 17.2093 21.5723 17.2093 21.5807 17.2344Z" fill="#F5F5F5"/>
<path d="M27.7163 13.2343L27.7972 13.4766L28.0526 13.4786C28.0857 13.4788 28.0994 13.5211 28.0727 13.5407L27.8673 13.6925L27.9443 13.9361C27.9544 13.9677 27.9183 13.9937 27.8915 13.9745L27.6836 13.8259L27.4757 13.9745C27.4487 13.9938 27.4129 13.9676 27.4228 13.9361L27.4999 13.6925L27.2944 13.5407C27.2678 13.5211 27.2815 13.4789 27.3145 13.4786L27.57 13.4766L27.6509 13.2343C27.6614 13.2028 27.7058 13.2028 27.7163 13.2343Z" fill="#F5F5F5"/>
<path d="M20.2158 16.0489L20.2804 16.2427L20.4847 16.2443C20.5111 16.2445 20.5221 16.2783 20.501 16.294L20.3366 16.4153L20.3982 16.61C20.4062 16.6352 20.3775 16.6561 20.3559 16.6407L20.1897 16.522L20.0235 16.6407C20.0019 16.6561 19.9733 16.6352 19.9812 16.61L20.0428 16.4153L19.8785 16.294C19.8573 16.2783 19.8681 16.2446 19.8947 16.2443L20.099 16.2427L20.1636 16.0489C20.172 16.0238 20.2074 16.0238 20.2158 16.0489Z" fill="#F5F5F5"/>
<path d="M21.202 18.7799L21.2999 19.0734L21.6092 19.0758C21.6493 19.076 21.6659 19.1271 21.6336 19.1509L21.3847 19.3347L21.4781 19.6297C21.4902 19.6678 21.4467 19.6995 21.4141 19.6761L21.1624 19.4963L20.9106 19.6761C20.8781 19.6994 20.8345 19.6678 20.8466 19.6297L20.94 19.3347L20.6911 19.1509C20.6588 19.1271 20.6754 19.076 20.7155 19.0758L21.0249 19.0734L21.1227 18.7799C21.1357 18.742 21.1894 18.742 21.202 18.7799Z" fill="#F5F5F5"/>
<path d="M28.7991 20.2186L28.8606 20.4033L29.0552 20.4048C29.0804 20.4049 29.0908 20.4371 29.0706 20.452L28.9141 20.5676L28.9728 20.7532C28.9804 20.7772 28.9531 20.797 28.9325 20.7824L28.7742 20.6692L28.6158 20.7824C28.5952 20.797 28.5679 20.7772 28.5754 20.7532L28.6341 20.5676L28.4776 20.452C28.4574 20.4371 28.4678 20.4049 28.493 20.4048L28.6876 20.4033L28.7492 20.2186C28.7573 20.1947 28.7911 20.1947 28.7991 20.2186Z" fill="#F5F5F5"/>
<path d="M29.4798 18.8094L29.5588 19.0463L29.8086 19.0483C29.8409 19.0485 29.8544 19.0898 29.8283 19.109L29.6273 19.2574L29.7026 19.4956C29.7124 19.5264 29.6773 19.5519 29.651 19.5331L29.4478 19.3878L29.2445 19.5331C29.2183 19.5519 29.1831 19.5264 29.1929 19.4956L29.2682 19.2574L29.0672 19.109C29.0412 19.0899 29.0546 19.0486 29.0869 19.0483L29.3367 19.0463L29.4157 18.8094C29.4261 18.7787 29.4695 18.7787 29.4798 18.8094Z" fill="#F5F5F5"/>
</svg>
