<svg width="50" height="33" viewBox="0 0 50 33" fill="none" xmlns="http://www.w3.org/2000/svg">
<path d="M49.1378 32.7586H0.862111C0.386034 32.7586 0 32.3726 0 31.8965V0.86211C0 0.38604 0.386034 0 0.862111 0H49.1379C49.6139 0 50 0.38604 50 0.86211V31.8965C49.9999 32.3727 49.6138 32.7586 49.1378 32.7586Z" fill="#F5F5F5"/>
<path d="M38.7935 0.000488281H11.2076V32.7592H38.7935V0.000488281Z" fill="#F5F5F5"/>
<path d="M0.862111 0.000244141C0.386034 0.000244141 0 0.386175 0 0.862245V31.8966C0 32.3727 0.386034 32.7587 0.862111 32.7587H11.2069V0.000244141H0.862111Z" fill="#D0353E"/>
<path d="M49.1384 0.000244141H38.7936V32.7588H49.1384C49.6145 32.7588 50.0005 32.3727 50.0005 31.8967V0.862254C50.0005 0.386184 49.6145 0.000244141 49.1384 0.000244141Z" fill="#D0353E"/>
<path d="M30.232 20.1647L35.3475 17.2416L34.1737 16.6547C33.8445 16.4901 33.656 16.1346 33.7048 15.7696L34.0867 12.9062L31.921 13.5362C31.4426 13.6755 30.9461 13.3812 30.8385 12.8947L30.631 11.9572L28.5975 14.3371C28.3156 14.667 27.7786 14.4151 27.8521 13.9873L28.7206 8.93766L27.391 9.30136C27.0026 9.40756 26.5925 9.23086 26.4031 8.87556L25.003 6.25146V6.24756L25.002 6.24946L25.001 6.24756V6.25146L23.6009 8.87556C23.4113 9.23076 23.0012 9.40746 22.6128 9.30136L21.2831 8.93766L22.1516 13.9873C22.2251 14.4149 21.688 14.6669 21.4061 14.3371L19.3726 11.9572L19.1651 12.8947C19.0575 13.3813 18.561 13.6754 18.0826 13.5362L15.9169 12.9062L16.2988 15.7696C16.3476 16.1345 16.1591 16.4901 15.8299 16.6547L14.6561 17.2416L19.7716 20.1648C20.3015 20.4676 20.5337 21.1098 20.3199 21.6814L19.8826 22.851L24.2659 22.4768C24.5085 22.4561 24.7149 22.6514 24.7078 22.8946L24.5697 27.5864H25.4318L25.2936 22.8944C25.2865 22.6511 25.493 22.4559 25.7355 22.4766L30.1209 22.851L29.6836 21.6814C29.47 21.1097 29.7021 20.4674 30.232 20.1647Z" fill="#D0353E"/>
</svg>
