<svg width="50" height="33" viewBox="0 0 50 33" fill="none" xmlns="http://www.w3.org/2000/svg">
<path d="M49.1377 32.7586H0.862109C0.386035 32.7586 0 32.3726 0 31.8965V0.8621C0 0.38603 0.386035 0 0.862109 0H49.1378C49.6139 0 50 0.38603 50 0.8621V31.8965C50 32.3727 49.6138 32.7586 49.1377 32.7586Z" fill="#D0353E"/>
<path d="M34.4825 12.9312H28.4481V6.89677C28.4481 6.42067 28.062 6.03467 27.586 6.03467H22.4135C21.9374 6.03467 21.5514 6.42067 21.5514 6.89677V12.9312H15.5169C15.0409 12.9312 14.6548 13.3173 14.6548 13.7933V18.9658C14.6548 19.4419 15.0409 19.8279 15.5169 19.8279H21.5514V25.8624C21.5514 26.3384 21.9374 26.7245 22.4135 26.7245H27.586C28.062 26.7245 28.4481 26.3384 28.4481 25.8624V19.8277H34.4825C34.9586 19.8277 35.3446 19.4417 35.3446 18.9656V13.7932C35.3446 13.3172 34.9586 12.9312 34.4825 12.9312Z" fill="#F5F5F5"/>
</svg>
