<svg width="50" height="33" viewBox="0 0 50 33" fill="none" xmlns="http://www.w3.org/2000/svg">
<path d="M49.9999 16.3794H0V0.86216C0 0.38604 0.386034 0 0.862104 0H49.1379C49.614 0 50 0.38604 50 0.86216L49.9999 16.3794Z" fill="#F5F5F5"/>
<path d="M1.72411 16.3794V15.5173H0V16.3794V17.2415V31.8967C0 32.3728 0.386034 32.7588 0.862104 32.7588H49.1379C49.614 32.7588 50 32.3728 50 31.8967V16.3794H1.72411Z" fill="#D0353E"/>
<path d="M15.5173 16.3794H0.862104C0.386034 16.3794 0 15.9934 0 15.5173V0.86216C0 0.38604 0.386034 0 0.862104 0H15.5173C15.9934 0 16.3794 0.38604 16.3794 0.86216V15.5173C16.3793 15.9934 15.9934 16.3794 15.5173 16.3794Z" fill="#41479B"/>
<path d="M8.52167 4.51292L9.34354 6.97722L11.9412 6.99732C12.2775 6.99982 12.417 7.42912 12.1464 7.62882L10.0567 9.17192L10.8402 11.6487C10.9416 11.9694 10.5766 12.2345 10.3029 12.039L8.18964 10.5285L6.07627 12.0391C5.80263 12.2347 5.43759 11.9694 5.53896 11.6488L6.32246 9.17202L4.23281 7.62892C3.96221 7.42912 4.10166 6.99992 4.43799 6.99742L7.03564 6.97732L7.85751 4.51302C7.96396 4.19392 8.41532 4.19392 8.52167 4.51292Z" fill="#F5F5F5"/>
</svg>
