<svg width="50" height="33" viewBox="0 0 50 33" fill="none" xmlns="http://www.w3.org/2000/svg">
<path d="M49.1378 32.7587H0.862108C0.386035 32.7587 0 32.3726 0 31.8966V0.86206C0 0.38603 0.386035 0 0.862108 0H49.1379C49.6139 0 50 0.38603 50 0.86206V31.8966C49.9999 32.3727 49.6138 32.7587 49.1378 32.7587Z" fill="#D0353E"/>
<path d="M8.30094 5.12294L9.12281 7.58714L11.7205 7.60725C12.0568 7.60985 12.1963 8.03914 11.9257 8.23884L9.83596 9.78195L10.6195 12.2586C10.7209 12.5793 10.3559 12.8444 10.0822 12.6489L7.96891 11.1383L5.85563 12.6488C5.582 12.8444 5.21696 12.5791 5.31833 12.2585L6.10182 9.78184L4.01218 8.23884C3.74157 8.03904 3.88102 7.60985 4.21735 7.60725L6.815 7.58714L7.63688 5.12294C7.74332 4.80374 8.19459 4.80374 8.30094 5.12294Z" fill="#FFE15A"/>
<path d="M17.7336 5.72995L18.323 6.53365L19.274 6.23615C19.3972 6.19775 19.4985 6.33815 19.4231 6.44275L18.8408 7.25145L19.4176 8.06404C19.4923 8.16914 19.3901 8.30894 19.2672 8.26954L18.3181 7.96575L17.7235 8.76545C17.6465 8.86905 17.482 8.81485 17.4815 8.68595L17.4771 7.68945L16.5327 7.37094C16.4106 7.32964 16.4111 7.15665 16.5336 7.11615L17.4799 6.80404L17.491 5.80755C17.4924 5.67875 17.6573 5.62595 17.7336 5.72995Z" fill="#FFE15A"/>
<path d="M14.1456 3.33456L15.1363 3.44216L15.559 2.53976C15.6137 2.42296 15.7856 2.44296 15.812 2.56926L16.0157 3.54466L17.0046 3.66766C17.1326 3.68356 17.1667 3.85336 17.0547 3.91746L16.1899 4.41256L16.3785 5.39106C16.4029 5.51786 16.252 5.60266 16.1564 5.51596L15.4182 4.84656L14.546 5.32826C14.4331 5.39066 14.3056 5.27326 14.3586 5.15556L14.7671 4.24656L14.0393 3.56576C13.9452 3.47806 14.0174 3.32066 14.1456 3.33456Z" fill="#FFE15A"/>
<path d="M15.7119 12.9922L15.1225 13.7959L14.1715 13.4985C14.0483 13.46 13.947 13.6004 14.0224 13.705L14.6047 14.5137L14.0279 15.3263C13.9532 15.4315 14.0554 15.5712 14.1783 15.5319L15.1274 15.228L15.722 16.0277C15.799 16.1313 15.9635 16.0772 15.964 15.9483L15.9684 14.9517L16.9128 14.6332C17.035 14.5919 17.0344 14.4189 16.9119 14.3784L15.9656 14.0663L15.9545 13.0698C15.9529 12.9411 15.7881 12.8881 15.7119 12.9922Z" fill="#FFE15A"/>
<path d="M19.2999 10.741L18.3091 10.8487L17.8865 9.94625C17.8317 9.82945 17.6598 9.84945 17.6334 9.97575L17.4296 10.9511L16.4408 11.0742C16.3127 11.0902 16.2787 11.2599 16.3907 11.324L17.2554 11.8191L17.0668 12.7976C17.0424 12.9243 17.1933 13.0092 17.2889 12.9226L18.0271 12.2531L18.8994 12.7347C19.0123 12.7971 19.1397 12.6798 19.0868 12.5621L18.6783 11.6531L19.406 10.9723C19.5004 10.8846 19.4283 10.7272 19.2999 10.741Z" fill="#FFE15A"/>
</svg>
