<svg width="50" height="33" viewBox="0 0 50 33" fill="none" xmlns="http://www.w3.org/2000/svg">
<path d="M50.0007 11.2063H0.000732422V21.5511H50.0007V11.2063Z" fill="#D0353E"/>
<path d="M0.862835 0H49.1387C49.6147 0 50.0008 0.38603 50.0008 0.8621V5.6035H0.000732422V0.8621C0.000732422 0.38603 0.386766 0 0.862835 0Z" fill="#41479B"/>
<path d="M50.0007 5.604H0.000732422V11.2075H50.0007V5.604Z" fill="#F5F5F5"/>
<path d="M49.1386 32.7585H0.862835C0.386766 32.7585 0.000732422 32.3725 0.000732422 31.8964V27.155H50.0007V31.8964C50.0007 32.3726 49.6146 32.7585 49.1386 32.7585Z" fill="#41479B"/>
<path d="M49.9999 21.551H0V27.1545H49.9999V21.551Z" fill="#F5F5F5"/>
<path d="M13.5146 20.6897C15.7416 20.6897 17.5468 18.7598 17.5468 16.3791C17.5468 13.9985 15.7416 12.0686 13.5146 12.0686C11.2877 12.0686 9.48242 13.9985 9.48242 16.3791C9.48242 18.7598 11.2877 20.6897 13.5146 20.6897Z" fill="#F5F5F5"/>
<path d="M15.601 14.7112H11.4297V16.7969H15.601V14.7112Z" fill="#3CC8FF"/>
<path d="M11.9864 15.8967L12.0341 16.3567L12.2214 15.934L12.1245 16.3862L12.4335 16.0419L12.2014 16.4422L12.6017 16.2102L12.2575 16.5192L12.7097 16.4222L12.2869 16.6096L12.747 16.6573L12.2869 16.705L12.7097 16.8924L12.2575 16.7955L12.6017 17.1044L12.2014 16.8723L12.4335 17.2726L12.1245 16.9284L12.2214 17.3806L12.0341 16.9579L11.9864 17.4178L11.9387 16.9579L11.7513 17.3806L11.8482 16.9284L11.5393 17.2726L11.7712 16.8723L11.371 17.1044L11.7153 16.7955L11.263 16.8924L11.6858 16.705L11.2258 16.6573L11.6858 16.6096L11.263 16.4222L11.7153 16.5192L11.371 16.2102L11.7712 16.4422L11.5393 16.0419L11.8482 16.3862L11.7513 15.934L11.9387 16.3567L11.9864 15.8967Z" fill="#FFE15A"/>
<path d="M14.35 19.7165H12.6816L11.1521 18.465V16.6575H16.0186V18.465L14.35 19.7165Z" fill="#41479B"/>
<path d="M15.1843 16.1014C15.1839 16.0633 15.1529 16.0326 15.1148 16.0326C15.0766 16.0326 15.0459 16.0633 15.0453 16.1014C15.0453 16.3427 14.9053 16.6765 14.7338 16.9155C14.4944 16.6132 14.4043 16.2626 14.3703 16.0418C14.3541 15.9365 14.2404 15.8781 14.145 15.9258C14.0991 15.9487 14.0682 15.9935 14.0604 16.0442C13.9539 16.7262 13.6324 17.0159 13.4242 17.1351C13.1126 16.8338 13.0099 16.3462 12.9761 16.0579C12.9629 15.9458 12.843 15.8815 12.742 15.9319C12.7031 15.9514 12.6743 15.9864 12.6608 16.0277C12.2246 17.3571 11.0128 17.4919 11.0128 17.4919V17.909H15.8793V17.77V17.631V17.4921V17.3531V17.2142C15.3234 17.0746 15.1843 16.1014 15.1843 16.1014Z" fill="#73AF00"/>
<path d="M15.88 14.8499C15.3239 14.5718 15.3239 14.2937 15.3239 14.2937C15.3239 14.2937 14.6287 14.0156 14.0725 14.0156C14.0725 14.0156 14.2115 13.7375 13.9335 13.7375C13.6554 13.7375 13.5165 13.7375 13.5165 13.7375C13.5165 13.7375 13.3775 13.7375 13.0994 13.7375C12.8212 13.7375 12.9604 14.0156 12.9604 14.0156C12.4043 14.0156 11.709 14.2937 11.709 14.2937C11.709 14.2937 11.709 14.5719 11.1529 14.8499C10.5967 15.128 10.5967 15.7537 10.5967 15.7537C10.5967 15.8689 10.6902 15.9622 10.8052 15.9622C10.9205 15.9622 11.0137 15.8687 11.0137 15.7537C11.0137 15.7299 11.0088 15.7075 11.0015 15.6862L11.0137 15.6842L12.4042 14.7109H13.5166H14.629L16.0194 15.6842L16.0316 15.6862C16.0243 15.7074 16.0194 15.73 16.0194 15.7537C16.0194 15.8689 16.1128 15.9622 16.2279 15.9622C16.3429 15.9622 16.4364 15.8687 16.4364 15.7537C16.4364 15.7537 16.4362 15.1279 15.88 14.8499Z" fill="#F0AA00"/>
<path d="M16.2973 16.5185C16.1583 16.5185 15.7411 16.5185 15.7411 16.1014C15.7411 15.6843 16.2973 15.6843 16.2973 15.6843L15.463 15.4062C15.1849 16.3795 15.7411 16.3794 15.7411 17.6309C15.7411 18.7519 14.4898 19.4384 14.0726 19.4384C13.6555 19.4384 13.5164 19.7165 13.5164 19.7165C13.5164 19.7165 13.3774 19.4384 12.9603 19.4384C12.5432 19.4384 11.2917 18.7519 11.2917 17.6309C11.2917 16.3795 11.8479 16.3795 11.5698 15.4062L10.7356 15.6843C10.7356 15.6843 11.2917 15.6843 11.2917 16.1014C11.2917 16.5185 10.8746 16.5185 10.7356 16.5185C10.5965 16.5185 10.0403 16.5185 10.0403 17.2137C10.0403 17.9089 10.7356 18.7432 11.7089 19.2993C12.6821 19.8555 12.265 20.4117 13.5164 20.4117C14.7678 20.4117 14.3507 19.8556 15.3239 19.2993C16.2972 18.7432 16.9925 17.9089 16.9925 17.2137C16.9925 16.5185 16.4362 16.5185 16.2973 16.5185Z" fill="#F0AA00"/>
<path d="M13.2379 14.3421L12.9015 14.1909C12.8457 14.1658 12.7838 14.1599 12.7242 14.1738C12.5074 14.2239 11.9696 14.3886 11.5693 14.8499L11.9864 14.9888L13.2379 14.3421Z" fill="#73AF00"/>
<path d="M13.7939 14.3421L14.1303 14.1909C14.1861 14.1658 14.248 14.1599 14.3076 14.1738C14.5244 14.2239 15.0622 14.3886 15.4625 14.8499L15.0454 14.9888L13.7939 14.3421Z" fill="#73AF00"/>
<path d="M13.5653 14.4327L13.8188 14.1792C13.8324 14.1656 13.8324 14.1436 13.8188 14.13C13.8053 14.1165 13.7833 14.1165 13.7697 14.13L13.5162 14.3836L13.2627 14.13C13.2491 14.1165 13.2271 14.1165 13.2136 14.13C13.2 14.1436 13.2 14.1656 13.2136 14.1792L13.4671 14.4327L13.2136 14.6862C13.2 14.6998 13.2 14.7217 13.2136 14.7353C13.2204 14.7421 13.2293 14.7456 13.2382 14.7456C13.247 14.7456 13.256 14.7421 13.2628 14.7353L13.5163 14.4818L13.7698 14.7353C13.7767 14.7421 13.7855 14.7456 13.7944 14.7456C13.8034 14.7456 13.8122 14.7421 13.819 14.7353C13.8326 14.7217 13.8326 14.6998 13.819 14.6862L13.5653 14.4327Z" fill="#73AF00"/>
<path d="M16.2967 15.6842C16.2967 15.4477 16.0731 15.3454 15.8796 15.301V15.1908C15.6179 15.1662 15.4717 15.068 15.218 14.895C15.1202 14.8283 15.0094 14.7528 14.8755 14.6714C14.3866 14.3744 14.0108 14.3315 13.794 14.3419V14.5718H13.2378V14.3419C13.0209 14.3315 12.6451 14.3744 12.1563 14.6714C12.0225 14.7527 11.9115 14.8283 11.8138 14.895C11.56 15.0679 11.414 15.1662 11.1522 15.1908V15.301C10.9585 15.3453 10.7351 15.4476 10.7351 15.6842L11.1522 15.5452V15.6085C11.5468 15.5794 11.7724 15.4281 12.0486 15.2399C12.1423 15.1762 12.2484 15.1037 12.3728 15.0282C12.6903 14.8353 12.9371 14.7756 13.0987 14.7615V14.9891H13.933V14.7615C14.0946 14.7757 14.3414 14.8353 14.659 15.0282C14.7836 15.1039 14.8896 15.1762 14.9831 15.2399C15.2593 15.4281 15.485 15.5795 15.8796 15.6085V15.5452L16.2967 15.6842Z" fill="#F5F5F5"/>
<path d="M15.1844 13.4924V13.3203H14.7971C14.8647 13.2622 14.9063 13.1938 14.9063 13.1118C14.9063 12.7276 14.0323 12.6252 13.5159 12.6252C12.9995 12.6252 12.1255 12.7276 12.1255 13.1118C12.1255 13.1938 12.1671 13.2622 12.2348 13.3203H11.8475V13.4924C11.507 13.5683 11.2288 13.7509 11.2142 13.7608L11.3684 13.9922C11.3722 13.9896 11.7548 13.7374 12.1255 13.7374V13.5984H14.9063V13.7374C15.2771 13.7374 15.6597 13.9895 15.6635 13.9922L15.8177 13.7608C15.8031 13.7509 15.5248 13.5683 15.1844 13.4924ZM14.0721 13.2818V13.1762C14.0721 13.1082 14.0081 13.0583 13.9421 13.0748L13.5159 13.1813L13.0897 13.0748C13.0237 13.0583 12.9598 13.1082 12.9598 13.1762V13.2818C12.6474 13.2359 12.4627 13.1595 12.4123 13.1118C12.4875 13.0403 12.856 12.9033 13.5158 12.9033C14.1757 12.9033 14.5441 13.0405 14.6193 13.1118C14.5691 13.1594 14.3844 13.2358 14.0721 13.2818Z" fill="#3CC8FF"/>
<path d="M13.5335 15.0413L13.5686 15.1469L13.6797 15.1478C13.6941 15.1479 13.7 15.1663 13.6884 15.1748L13.5991 15.241L13.6326 15.3472C13.6369 15.361 13.6213 15.3723 13.6096 15.3639L13.5192 15.2991L13.4289 15.3639C13.4172 15.3723 13.4016 15.3609 13.4059 15.3472L13.4394 15.241L13.3501 15.1748C13.3385 15.1663 13.3445 15.1479 13.3588 15.1478L13.4699 15.1469L13.505 15.0413C13.5096 15.0276 13.5288 15.0276 13.5335 15.0413Z" fill="#F5F5F5"/>
<path d="M12.9883 15.077L13.0342 15.1783L13.1448 15.1676C13.1591 15.1662 13.1669 15.1839 13.1564 15.1936L13.0745 15.2688L13.1189 15.3708C13.1247 15.3841 13.1103 15.397 13.0979 15.3899L13.0012 15.335L12.9181 15.4089C12.9074 15.4185 12.8907 15.4088 12.8935 15.3946L12.9157 15.2855L12.82 15.2291C12.8076 15.2218 12.8116 15.2029 12.8259 15.2013L12.9363 15.1888L12.9601 15.0801C12.963 15.0658 12.9823 15.0638 12.9883 15.077Z" fill="#F5F5F5"/>
<path d="M12.4286 15.226L12.4954 15.3149L12.601 15.2804C12.6146 15.2759 12.6261 15.2915 12.6178 15.3032L12.5541 15.3944L12.6196 15.4844C12.6281 15.496 12.6169 15.5117 12.6031 15.5075L12.4969 15.4749L12.4318 15.5651C12.4234 15.5768 12.4049 15.571 12.4047 15.5566L12.4028 15.4453L12.2971 15.411C12.2834 15.4066 12.2832 15.3872 12.2969 15.3826L12.4019 15.3464L12.4017 15.2351C12.4016 15.2207 12.42 15.2145 12.4286 15.226Z" fill="#F5F5F5"/>
<path d="M11.8679 15.4625L11.9458 15.5418L12.0458 15.4936C12.0589 15.4873 12.0722 15.5012 12.0656 15.5141L12.0145 15.6129L12.0912 15.6934C12.1012 15.7038 12.0922 15.7208 12.078 15.7186L11.9683 15.7004L11.9156 15.7985C11.9088 15.8112 11.8898 15.8078 11.8877 15.7936L11.8711 15.6834L11.7618 15.6635C11.7476 15.661 11.745 15.6417 11.7578 15.6353L11.8572 15.5855L11.8424 15.4751C11.8404 15.4608 11.8578 15.4523 11.8679 15.4625Z" fill="#F5F5F5"/>
<path d="M14.0503 15.077L14.0044 15.1783L13.8938 15.1676C13.8795 15.1662 13.8717 15.1839 13.8822 15.1936L13.9641 15.2688L13.9197 15.3708C13.9139 15.3841 13.9283 15.397 13.9407 15.3899L14.0374 15.335L14.1205 15.4089C14.1312 15.4185 14.1479 15.4088 14.1451 15.3946L14.1229 15.2855L14.2186 15.2291C14.231 15.2218 14.227 15.2029 14.2127 15.2013L14.1023 15.1888L14.0785 15.0801C14.0755 15.0658 14.0562 15.0638 14.0503 15.077Z" fill="#F5F5F5"/>
<path d="M14.6098 15.226L14.5429 15.3149L14.4374 15.2804C14.4237 15.2759 14.4122 15.2915 14.4205 15.3032L14.4842 15.3944L14.4187 15.4844C14.4103 15.496 14.4215 15.5117 14.4352 15.5075L14.5414 15.4749L14.6065 15.5651C14.6149 15.5768 14.6334 15.571 14.6336 15.5566L14.6356 15.4453L14.7413 15.411C14.7549 15.4066 14.7551 15.3872 14.7415 15.3826L14.6364 15.3464L14.6366 15.2351C14.6367 15.2207 14.6183 15.2145 14.6098 15.226Z" fill="#F5F5F5"/>
<path d="M15.1707 15.4625L15.0928 15.5418L14.9927 15.4936C14.9797 15.4873 14.9663 15.5012 14.973 15.5141L15.0241 15.6129L14.9473 15.6934C14.9374 15.7038 14.9464 15.7208 14.9606 15.7186L15.0703 15.7004L15.123 15.7985C15.1298 15.8112 15.1488 15.8078 15.1509 15.7936L15.1675 15.6834L15.2768 15.6635C15.291 15.661 15.2936 15.6417 15.2808 15.6353L15.1814 15.5855L15.1962 15.4751C15.1981 15.4608 15.1807 15.4523 15.1707 15.4625Z" fill="#F5F5F5"/>
<path d="M12.5554 18.3782L13.2637 18.8517H14.1197L14.5152 18.5129L14.211 18.6346H13.2029L12.5554 18.3782Z" fill="#8C5A28"/>
<path d="M13.0369 17.7671L12.9687 18.4565L12.6584 18.3378C12.6584 18.3378 12.8012 18.0053 13.0369 17.7671Z" fill="#F5F5F5"/>
<path d="M13.6969 17.4934H13.6509V18.6672H13.6969V17.4934Z" fill="#8C5A28"/>
<path d="M14.1227 17.593H14.0767V18.6682H14.1227V17.593Z" fill="#8C5A28"/>
<path d="M13.2739 17.593H13.228V18.6682H13.2739V17.593Z" fill="#8C5A28"/>
<path d="M13.8147 18.5564H13.5345C13.5053 18.5564 13.4817 18.5327 13.4817 18.5035V18.3616C13.4817 18.3324 13.5053 18.3086 13.5345 18.3086H13.8147C13.8438 18.3086 13.8675 18.3324 13.8675 18.3616V18.5035C13.8675 18.5327 13.8438 18.5564 13.8147 18.5564Z" fill="#F5F5F5"/>
<path d="M13.8147 18.226H13.5345C13.5053 18.226 13.4817 18.2023 13.4817 18.1731V18.0312C13.4817 18.002 13.5053 17.9783 13.5345 17.9783H13.8147C13.8438 17.9783 13.8675 18.002 13.8675 18.0312V18.1731C13.8675 18.2024 13.8438 18.226 13.8147 18.226Z" fill="#F5F5F5"/>
<path d="M13.8147 17.922H13.5345C13.5053 17.922 13.4817 17.8983 13.4817 17.8691V17.7272C13.4817 17.698 13.5053 17.6743 13.5345 17.6743H13.8147C13.8438 17.6743 13.8675 17.698 13.8675 17.7272V17.8691C13.8675 17.8983 13.8438 17.922 13.8147 17.922Z" fill="#F5F5F5"/>
<path d="M14.2141 18.5564H13.9859C13.9568 18.5564 13.9331 18.5327 13.9331 18.5035V18.3616C13.9331 18.3324 13.9568 18.3086 13.9859 18.3086H14.2141C14.2432 18.3086 14.2669 18.3324 14.2669 18.3616V18.5035C14.2669 18.5327 14.2432 18.5564 14.2141 18.5564Z" fill="#F5F5F5"/>
<path d="M14.2141 18.2524H13.9859C13.9568 18.2524 13.9331 18.2286 13.9331 18.1994V18.0964C13.9331 18.0672 13.9568 18.0435 13.9859 18.0435H14.2141C14.2432 18.0435 14.2669 18.0672 14.2669 18.0964V18.1994C14.2669 18.2286 14.2432 18.2524 14.2141 18.2524Z" fill="#F5F5F5"/>
<path d="M14.2141 17.9508H13.9859C13.9568 17.9508 13.9331 17.9271 13.9331 17.8979V17.8283C13.9331 17.7991 13.9568 17.7754 13.9859 17.7754H14.2141C14.2432 17.7754 14.2669 17.7991 14.2669 17.8283V17.8979C14.2669 17.9271 14.2432 17.9508 14.2141 17.9508Z" fill="#F5F5F5"/>
<path d="M13.3647 18.5564H13.1364C13.1073 18.5564 13.0836 18.5327 13.0836 18.5035V18.3616C13.0836 18.3324 13.1073 18.3086 13.1364 18.3086H13.3647C13.3938 18.3086 13.4175 18.3324 13.4175 18.3616V18.5035C13.4174 18.5327 13.3938 18.5564 13.3647 18.5564Z" fill="#F5F5F5"/>
<path d="M13.3647 18.2524H13.1364C13.1073 18.2524 13.0836 18.2286 13.0836 18.1994V18.0964C13.0836 18.0672 13.1073 18.0435 13.1364 18.0435H13.3647C13.3938 18.0435 13.4175 18.0672 13.4175 18.0964V18.1994C13.4174 18.2286 13.3938 18.2524 13.3647 18.2524Z" fill="#F5F5F5"/>
<path d="M13.3647 17.9508H13.1364C13.1073 17.9508 13.0836 17.9271 13.0836 17.8979V17.8283C13.0836 17.7991 13.1073 17.7754 13.1364 17.7754H13.3647C13.3938 17.7754 13.4175 17.7991 13.4175 17.8283V17.8979C13.4174 17.9271 13.3938 17.9508 13.3647 17.9508Z" fill="#F5F5F5"/>
<path d="M13.2734 17.5933V17.7323L13.4773 17.6615L13.2734 17.5933Z" fill="#F5F5F5"/>
<path d="M14.1229 17.5933V17.7323L14.3268 17.6615L14.1229 17.5933Z" fill="#F5F5F5"/>
<path d="M13.6975 17.4934V17.6323L13.9015 17.5615L13.6975 17.4934Z" fill="#F5F5F5"/>
<path d="M13.1544 16.5552L13.4004 16.7198H13.6979L13.8353 16.602L13.7295 16.6442H13.3793L13.1544 16.5552Z" fill="#8C5A28"/>
<path d="M13.3217 16.3428L13.298 16.5823L13.1902 16.541C13.1902 16.541 13.2398 16.4256 13.3217 16.3428Z" fill="#F5F5F5"/>
<path d="M13.5503 16.2473H13.5344V16.6552H13.5503V16.2473Z" fill="#8C5A28"/>
<path d="M13.6974 16.2827H13.6815V16.656H13.6974V16.2827Z" fill="#8C5A28"/>
<path d="M13.4032 16.2827H13.3873V16.656H13.4032V16.2827Z" fill="#8C5A28"/>
<path d="M13.5914 16.6169H13.494C13.4839 16.6169 13.4756 16.6087 13.4756 16.5985V16.5492C13.4756 16.5391 13.4838 16.5308 13.494 16.5308H13.5914C13.6015 16.5308 13.6098 16.539 13.6098 16.5492V16.5985C13.6098 16.6087 13.6016 16.6169 13.5914 16.6169Z" fill="#F5F5F5"/>
<path d="M13.5914 16.5022H13.494C13.4839 16.5022 13.4756 16.494 13.4756 16.4837V16.4345C13.4756 16.4243 13.4838 16.416 13.494 16.416H13.5914C13.6015 16.416 13.6098 16.4242 13.6098 16.4345V16.4837C13.6098 16.4939 13.6016 16.5022 13.5914 16.5022Z" fill="#F5F5F5"/>
<path d="M13.5914 16.3966H13.494C13.4839 16.3966 13.4756 16.3884 13.4756 16.3781V16.3289C13.4756 16.3188 13.4838 16.3105 13.494 16.3105H13.5914C13.6015 16.3105 13.6098 16.3187 13.6098 16.3289V16.3781C13.6098 16.3884 13.6016 16.3966 13.5914 16.3966Z" fill="#F5F5F5"/>
<path d="M13.7303 16.6169H13.651C13.6409 16.6169 13.6326 16.6087 13.6326 16.5985V16.5492C13.6326 16.5391 13.6408 16.5308 13.651 16.5308H13.7303C13.7405 16.5308 13.7487 16.539 13.7487 16.5492V16.5985C13.7486 16.6087 13.7404 16.6169 13.7303 16.6169Z" fill="#F5F5F5"/>
<path d="M13.7303 16.5114H13.651C13.6409 16.5114 13.6326 16.5032 13.6326 16.4929V16.4572C13.6326 16.447 13.6408 16.4387 13.651 16.4387H13.7303C13.7405 16.4387 13.7487 16.4469 13.7487 16.4572V16.4929C13.7486 16.5033 13.7404 16.5114 13.7303 16.5114Z" fill="#F5F5F5"/>
<path d="M13.7303 16.4066H13.651C13.6409 16.4066 13.6326 16.3984 13.6326 16.3881V16.364C13.6326 16.3538 13.6408 16.3455 13.651 16.3455H13.7303C13.7405 16.3455 13.7487 16.3537 13.7487 16.364V16.3881C13.7486 16.3985 13.7404 16.4066 13.7303 16.4066Z" fill="#F5F5F5"/>
<path d="M13.4351 16.6169H13.3558C13.3457 16.6169 13.3374 16.6087 13.3374 16.5985V16.5492C13.3374 16.5391 13.3456 16.5308 13.3558 16.5308H13.4351C13.4452 16.5308 13.4535 16.539 13.4535 16.5492V16.5985C13.4534 16.6087 13.4452 16.6169 13.4351 16.6169Z" fill="#F5F5F5"/>
<path d="M13.4351 16.5114H13.3558C13.3457 16.5114 13.3374 16.5032 13.3374 16.4929V16.4572C13.3374 16.447 13.3456 16.4387 13.3558 16.4387H13.4351C13.4452 16.4387 13.4535 16.4469 13.4535 16.4572V16.4929C13.4534 16.5033 13.4452 16.5114 13.4351 16.5114Z" fill="#F5F5F5"/>
<path d="M13.4351 16.4066H13.3558C13.3457 16.4066 13.3374 16.3984 13.3374 16.3881V16.364C13.3374 16.3538 13.3456 16.3455 13.3558 16.3455H13.4351C13.4452 16.3455 13.4535 16.3537 13.4535 16.364V16.3881C13.4534 16.3985 13.4452 16.4066 13.4351 16.4066Z" fill="#F5F5F5"/>
<path d="M13.4036 16.2822V16.3305L13.4745 16.306L13.4036 16.2822Z" fill="#F5F5F5"/>
<path d="M13.6985 16.2822V16.3305L13.7693 16.306L13.6985 16.2822Z" fill="#F5F5F5"/>
<path d="M13.5508 16.2478V16.2959L13.6216 16.2713L13.5508 16.2478Z" fill="#F5F5F5"/>
<path d="M12.9803 15.8231H12.7998C12.7348 15.8231 12.6815 15.7699 12.6815 15.7048C12.6815 15.6397 12.7347 15.5864 12.7998 15.5864H12.9803C13.0454 15.5864 13.0987 15.6396 13.0987 15.7048C13.0988 15.7699 13.0455 15.8231 12.9803 15.8231Z" fill="#F5F5F5"/>
<path d="M14.3519 15.8231H14.2331C14.168 15.8231 14.1151 15.7701 14.1151 15.7047C14.1151 15.6394 14.168 15.5864 14.2331 15.5864H14.3519C14.417 15.5864 14.4699 15.6394 14.4699 15.7047C14.4698 15.7701 14.4169 15.8231 14.3519 15.8231Z" fill="#F5F5F5"/>
<path d="M15.1976 16.0011H15.093C15.0557 16.0011 15.0255 15.9709 15.0255 15.9334V15.9222C15.0255 15.8848 15.0557 15.8545 15.093 15.8545H15.1976C15.2349 15.8545 15.2651 15.8848 15.2651 15.9222V15.9334C15.2651 15.9709 15.2349 16.0011 15.1976 16.0011Z" fill="#F5F5F5"/>
</svg>
