<svg width="50" height="33" viewBox="0 0 50 33" fill="none" xmlns="http://www.w3.org/2000/svg">
<path d="M49.1378 32.7586H0.862108C0.386034 32.7586 0 32.3726 0 31.8965V0.862129C0 0.386029 0.386034 0 0.862108 0H49.1379C49.614 0 50 0.386029 50 0.862129V31.8965C49.9999 32.3727 49.6139 32.7586 49.1378 32.7586Z" fill="#F5F5F5"/>
<path d="M20.6896 12.9311H0.862108C0.386034 12.9311 0 12.5451 0 12.069V0.862129C0 0.386029 0.386034 0 0.862108 0H20.6896C21.1657 0 21.5517 0.386029 21.5517 0.862129V12.069C21.5517 12.5451 21.1657 12.9311 20.6896 12.9311Z" fill="#41479B"/>
<path d="M49.1377 32.7586H29.3102C28.8341 32.7586 28.4481 32.3726 28.4481 31.8965V20.6897C28.4481 20.2136 28.8341 19.8276 29.3102 19.8276H49.1377C49.6138 19.8276 49.9998 20.2136 49.9998 20.6897V31.8966C49.9998 32.3727 49.6138 32.7586 49.1377 32.7586Z" fill="#41479B"/>
<path d="M49.1377 12.9311H29.3102C28.8341 12.9311 28.4481 12.5451 28.4481 12.069V0.862129C28.4481 0.386029 28.8341 0 29.3102 0H49.1377C49.6138 0 49.9998 0.386029 49.9998 0.862129V12.069C49.9998 12.5451 49.6138 12.9311 49.1377 12.9311Z" fill="#D0353E"/>
<path d="M20.6896 32.7586H0.862108C0.386034 32.7586 0 32.3726 0 31.8965V20.6897C0 20.2136 0.386034 19.8276 0.862108 19.8276H20.6896C21.1657 19.8276 21.5517 20.2136 21.5517 20.6897V31.8966C21.5517 32.3727 21.1657 32.7586 20.6896 32.7586Z" fill="#D0353E"/>
<path d="M24.5056 18.8376C24.5056 18.8376 25.0207 19.0262 24.9535 19.6728L25.1617 19.6689C25.1617 19.6689 25.0303 18.9217 24.9217 18.8321C24.8131 18.7426 24.5056 18.8376 24.5056 18.8376Z" fill="#64B496"/>
<path d="M25.0212 18.7376C24.8028 18.7376 24.4211 18.7373 24.0194 18.6289C24.1089 18.5358 24.2327 18.3481 24.2327 18.0208C24.2327 17.5083 23.8795 17.8353 23.8795 17.8353C23.8795 17.8353 23.6474 18.0307 23.7879 18.5531C23.6509 18.5008 23.515 18.4334 23.3855 18.3471C23.4661 18.2459 23.6268 18.0102 23.7202 17.6364C23.7202 17.6364 23.1317 17.5201 22.9708 17.9632C22.8721 17.8381 22.7878 17.6974 22.7173 17.5416C22.8686 17.5435 23.0796 17.4437 23.0796 16.8677C23.0796 16.8677 22.6954 16.8684 22.5927 17.2017C22.5523 17.0623 22.5215 16.913 22.4989 16.7552C22.6523 16.7997 23.0491 16.8317 23.0491 15.9708C23.0491 15.9708 22.5727 15.9717 22.4625 16.3936C22.4564 16.2857 22.4541 16.1742 22.4551 16.0591C22.6864 15.9382 23.0055 15.6719 22.9724 15.1255C22.9724 15.1255 22.7528 15.1753 22.5514 15.3442C22.5911 15.1371 22.5747 14.8338 22.257 14.5808C22.257 14.5808 21.9651 15.0974 22.3915 15.5168C22.3544 15.569 22.322 15.6284 22.2954 15.6943C22.1996 15.5484 22.046 15.4127 21.7985 15.3303C21.7985 15.3303 21.6846 16.0222 22.3306 16.3117C22.346 16.7158 22.4091 17.0728 22.5177 17.3832C22.3327 17.2203 22.183 16.9958 22.183 16.9958C22.183 16.2271 21.5528 16.2077 21.5528 16.2077C21.4351 17.0851 22.0839 17.1205 22.0839 17.1205L22.4392 17.5082C21.6705 17.3801 21.6706 18.0207 21.6706 18.0207C22.1831 18.1489 22.4392 17.8926 22.4392 17.8926L22.7164 18.0351C22.2248 18.0495 22.0548 18.5332 22.0548 18.5332C22.6727 18.6363 23.1245 18.491 23.2781 18.43C23.9003 18.8651 24.6673 18.8657 25.0214 18.8657L25.0212 18.7376Z" fill="#64B496"/>
<path d="M24.978 18.7376C25.1965 18.7376 25.5783 18.7373 25.9799 18.6289C25.8904 18.5357 25.7666 18.348 25.7666 18.0208C25.7666 17.5083 26.1197 17.8353 26.1197 17.8353C26.1197 17.8353 26.352 18.0307 26.2115 18.553C26.3485 18.5008 26.4843 18.4334 26.6138 18.3471C26.5332 18.2459 26.3725 18.0102 26.2791 17.6363C26.2791 17.6363 26.8676 17.52 27.0285 17.9632C27.1272 17.8381 27.2115 17.6974 27.282 17.5416C27.1307 17.5435 26.9196 17.4437 26.9196 16.8677C26.9196 16.8677 27.3039 16.8684 27.4068 17.2017C27.4472 17.0623 27.4779 16.913 27.5006 16.7552C27.3472 16.7997 26.9505 16.8316 26.9505 15.9708C26.9505 15.9708 27.4268 15.9717 27.537 16.3936C27.5431 16.2856 27.5454 16.1741 27.5444 16.0591C27.3131 15.9382 26.994 15.6719 27.0271 15.1255C27.0271 15.1255 27.2467 15.1753 27.4481 15.3441C27.4084 15.137 27.4248 14.8338 27.7425 14.5808C27.7425 14.5808 28.0344 15.0974 27.608 15.5168C27.6451 15.569 27.6775 15.6283 27.7041 15.6942C27.7999 15.5483 27.9535 15.4127 28.201 15.3303C28.201 15.3303 28.3149 16.0222 27.6689 16.3116C27.6535 16.7157 27.5903 17.0728 27.4818 17.3832C27.6668 17.2202 27.8165 16.9958 27.8165 16.9958C27.8165 16.2271 28.4467 16.2076 28.4467 16.2076C28.5644 17.0851 27.9155 17.1205 27.9155 17.1205L27.5603 17.5082C28.329 17.3801 28.329 18.0207 28.329 18.0207C27.8165 18.1488 27.5603 17.8926 27.5603 17.8926L27.2831 18.0351C27.7747 18.0494 27.9446 18.5332 27.9446 18.5332C27.3268 18.6362 26.875 18.4909 26.7214 18.43C26.0991 18.865 25.3322 18.8656 24.978 18.8656V18.7376Z" fill="#64B496"/>
<path d="M22.8382 13.1523C22.3876 13.4411 21.9904 13.8088 21.6704 14.2428C21.8079 14.3442 21.9454 14.4457 22.0829 14.547C22.3653 14.1639 22.7158 13.8395 23.1133 13.5845L22.8382 13.1523Z" fill="#41479B"/>
<path d="M25.0013 16.4834H26.7949V17.5084C26.7949 17.7915 26.5655 18.0209 26.2824 18.0209H25.5137C25.3031 18.0209 25.118 18.1239 25.0012 18.2807L25.0013 16.4834Z" fill="#FF6B71"/>
<path d="M25.3856 15.3304V13.9211H27.3074L26.7949 14.4336V15.8429H25.3856V15.3304Z" fill="#5F64B9"/>
<path d="M26.7949 15.8423H26.1543V16.4829H26.7949V15.8423Z" fill="#F5F5F5"/>
<path d="M25.0015 16.4834H23.2078V17.5084C23.2078 17.7915 23.4372 18.0209 23.7203 18.0209H24.4891C24.6996 18.0209 24.8848 18.1239 25.0016 18.2807L25.0015 16.4834Z" fill="#FF6B71"/>
<path d="M24.6812 18.0518C24.809 18.0926 24.9194 18.1722 24.9986 18.2771H25.0045C25.0838 18.1721 25.1941 18.0927 25.3219 18.0518V16.9958H24.6813L24.6812 18.0518Z" fill="#F5F5F5"/>
<path d="M24.617 15.3304V13.9211H22.6952L23.2077 14.4336V15.8429H24.617V15.3304Z" fill="#5F64B9"/>
<path d="M23.8486 15.8423H23.208V16.4829H23.8486V15.8423Z" fill="#F5F5F5"/>
<path d="M23.8481 14.5615V14.9459L24.2335 15.2021V14.9459L23.8481 14.5615Z" fill="#41479B"/>
<path d="M24.2328 14.946V15.3303L24.7453 15.5866V15.4584L24.2328 14.946Z" fill="#F5F5F5"/>
<path d="M26.1553 14.5615V14.9459L25.77 15.2021V14.9459L26.1553 14.5615Z" fill="#41479B"/>
<path d="M25.7701 14.946V15.3303L25.2576 15.5866V15.4584L25.7701 14.946Z" fill="#F5F5F5"/>
<path d="M25.7746 17.3802H24.2288C23.8774 17.3802 23.5925 17.0934 23.5925 16.7396V14.7581L25.011 15.7146L26.4107 14.7581V16.7396C26.4107 17.0935 26.1259 17.3802 25.7746 17.3802Z" fill="#D0353E"/>
<path d="M24.1045 15.0743L23.592 14.6899V16.0993L24.1045 16.3555V15.0743Z" fill="#41479B"/>
<path d="M25.8977 15.0741L26.4102 14.6897V16.0991L25.8977 16.3554V15.0741Z" fill="#41479B"/>
<path d="M25.7694 16.3557H24.2319V16.9964H25.7694V16.3557Z" fill="#41479B"/>
<path d="M24.2328 15.2021L25.0014 15.5865L25.7702 15.2021V16.3552H24.2328V15.2021Z" fill="#D0353E"/>
<path d="M25.5781 15.3232V16.6115C25.5781 16.7174 25.4919 16.8035 25.3861 16.8035H24.6173C24.5114 16.8035 24.4252 16.7173 24.4252 16.6115V15.3285L24.0408 15.071V16.6115C24.0408 16.9293 24.2994 17.1879 24.6173 17.1879H25.3861C25.7039 17.1879 25.9625 16.9293 25.9625 16.6115V15.0623L25.5781 15.3232Z" fill="#F5F5F5"/>
<path d="M25.7123 16.2182C25.4965 16.2376 25.2536 16.2594 25.0016 16.3471C24.7496 16.2594 24.5066 16.2376 24.2908 16.2182C23.9297 16.1858 23.7154 16.1542 23.5928 15.9364V16.3062C23.7811 16.4287 24.0197 16.4511 24.2679 16.4735C24.4906 16.4935 24.7209 16.5141 24.9562 16.6033L25.0016 16.6204L25.0471 16.6033C25.2823 16.5141 25.5126 16.4936 25.7354 16.4735C25.9838 16.4512 26.2227 16.429 26.4111 16.3064V15.9355C26.2884 16.1542 26.0739 16.1858 25.7123 16.2182Z" fill="#F5F5F5"/>
<path d="M25.2575 15.0101H25.0654V14.8179H24.9373V15.0101H24.7451V15.1382H24.9373V15.7148H25.0654V15.1382H25.2575V15.0101Z" fill="#FFE15A"/>
<path d="M23.8086 14.4287L23.7383 14.499L24.8641 15.6248L24.9344 15.5545L23.8086 14.4287Z" fill="#464655"/>
<path d="M23.5623 14.2524L23.7034 14.5338L23.8445 14.3931L23.5623 14.2524Z" fill="#FFE15A"/>
<path d="M24.0672 14.2463L23.9868 14.3049L24.9243 15.592L25.0047 15.5334L24.0672 14.2463Z" fill="#464655"/>
<path d="M23.8502 14.0339L23.9459 14.3338L24.1072 14.2166L23.8502 14.0339Z" fill="#FFE15A"/>
<path d="M23.5851 14.6638L23.5282 14.7453L24.8336 15.6568L24.8905 15.5753L23.5851 14.6638Z" fill="#464655"/>
<path d="M23.3115 14.5344L23.4998 14.7869L23.614 14.6238L23.3115 14.5344Z" fill="#FFE15A"/>
<path d="M25.068 15.5538L25.1383 15.6241L26.2641 14.4983L26.1938 14.428L25.068 15.5538Z" fill="#464655"/>
<path d="M26.4405 14.2524L26.2994 14.5338L26.1584 14.3931L26.4405 14.2524Z" fill="#FFE15A"/>
<path d="M24.9984 15.5322L25.0788 15.5908L26.0164 14.3037L25.9359 14.2451L24.9984 15.5322Z" fill="#464655"/>
<path d="M26.1526 14.0339L26.0569 14.3338L25.8958 14.2166L26.1526 14.0339Z" fill="#FFE15A"/>
<path d="M25.1135 15.5765L25.1704 15.658L26.4758 14.7465L26.4189 14.665L25.1135 15.5765Z" fill="#464655"/>
<path d="M26.6917 14.5344L26.5034 14.7869L26.3892 14.6238L26.6917 14.5344Z" fill="#FFE15A"/>
<path d="M24.9365 17.9844C24.9365 17.9844 24.441 17.4523 24.5372 16.9638C24.6144 16.5709 24.8489 16.1378 25.0324 16.0325C25.0324 16.0325 25.2919 16.0165 25.2269 16.2418C25.1618 16.4672 25.0825 16.5253 25.1058 16.7475C25.1457 17.1321 25.2077 17.5877 24.9365 17.9844Z" fill="#F5F5F5"/>
<path d="M25.0866 16.0354C25.0556 16.0313 25.0321 16.0327 25.0321 16.0327C24.8486 16.138 24.6141 16.5711 24.5369 16.964C24.4931 17.1862 24.5722 17.4169 24.671 17.603C24.6084 16.7975 24.8435 16.5118 25.0866 16.0354Z" fill="#41479B"/>
<path d="M25.106 16.7477C25.0828 16.5255 25.1622 16.4674 25.2274 16.242C25.2731 16.0843 25.1596 16.0449 25.0872 16.0354C25.0872 16.0354 24.9213 16.4155 24.9107 16.6705C24.9013 16.8948 24.9588 17.8076 24.9365 17.9847C25.2084 17.5877 25.1462 17.1321 25.106 16.7477Z" fill="#D0353E"/>
<path d="M24.7693 16.2252C24.8725 16.1246 25.0176 16.0795 25.1598 16.104C25.0924 15.8871 25.025 15.6702 24.9576 15.4532C24.8156 15.4289 24.6704 15.4739 24.5671 15.5745C24.6344 15.7915 24.7019 16.0083 24.7693 16.2252Z" fill="#F5F0F0"/>
<path d="M25.16 16.1041C25.2632 16.0035 25.4083 15.9584 25.5505 15.9828C25.4831 15.766 25.4157 15.5492 25.3483 15.3322C25.2064 15.3079 25.0611 15.3528 24.9578 15.4534C25.0251 15.6703 25.0925 15.8871 25.16 16.1041Z" fill="#F5F5F5"/>
<path d="M24.4163 13.289C23.7208 13.273 23.0338 13.444 22.427 13.7841C22.3435 13.6351 22.2599 13.4861 22.1763 13.3372C22.8631 12.952 23.6408 12.7585 24.4281 12.7766C24.4241 12.9474 24.4201 13.1182 24.4163 13.289Z" fill="#5F64B9"/>
<path d="M27.1647 13.1523C27.6153 13.4411 28.0125 13.8088 28.3325 14.2428C28.195 14.3442 28.0575 14.4457 27.92 14.547C27.6376 14.1639 27.2871 13.8395 26.8896 13.5845L27.1647 13.1523Z" fill="#41479B"/>
<path d="M25.5868 13.289C26.2823 13.273 26.9692 13.444 27.5761 13.7841C27.6596 13.6351 27.7432 13.4861 27.8268 13.3372C27.1399 12.952 26.3623 12.7585 25.575 12.7766C25.579 12.9474 25.583 13.1182 25.5868 13.289Z" fill="#5F64B9"/>
<path d="M26.0264 13.1524C25.3554 12.9688 24.6474 12.9688 23.9765 13.1524C23.9315 12.9876 23.8862 12.8229 23.8412 12.658C24.6007 12.4503 25.4021 12.4503 26.1616 12.658C26.1166 12.8228 26.0715 12.9875 26.0264 13.1524Z" fill="#41479B"/>
<path d="M23.2844 18.8948C22.7314 19.0392 22.1907 19.234 21.6702 19.4793C21.7431 19.6337 21.8159 19.7883 21.8887 19.9428C22.3909 19.7061 22.913 19.5193 23.4473 19.3821L23.2844 18.8948Z" fill="#FF6B71"/>
<path d="M26.7181 18.8948C27.2711 19.0392 27.8118 19.2341 28.3323 19.4793C28.2594 19.6338 28.1866 19.7884 28.1138 19.9428C27.6116 19.7061 27.0895 19.5193 26.5552 19.3821L26.7181 18.8948Z" fill="#FF6B71"/>
<path d="M27.0623 19.2909C25.7148 18.9674 24.31 18.9674 22.9624 19.2909C22.9226 19.1247 22.8827 18.9587 22.8428 18.7927C24.2689 18.4503 25.7559 18.4503 27.182 18.7927C27.1422 18.9587 27.1023 19.1249 27.0623 19.2909Z" fill="#D0353E"/>
<path d="M25.0022 19.4302L24.6489 19.5186C24.5681 19.5388 24.4897 19.4777 24.4897 19.3944V19.2101C24.4897 19.1268 24.5681 19.0656 24.6489 19.0859L25.0022 19.1743V19.4302Z" fill="#D0353E"/>
<path d="M25.0021 19.1741L25.3554 19.0857C25.4363 19.0655 25.5146 19.1266 25.5146 19.2099V19.3942C25.5146 19.4775 25.4363 19.5387 25.3554 19.5184L25.0021 19.43V19.1741Z" fill="#D0353E"/>
<path d="M25.0292 19.4302H24.9741C24.9184 19.4302 24.8732 19.3851 24.8732 19.3295V19.2745C24.8732 19.2189 24.9183 19.1738 24.9741 19.1738H25.0292C25.085 19.1738 25.1302 19.2188 25.1302 19.2745V19.3295C25.1301 19.3851 25.085 19.4302 25.0292 19.4302Z" fill="#FF6B71"/>
</svg>
