<svg width="50" height="33" viewBox="0 0 50 33" fill="none" xmlns="http://www.w3.org/2000/svg">
<path d="M49.1378 32.7586H0.862108C0.386034 32.7586 0 32.3726 0 31.8965V0.86214C0 0.38603 0.386034 0 0.862108 0H49.1379C49.614 0 50 0.38603 50 0.86214V31.8965C49.9999 32.3727 49.6139 32.7586 49.1378 32.7586Z" fill="#41479B"/>
<path d="M25.3503 3.75104L25.696 4.78744L26.7884 4.79594C26.9299 4.79704 26.9885 4.97744 26.8748 5.06154L25.9959 5.71054L26.3254 6.75214C26.368 6.88694 26.2145 6.99864 26.0994 6.91634L25.2106 6.28094L24.3218 6.91634C24.2068 6.99854 24.0532 6.88704 24.0959 6.75214L24.4254 5.71054L23.5465 5.06154C23.4327 4.97744 23.4913 4.79704 23.6328 4.79594L24.7253 4.78744L25.071 3.75104C25.1156 3.61684 25.3055 3.61684 25.3503 3.75104Z" fill="#FFE15A"/>
<path d="M25.3503 26.003L25.696 27.0394L26.7884 27.0479C26.9299 27.049 26.9885 27.2295 26.8748 27.3135L25.9959 27.9626L26.3254 29.0042C26.368 29.1389 26.2145 29.2506 26.0994 29.1683L25.2106 28.533L24.3218 29.1683C24.2068 29.2505 24.0532 29.139 24.0959 29.0042L24.4254 27.9626L23.5465 27.3135C23.4327 27.2295 23.4913 27.049 23.6328 27.0479L24.7253 27.0394L25.071 26.003C25.1156 25.8688 25.3055 25.8688 25.3503 26.003Z" fill="#FFE15A"/>
<path d="M36.4763 14.877L36.822 15.9134L37.9145 15.9219C38.056 15.923 38.1146 16.1035 38.0008 16.1875L37.1219 16.8366L37.4514 17.8782C37.4941 18.0129 37.3406 18.1246 37.2254 18.0423L36.3367 17.407L35.4479 18.0423C35.3329 18.1245 35.1792 18.013 35.2219 17.8782L35.5514 16.8366L34.6725 16.1875C34.5587 16.1035 34.6173 15.923 34.7588 15.9219L35.8513 15.9134L36.197 14.877C36.2416 14.7428 36.4316 14.7428 36.4763 14.877Z" fill="#FFE15A"/>
<path d="M14.224 14.877L14.5697 15.9134L15.6621 15.9219C15.8036 15.923 15.8622 16.1035 15.7485 16.1875L14.8696 16.8366L15.199 17.8782C15.2417 18.0129 15.0882 18.1246 14.9731 18.0423L14.0843 17.407L13.1955 18.0423C13.0805 18.1245 12.9269 18.013 12.9696 17.8782L13.2991 16.8366L12.4201 16.1875C12.3064 16.1035 12.365 15.923 12.5065 15.9219L13.599 15.9134L13.9447 14.877C13.9894 14.7428 14.1793 14.7428 14.224 14.877Z" fill="#FFE15A"/>
<path d="M15.8944 9.06696L16.2401 10.1034L17.3326 10.1119C17.4741 10.113 17.5327 10.2934 17.4189 10.3775L16.54 11.0265L16.8695 12.0681C16.9122 12.2029 16.7586 12.3146 16.6435 12.2323L15.7547 11.597L14.866 12.2323C14.7509 12.3145 14.5973 12.203 14.64 12.0681L14.9695 11.0265L14.0906 10.3775C13.9768 10.2934 14.0354 10.113 14.1769 10.1119L15.2694 10.1034L15.6151 9.06696C15.6598 8.93276 15.8496 8.93276 15.8944 9.06696Z" fill="#FFE15A"/>
<path d="M35.165 20.1929L35.5107 21.2293L36.6032 21.2378C36.7447 21.2389 36.8033 21.4194 36.6895 21.5035L35.8106 22.1525L36.1401 23.1941C36.1828 23.3289 36.0293 23.4406 35.9141 23.3582L35.0254 22.7229L34.1366 23.3582C34.0216 23.4405 33.868 23.3289 33.9106 23.1941L34.2401 22.1525L33.3612 21.5035C33.2474 21.4194 33.306 21.2389 33.4475 21.2378L34.54 21.2293L34.8857 20.1929C34.9305 20.0587 35.1203 20.0587 35.165 20.1929Z" fill="#FFE15A"/>
<path d="M31.0929 4.99437L31.4386 6.03087L32.5311 6.03927C32.6726 6.04037 32.7312 6.22087 32.6174 6.30497L31.7385 6.95397L32.068 7.99557C32.1107 8.13037 31.9572 8.24207 31.842 8.15977L30.9533 7.52437L30.0645 8.15977C29.9494 8.24197 29.7958 8.13047 29.8385 7.99557L30.168 6.95397L29.2891 6.30497C29.1753 6.22087 29.2339 6.04037 29.3754 6.03927L30.4679 6.03087L30.8136 4.99437C30.8582 4.86027 31.048 4.86027 31.0929 4.99437Z" fill="#FFE15A"/>
<path d="M19.9666 24.2654L20.3123 25.3018L21.4048 25.3103C21.5463 25.3114 21.6049 25.4918 21.4911 25.5759L20.6122 26.2249L20.9417 27.2665C20.9844 27.4013 20.8308 27.513 20.7157 27.4307L19.8269 26.7953L18.9382 27.4307C18.8231 27.5129 18.6695 27.4014 18.7122 27.2665L19.0417 26.2249L18.1628 25.5759C18.049 25.4918 18.1076 25.3114 18.2491 25.3103L19.3416 25.3018L19.6873 24.2654C19.732 24.1312 19.9218 24.1312 19.9666 24.2654Z" fill="#FFE15A"/>
<path d="M34.8857 9.06696L34.54 10.1034L33.4475 10.1119C33.306 10.113 33.2474 10.2934 33.3612 10.3775L34.2401 11.0265L33.9106 12.0681C33.868 12.2029 34.0215 12.3146 34.1366 12.2323L35.0254 11.597L35.9141 12.2323C36.0292 12.3145 36.1828 12.203 36.1401 12.0681L35.8106 11.0265L36.6895 10.3775C36.8033 10.2934 36.7447 10.113 36.6032 10.1119L35.5107 10.1034L35.165 9.06696C35.1203 8.93276 34.9305 8.93276 34.8857 9.06696Z" fill="#FFE15A"/>
<path d="M15.6151 20.1929L15.2694 21.2293L14.1769 21.2378C14.0354 21.2389 13.9768 21.4194 14.0906 21.5035L14.9695 22.1525L14.64 23.1941C14.5973 23.3289 14.7508 23.4406 14.866 23.3582L15.7547 22.7229L16.6435 23.3582C16.7585 23.4405 16.9122 23.3289 16.8695 23.1941L16.54 22.1525L17.4189 21.5035C17.5327 21.4194 17.4741 21.2389 17.3326 21.2378L16.2401 21.2293L15.8944 20.1929C15.8496 20.0587 15.6598 20.0587 15.6151 20.1929Z" fill="#FFE15A"/>
<path d="M19.6873 4.99437L19.3416 6.03087L18.2491 6.03927C18.1076 6.04037 18.049 6.22087 18.1628 6.30497L19.0417 6.95397L18.7122 7.99557C18.6695 8.13037 18.823 8.24207 18.9382 8.15977L19.8269 7.52437L20.7157 8.15977C20.8307 8.24197 20.9844 8.13047 20.9417 7.99557L20.6122 6.95397L21.4911 6.30497C21.6049 6.22087 21.5463 6.04037 21.4048 6.03927L20.3123 6.03087L19.9666 4.99437C19.9218 4.86027 19.732 4.86027 19.6873 4.99437Z" fill="#FFE15A"/>
<path d="M30.8133 24.2654L30.4676 25.3018L29.3752 25.3103C29.2337 25.3114 29.1751 25.4918 29.2888 25.5759L30.1677 26.2249L29.8382 27.2665C29.7956 27.4013 29.9491 27.513 30.0642 27.4307L30.953 26.7953L31.8418 27.4307C31.9568 27.5129 32.1104 27.4014 32.0677 27.2665L31.7382 26.2249L32.6171 25.5759C32.7309 25.4918 32.6723 25.3114 32.5308 25.3103L31.4383 25.3018L31.0926 24.2654C31.0478 24.1312 30.8581 24.1312 30.8133 24.2654Z" fill="#FFE15A"/>
</svg>
