<svg width="50" height="33" viewBox="0 0 50 33" fill="none" xmlns="http://www.w3.org/2000/svg">
<path d="M49.1376 32.7586H0.862109C0.386034 32.7586 0 32.3726 0 31.8965V0.86211C0 0.38604 0.386034 0 0.862109 0H49.1377C49.6138 0 49.9998 0.38604 49.9998 0.86211V31.8965C49.9997 32.3726 49.6138 32.7586 49.1376 32.7586Z" fill="#41479B"/>
<path d="M49.9998 0.86211C49.9998 0.38604 49.6138 0 49.1376 0H45.2808L29.3101 10.4636V0H20.6894V10.4636L4.71893 0H0.862109C0.386034 0 0 0.38604 0 0.86211V3.09168L13.7019 12.0689H0V20.6896H13.7019L0 29.6669V31.8965C0 32.3726 0.386034 32.7586 0.862109 32.7586H4.71903L20.6896 22.2951V32.7586H29.3103V22.2951L45.2809 32.7586H49.1378C49.6139 32.7586 50 32.3726 50 31.8965V29.6669L36.298 20.6897H49.9998V12.069H36.2978L49.9998 3.09168V0.86211Z" fill="#F5F5F5"/>
<path d="M49.9998 13.7931H27.5861V0H22.4136V13.7931H0V18.9655H22.4136V32.7586H27.5861V18.9655H49.9998V13.7931Z" fill="#D0353E"/>
<path d="M17.4755 20.6897L0.0246582 32.0175C0.0856932 32.4338 0.428954 32.7587 0.862249 32.7587H2.04965L20.6423 20.6898L17.4755 20.6897Z" fill="#D0353E"/>
<path d="M33.8274 20.6897H30.6606L49.2263 32.7408C49.659 32.6947 50.0005 32.3414 50.0005 31.8965V31.1877L33.8274 20.6897Z" fill="#D0353E"/>
<path d="M0.000732422 1.81394L15.7994 12.0691H18.9661L0.502978 0.0842285C0.208055 0.221239 0.000732422 0.515669 0.000732422 0.862249V1.81394Z" fill="#D0353E"/>
<path d="M32.4778 12.0692L49.9706 0.714005C49.8979 0.311475 49.562 0.000244141 49.1385 0.000244141H47.9034L29.311 12.0692H32.4778Z" fill="#D0353E"/>
</svg>
