<svg width="50" height="33" viewBox="0 0 50 33" fill="none" xmlns="http://www.w3.org/2000/svg">
<path d="M49.1378 32.7586H0.862103C0.386035 32.7586 0 32.3727 0 31.8965V0.86215C0 0.38604 0.386035 0 0.862103 0H49.1379C49.6139 0 50 0.38604 50 0.86215V31.8965C49.9999 32.3727 49.6138 32.7586 49.1378 32.7586Z" fill="#D0353E"/>
<path d="M21.9208 17.6414C20.8341 17.6526 19.6138 17.3046 18.5446 16.126C18.4709 16.0447 18.4812 15.9167 18.565 15.8457C18.6462 15.7768 18.7667 15.7872 18.8384 15.866C20.4683 17.6557 22.4884 17.3424 23.6954 16.9099C23.2495 16.9298 22.6892 16.8963 22.3289 16.6594C20.8235 15.6699 21.5053 14.6172 20.5055 13.3446C19.5121 12.0802 18.6181 12.1111 17.2105 12.3245C15.817 12.5356 15.373 11.5135 15.2348 10.9462C15.2101 10.8445 15.0683 10.8382 15.032 10.9361C13.2951 15.6289 18.5177 21.4355 23.8797 17.2604C23.3506 17.4552 22.6692 17.6338 21.9208 17.6414ZM18.0081 16.0489C17.9776 16.1327 17.858 16.1294 17.8321 16.044L17.6321 15.3849L16.9437 15.3608C16.8545 15.3577 16.8208 15.2429 16.8939 15.192L17.4589 14.7981L17.2692 14.1359C17.2446 14.0503 17.3433 13.9826 17.4144 14.0363L17.9636 14.4519L18.5347 14.0668C18.6086 14.0169 18.7036 14.0898 18.6743 14.1741L18.4487 14.8249L18.9915 15.249C19.0617 15.304 19.0216 15.4167 18.9325 15.4149L18.2438 15.4014L18.0081 16.0489Z" fill="#F5F5F5"/>
<path d="M25.7676 14.5233C26.6305 13.8627 27.8157 13.4094 29.3782 13.7111C29.4859 13.7319 29.5545 13.8405 29.53 13.9475C29.5063 14.0514 29.4037 14.1153 29.299 14.0952C26.9215 13.6404 25.4927 15.1027 24.7864 16.1725C25.1313 15.8892 25.5998 15.5801 26.0301 15.5536C27.8282 15.4426 27.9138 16.694 29.4772 17.1127C31.0304 17.5286 31.7272 16.9678 32.7258 15.9529C33.7143 14.9481 34.6827 15.4999 35.1333 15.871C35.214 15.9375 35.3313 15.8576 35.3016 15.7574C33.8772 10.9605 26.2155 9.44623 24.4287 16.0028C24.735 15.5299 25.1734 14.9783 25.7676 14.5233ZM29.8538 13.4512C29.8279 13.3658 29.9256 13.2967 29.9975 13.3494L30.5528 13.7568L31.1181 13.3633C31.1913 13.3123 31.2872 13.3839 31.2593 13.4685L31.0434 14.1226L31.5923 14.5386C31.6634 14.5926 31.625 14.7059 31.5359 14.7054L30.8471 14.7022L30.6212 15.3529C30.5919 15.4372 30.4722 15.4356 30.4451 15.3508L30.2353 14.6947L29.5466 14.6808C29.4575 14.679 29.4219 14.5648 29.4944 14.5128L30.0536 14.1105L29.8538 13.4512Z" fill="#F5F5F5"/>
<path d="M22.8897 14.9757C22.4659 13.9749 22.3233 12.714 23.0064 11.2767C23.0535 11.1776 23.1759 11.1385 23.2733 11.189C23.3679 11.238 23.4041 11.3533 23.3587 11.4496C22.3236 13.6379 23.3822 15.3869 24.2413 16.3384C24.0532 15.9335 23.8712 15.4027 23.953 14.9793C24.2953 13.2106 25.5283 13.4406 26.3247 12.0316C27.116 10.6317 26.7472 9.81694 26.0143 8.59634C25.2887 7.38794 26.0652 6.58844 26.5373 6.24484C26.6218 6.18334 26.5738 6.04984 26.4694 6.05354C21.4687 6.23294 18.0861 13.2722 23.9874 16.6422C23.606 16.2271 23.1816 15.6648 22.8897 14.9757ZM22.8736 10.7513C22.7845 10.755 22.7421 10.6431 22.8111 10.5867L23.3445 10.151L23.1049 9.50524C23.0738 9.42164 23.1672 9.34664 23.2421 9.39484L23.8214 9.76754L24.3614 9.34004C24.4313 9.28474 24.5314 9.35024 24.5087 9.43654L24.3333 10.1025L24.9066 10.4841C24.9808 10.5335 24.9495 10.6489 24.8605 10.654L24.1728 10.693L23.9872 11.3562C23.9632 11.4421 23.8436 11.4479 23.8113 11.3648L23.5617 10.7229L22.8736 10.7513Z" fill="#F5F5F5"/>
<path d="M26.7864 17.2465C27.6846 17.8582 28.4873 18.841 28.6914 20.4192C28.7056 20.5281 28.6238 20.6272 28.5146 20.6377C28.4085 20.6478 28.3155 20.5703 28.3016 20.4647C27.9866 18.0646 26.1495 17.1676 24.9119 16.8329C25.2892 17.0714 25.7298 17.419 25.8903 17.8193C26.5604 19.4915 25.3992 19.966 25.4927 21.5817C25.5856 23.187 26.337 23.6723 27.6142 24.3016C28.8785 24.9246 28.6589 26.0171 28.448 26.5617C28.4103 26.6592 28.5229 26.7454 28.6086 26.6857C32.7152 23.8267 31.7467 16.0772 24.9607 16.4401C25.5067 16.5824 26.1679 16.8253 26.7864 17.2465ZM29.0878 20.789C29.1608 20.7377 29.257 20.8088 29.2295 20.8935L29.0171 21.5487L29.5683 21.9619C29.6396 22.0153 29.6019 22.1289 29.5127 22.129L28.8239 22.1294L28.6014 22.7812C28.5726 22.8656 28.4529 22.8647 28.4253 22.78L28.212 22.125L27.5234 22.1147C27.4341 22.1135 27.3981 21.9993 27.4701 21.9469L28.0272 21.5416L27.824 20.8834C27.7978 20.7981 27.895 20.7285 27.9672 20.7809L28.5247 21.1854L29.0878 20.789Z" fill="#F5F5F5"/>
<path d="M24.5395 19.1941C24.2301 20.2359 23.5381 21.2996 22.0968 21.9743C21.9974 22.0209 21.8782 21.9732 21.835 21.8723C21.7931 21.7744 21.8386 21.6624 21.9349 21.617C24.1253 20.5866 24.421 18.5637 24.3631 17.283C24.2507 17.715 24.0537 18.2404 23.7212 18.5151C22.3323 19.6623 21.5269 18.7006 20.0163 19.2813C18.5153 19.8583 18.2816 20.7218 18.0708 22.1299C17.8622 23.5238 16.7545 23.6469 16.1717 23.6119C16.0674 23.6056 16.0194 23.7391 16.1023 23.8027C20.0754 26.8447 27.1626 23.564 24.7521 17.2102C24.7828 17.7729 24.7526 18.4766 24.5395 19.1941ZM21.8651 22.4642C21.9362 22.5181 21.8978 22.6313 21.8087 22.631L21.12 22.628L20.8942 23.2788C20.865 23.3631 20.7453 23.3615 20.7181 23.2766L20.5081 22.6206L19.8194 22.6069C19.7302 22.6051 19.6946 22.4909 19.7671 22.4388L20.326 22.0364L20.1262 21.3772C20.1004 21.2919 20.198 21.2227 20.2699 21.2755L20.8254 21.6827L21.3906 21.2889C21.4637 21.238 21.5596 21.3095 21.5318 21.3942L21.3162 22.0483L21.8651 22.4642Z" fill="#F5F5F5"/>
</svg>
