<svg width="50" height="33" viewBox="0 0 50 33" fill="none" xmlns="http://www.w3.org/2000/svg">
<path d="M49.1378 32.7586H0.862108C0.386035 32.7586 0 32.3726 0 31.8965V0.86213C0 0.38603 0.386035 0 0.862108 0H49.1379C49.614 0 50 0.38603 50 0.86213V31.8965C49.9999 32.3727 49.6139 32.7586 49.1378 32.7586Z" fill="#F5F5F5"/>
<path d="M29.7856 9.20475C25.8244 6.56405 20.4741 7.64365 17.8351 11.598C16.5113 13.5717 17.0494 16.2537 19.0299 17.5741C21.0089 18.8945 23.6822 18.3582 25.0026 16.3776C26.323 14.397 28.9981 13.8674 30.977 15.1809C32.9593 16.5013 33.4924 19.1832 32.1701 21.157C34.8109 17.196 33.7434 11.8457 29.7856 9.20475Z" fill="#D0353E"/>
<path d="M17.8353 11.598C16.5116 13.5717 17.0496 16.2536 19.0301 17.5741C21.0091 18.8945 23.6824 18.3582 25.0028 16.3776C26.3233 14.397 28.9984 13.8674 30.9773 15.1809C32.9595 16.5013 33.4926 19.1832 32.1703 21.157C29.533 25.1249 24.1845 26.191 20.2233 23.5502C16.2657 20.9096 15.1946 15.5592 17.8353 11.598Z" fill="#41479B"/>
<path d="M34.1731 5.9488L35.739 8.3025C35.8705 8.5003 35.8173 8.7672 35.62 8.8994L35.2229 9.1653C35.0248 9.2979 34.7566 9.2446 34.6244 9.0462L33.0565 6.693C32.9246 6.4951 32.9781 6.2276 33.1759 6.0955L33.5749 5.8291C33.7732 5.6967 34.0411 5.7504 34.1731 5.9488Z" fill="#464655"/>
<path d="M36.5898 9.57783L38.1608 11.93C38.2934 12.1287 38.2392 12.3974 38.04 12.5291L37.6412 12.7926C37.4433 12.9235 37.1769 12.8697 37.0452 12.6725L35.475 10.3227C35.3428 10.1249 35.3959 9.85723 35.5939 9.72493L35.9917 9.45883C36.1897 9.32653 36.4575 9.37973 36.5898 9.57783Z" fill="#464655"/>
<path d="M35.85 4.8299L39.8372 10.8135C39.9692 11.0116 39.9156 11.2792 39.7175 11.4112L39.3169 11.6782C39.1189 11.8103 38.8512 11.7567 38.7192 11.5586L34.7306 5.5754C34.5985 5.3772 34.6522 5.1094 34.8505 4.9775L35.2523 4.71C35.4504 4.5783 35.7179 4.6318 35.85 4.8299Z" fill="#464655"/>
<path d="M37.5223 3.71269L39.0917 6.07099C39.2239 6.26959 39.1696 6.53779 38.9705 6.66929L38.5714 6.93299C38.3734 7.06379 38.1069 7.00999 37.9752 6.81249L36.4047 4.45729C36.2726 4.25919 36.3262 3.99159 36.5243 3.85949L36.9246 3.59269C37.1225 3.46059 37.3903 3.51419 37.5223 3.71269Z" fill="#464655"/>
<path d="M39.9399 7.34927L41.5068 9.70267C41.6386 9.90047 41.5852 10.1677 41.3877 10.2999L40.9897 10.5659C40.7916 10.6984 40.5234 10.6449 40.3914 10.4464L38.8245 8.09297C38.6927 7.89517 38.7461 7.62797 38.9436 7.49587L39.3416 7.22977C39.5396 7.09727 39.8078 7.15067 39.9399 7.34927Z" fill="#464655"/>
<path d="M12.9624 20.0886L16.9491 26.0658C17.0812 26.2638 17.0278 26.5314 16.8298 26.6635L16.4306 26.9301C16.2325 27.0623 15.9649 27.0089 15.8326 26.8108L11.8459 20.8335C11.7139 20.6356 11.7672 20.368 11.9653 20.2359L12.3645 19.9693C12.5625 19.837 12.8303 19.8906 12.9624 20.0886Z" fill="#464655"/>
<path d="M11.2892 21.2067L12.8545 23.5545C12.9864 23.7523 12.9332 24.0194 12.7356 24.1517L12.3385 24.4175C12.1406 24.5501 11.8726 24.4968 11.7403 24.2987L10.1732 21.9515C10.041 21.7536 10.0943 21.4859 10.2924 21.3537L10.6914 21.0873C10.8893 20.9551 11.1571 21.0086 11.2892 21.2067Z" fill="#464655"/>
<path d="M13.7077 24.837L15.2747 27.1907C15.4065 27.3885 15.3531 27.6558 15.1554 27.7878L14.7571 28.054C14.559 28.1865 14.2911 28.133 14.1589 27.9348L12.5909 25.5816C12.459 25.3836 12.5125 25.1162 12.7103 24.984L13.1095 24.7174C13.3077 24.585 13.5756 24.6386 13.7077 24.837Z" fill="#464655"/>
<path d="M9.61519 22.3245L13.5994 28.302C13.7313 28.4999 13.6779 28.7672 13.4803 28.8995L13.0822 29.1657C12.8841 29.2981 12.6163 29.2448 12.484 29.0465L8.49752 23.0698C8.36539 22.8717 8.419 22.6041 8.61705 22.4719L9.01763 22.2049C9.21548 22.0729 9.48316 22.1264 9.61519 22.3245Z" fill="#464655"/>
<path d="M11.847 11.9304L15.8331 5.94828C15.9653 5.75008 16.233 5.69658 16.4312 5.82878L16.8303 6.09528C17.0282 6.22738 17.0816 6.49498 16.9496 6.69298L12.9619 12.6717C12.8301 12.8693 12.5634 12.923 12.3655 12.792L11.9679 12.5288C11.7689 12.3971 11.7148 12.1289 11.847 11.9304Z" fill="#464655"/>
<path d="M10.1725 10.814L14.1593 4.83067C14.2914 4.63247 14.5594 4.57897 14.7575 4.71137L15.1557 4.97757C15.3533 5.10967 15.4067 5.37687 15.2748 5.57487L11.2891 11.5585C11.157 11.7567 10.8892 11.8103 10.691 11.678L10.2918 11.4115C10.094 11.2794 10.0406 11.012 10.1725 10.814Z" fill="#464655"/>
<path d="M8.49677 9.70228L12.484 3.71308C12.6161 3.51478 12.8842 3.46108 13.0823 3.59358L13.4805 3.85978C13.6781 3.99188 13.7314 4.25888 13.5998 4.45678L9.61503 10.447C9.4831 10.6453 9.21523 10.699 9.01708 10.5669L8.6165 10.2999C8.41855 10.1679 8.36503 9.90038 8.49677 9.70228Z" fill="#464655"/>
<path d="M33.0573 26.0658L34.6243 23.7187C34.7567 23.5205 35.0246 23.4673 35.2226 23.5998L35.6197 23.8657C35.8172 23.998 35.8703 24.2652 35.7385 24.463L34.1733 26.8107C34.0411 27.0088 33.7734 27.0623 33.5753 26.9301L33.1763 26.6637C32.9783 26.5315 32.925 26.2639 33.0573 26.0658Z" fill="#464655"/>
<path d="M35.4746 22.448L37.0442 20.0892C37.1762 19.891 37.444 19.8373 37.6421 19.9694L38.0421 20.236C38.2403 20.3681 38.2938 20.636 38.1616 20.834L36.5886 23.1891C36.4567 23.3867 36.19 23.4402 35.992 23.3089L35.5954 23.046C35.3966 22.9143 35.3425 22.6463 35.4746 22.448Z" fill="#464655"/>
<path d="M34.7306 27.1899L36.2986 24.8365C36.4307 24.6384 36.6983 24.5848 36.8965 24.7169L37.2973 24.9842C37.4952 25.1162 37.5487 25.3836 37.4169 25.5818L35.8498 27.9353C35.7179 28.1334 35.4504 28.1871 35.2521 28.0552L34.8503 27.7877C34.6522 27.6558 34.5985 27.388 34.7306 27.1899Z" fill="#464655"/>
<path d="M37.1506 23.5536L38.7196 21.2057C38.8518 21.0079 39.1192 20.9546 39.3171 21.0866L39.7177 21.3536C39.9158 21.4857 39.9694 21.7536 39.8369 21.9516L38.2681 24.2994C38.136 24.4972 37.8685 24.5505 37.6706 24.4186L37.2699 24.1516C37.0716 24.0197 37.0182 23.7517 37.1506 23.5536Z" fill="#464655"/>
<path d="M36.405 28.3014L37.9748 25.9522C38.1067 25.755 38.373 25.7013 38.5708 25.8321L38.9699 26.0957C39.169 26.2274 39.2233 26.4958 39.0909 26.6945L37.5222 29.0468C37.3902 29.2448 37.1225 29.2983 36.9245 29.1663L36.5242 28.8995C36.326 28.7673 36.2726 28.4994 36.405 28.3014Z" fill="#464655"/>
<path d="M38.825 24.6772L40.3909 22.3251C40.523 22.1268 40.7911 22.0732 40.9893 22.2057L41.3869 22.4715C41.5847 22.6037 41.6379 22.8712 41.5059 23.0691L39.9386 25.418C39.8068 25.6156 39.5398 25.6693 39.3419 25.538L38.9454 25.2753C38.7469 25.1437 38.6929 24.8756 38.825 24.6772Z" fill="#464655"/>
</svg>
