<svg width="50" height="33" viewBox="0 0 50 33" fill="none" xmlns="http://www.w3.org/2000/svg">
<path d="M16.6667 32.7587H0.862107C0.386037 32.7587 0 32.3727 0 31.8966V0.86211C0 0.38604 0.386037 0 0.862107 0H16.6667V32.7587Z" fill="#73AF00"/>
<path d="M33.334 0.000488281H16.667V32.7593H33.334V0.000488281Z" fill="#F5F5F5"/>
<path d="M49.138 32.7587H33.3334V0H49.138C49.614 0 50.0001 0.38604 50.0001 0.86211V31.8966C50.0001 32.3728 49.614 32.7587 49.138 32.7587Z" fill="#D0353E"/>
<path d="M26.4868 17.1504L25 17.894V18.6374H25.7435L26.4868 17.1504Z" fill="#FFD250"/>
<path d="M24.9986 20.4959C24.7931 20.4959 24.6268 20.3296 24.6268 20.1242V18.6373C24.6268 18.4319 24.7931 18.2656 24.9986 18.2656C25.2041 18.2656 25.3704 18.4319 25.3704 18.6373V20.1242C25.3704 20.3296 25.2041 20.4959 24.9986 20.4959Z" fill="#00C3A0"/>
<path d="M24.9986 19.0091C23.5385 19.0091 22.1286 18.4457 21.0284 17.4228C20.8781 17.283 20.8694 17.0478 21.0091 16.8976C21.1499 16.7477 21.3849 16.7397 21.5343 16.8782C22.4966 17.7731 23.7269 18.2656 24.9985 18.2656C26.27 18.2656 27.5003 17.7731 28.4626 16.8782C28.6125 16.7393 28.8474 16.7469 28.9878 16.8976C29.1276 17.0479 29.1189 17.2831 28.9685 17.4228C27.8685 18.4458 26.4586 19.0091 24.9986 19.0091Z" fill="#00C3A0"/>
<path d="M25 20.4961C24.047 20.4961 23.124 20.2177 22.3304 19.6907L22.7421 19.0713C24.0838 19.9628 25.9162 19.9628 27.2578 19.0713L27.6694 19.6907C26.8759 20.2178 25.9529 20.4961 25 20.4961Z" fill="#00AADC"/>
<path d="M24.4113 15.4778L23.5905 16.748L23.451 17.1661L25.5884 16.6705L24.4113 15.4778Z" fill="#732D37"/>
<path d="M22.725 17.5746C21.7424 17.5746 20.5629 16.7477 20.25 14.9051L20.9833 14.781C21.2433 16.3132 22.1858 16.8323 22.7518 16.8309C22.9254 16.8261 23.1064 16.7662 23.1207 16.6436C23.1374 16.4969 23.1414 16.4621 22.7526 16.3307C22.5413 16.2591 22.3017 16.1783 22.1337 15.9859C21.4537 15.2094 22.3743 14.3876 22.8166 13.9927C22.8946 13.923 22.9269 13.8638 22.9186 13.8413C22.8943 13.7778 22.7484 13.6817 22.584 13.6817C22.1117 13.6817 21.7534 13.4149 21.6493 12.9858C21.5411 12.5414 21.7455 12.0732 22.1347 11.8721L22.476 12.5327C22.3848 12.5799 22.3486 12.7142 22.3718 12.8101C22.3809 12.8486 22.403 12.9382 22.5842 12.9382C23.0393 12.9382 23.4725 13.2069 23.6133 13.5764C23.6735 13.7339 23.7642 14.1434 23.312 14.5474C22.8237 14.9834 22.5315 15.3116 22.6934 15.4963C22.7301 15.538 22.8873 15.5914 22.9911 15.6263C23.3258 15.7396 23.9487 15.9501 23.8595 16.7287C23.8035 17.2184 23.3665 17.5581 22.7726 17.5742C22.7566 17.5742 22.7406 17.5746 22.725 17.5746Z" fill="#AAD264"/>
<path d="M25.7435 13.4333C25.7435 13.4333 26.4869 11.9464 25 11.203C25 11.203 30.204 10.4595 29.4605 17.1504C28.9727 16.7601 28.2479 16.0464 27.9892 15.4777L25.7435 14.1766V13.4333Z" fill="#874150"/>
<path d="M25 14.9202L28.7171 17.1504C28.7171 17.1504 28.7171 17.1504 27.2303 17.8939L25 15.6637V14.9202Z" fill="#732D37"/>
<path d="M23.5131 12.6899C23.9236 12.6899 24.2565 13.0228 24.2565 13.4333L24.2557 13.4341C23.8122 13.8777 23.7023 14.5551 23.9828 15.1162L24.1507 15.4522C24.2208 15.5922 24.313 15.7202 24.4237 15.8309L26.4869 17.8941V16.8666C26.4869 15.5867 26.1889 14.3243 25.6165 13.1794C25.2386 12.4239 24.4664 11.9465 23.6216 11.9465H23.5132L23.5131 12.6899Z" fill="#783C46"/>
<path d="M23.5135 11.9465L22.77 12.69V13.4334C22.77 13.4334 23.6544 12.9851 23.9524 12.8422C24.1607 12.7424 24.1228 12.5064 24.0033 12.3926C23.9102 12.3041 23.5135 11.9465 23.5135 11.9465Z" fill="#FFD250"/>
<path d="M25 21.9828C21.5156 21.9828 18.6809 19.1481 18.6809 15.6636H19.4244C19.4244 18.7383 21.9254 21.2394 25.0001 21.2394C28.0748 21.2394 30.5759 18.7383 30.5759 15.6636H31.3194C31.3192 19.1481 28.4845 21.9828 25 21.9828Z" fill="#AAD264"/>
<path d="M19.4664 18.3742C19.745 18.3742 19.9709 18.1483 19.9709 17.8697C19.9709 17.5911 19.745 17.3652 19.4664 17.3652C19.1878 17.3652 18.9619 17.5911 18.9619 17.8697C18.9619 18.1483 19.1878 18.3742 19.4664 18.3742Z" fill="#FFE15A"/>
<path d="M20.5813 20.1554C20.8599 20.1554 21.0858 19.9296 21.0858 19.6509C21.0858 19.3723 20.8599 19.1465 20.5813 19.1465C20.3026 19.1465 20.0768 19.3723 20.0768 19.6509C20.0768 19.9296 20.3026 20.1554 20.5813 20.1554Z" fill="#FFE15A"/>
<path d="M22.393 21.5022C22.6717 21.5022 22.8975 21.2763 22.8975 20.9977C22.8975 20.7191 22.6717 20.4932 22.393 20.4932C22.1144 20.4932 21.8885 20.7191 21.8885 20.9977C21.8885 21.2763 22.1144 21.5022 22.393 21.5022Z" fill="#FFE15A"/>
<path d="M30.5908 18.3742C30.8694 18.3742 31.0953 18.1483 31.0953 17.8697C31.0953 17.5911 30.8694 17.3652 30.5908 17.3652C30.3122 17.3652 30.0863 17.5911 30.0863 17.8697C30.0863 18.1483 30.3122 18.3742 30.5908 18.3742Z" fill="#FFE15A"/>
<path d="M29.4742 20.1554C29.7528 20.1554 29.9787 19.9296 29.9787 19.6509C29.9787 19.3723 29.7528 19.1465 29.4742 19.1465C29.1956 19.1465 28.9697 19.3723 28.9697 19.6509C28.9697 19.9296 29.1956 20.1554 29.4742 20.1554Z" fill="#FFE15A"/>
<path d="M27.6626 21.5022C27.9412 21.5022 28.1671 21.2763 28.1671 20.9977C28.1671 20.7191 27.9412 20.4932 27.6626 20.4932C27.3839 20.4932 27.1581 20.7191 27.1581 20.9977C27.1581 21.2763 27.3839 21.5022 27.6626 21.5022Z" fill="#FFE15A"/>
<path d="M25.3719 20.8678H24.6285C24.2179 20.8678 23.885 20.5349 23.885 20.1244C23.885 19.7138 24.2179 19.3809 24.6285 19.3809H25.3719C25.7825 19.3809 26.1154 19.7138 26.1154 20.1244C26.1154 20.535 25.7825 20.8678 25.3719 20.8678Z" fill="#FFB478"/>
<path d="M27.9892 15.4779C28.2371 16.2058 28.7637 16.8718 29.4602 17.1503C30.2037 10.4596 25 11.2033 25 11.2033C28.7171 11.2033 27.9892 15.4779 27.9892 15.4779Z" fill="#9B4B5A"/>
</svg>
