<svg width="50" height="33" viewBox="0 0 50 33" fill="none" xmlns="http://www.w3.org/2000/svg">
<path d="M49.1378 32.7586H0.862108C0.386034 32.7586 0 32.3726 0 31.8965V0.86211C0 0.38604 0.386034 0 0.862108 0H49.1379C49.6139 0 50 0.38604 50 0.86211V31.8965C49.9999 32.3727 49.6138 32.7586 49.1378 32.7586Z" fill="#D0353E"/>
<path d="M49.9999 12.0689H22.4137V0H13.793V12.0689H0V20.6896H13.793V32.7585H22.4137V20.6896H49.9999V12.0689Z" fill="#F5F5F5"/>
<path d="M49.9999 13.793H20.6896V0H15.5172V13.793H0V18.9655H15.5172V32.7585H20.6896V18.9655H49.9999V13.793Z" fill="#41479B"/>
</svg>
