<svg width="50" height="33" viewBox="0 0 50 33" fill="none" xmlns="http://www.w3.org/2000/svg">
<path d="M49.1377 32.7586H0.862109C0.386035 32.7586 0 32.3726 0 31.8965V0.86211C0 0.38604 0.386035 0 0.862109 0H49.1378C49.6139 0 50 0.38604 50 0.86211V31.8965C50 32.3727 49.6138 32.7586 49.1377 32.7586Z" fill="#F5F5F5"/>
<path d="M24.9998 16.3793H49.1377C49.6137 16.3793 49.9998 15.9933 49.9998 15.5172V0.86211C49.9998 0.38604 49.6137 0 49.1377 0H25.8619C25.3858 0 24.9998 0.38604 24.9998 0.86211V16.3793Z" fill="#D0353E"/>
<path d="M0.862599 32.7587H24.1384C24.6145 32.7587 25.0005 32.3727 25.0005 31.8966V16.3794H0.862599C0.386523 16.3794 0.000488281 16.7655 0.000488281 17.2415V31.8967C0.000488281 32.3728 0.386523 32.7587 0.862599 32.7587Z" fill="#4173CD"/>
<path d="M12.8326 4.51292L13.6544 6.97722L16.252 6.99732C16.5884 6.99982 16.7279 7.42912 16.4573 7.62892L14.3676 9.17192L15.1511 11.6487C15.2524 11.9694 14.8875 12.2345 14.6137 12.039L12.5005 10.5286L10.3872 12.0391C10.1135 12.2347 9.74845 11.9694 9.84985 11.6488L10.6333 9.17202L8.54367 7.62892C8.27306 7.42912 8.41252 6.99992 8.74884 6.99742L11.3465 6.97732L12.1684 4.51302C12.2749 4.19392 12.7262 4.19392 12.8326 4.51292Z" fill="#4173CD"/>
<path d="M37.8321 20.8921L38.654 23.3564L41.2516 23.3765C41.5879 23.379 41.7274 23.8083 41.4568 24.008L39.3671 25.5511L40.1506 28.0278C40.252 28.3485 39.887 28.6137 39.6133 28.4182L37.5001 26.9077L35.3867 28.4183C35.1131 28.6139 34.748 28.3485 34.8494 28.0279L35.6329 25.5512L33.5432 24.0081C33.2726 23.8083 33.4121 23.3791 33.7484 23.3766L36.3461 23.3565L37.1679 20.8922C37.2744 20.5731 37.7257 20.5731 37.8321 20.8921Z" fill="#D0353E"/>
</svg>
