<svg width="50" height="33" viewBox="0 0 50 33" fill="none" xmlns="http://www.w3.org/2000/svg">
<path d="M50 16.3793H0V0.862109C0 0.386029 0.386035 0 0.862109 0H49.1378C49.6139 0 50 0.386029 50 0.862109L50 16.3793Z" fill="#D0353E"/>
<path d="M0.000488281 16.3794H50.0003V31.8967C50.0003 32.3728 49.6143 32.7588 49.1382 32.7588H0.862599C0.386523 32.7588 0.000488281 32.3728 0.000488281 31.8967V16.3794Z" fill="#F5F5F5"/>
<path d="M7.08722 8.20199C7.08722 5.36719 9.1673 3.0173 11.8834 2.5827C12.0308 2.559 12.0375 2.3562 11.8919 2.3226C11.2195 2.168 10.5053 2.124 9.76375 2.2249C6.83429 2.624 4.56984 5.1591 4.52844 8.1154C4.48127 11.4909 7.20255 14.2396 10.5621 14.2396C11.0194 14.2396 11.4634 14.1862 11.8908 14.0878C12.0362 14.0544 12.0289 13.8511 11.8816 13.8275C9.16661 13.3931 7.08722 11.0478 7.08722 8.20199Z" fill="#F5F5F5"/>
<path d="M11.9281 9.71878L11.6729 10.484L10.8664 10.4903C10.762 10.4911 10.7186 10.6243 10.8027 10.6864L11.4515 11.1656L11.2082 11.9346C11.1767 12.0342 11.2901 12.1165 11.375 12.0558L12.0312 11.5867L12.6875 12.0558C12.7724 12.1165 12.8857 12.0341 12.8543 11.9346L12.6109 11.1656L13.2597 10.6864C13.3438 10.6242 13.3005 10.4911 13.1961 10.4903L12.3895 10.484L12.1344 9.71878C12.1012 9.61978 11.9611 9.61978 11.9281 9.71878Z" fill="#F5F5F5"/>
<path d="M15.9154 9.71878L15.6602 10.484L14.8537 10.4903C14.7493 10.4911 14.7059 10.6243 14.79 10.6864L15.4388 11.1656L15.1955 11.9346C15.164 12.0342 15.2774 12.1165 15.3623 12.0558L16.0185 11.5867L16.6748 12.0558C16.7597 12.1165 16.873 12.0341 16.8416 11.9346L16.5982 11.1656L17.247 10.6864C17.3311 10.6242 17.2878 10.4911 17.1834 10.4903L16.3768 10.484L16.1217 9.71878C16.0886 9.61978 15.9485 9.61978 15.9154 9.71878Z" fill="#F5F5F5"/>
<path d="M13.9395 3.56595L13.6843 4.33125L12.8778 4.33745C12.7734 4.33835 12.73 4.47155 12.8141 4.53355L13.4629 5.01275L13.2196 5.78185C13.1881 5.88145 13.3015 5.96375 13.3864 5.90305L14.0426 5.43395L14.6989 5.90305C14.7838 5.96375 14.8971 5.88135 14.8656 5.78185L14.6223 5.01275L15.2711 4.53355C15.3552 4.47145 15.3118 4.33835 15.2074 4.33745L14.4009 4.33125L14.1457 3.56595C14.1126 3.46695 13.9725 3.46695 13.9395 3.56595Z" fill="#F5F5F5"/>
<path d="M10.7605 5.92313L10.5053 6.68833L9.69884 6.69463C9.59444 6.69553 9.55114 6.82873 9.63514 6.89073L10.284 7.36993L10.0406 8.13893C10.0092 8.23853 10.1225 8.32093 10.2074 8.26013L10.8636 7.79113L11.5199 8.26013C11.6049 8.32093 11.7181 8.23843 11.6867 8.13893L11.4433 7.36993L12.0922 6.89073C12.1762 6.82863 12.1329 6.69553 12.0285 6.69463L11.2219 6.68833L10.9668 5.92313C10.9337 5.82413 10.7936 5.82413 10.7605 5.92313Z" fill="#F5F5F5"/>
<path d="M17.0916 5.92313L16.8364 6.68833L16.0299 6.69463C15.9255 6.69553 15.8821 6.82873 15.9662 6.89073L16.615 7.36993L16.3717 8.13893C16.3402 8.23853 16.4536 8.32093 16.5385 8.26013L17.1947 7.79113L17.851 8.26013C17.9359 8.32093 18.0492 8.23843 18.0177 8.13893L17.7744 7.36993L18.4232 6.89073C18.5073 6.82863 18.4639 6.69553 18.3595 6.69463L17.553 6.68833L17.2978 5.92313C17.2647 5.82413 17.1246 5.82413 17.0916 5.92313Z" fill="#F5F5F5"/>
</svg>
