<svg width="50" height="33" viewBox="0 0 50 33" fill="none" xmlns="http://www.w3.org/2000/svg">
<path d="M49.1378 32.7586H0.862108C0.386034 32.7586 0 32.3726 0 31.8965V0.862101C0 0.386031 0.386034 0 0.862108 0H49.1379C49.614 0 50 0.386031 50 0.862101V31.8965C49.9999 32.3727 49.6139 32.7586 49.1378 32.7586Z" fill="#F5F5F5"/>
<path d="M49.9999 2.52H0V0.862101C0 0.386031 0.386034 0 0.862108 0H49.1379C49.614 0 50 0.386031 50 0.862101L49.9999 2.52Z" fill="#D0353E"/>
<path d="M49.9999 10.0796H0V12.5995H49.9999V10.0796Z" fill="#D0353E"/>
<path d="M49.9999 5.03955H0V7.55945H49.9999V5.03955Z" fill="#D0353E"/>
<path d="M49.9999 17.6394H0.862108C0.386034 17.6394 0 17.2533 0 16.7773V15.1194H49.9999V17.6394Z" fill="#D0353E"/>
<path d="M49.9999 25.1997H0V27.7196H49.9999V25.1997Z" fill="#D0353E"/>
<path d="M49.1378 32.7585H0.862108C0.386034 32.7585 0 32.3724 0 31.8964V30.2385H49.9999V31.8965C49.9999 32.3725 49.6139 32.7585 49.1378 32.7585Z" fill="#D0353E"/>
<path d="M49.9999 20.1594H0V22.6794H49.9999V20.1594Z" fill="#D0353E"/>
<path d="M22.4137 0H0.862108C0.386034 0 0 0.38594 0 0.86201V16.777C0 17.2531 0.386034 17.6391 0.862108 17.6391H22.4138C22.8899 17.6391 23.2759 17.2531 23.2759 16.777V0.86201C23.2758 0.38594 22.8898 0 22.4137 0Z" fill="#41479B"/>
<path d="M2.42151 1.9789L2.61233 2.5512L3.21556 2.5557C3.29368 2.5564 3.32601 2.656 3.26321 2.7024L2.77796 3.0608L2.95999 3.6359C2.98362 3.7103 2.89876 3.7721 2.83519 3.7265L2.34446 3.3759L1.85374 3.7266C1.79017 3.7721 1.7055 3.7104 1.72894 3.636L1.91097 3.0609L1.42572 2.7025C1.36292 2.656 1.39525 2.5565 1.47337 2.5558L2.07659 2.5513L2.26741 1.979C2.29202 1.9048 2.39671 1.9048 2.42151 1.9789Z" fill="#F5F5F5"/>
<path d="M2.42115 4.97232L2.61197 5.54452L3.2152 5.54912C3.29332 5.54982 3.32564 5.64942 3.26285 5.69582L2.7776 6.05422L2.95963 6.62932C2.98326 6.70372 2.8984 6.76542 2.83482 6.71992L2.3441 6.36922L1.85338 6.72002C1.78981 6.76542 1.70514 6.70382 1.72858 6.62942L1.91061 6.05432L1.42536 5.69592C1.36256 5.64942 1.39489 5.54992 1.47301 5.54922L2.07623 5.54462L2.26705 4.97232C2.29166 4.89822 2.39635 4.89822 2.42115 4.97232Z" fill="#F5F5F5"/>
<path d="M2.42115 7.96589L2.61197 8.53819L3.2152 8.54279C3.29332 8.54349 3.32564 8.64309 3.26285 8.68949L2.7776 9.04789L2.95963 9.62299C2.98326 9.69739 2.8984 9.75909 2.83482 9.71359L2.3441 9.36289L1.85338 9.71369C1.78981 9.75909 1.70514 9.69749 1.72858 9.62309L1.91061 9.04799L1.42536 8.68959C1.36256 8.64309 1.39489 8.54359 1.47301 8.54289L2.07623 8.53829L2.26705 7.96599C2.29166 7.89189 2.39635 7.89189 2.42115 7.96589Z" fill="#F5F5F5"/>
<path d="M2.42115 10.9596L2.61197 11.5319L3.2152 11.5365C3.29332 11.5371 3.32564 11.6368 3.26285 11.6831L2.7776 12.0415L2.95963 12.6166C2.98326 12.691 2.8984 12.7528 2.83482 12.7073L2.3441 12.3566L1.85338 12.7074C1.78981 12.7528 1.70514 12.6911 1.72858 12.6167L1.91061 12.0416L1.42536 11.6832C1.36256 11.6368 1.39489 11.5372 1.47301 11.5366L2.07623 11.532L2.26705 10.9597C2.29166 10.8855 2.39635 10.8855 2.42115 10.9596Z" fill="#F5F5F5"/>
<path d="M2.42115 13.9531L2.61197 14.5254L3.2152 14.53C3.29332 14.5307 3.32564 14.6303 3.26285 14.6767L2.7776 15.0351L2.95963 15.6102C2.98326 15.6846 2.8984 15.7463 2.83482 15.7008L2.3441 15.3501L1.85338 15.7009C1.78981 15.7463 1.70514 15.6847 1.72858 15.6103L1.91061 15.0352L1.42536 14.6768C1.36256 14.6303 1.39489 14.5308 1.47301 14.5301L2.07623 14.5255L2.26705 13.9532C2.29166 13.8789 2.39635 13.8789 2.42115 13.9531Z" fill="#F5F5F5"/>
<path d="M4.74458 3.44637L4.9354 4.01857L5.53862 4.02317C5.61674 4.02387 5.64907 4.12347 5.58628 4.16987L5.10102 4.52827L5.28305 5.10337C5.30669 5.17777 5.22182 5.23947 5.15825 5.19397L4.66753 4.84327L4.17681 5.19397C4.11323 5.23937 4.02856 5.17777 4.052 5.10337L4.23403 4.52827L3.74878 4.16987C3.68599 4.12337 3.71831 4.02387 3.79644 4.02317L4.39966 4.01857L4.59048 3.44637C4.61499 3.37237 4.71987 3.37237 4.74458 3.44637Z" fill="#F5F5F5"/>
<path d="M4.74458 6.4401L4.9354 7.0124L5.53862 7.017C5.61674 7.0177 5.64907 7.1173 5.58628 7.1637L5.10102 7.5221L5.28305 8.0972C5.30669 8.1716 5.22182 8.2333 5.15825 8.1878L4.66753 7.837L4.17681 8.1878C4.11323 8.2332 4.02856 8.1717 4.052 8.0972L4.23403 7.5221L3.74878 7.1637C3.68599 7.1172 3.71831 7.0177 3.79644 7.017L4.39966 7.0124L4.59048 6.4401C4.61499 6.366 4.71987 6.366 4.74458 6.4401Z" fill="#F5F5F5"/>
<path d="M4.74458 9.4335L4.9354 10.0057L5.53862 10.0103C5.61674 10.011 5.64907 10.1106 5.58628 10.157L5.10102 10.5154L5.28305 11.0905C5.30669 11.1649 5.22182 11.2266 5.15825 11.1811L4.66753 10.8304L4.17681 11.1811C4.11323 11.2265 4.02856 11.1649 4.052 11.0905L4.23403 10.5154L3.74878 10.157C3.68599 10.1105 3.71831 10.011 3.79644 10.0103L4.39966 10.0057L4.59048 9.4335C4.61499 9.3594 4.71987 9.3594 4.74458 9.4335Z" fill="#F5F5F5"/>
<path d="M4.74458 12.4272L4.9354 12.9994L5.53862 13.004C5.61674 13.0047 5.64907 13.1043 5.58628 13.1507L5.10102 13.5091L5.28305 14.0842C5.30669 14.1586 5.22182 14.2203 5.15825 14.1748L4.66753 13.824L4.17681 14.1748C4.11323 14.2202 4.02856 14.1586 4.052 14.0842L4.23403 13.5091L3.74878 13.1507C3.68599 13.1042 3.71831 13.0047 3.79644 13.004L4.39966 12.9994L4.59048 12.4272C4.61499 12.3531 4.71987 12.3531 4.74458 12.4272Z" fill="#F5F5F5"/>
<path d="M7.06818 1.97867L7.259 2.55097L7.86223 2.55557C7.94035 2.55627 7.97267 2.65587 7.90988 2.70227L7.42463 3.06067L7.60666 3.63577C7.63029 3.71017 7.54543 3.77187 7.48186 3.72637L6.99113 3.37557L6.50041 3.72637C6.43684 3.77177 6.35217 3.71017 6.37561 3.63577L6.55764 3.06067L6.07239 2.70227C6.00959 2.65577 6.04192 2.55627 6.12004 2.55557L6.72326 2.55097L6.91408 1.97867C6.93869 1.90457 7.04348 1.90457 7.06818 1.97867Z" fill="#F5F5F5"/>
<path d="M7.06818 4.97232L7.259 5.54452L7.86223 5.54912C7.94035 5.54982 7.97267 5.64942 7.90988 5.69582L7.42463 6.05422L7.60666 6.62932C7.63029 6.70372 7.54543 6.76542 7.48186 6.71992L6.99113 6.36912L6.50041 6.71992C6.43684 6.76532 6.35217 6.70372 6.37561 6.62932L6.55764 6.05422L6.07239 5.69582C6.00959 5.64932 6.04192 5.54982 6.12004 5.54912L6.72326 5.54452L6.91408 4.97232C6.93869 4.89822 7.04348 4.89822 7.06818 4.97232Z" fill="#F5F5F5"/>
<path d="M7.06818 7.96598L7.259 8.53818L7.86223 8.54278C7.94035 8.54348 7.97267 8.64308 7.90988 8.68948L7.42463 9.04788L7.60666 9.62298C7.63029 9.69738 7.54543 9.75908 7.48186 9.71358L6.99113 9.36278L6.50041 9.71358C6.43684 9.75898 6.35217 9.69738 6.37561 9.62298L6.55764 9.04788L6.07239 8.68948C6.00959 8.64298 6.04192 8.54348 6.12004 8.54278L6.72326 8.53818L6.91408 7.96598C6.93869 7.89188 7.04348 7.89188 7.06818 7.96598Z" fill="#F5F5F5"/>
<path d="M7.06818 10.9595L7.259 11.5317L7.86223 11.5363C7.94035 11.537 7.97267 11.6366 7.90988 11.683L7.42463 12.0414L7.60666 12.6165C7.63029 12.6909 7.54543 12.7526 7.48186 12.7071L6.99113 12.3563L6.50041 12.7071C6.43684 12.7525 6.35217 12.6909 6.37561 12.6165L6.55764 12.0414L6.07239 11.683C6.00959 11.6365 6.04192 11.537 6.12004 11.5363L6.72326 11.5317L6.91408 10.9595C6.93869 10.8853 7.04348 10.8853 7.06818 10.9595Z" fill="#F5F5F5"/>
<path d="M7.06818 13.9532L7.259 14.5254L7.86223 14.53C7.94035 14.5307 7.97267 14.6303 7.90988 14.6767L7.42463 15.0351L7.60666 15.6102C7.63029 15.6846 7.54543 15.7463 7.48186 15.7008L6.99113 15.35L6.50041 15.7008C6.43684 15.7462 6.35217 15.6846 6.37561 15.6102L6.55764 15.0351L6.07239 14.6767C6.00959 14.6302 6.04192 14.5307 6.12004 14.53L6.72326 14.5254L6.91408 13.9532C6.93869 13.8789 7.04348 13.8789 7.06818 13.9532Z" fill="#F5F5F5"/>
<path d="M9.39192 3.44637L9.58274 4.01857L10.186 4.02317C10.2641 4.02387 10.2964 4.12347 10.2336 4.16987L9.74837 4.52827L9.9304 5.10337C9.95403 5.17777 9.86917 5.23947 9.80559 5.19397L9.31487 4.84327L8.82415 5.19397C8.76058 5.23937 8.67591 5.17777 8.69935 5.10337L8.88138 4.52827L8.39612 4.16987C8.33333 4.12337 8.36565 4.02387 8.44378 4.02317L9.047 4.01857L9.23782 3.44637C9.26233 3.37237 9.36721 3.37237 9.39192 3.44637Z" fill="#F5F5F5"/>
<path d="M9.39192 6.4401L9.58274 7.0124L10.186 7.017C10.2641 7.0177 10.2964 7.1173 10.2336 7.1637L9.74837 7.5221L9.9304 8.0972C9.95403 8.1716 9.86917 8.2333 9.80559 8.1878L9.31487 7.837L8.82415 8.1878C8.76058 8.2332 8.67591 8.1717 8.69935 8.0972L8.88138 7.5221L8.39612 7.1637C8.33333 7.1172 8.36565 7.0177 8.44378 7.017L9.047 7.0124L9.23782 6.4401C9.26233 6.366 9.36721 6.366 9.39192 6.4401Z" fill="#F5F5F5"/>
<path d="M9.39192 9.4335L9.58274 10.0057L10.186 10.0103C10.2641 10.011 10.2964 10.1106 10.2336 10.157L9.74837 10.5154L9.9304 11.0905C9.95403 11.1649 9.86917 11.2266 9.80559 11.1811L9.31487 10.8304L8.82415 11.1811C8.76058 11.2265 8.67591 11.1649 8.69935 11.0905L8.88138 10.5154L8.39612 10.157C8.33333 10.1105 8.36565 10.011 8.44378 10.0103L9.047 10.0057L9.23782 9.4335C9.26233 9.3594 9.36721 9.3594 9.39192 9.4335Z" fill="#F5F5F5"/>
<path d="M9.39192 12.4272L9.58274 12.9994L10.186 13.004C10.2641 13.0047 10.2964 13.1043 10.2336 13.1507L9.74837 13.5091L9.9304 14.0842C9.95403 14.1586 9.86917 14.2203 9.80559 14.1748L9.31487 13.824L8.82415 14.1748C8.76058 14.2202 8.67591 14.1586 8.69935 14.0842L8.88138 13.5091L8.39612 13.1507C8.33333 13.1042 8.36565 13.0047 8.44378 13.004L9.047 12.9994L9.23782 12.4272C9.26233 12.3531 9.36721 12.3531 9.39192 12.4272Z" fill="#F5F5F5"/>
<path d="M11.7154 1.97867L11.9062 2.55097L12.5094 2.55557C12.5875 2.55627 12.6199 2.65587 12.5571 2.70227L12.0718 3.06067L12.2538 3.63577C12.2775 3.71017 12.1926 3.77187 12.129 3.72637L11.6382 3.37557L11.1475 3.72637C11.0839 3.77177 10.9993 3.71017 11.0227 3.63577L11.2047 3.06067L10.7195 2.70227C10.6567 2.65577 10.689 2.55627 10.7671 2.55557L11.3704 2.55097L11.5612 1.97867C11.5859 1.90457 11.6907 1.90457 11.7154 1.97867Z" fill="#F5F5F5"/>
<path d="M11.7154 4.97232L11.9062 5.54452L12.5094 5.54912C12.5875 5.54982 12.6199 5.64942 12.5571 5.69582L12.0718 6.05422L12.2538 6.62932C12.2775 6.70372 12.1926 6.76542 12.129 6.71992L11.6382 6.36912L11.1475 6.71992C11.0839 6.76532 10.9993 6.70372 11.0227 6.62932L11.2047 6.05422L10.7195 5.69582C10.6567 5.64932 10.689 5.54982 10.7671 5.54912L11.3704 5.54452L11.5612 4.97232C11.5859 4.89822 11.6907 4.89822 11.7154 4.97232Z" fill="#F5F5F5"/>
<path d="M11.7154 7.96598L11.9062 8.53818L12.5094 8.54278C12.5875 8.54348 12.6199 8.64308 12.5571 8.68948L12.0718 9.04788L12.2538 9.62298C12.2775 9.69738 12.1926 9.75908 12.129 9.71358L11.6382 9.36278L11.1475 9.71358C11.0839 9.75898 10.9993 9.69738 11.0227 9.62298L11.2047 9.04788L10.7195 8.68948C10.6567 8.64298 10.689 8.54348 10.7671 8.54278L11.3704 8.53818L11.5612 7.96598C11.5859 7.89188 11.6907 7.89188 11.7154 7.96598Z" fill="#F5F5F5"/>
<path d="M11.7154 10.9595L11.9062 11.5317L12.5094 11.5363C12.5875 11.537 12.6199 11.6366 12.5571 11.683L12.0718 12.0414L12.2538 12.6165C12.2775 12.6909 12.1926 12.7526 12.129 12.7071L11.6382 12.3563L11.1475 12.7071C11.0839 12.7525 10.9993 12.6909 11.0227 12.6165L11.2047 12.0414L10.7195 11.683C10.6567 11.6365 10.689 11.537 10.7671 11.5363L11.3704 11.5317L11.5612 10.9595C11.5859 10.8853 11.6907 10.8853 11.7154 10.9595Z" fill="#F5F5F5"/>
<path d="M11.7154 13.9532L11.9062 14.5254L12.5094 14.53C12.5875 14.5307 12.6199 14.6303 12.5571 14.6767L12.0718 15.0351L12.2538 15.6102C12.2775 15.6846 12.1926 15.7463 12.129 15.7008L11.6382 15.35L11.1475 15.7008C11.0839 15.7462 10.9993 15.6846 11.0227 15.6102L11.2047 15.0351L10.7195 14.6767C10.6567 14.6302 10.689 14.5307 10.7671 14.53L11.3704 14.5254L11.5612 13.9532C11.5859 13.8789 11.6907 13.8789 11.7154 13.9532Z" fill="#F5F5F5"/>
<path d="M14.039 3.44637L14.2298 4.01857L14.833 4.02317C14.9111 4.02387 14.9435 4.12347 14.8807 4.16987L14.3954 4.52827L14.5775 5.10337C14.6011 5.17777 14.5162 5.23947 14.4527 5.19397L13.9619 4.84327L13.4712 5.19397C13.4076 5.23937 13.323 5.17777 13.3464 5.10337L13.5284 4.52827L13.0432 4.16987C12.9804 4.12337 13.0127 4.02387 13.0908 4.02317L13.6941 4.01857L13.8849 3.44637C13.9096 3.37237 14.0143 3.37237 14.039 3.44637Z" fill="#F5F5F5"/>
<path d="M14.039 6.4401L14.2298 7.0124L14.833 7.017C14.9111 7.0177 14.9435 7.1173 14.8807 7.1637L14.3954 7.5221L14.5775 8.0972C14.6011 8.1716 14.5162 8.2333 14.4527 8.1878L13.9619 7.837L13.4712 8.1878C13.4076 8.2332 13.323 8.1717 13.3464 8.0972L13.5284 7.5221L13.0432 7.1637C12.9804 7.1172 13.0127 7.0177 13.0908 7.017L13.6941 7.0124L13.8849 6.4401C13.9096 6.366 14.0143 6.366 14.039 6.4401Z" fill="#F5F5F5"/>
<path d="M14.039 9.4335L14.2298 10.0057L14.833 10.0103C14.9111 10.011 14.9435 10.1106 14.8807 10.157L14.3954 10.5154L14.5775 11.0905C14.6011 11.1649 14.5162 11.2266 14.4527 11.1811L13.9619 10.8304L13.4712 11.1811C13.4076 11.2265 13.323 11.1649 13.3464 11.0905L13.5284 10.5154L13.0432 10.157C12.9804 10.1105 13.0127 10.011 13.0908 10.0103L13.6941 10.0057L13.8849 9.4335C13.9096 9.3594 14.0143 9.3594 14.039 9.4335Z" fill="#F5F5F5"/>
<path d="M14.039 12.4272L14.2298 12.9994L14.833 13.004C14.9111 13.0047 14.9435 13.1043 14.8807 13.1507L14.3954 13.5091L14.5775 14.0842C14.6011 14.1586 14.5162 14.2203 14.4527 14.1748L13.9619 13.824L13.4712 14.1748C13.4076 14.2202 13.323 14.1586 13.3464 14.0842L13.5284 13.5091L13.0432 13.1507C12.9804 13.1042 13.0127 13.0047 13.0908 13.004L13.6941 12.9994L13.8849 12.4272C13.9096 12.3531 14.0143 12.3531 14.039 12.4272Z" fill="#F5F5F5"/>
<path d="M16.3626 1.97867L16.5534 2.55097L17.1566 2.55557C17.2348 2.55627 17.2671 2.65587 17.2043 2.70227L16.7191 3.06067L16.9011 3.63577C16.9247 3.71017 16.8399 3.77187 16.7763 3.72637L16.2856 3.37557L15.7948 3.72637C15.7313 3.77177 15.6466 3.71017 15.67 3.63577L15.8521 3.06067L15.3668 2.70227C15.304 2.65577 15.3363 2.55627 15.4145 2.55557L16.0177 2.55097L16.2085 1.97867C16.233 1.90457 16.3379 1.90457 16.3626 1.97867Z" fill="#F5F5F5"/>
<path d="M16.3626 4.97232L16.5534 5.54452L17.1566 5.54912C17.2348 5.54982 17.2671 5.64942 17.2043 5.69582L16.7191 6.05422L16.9011 6.62932C16.9247 6.70372 16.8399 6.76542 16.7763 6.71992L16.2856 6.36912L15.7948 6.71992C15.7313 6.76532 15.6466 6.70372 15.67 6.62932L15.8521 6.05422L15.3668 5.69582C15.304 5.64932 15.3363 5.54982 15.4145 5.54912L16.0177 5.54452L16.2085 4.97232C16.233 4.89822 16.3379 4.89822 16.3626 4.97232Z" fill="#F5F5F5"/>
<path d="M16.3626 7.96598L16.5534 8.53818L17.1566 8.54278C17.2348 8.54348 17.2671 8.64308 17.2043 8.68948L16.7191 9.04788L16.9011 9.62298C16.9247 9.69738 16.8399 9.75908 16.7763 9.71358L16.2856 9.36278L15.7948 9.71358C15.7313 9.75898 15.6466 9.69738 15.67 9.62298L15.8521 9.04788L15.3668 8.68948C15.304 8.64298 15.3363 8.54348 15.4145 8.54278L16.0177 8.53818L16.2085 7.96598C16.233 7.89188 16.3379 7.89188 16.3626 7.96598Z" fill="#F5F5F5"/>
<path d="M16.3626 10.9595L16.5534 11.5317L17.1566 11.5363C17.2348 11.537 17.2671 11.6366 17.2043 11.683L16.7191 12.0414L16.9011 12.6165C16.9247 12.6909 16.8399 12.7526 16.7763 12.7071L16.2856 12.3563L15.7948 12.7071C15.7313 12.7525 15.6466 12.6909 15.67 12.6165L15.8521 12.0414L15.3668 11.683C15.304 11.6365 15.3363 11.537 15.4145 11.5363L16.0177 11.5317L16.2085 10.9595C16.233 10.8853 16.3379 10.8853 16.3626 10.9595Z" fill="#F5F5F5"/>
<path d="M16.3626 13.9532L16.5534 14.5254L17.1566 14.53C17.2348 14.5307 17.2671 14.6303 17.2043 14.6767L16.7191 15.0351L16.9011 15.6102C16.9247 15.6846 16.8399 15.7463 16.7763 15.7008L16.2856 15.35L15.7948 15.7008C15.7313 15.7462 15.6466 15.6846 15.67 15.6102L15.8521 15.0351L15.3668 14.6767C15.304 14.6302 15.3363 14.5307 15.4145 14.53L16.0177 14.5254L16.2085 13.9532C16.233 13.8789 16.3379 13.8789 16.3626 13.9532Z" fill="#F5F5F5"/>
<path d="M18.6861 3.44637L18.8769 4.01857L19.4801 4.02317C19.5582 4.02387 19.5905 4.12347 19.5277 4.16987L19.0425 4.52827L19.2245 5.10337C19.2482 5.17777 19.1633 5.23947 19.0997 5.19397L18.609 4.84327L18.1183 5.19397C18.0547 5.23937 17.97 5.17777 17.9935 5.10337L18.1755 4.52827L17.6903 4.16987C17.6275 4.12337 17.6598 4.02387 17.7379 4.02317L18.3411 4.01857L18.532 3.44637C18.5566 3.37237 18.6614 3.37237 18.6861 3.44637Z" fill="#F5F5F5"/>
<path d="M18.6861 6.4401L18.8769 7.0124L19.4801 7.017C19.5582 7.0177 19.5905 7.1173 19.5277 7.1637L19.0425 7.5221L19.2245 8.0972C19.2482 8.1716 19.1633 8.2333 19.0997 8.1878L18.609 7.837L18.1183 8.1878C18.0547 8.2332 17.97 8.1717 17.9935 8.0972L18.1755 7.5221L17.6903 7.1637C17.6275 7.1172 17.6598 7.0177 17.7379 7.017L18.3411 7.0124L18.532 6.4401C18.5566 6.366 18.6614 6.366 18.6861 6.4401Z" fill="#F5F5F5"/>
<path d="M18.6861 9.4335L18.8769 10.0057L19.4801 10.0103C19.5582 10.011 19.5905 10.1106 19.5277 10.157L19.0425 10.5154L19.2245 11.0905C19.2482 11.1649 19.1633 11.2266 19.0997 11.1811L18.609 10.8304L18.1183 11.1811C18.0547 11.2265 17.97 11.1649 17.9935 11.0905L18.1755 10.5154L17.6903 10.157C17.6275 10.1105 17.6598 10.011 17.7379 10.0103L18.3411 10.0057L18.532 9.4335C18.5566 9.3594 18.6614 9.3594 18.6861 9.4335Z" fill="#F5F5F5"/>
<path d="M18.6861 12.4272L18.8769 12.9994L19.4801 13.004C19.5582 13.0047 19.5905 13.1043 19.5277 13.1507L19.0425 13.5091L19.2245 14.0842C19.2482 14.1586 19.1633 14.2203 19.0997 14.1748L18.609 13.824L18.1183 14.1748C18.0547 14.2202 17.97 14.1586 17.9935 14.0842L18.1755 13.5091L17.6903 13.1507C17.6275 13.1042 17.6598 13.0047 17.7379 13.004L18.3411 12.9994L18.532 12.4272C18.5566 12.3531 18.6614 12.3531 18.6861 12.4272Z" fill="#F5F5F5"/>
<path d="M21.0097 1.97867L21.2005 2.55097L21.8037 2.55557C21.8818 2.55627 21.9142 2.65587 21.8514 2.70227L21.3661 3.06067L21.5481 3.63577C21.5718 3.71017 21.4869 3.77187 21.4233 3.72637L20.9326 3.37557L20.4419 3.72637C20.3783 3.77177 20.2937 3.71017 20.3171 3.63577L20.4991 3.06067L20.0139 2.70227C19.9511 2.65577 19.9834 2.55627 20.0615 2.55557L20.6648 2.55097L20.8556 1.97867C20.8802 1.90457 20.9849 1.90457 21.0097 1.97867Z" fill="#F5F5F5"/>
<path d="M21.0097 4.97232L21.2005 5.54452L21.8037 5.54912C21.8818 5.54982 21.9142 5.64942 21.8514 5.69582L21.3661 6.05422L21.5481 6.62932C21.5718 6.70372 21.4869 6.76542 21.4233 6.71992L20.9326 6.36912L20.4419 6.71992C20.3783 6.76532 20.2937 6.70372 20.3171 6.62932L20.4991 6.05422L20.0139 5.69582C19.9511 5.64932 19.9834 5.54982 20.0615 5.54912L20.6648 5.54452L20.8556 4.97232C20.8802 4.89822 20.9849 4.89822 21.0097 4.97232Z" fill="#F5F5F5"/>
<path d="M21.0097 7.96598L21.2005 8.53818L21.8037 8.54278C21.8818 8.54348 21.9142 8.64308 21.8514 8.68948L21.3661 9.04788L21.5481 9.62298C21.5718 9.69738 21.4869 9.75908 21.4233 9.71358L20.9326 9.36278L20.4419 9.71358C20.3783 9.75898 20.2937 9.69738 20.3171 9.62298L20.4991 9.04788L20.0139 8.68948C19.9511 8.64298 19.9834 8.54348 20.0615 8.54278L20.6648 8.53818L20.8556 7.96598C20.8802 7.89188 20.9849 7.89188 21.0097 7.96598Z" fill="#F5F5F5"/>
<path d="M21.0097 10.9595L21.2005 11.5317L21.8037 11.5363C21.8818 11.537 21.9142 11.6366 21.8514 11.683L21.3661 12.0414L21.5481 12.6165C21.5718 12.6909 21.4869 12.7526 21.4233 12.7071L20.9326 12.3563L20.4419 12.7071C20.3783 12.7525 20.2937 12.6909 20.3171 12.6165L20.4991 12.0414L20.0139 11.683C19.9511 11.6365 19.9834 11.537 20.0615 11.5363L20.6648 11.5317L20.8556 10.9595C20.8802 10.8853 20.9849 10.8853 21.0097 10.9595Z" fill="#F5F5F5"/>
<path d="M21.0097 13.9532L21.2005 14.5254L21.8037 14.53C21.8818 14.5307 21.9142 14.6303 21.8514 14.6767L21.3661 15.0351L21.5481 15.6102C21.5718 15.6846 21.4869 15.7463 21.4233 15.7008L20.9326 15.35L20.4419 15.7008C20.3783 15.7462 20.2937 15.6846 20.3171 15.6102L20.4991 15.0351L20.0139 14.6767C19.9511 14.6302 19.9834 14.5307 20.0615 14.53L20.6648 14.5254L20.8556 13.9532C20.8802 13.8789 20.9849 13.8789 21.0097 13.9532Z" fill="#F5F5F5"/>
</svg>
