<svg width="50" height="33" viewBox="0 0 50 33" fill="none" xmlns="http://www.w3.org/2000/svg">
<path d="M49.1378 0H0.862103C0.386034 0 0 0.38593 0 0.86201V31.8964C0 32.3725 0.386034 32.7585 0.862103 32.7585H49.1379C49.6139 32.7585 50 32.3725 50 31.8964V0.86201C49.9999 0.38593 49.6138 0 49.1378 0Z" fill="#F5F5F5"/>
<path d="M49.9999 3.63989H18.1035V7.27959H49.9999V3.63989Z" fill="#4173CD"/>
<path d="M49.9999 7.27979H0V10.9194H49.9999V7.27979Z" fill="#F5F5F5"/>
<path d="M49.9999 10.9192H18.1035V14.5588H49.9999V10.9192Z" fill="#4173CD"/>
<path d="M49.9999 14.5591H0V18.1987H49.9999V14.5591Z" fill="#F5F5F5"/>
<path d="M49.9999 18.1997H0V21.8394H49.9999V18.1997Z" fill="#4173CD"/>
<path d="M49.9999 21.8391H0V25.4788H49.9999V21.8391Z" fill="#F5F5F5"/>
<path d="M49.9999 25.4788H0V29.1185H49.9999V25.4788Z" fill="#4173CD"/>
<path d="M6.2478 2.28198L7.68988 8.95508L9.94646 8.02028L6.2478 2.28198Z" fill="#FFE15A"/>
<path d="M6.2478 2.28198L8.81811 8.48768L7.68988 8.95508L6.2478 2.28198Z" fill="#FFCD5A"/>
<path d="M11.8557 15.8216L10.4136 9.14844L8.15704 10.0832L11.8557 15.8216Z" fill="#FFE15A"/>
<path d="M11.8558 15.8216L9.2854 9.61584L10.4136 9.14844L11.8558 15.8216Z" fill="#FFCD5A"/>
<path d="M15.8215 6.2478L9.14856 7.6899L10.0833 9.9464L15.8215 6.2478Z" fill="#FFE15A"/>
<path d="M15.8215 6.2478L9.61585 8.8181L9.14856 7.6899L15.8215 6.2478Z" fill="#FFCD5A"/>
<path d="M2.28192 11.8558L8.95496 10.4137L8.02019 8.15723L2.28192 11.8558Z" fill="#FFE15A"/>
<path d="M2.28192 11.8557L8.48758 9.2854L8.95496 10.4136L2.28192 11.8557Z" fill="#FFCD5A"/>
<path d="M11.8557 2.28198L8.15704 8.02028L10.4136 8.95508L11.8557 2.28198Z" fill="#FFE15A"/>
<path d="M11.8557 2.28198L9.28535 8.48768L8.15704 8.02028L11.8557 2.28198Z" fill="#FFCD5A"/>
<path d="M6.2478 15.8216L9.94646 10.0832L7.68988 9.14844L6.2478 15.8216Z" fill="#FFE15A"/>
<path d="M6.2478 15.8214L8.8181 9.61572L9.94646 10.0831L6.2478 15.8214Z" fill="#FFCD5A"/>
<path d="M15.8215 11.8558L10.0833 8.15723L9.14856 10.4137L15.8215 11.8558Z" fill="#FFE15A"/>
<path d="M15.8216 11.8558L9.61584 9.28553L10.0832 8.15723L15.8216 11.8558Z" fill="#FFCD5A"/>
<path d="M2.28192 6.2478L8.02019 9.9464L8.95496 7.6899L2.28192 6.2478Z" fill="#FFE15A"/>
<path d="M2.28192 6.2478L8.48758 8.8181L8.02019 9.9464L2.28192 6.2478Z" fill="#FFCD5A"/>
<path d="M9.05166 1.72412L7.83038 8.44102H10.2729L9.05166 1.72412Z" fill="#FFE15A"/>
<path d="M9.05166 1.72412V8.44102H7.83038L9.05166 1.72412Z" fill="#FFCD5A"/>
<path d="M9.05166 16.3793L10.2729 9.66235H7.83038L9.05166 16.3793Z" fill="#FFE15A"/>
<path d="M9.05182 16.3793V9.66235H10.273L9.05182 16.3793Z" fill="#FFCD5A"/>
<path d="M16.3793 9.05162L9.66241 7.83032V10.2728L16.3793 9.05162Z" fill="#FFE15A"/>
<path d="M16.3793 9.05162H9.66241V7.83032L16.3793 9.05162Z" fill="#FFCD5A"/>
<path d="M1.72412 9.05162L8.441 10.2728V7.83032L1.72412 9.05162Z" fill="#FFE15A"/>
<path d="M1.72412 9.05176H8.441V10.2729L1.72412 9.05176Z" fill="#FFCD5A"/>
<path d="M14.2331 3.87036L8.62 7.75636L10.3471 9.48346L14.2331 3.87036Z" fill="#FFE15A"/>
<path d="M14.2331 3.87036L9.48357 8.61996L8.62 7.75636L14.2331 3.87036Z" fill="#FFCD5A"/>
<path d="M3.87054 14.2331L9.48361 10.3471L7.75647 8.61987L3.87054 14.2331Z" fill="#FFE15A"/>
<path d="M3.87054 14.233L8.62004 9.4834L9.48361 10.3469L3.87054 14.233Z" fill="#FFCD5A"/>
<path d="M14.2331 14.2331L10.3471 8.61987L8.62 10.3471L14.2331 14.2331Z" fill="#FFE15A"/>
<path d="M14.2332 14.2331L9.48352 9.48347L10.3471 8.61987L14.2332 14.2331Z" fill="#FFCD5A"/>
<path d="M3.87054 3.87036L7.75647 9.48346L9.48361 7.75636L3.87054 3.87036Z" fill="#FFE15A"/>
<path d="M3.87054 3.87036L8.62004 8.61996L7.75647 9.48346L3.87054 3.87036Z" fill="#FFCD5A"/>
<path d="M9.05182 11.4947C10.4007 11.4947 11.4941 10.4012 11.4941 9.05226C11.4941 7.70336 10.4007 6.60986 9.05182 6.60986C7.70293 6.60986 6.60944 7.70336 6.60944 9.05226C6.60944 10.4012 7.70293 11.4947 9.05182 11.4947Z" fill="#FFE15A"/>
</svg>
