<svg width="86" height="150" viewBox="0 0 86 150" fill="none" xmlns="http://www.w3.org/2000/svg">
<path opacity="0.4" d="M57.3061 0.0354263L13.6668 56.3483C6.44731 65.6645 6.44731 80.7691 13.6668 90.0853L57.3061 146.398C64.5256 155.714 76.2308 155.714 83.4503 146.398L127.09 90.0853C134.309 80.7691 134.309 65.6645 127.09 56.3483L83.4503 0.0354218C76.2308 -9.28079 64.5256 -9.28079 57.3061 0.0354263Z" fill="#007A54"/>
<path opacity="0.4" d="M87.8129 -5.77618L40.6673 55.0613C32.8677 65.1261 32.8677 81.4442 40.6674 91.509L87.8129 152.347C95.6125 162.411 108.258 162.411 116.058 152.347L163.203 91.509C171.003 81.4443 171.003 65.1261 163.203 55.0613L116.058 -5.77619C108.258 -15.8409 95.6125 -15.8409 87.8129 -5.77618Z" fill="#007A54"/>
<path opacity="0.4" d="M116.388 -5.51143L69.3998 55.1223C61.6264 65.1534 61.6264 81.4169 69.3998 91.448L116.388 152.082C124.161 162.113 136.764 162.113 144.538 152.082L191.525 91.448C199.299 81.4169 199.299 65.1534 191.526 55.1223L144.538 -5.51144C136.764 -15.5425 124.161 -15.5425 116.388 -5.51143Z" fill="#007A54"/>
</svg>
