<svg width="85" height="150" viewBox="0 0 85 150" fill="none" xmlns="http://www.w3.org/2000/svg">
<path opacity="0.4" d="M57.0087 0.0354263L13.3695 56.3483C6.14994 65.6645 6.14995 80.7691 13.3695 90.0853L57.0087 146.398C64.2283 155.714 75.9334 155.714 83.1529 146.398L126.792 90.0853C134.012 80.7691 134.012 65.6645 126.792 56.3483L83.1529 0.0354218C75.9334 -9.28079 64.2282 -9.28079 57.0087 0.0354263Z" fill="#003E7E"/>
<path opacity="0.4" d="M87.5155 -5.77618L40.37 55.0613C32.5704 65.1261 32.5704 81.4442 40.37 91.509L87.5156 152.347C95.3152 162.411 107.961 162.411 115.76 152.347L162.906 91.509C170.706 81.4443 170.706 65.1261 162.906 55.0613L115.76 -5.77619C107.961 -15.8409 95.3151 -15.8409 87.5155 -5.77618Z" fill="#003E7E"/>
<path opacity="0.4" d="M116.09 -5.51143L69.1025 55.1223C61.329 65.1534 61.329 81.4169 69.1025 91.448L116.09 152.082C123.864 162.113 136.467 162.113 144.24 152.082L191.228 91.448C199.002 81.4169 199.002 65.1534 191.228 55.1223L144.24 -5.51144C136.467 -15.5425 123.864 -15.5425 116.09 -5.51143Z" fill="#003E7E"/>
</svg>
