<svg width="86" height="150" viewBox="0 0 86 150" fill="none" xmlns="http://www.w3.org/2000/svg">
<path opacity="0.4" d="M57.4955 0.0354263L13.8563 56.3483C6.63676 65.6645 6.63676 80.7691 13.8563 90.0853L57.4955 146.398C64.7151 155.714 76.4202 155.714 83.6398 146.398L127.279 90.0853C134.499 80.7691 134.499 65.6645 127.279 56.3483L83.6398 0.0354218C76.4202 -9.28079 64.7151 -9.28079 57.4955 0.0354263Z" fill="#3FDBE9"/>
<path opacity="0.4" d="M88.0024 -5.77618L40.8568 55.0613C33.0572 65.1261 33.0572 81.4442 40.8568 91.509L88.0024 152.347C95.802 162.411 108.448 162.411 116.247 152.347L163.393 91.509C171.192 81.4443 171.192 65.1261 163.393 55.0613L116.247 -5.77619C108.448 -15.8409 95.802 -15.8409 88.0024 -5.77618Z" fill="#3FDBE9"/>
<path opacity="0.4" d="M116.577 -5.51143L69.5893 55.1223C61.8158 65.1534 61.8158 81.4169 69.5893 91.448L116.577 152.082C124.35 162.113 136.954 162.113 144.727 152.082L191.715 91.448C199.488 81.4169 199.488 65.1534 191.715 55.1223L144.727 -5.51144C136.954 -15.5425 124.35 -15.5425 116.577 -5.51143Z" fill="#3FDBE9"/>
</svg>
