<svg width="86" height="150" viewBox="0 0 86 150" fill="none" xmlns="http://www.w3.org/2000/svg">
<path opacity="0.4" d="M57.6039 0.0354263L13.9647 56.3483C6.74516 65.6645 6.74516 80.7691 13.9647 90.0853L57.6039 146.398C64.8235 155.714 76.5286 155.714 83.7482 146.398L127.387 90.0853C134.607 80.7691 134.607 65.6645 127.387 56.3483L83.7482 0.0354218C76.5286 -9.28079 64.8235 -9.28079 57.6039 0.0354263Z" fill="#0E2F89"/>
<path opacity="0.4" d="M88.1108 -5.77618L40.9652 55.0613C33.1656 65.1261 33.1656 81.4442 40.9652 91.509L88.1108 152.347C95.9104 162.411 108.556 162.411 116.356 152.347L163.501 91.509C171.301 81.4443 171.301 65.1261 163.501 55.0613L116.356 -5.77619C108.556 -15.8409 95.9104 -15.8409 88.1108 -5.77618Z" fill="#0E2F89"/>
<path opacity="0.4" d="M116.685 -5.51143L69.6977 55.1223C61.9242 65.1534 61.9242 81.4169 69.6977 91.448L116.685 152.082C124.459 162.113 137.062 162.113 144.836 152.082L191.823 91.448C199.597 81.4169 199.597 65.1534 191.823 55.1223L144.836 -5.51144C137.062 -15.5425 124.459 -15.5425 116.685 -5.51143Z" fill="#0E2F89"/>
</svg>
