<svg width="85" height="150" viewBox="0 0 85 150" fill="none" xmlns="http://www.w3.org/2000/svg">
<path opacity="0.4" d="M56.7114 0.0354263L13.0721 56.3483C5.85258 65.6645 5.85258 80.7691 13.0721 90.0853L56.7114 146.398C63.9309 155.714 75.636 155.714 82.8556 146.398L126.495 90.0853C133.714 80.7691 133.714 65.6645 126.495 56.3483L82.8556 0.0354218C75.6361 -9.28079 63.9309 -9.28079 56.7114 0.0354263Z" fill="#0878FF" fill-opacity="0.7"/>
<path opacity="0.4" d="M87.2179 -5.77618L40.0724 55.0613C32.2728 65.1261 32.2728 81.4442 40.0724 91.509L87.218 152.347C95.0176 162.411 107.663 162.411 115.463 152.347L162.608 91.509C170.408 81.4443 170.408 65.1261 162.608 55.0613L115.463 -5.77619C107.663 -15.8409 95.0175 -15.8409 87.2179 -5.77618Z" fill="#0878FF" fill-opacity="0.7"/>
<path opacity="0.4" d="M115.793 -5.51143L68.8054 55.1223C61.0319 65.1534 61.0319 81.4169 68.8054 91.448L115.793 152.082C123.567 162.113 136.17 162.113 143.943 152.082L190.931 91.448C198.704 81.4169 198.705 65.1534 190.931 55.1223L143.943 -5.51144C136.17 -15.5425 123.567 -15.5425 115.793 -5.51143Z" fill="#D7E9FF"/>
</svg>
