<svg width="85" height="150" viewBox="0 0 85 150" fill="none" xmlns="http://www.w3.org/2000/svg">
<path opacity="0.4" d="M56.9008 0.0354263L13.2616 56.3483C6.04203 65.6645 6.04204 80.7691 13.2616 90.0853L56.9008 146.398C64.1203 155.714 75.8255 155.714 83.045 146.398L126.684 90.0853C133.904 80.7691 133.904 65.6645 126.684 56.3483L83.045 0.0354218C75.8255 -9.28079 64.1203 -9.28079 56.9008 0.0354263Z" fill="#6D2077"/>
<path opacity="0.4" d="M87.4076 -5.77618L40.2621 55.0613C32.4625 65.1261 32.4625 81.4442 40.2621 91.509L87.4076 152.347C95.2073 162.411 107.853 162.411 115.652 152.347L162.798 91.509C170.598 81.4443 170.598 65.1261 162.798 55.0613L115.653 -5.77619C107.853 -15.8409 95.2072 -15.8409 87.4076 -5.77618Z" fill="#6D2077"/>
<path opacity="0.4" d="M115.982 -5.51143L68.9946 55.1223C61.2211 65.1534 61.2211 81.4169 68.9946 91.448L115.982 152.082C123.756 162.113 136.359 162.113 144.133 152.082L191.12 91.448C198.894 81.4169 198.894 65.1534 191.12 55.1223L144.133 -5.51144C136.359 -15.5425 123.756 -15.5425 115.982 -5.51143Z" fill="#6D2077"/>
</svg>
