<?xml version="1.0" encoding="UTF-8"?>
<svg id="Layer_1" data-name="Layer 1" xmlns="http://www.w3.org/2000/svg" xmlns:xlink="http://www.w3.org/1999/xlink" viewBox="0 0 886 969">
  <defs>
    <style>
      .cls-1 {
        fill: url(#linear-gradient-2);
      }

      .cls-2 {
        fill: #086cf5;
      }

      .cls-3 {
        fill: #4096ff;
      }

      .cls-4 {
        fill: #0753e2;
      }

      .cls-5 {
        fill: url(#linear-gradient-6);
      }

      .cls-6 {
        fill: #41dcec;
        opacity: .12;
      }

      .cls-7 {
        fill: #09d5e5;
      }

      .cls-8 {
        fill: none;
        opacity: .67;
        stroke: #337af7;
        stroke-linecap: round;
        stroke-miterlimit: 10;
        stroke-width: 6.36703px;
      }

      .cls-9 {
        fill: #09beec;
      }

      .cls-10 {
        fill: #2487ff;
      }

      .cls-11 {
        opacity: .11;
      }

      .cls-11, .cls-12 {
        fill: #0878ff;
      }

      .cls-13 {
        fill: #0516b1;
      }

      .cls-14 {
        fill: #08a6f2;
      }

      .cls-15 {
        fill: url(#linear-gradient-5);
      }

      .cls-16 {
        fill: #78b5ff;
      }

      .cls-17 {
        fill: #25d9e8;
      }

      .cls-18 {
        fill: url(#linear-gradient-3);
      }

      .cls-19 {
        fill: url(#linear-gradient);
      }

      .cls-20 {
        fill: url(#linear-gradient-4);
      }

      .cls-21 {
        fill: #96e7ff;
        opacity: .21;
      }

      .cls-22 {
        fill: #79e4f2;
      }
    </style>
    <linearGradient id="linear-gradient" x1="671.52165" y1="617.696" x2="849.28183" y2="63.6248" gradientTransform="translate(1204.29787) rotate(-180) scale(1 -1)" gradientUnits="userSpaceOnUse">
      <stop offset=".10379" stop-color="#0878ff"/>
      <stop offset=".76031" stop-color="#0525bc"/>
      <stop offset=".87521" stop-color="#0516b1"/>
    </linearGradient>
    <linearGradient id="linear-gradient-2" x1="596.90251" y1="574.03582" x2="893.35016" y2="108.20115" gradientTransform="translate(1204.29787) rotate(-180) scale(1 -1)" gradientUnits="userSpaceOnUse">
      <stop offset=".00858" stop-color="#0516b1"/>
      <stop offset=".45277" stop-color="#0645d6"/>
      <stop offset=".89621" stop-color="#0878ff"/>
    </linearGradient>
    <linearGradient id="linear-gradient-3" x1="622.39809" y1="481.57841" x2="323.16405" y2="234.42948" gradientUnits="userSpaceOnUse">
      <stop offset=".00503" stop-color="#83bbff"/>
      <stop offset=".09541" stop-color="#99c7ff"/>
      <stop offset=".23575" stop-color="#b5d6ff"/>
      <stop offset=".38648" stop-color="#cce2ff"/>
      <stop offset=".55066" stop-color="#dbebff"/>
      <stop offset=".73802" stop-color="#e5f0ff"/>
      <stop offset="1" stop-color="#e8f2ff"/>
    </linearGradient>
    <linearGradient id="linear-gradient-4" x1="345.46348" y1="619.49226" x2="415.88759" y2="562.06952" gradientUnits="userSpaceOnUse">
      <stop offset="0" stop-color="#6d89e0" stop-opacity=".93909"/>
      <stop offset=".419" stop-color="#8eadef" stop-opacity=".96952"/>
      <stop offset=".79035" stop-color="#a6c8fa" stop-opacity=".99169"/>
      <stop offset="1" stop-color="#b0d3ff"/>
    </linearGradient>
    <linearGradient id="linear-gradient-5" x1="443.95877" y1="675.02205" x2="634.70287" y2="428.28532" gradientUnits="userSpaceOnUse">
      <stop offset=".03464" stop-color="#b0d3ff"/>
      <stop offset=".05769" stop-color="#b1d4fe"/>
      <stop offset=".29158" stop-color="#c0e3fd"/>
      <stop offset=".56901" stop-color="#c9ebfc"/>
      <stop offset="1" stop-color="#cceefc"/>
    </linearGradient>
    <linearGradient id="linear-gradient-6" x1="476.93773" y1="361.81082" x2="571.91646" y2="579.34274" gradientUnits="userSpaceOnUse">
      <stop offset=".03464" stop-color="#8dacef"/>
      <stop offset=".05596" stop-color="#93b2f0"/>
      <stop offset=".13892" stop-color="#a8c8f4"/>
      <stop offset=".23691" stop-color="#b8d9f7"/>
      <stop offset=".35804" stop-color="#c3e5fa"/>
      <stop offset=".52802" stop-color="#caecfb"/>
      <stop offset="1" stop-color="#cceefc"/>
    </linearGradient>
  </defs>
  <polygon class="cls-11" points="289.16005 440.8095 16.03026 598.51463 374.37451 806.15806 643.30371 648.36284 289.16005 440.8095"/>
  <polygon class="cls-6" points="443.26904 454.25532 7.72213 706.84232 443.26904 962 877.93528 710.00671 443.26904 454.25532"/>
  <polygon class="cls-21" points="569.62719 443.60036 842.75697 601.3055 484.41272 808.94892 215.48352 651.1537 569.62719 443.60036"/>
  <g>
    <path class="cls-19" d="m596.62406,513.48113V39.29106c0-24.82117-26.87017-40.334-48.36547-27.92261l-223.29997,128.9334c-19.13631,11.0493-30.92458,31.46807-30.92458,53.56526v457.09535c0,24.82117,26.87017,40.334,48.36547,27.92261l238.10412-137.48132c9.97542-5.75981,16.12043-16.40375,16.12043-27.92261Z"/>
    <polygon class="cls-13" points="580.13448 11.97407 602.10562 22.21522 583.31494 23.45465 580.13448 11.97407"/>
    <polygon class="cls-12" points="312.27391 679.97188 335.59263 690.89166 334.48956 675.8278 312.27391 679.97188"/>
    <path class="cls-1" d="m619.98637,511.95256V50.17961c0-24.79338-26.84008-40.28884-48.31132-27.89135l-221.93802,128.14701c-20.0126,11.55527-32.34068,32.90906-32.34068,56.01811v455.52267c0,24.79338,26.84008,40.28884,48.31132,27.89135l227.35081-131.27236c16.66314-9.6213,26.9279-27.40115,26.9279-46.6425Z"/>
    <path class="cls-18" d="m602.10532,509.37323V64.13234c0-14.13634-15.3033-22.97133-27.54547-15.9027l-202.59226,116.97677c-18.424,10.63802-29.77348,30.29674-29.77348,51.57141v434.0548c0,14.13634,15.3033,22.97133,27.54547,15.9027l212.2795-122.57018c12.42949-7.17679,20.08625-20.43926,20.08625-34.7919Z"/>
    <path class="cls-12" d="m522.30269,110.30313v-31.84918c0-7.95246-8.60894-12.92261-15.49582-8.94613l-73.80143,42.61295c-6.81225,3.93339-11.0087,11.20218-11.0087,19.06845v31.7898c0,7.95246,8.60894,12.92261,15.49582,8.94613l73.85286-42.64264c6.78042-3.91502,10.95727-11.14985,10.95727-18.97937Z"/>
    <path class="cls-13" d="m506.81091,115.57795v-.33026c0-2.27622-2.46413-3.69883-4.43535-2.56064l-21.12411,12.19706c-1.94986,1.12585-3.15101,3.20639-3.15101,5.45794v.31326c0,2.27622,2.46413,3.69883,4.43535,2.56064l21.13882-12.20556c1.94075-1.12059,3.13629-3.19141,3.13629-5.43245Z"/>
    <path class="cls-13" d="m471.09536,136.41202v-.33026c0-2.27622-2.46413-3.69883-4.43535-2.56064l-21.12411,12.19706c-1.94986,1.12585-3.15101,3.20639-3.15101,5.45794v.31326c0,2.27622,2.46413,3.69883,4.43535,2.56064l21.13882-12.20556c1.94075-1.12059,3.13629-3.19141,3.13629-5.43245Z"/>
  </g>
  <g>
    <polygon class="cls-20" points="462.4416 664.56621 372.45369 613.27285 372.45369 457.02875 462.4416 509.16549 462.4416 664.56621"/>
    <polygon class="cls-15" points="641.86744 560.96573 462.4416 664.56621 462.4416 509.16549 641.86744 405.56501 641.86744 560.96573"/>
    <polygon class="cls-5" points="552.06463 353.32015 372.63878 456.92063 462.4416 509.16549 641.86744 405.56501 552.06463 353.32015"/>
    <g>
      <path class="cls-17" d="m484.74333,547.65838l23.07266-13.32215s-3.84291,15.65404-11.60133,20.08742c-5.59467,3.19696-11.47133-6.76527-11.47133-6.76527Z"/>
      <path class="cls-3" d="m507.53287,534.19184l23.07266-13.32215s-3.84291,15.65404-11.60133,20.08742c-5.59467,3.19696-11.47133-6.76527-11.47133-6.76527Z"/>
      <path class="cls-17" d="m529.28652,521.76118l23.07266-13.32215s-3.84291,15.65404-11.60133,20.08742c-5.59467,3.19696-11.47133-6.76527-11.47133-6.76527Z"/>
      <path class="cls-3" d="m552.594,508.29464l23.07266-13.32215s-3.84291,15.65404-11.60133,20.08742c-5.59467,3.19696-11.47133-6.76527-11.47133-6.76527Z"/>
      <path class="cls-17" d="m574.34765,495.86398l23.07266-13.32215s-3.84291,15.65404-11.60133,20.08742c-5.59467,3.19696-11.47133-6.76527-11.47133-6.76527Z"/>
      <path class="cls-3" d="m596.61925,482.91538l23.07266-13.32215s-3.84291,15.65404-11.60133,20.08742c-5.59467,3.19696-11.47133-6.76527-11.47133-6.76527Z"/>
      <path class="cls-17" d="m618.89084,469.96678l23.07266-13.32215s-3.84291,15.65404-11.60133,20.08742c-5.59467,3.19696-11.47133-6.76527-11.47133-6.76527Z"/>
      <path class="cls-3" d="m641.68038,457.01818l23.07266-13.32215s-3.84291,15.65404-11.60133,20.08742c-5.59467,3.19696-11.47133-6.76527-11.47133-6.76527Z"/>
      <polygon class="cls-16" points="462.4416 508.64171 640.92731 405.58406 664.75304 443.90162 462.4416 560.44195 462.4416 508.64171"/>
      <polygon class="cls-22" points="484.97216 547.95634 462.4416 508.94367 484.64727 496.20229 507.53287 535.05977 484.97216 547.95634"/>
      <polygon class="cls-22" points="529.51535 521.54119 506.98478 482.52852 529.19045 469.78715 552.07606 508.64462 529.51535 521.54119"/>
      <polygon class="cls-22" points="574.57648 495.64399 552.04592 456.63132 574.25158 443.88995 597.13719 482.74742 574.57648 495.64399"/>
      <polygon class="cls-22" points="619.63761 469.74679 597.10705 430.73412 619.31272 417.99274 642.19832 456.85022 619.63761 469.74679"/>
      <g>
        <path class="cls-4" d="m439.96533,547.65838l-23.07266-13.32215s3.84291,15.65404,11.60133,20.08742c5.59467,3.19696,11.47133-6.76527,11.47133-6.76527Z"/>
        <path class="cls-4" d="m395.42214,521.76118l-23.07266-13.32215s3.84291,15.65404,11.60133,20.08742c5.59467,3.19696,11.47133-6.76527,11.47133-6.76527Z"/>
        <path class="cls-9" d="m417.17579,534.19184l-23.07266-13.32215s3.84291,15.65404,11.60133,20.08742c5.59467,3.19696,11.47133-6.76527,11.47133-6.76527Z"/>
        <path class="cls-9" d="m372.11466,508.29464l-23.07266-13.32215s3.84291,15.65404,11.60133,20.08742c5.59467,3.19696,11.47133-6.76527,11.47133-6.76527Z"/>
        <polygon class="cls-10" points="350.50929 496.52866 372.45369 457.02875 462.4416 508.64171 462.4416 560.44195 350.50929 496.52866"/>
        <polygon class="cls-7" points="372.09051 508.59259 394.62107 469.57992 372.4154 456.83855 349.5298 495.69602 372.09051 508.59259"/>
        <polygon class="cls-7" points="416.63369 533.97185 439.16426 494.95918 416.95859 482.21781 394.07298 521.07528 416.63369 533.97185"/>
        <polygon class="cls-7" points="439.96533 547.65838 460.654 507.60955 462.4416 509.16549 462.4416 560.44195 439.96533 547.65838"/>
        <path class="cls-9" d="m462.4416,560.44195l.03027,9.00907c-16.05627,0-22.30186-21.86869-22.30186-21.86869l22.27159,12.85962"/>
      </g>
      <path class="cls-3" d="m462.47187,560.387l-.03027,9.00907c16.05627,0,22.30186-21.86869,22.30186-21.86869l-22.27159,12.85962"/>
    </g>
    <path class="cls-3" d="m549.83467,614.10545v-37.3227c0-6.01503,3.2324-11.56603,8.46374-14.5348l16.69149-9.47235c2.988-1.69568,6.6944.4626,6.6944,3.89821v39.04166l-31.84964,18.38998Z"/>
    <path class="cls-3" d="m501.46806,588.45428v-19.58531c0-2.42755,1.30415-4.66796,3.41505-5.86674l16.76631-9.5216c1.44885-.8228,3.24662.22368,3.24662,1.88987v19.42591c0,2.4103-1.28583,4.63753-3.37317,5.84276l-16.7947,9.69726c-1.44891.8366-3.26011-.20905-3.26011-1.88214Z"/>
    <path class="cls-3" d="m596.05817,537.84556v-19.58531c0-2.42755,1.30415-4.66796,3.41505-5.86674l16.76631-9.5216c1.44885-.8228,3.24662.22368,3.24662,1.88987v19.42591c0,2.4103-1.28583,4.63753-3.37317,5.84276l-16.7947,9.69726c-1.44891.8366-3.26011-.20905-3.26011-1.88214Z"/>
  </g>
  <g>
    <polygon class="cls-2" points="520.57516 231.98989 533.07758 239.20254 522.78965 223.34653 520.57516 231.98989"/>
    <polygon class="cls-2" points="654.71463 193.27573 665.08565 199.17393 662.28085 186.05878 654.71463 193.27573"/>
    <polygon class="cls-2" points="690.16926 47.85989 703.11518 55.30709 688.93748 53.09661 690.16926 47.85989"/>
    <path class="cls-14" d="m528.0775,134.11869l146.18395-85.8234c10.99637-6.45592,24.84671,1.47352,24.84671,14.22506v61.47868c0,10.65089-5.7196,20.48153-14.97868,25.74548l-4.24248,2.41173-13.28394,33.37151c-1.20256,3.02156-3.37432,5.55832-6.17427,7.21265l-.59497.3516c-3.43261,2.02797-7.79945-.26183-8.08353-4.2384l-1.51481-19.84061-112.13178,63.74643c-10.99657,6.25141-24.64774-1.69085-24.64774-14.34009v-58.76179c0-10.50342,5.56357-20.22116,14.62154-25.53883Z"/>
    <path class="cls-22" d="m539.2198,140.48571l146.18395-85.8234c10.99637-6.45592,24.84671,1.47352,24.84671,14.22506v61.47868c0,10.65089-5.7196,20.48153-14.97868,25.74548l-4.24248,2.41173-13.28394,33.37151c-1.20256,3.02156-3.37432,5.55832-6.17427,7.21265l-.59497.3516c-3.43261,2.02797-7.79945-.26183-8.08353-4.2384l-1.51481-19.84061-112.13178,63.74643c-10.99657,6.25141-24.64774-1.69085-24.64774-14.34009v-58.76179c0-10.50342,5.56357-20.22116,14.62154-25.53883Z"/>
    <line class="cls-8" x1="675.39507" y1="97.94725" x2="564.17532" y2="162.85978"/>
    <line class="cls-8" x1="675.39507" y1="129.78238" x2="589.64342" y2="180.3691"/>
    <g>
      <g>
        <polygon class="cls-14" points="469.0875 382.76982 484.70029 390.81963 475.03696 372.97164 469.0875 382.76982"/>
        <polygon class="cls-14" points="516.22866 393.10744 528.73827 399.37978 519.60614 388.8892 516.22866 393.10744"/>
        <polygon class="cls-14" points="653.58933 219.3372 637.73122 211.27059 634.23218 219.61689 653.58933 219.3372"/>
      </g>
      <path class="cls-2" d="m476.92426,298.12795l146.18398-85.82337c10.99645-6.45593,24.8468,1.47349,24.8468,14.225v48.48692c0,10.65097-5.71952,20.48159-14.97879,25.74547l-104.59974,59.46446,1.51052,22.42189c.22825,3.3875-1.38023,6.61788-4.14703,8.32913l-2.50403,1.5487c-2.97443,1.83959-6.72133,1.47996-9.33576-.89598l-15.6872-14.25604-11.26252,6.40274c-10.99657,6.25147-24.64759-1.69076-24.64759-14.34003v-45.77001c0-10.50348,5.56349-20.22113,14.62135-25.53887Z"/>
      <path class="cls-16" d="m489.65831,304.49498l146.18398-85.82337c10.99645-6.45593,24.8468,1.47349,24.8468,14.225v48.48692c0,10.65097-5.71952,20.48159-14.97879,25.74547l-104.59974,59.46446,1.51052,22.42189c.22825,3.3875-1.38023,6.61788-4.14703,8.32913l-2.50403,1.5487c-2.97443,1.83959-6.72133,1.47996-9.33576-.89598l-15.6872-14.25604-11.26252,6.40274c-10.99657,6.25147-24.64759-1.69076-24.64759-14.34003v-45.77001c0-10.50348,5.56349-20.22113,14.62135-25.53887Z"/>
      <line class="cls-8" x1="629.23413" y1="255.53114" x2="518.01438" y2="320.44367"/>
      <line class="cls-8" x1="603.96923" y1="299.75084" x2="518.01438" y2="349.09529"/>
    </g>
  </g>
</svg>