<svg width="622" height="600" viewBox="0 0 622 600" fill="none" xmlns="http://www.w3.org/2000/svg">
<path opacity="0.12" d="M301.21 255.322L6.18896 426.414L301.21 599.247L595.635 428.557L301.21 255.322Z" fill="#41DCEC"/>
<path opacity="0.21" d="M465.564 278.18L621.283 368.092L416.981 486.475L263.657 396.512L465.564 278.18Z" fill="#96E7FF"/>
<path opacity="0.11" d="M155.719 261.766L0 351.678L204.302 470.061L357.626 380.098L155.719 261.766Z" fill="#0878FF"/>
<path d="M275.033 246.747C275.033 246.747 272.284 200.021 289.499 160.449C290.123 159.017 290.191 156.093 287.004 154.989C287.004 154.989 292.614 157.46 293.63 158.239C295.654 159.79 296.595 162.099 295.787 163.999C278.775 204.027 280.935 251.174 280.935 251.174L275.033 246.747Z" fill="#5DA4F9"/>
<path d="M214.117 213.254C214.117 213.254 211.311 165.548 229.129 125.72C229.912 123.971 231.84 123.038 233.691 123.531L287.005 154.988C289.307 155.602 290.507 158.119 289.554 160.302C272.273 199.903 275.028 246.736 275.028 246.736L214.117 213.254Z" fill="url(#paint0_linear_1999_3623)"/>
<path d="M289.5 160.449C289.5 160.449 290.901 157.365 294.155 159.088C296.965 160.576 295.788 163.999 295.788 163.999C295.788 163.999 280.418 196.625 280.936 251.173L275.028 246.737C275.028 246.737 272.365 199.516 289.5 160.449Z" fill="#337AF7"/>
<path d="M237.542 349.196C237.542 346.905 236.45 344.598 235.102 344.043C234.671 343.866 234.266 343.889 233.915 344.078L233.928 344.071L230.553 345.771C230.543 345.775 230.532 345.78 230.522 345.785C230.514 345.789 230.505 345.792 230.497 345.797C230.493 345.799 230.489 345.8 230.485 345.802L230.486 345.804C229.735 346.202 229.227 347.352 229.227 348.915C229.227 351.206 230.319 353.513 231.666 354.067C232.087 354.24 232.482 354.222 232.828 354.046L232.829 354.049L236.26 352.32L236.226 352.337C237.008 351.968 237.542 350.798 237.542 349.196Z" fill="#232C33"/>
<path d="M232.483 354.164C233.753 353.92 234.416 351.821 233.965 349.477C233.514 347.132 232.12 345.429 230.85 345.674C229.58 345.918 228.917 348.016 229.368 350.361C229.819 352.705 231.213 354.408 232.483 354.164Z" fill="#404C59"/>
<path d="M234.233 351.222C234.233 348.407 232.891 345.573 231.235 344.891C229.58 344.21 228.238 345.939 228.238 348.754L234.233 351.222Z" fill="#5E6E83"/>
<path d="M238.506 349.096C238.506 346.293 237.169 343.47 235.521 342.791C234.993 342.574 234.497 342.602 234.067 342.834L234.083 342.825L230.16 344.801C230.495 344.719 230.854 344.735 231.234 344.891C232.89 345.573 234.231 348.407 234.231 351.222L238.506 349.096Z" fill="#404C59"/>
<path d="M266.479 320.999C266.479 318.708 265.387 316.401 264.039 315.847C263.608 315.669 263.203 315.693 262.852 315.882L262.865 315.875L259.49 317.574C259.48 317.579 259.469 317.584 259.459 317.589C259.451 317.593 259.442 317.596 259.434 317.601C259.43 317.603 259.426 317.604 259.422 317.606L259.423 317.607C258.672 318.006 258.164 319.156 258.164 320.719C258.164 323.01 259.256 325.316 260.603 325.871C261.024 326.044 261.419 326.026 261.765 325.849L261.766 325.853L265.197 324.124L265.163 324.141C265.945 323.771 266.479 322.601 266.479 320.999Z" fill="#232C33"/>
<path d="M261.419 325.968C262.689 325.724 263.352 323.625 262.901 321.281C262.45 318.936 261.056 317.234 259.786 317.478C258.517 317.722 257.853 319.821 258.304 322.165C258.755 324.51 260.149 326.212 261.419 325.968Z" fill="#404C59"/>
<path d="M263.17 323.027C263.17 320.212 261.828 317.378 260.172 316.696C258.517 316.015 257.175 317.744 257.175 320.559L263.17 323.027Z" fill="#5E6E83"/>
<path d="M267.444 320.901C267.444 318.097 266.107 315.274 264.459 314.596C263.931 314.378 263.435 314.407 263.005 314.639L263.021 314.63L259.098 316.606C259.432 316.524 259.792 316.54 260.172 316.696C261.828 317.377 263.169 320.212 263.169 323.027L267.444 320.901Z" fill="#404C59"/>
<path d="M222.094 317.299C222.094 315.008 221.002 312.701 219.655 312.146C219.223 311.969 218.818 311.992 218.467 312.181L218.48 312.174L215.106 313.874C215.095 313.878 215.085 313.883 215.074 313.888C215.066 313.892 215.057 313.896 215.049 313.9C215.045 313.902 215.041 313.903 215.037 313.905L215.038 313.907C214.287 314.305 213.779 315.455 213.779 317.018C213.779 319.309 214.871 321.616 216.218 322.17C216.639 322.343 217.035 322.325 217.38 322.149L217.381 322.152L220.812 320.423L220.778 320.44C221.56 320.071 222.094 318.901 222.094 317.299Z" fill="#232C33"/>
<path d="M217.034 322.268C218.304 322.024 218.968 319.925 218.517 317.581C218.066 315.236 216.671 313.533 215.401 313.778C214.132 314.022 213.468 316.12 213.919 318.465C214.37 320.809 215.765 322.512 217.034 322.268Z" fill="#404C59"/>
<path d="M218.784 319.326C218.784 316.511 217.442 313.677 215.787 312.996C214.132 312.314 212.79 314.044 212.79 316.859L218.784 319.326Z" fill="#5E6E83"/>
<path d="M223.059 317.2C223.059 314.397 221.722 311.574 220.073 310.895C219.546 310.678 219.05 310.706 218.62 310.938L218.636 310.929L214.713 312.905C215.047 312.823 215.407 312.839 215.787 312.995C217.442 313.677 218.784 316.511 218.784 319.326L223.059 317.2Z" fill="#404C59"/>
<path d="M267.063 342.316C267.063 340.025 268.155 337.718 269.503 337.164C269.934 336.986 270.339 337.01 270.69 337.199L270.677 337.192L274.052 338.891C274.062 338.896 274.073 338.901 274.083 338.906C274.091 338.91 274.1 338.913 274.108 338.917C274.112 338.919 274.116 338.921 274.12 338.923L274.119 338.924C274.87 339.323 275.378 340.473 275.378 342.035C275.378 344.326 274.286 346.633 272.939 347.188C272.518 347.361 272.123 347.343 271.777 347.166L271.776 347.169L268.345 345.441L268.379 345.458C267.597 345.088 267.063 343.918 267.063 342.316Z" fill="#232C33"/>
<path d="M275.238 343.481C275.689 341.137 275.025 339.038 273.755 338.794C272.486 338.55 271.091 340.253 270.64 342.597C270.189 344.942 270.853 347.04 272.123 347.284C273.392 347.529 274.787 345.826 275.238 343.481Z" fill="#404C59"/>
<path d="M270.373 344.343C270.373 341.528 271.715 338.694 273.37 338.012C275.026 337.331 276.368 339.06 276.368 341.875L270.373 344.343Z" fill="#5E6E83"/>
<path d="M266.098 342.217C266.098 339.413 267.435 336.59 269.083 335.912C269.611 335.694 270.107 335.723 270.537 335.955L270.521 335.946L274.444 337.921C274.11 337.84 273.75 337.856 273.37 338.012C271.715 338.693 270.373 341.528 270.373 344.343L266.098 342.217Z" fill="#404C59"/>
<path d="M197.491 333.769C197.491 331.478 198.583 329.171 199.931 328.616C200.362 328.439 200.767 328.462 201.119 328.652L201.105 328.644L204.48 330.344C204.49 330.349 204.501 330.353 204.511 330.358C204.519 330.362 204.528 330.366 204.536 330.37C204.54 330.372 204.544 330.373 204.548 330.375L204.548 330.377C205.298 330.775 205.807 331.926 205.807 333.488C205.807 335.779 204.714 338.086 203.367 338.641C202.946 338.814 202.551 338.795 202.205 338.619L202.204 338.622L198.773 336.894L198.807 336.91C198.025 336.541 197.491 335.371 197.491 333.769Z" fill="#404C59"/>
<path d="M205.666 334.935C206.117 332.59 205.453 330.492 204.184 330.248C202.914 330.004 201.519 331.706 201.068 334.051C200.618 336.395 201.281 338.494 202.551 338.738C203.82 338.982 205.215 337.28 205.666 334.935Z" fill="#232C33"/>
<path d="M200.801 335.795C200.801 332.98 202.143 330.146 203.798 329.464C205.454 328.783 206.796 330.513 206.796 333.327L200.801 335.795Z" fill="#404C59"/>
<path d="M196.526 333.67C196.526 330.866 197.863 328.043 199.512 327.364C200.039 327.147 200.535 327.176 200.965 327.407L200.949 327.399L204.872 329.374C204.538 329.293 204.178 329.308 203.798 329.465C202.143 330.146 200.801 332.98 200.801 335.795L196.526 333.67Z" fill="#5E6E83"/>
<path d="M237.365 308.955L257.601 303.53C260.702 302.899 262.432 304.566 263.336 306.08C265.393 309.524 264.84 314.643 264.77 315.216C264.561 316.93 263.539 317.469 262.449 317.159C261.358 316.842 260.608 315.758 260.8 314.037C260.89 313.23 260.908 311.286 260.388 310.429C259.893 309.612 258.756 309.705 258.2 309.819L237.958 315.245L237.365 308.955Z" fill="#78828E"/>
<path d="M237.958 315.245L205.833 321.647C205.784 321.656 205.703 321.665 205.652 321.67C204.927 321.728 202.562 322.37 202.562 328.185C202.562 329.941 201.617 330.566 200.501 330.566C199.386 330.566 198.522 329.941 198.522 328.185C198.522 318.037 203.382 315.483 205.413 315.32L237.365 308.956L237.958 315.245Z" fill="#95A1B0"/>
<path d="M271.327 337.932C272.309 337.932 273.141 337.634 273.292 336.063C273.697 331.84 272.662 323.154 265.844 320.515L238.231 308.9L222.204 300.835C222.024 300.745 221.836 300.694 221.647 300.686C221.403 300.668 219.185 300.654 217.472 303.276C216.641 304.546 215.651 306.903 215.651 310.915C215.651 312.671 216.57 313.57 217.686 313.57C218.801 313.57 219.691 312.671 219.691 310.915C219.691 308.039 220.527 307.209 221.32 307.067L237.095 315.001L264.84 326.676C269.59 328.516 269.384 334.054 269.295 335.147C269.154 336.875 269.945 337.659 271.041 337.901C271.138 337.921 271.233 337.932 271.327 337.932Z" fill="#95A1B0"/>
<path d="M233.434 345.352C233.536 345.352 233.639 345.339 233.742 345.315C234.845 345.049 235.621 344.069 235.452 342.333C235.43 342.069 235.413 341.013 235.396 339.895C235.38 338.934 235.361 337.715 235.329 336.19C235.255 332.672 236.056 329.418 236.064 329.385L239.621 313C239.982 311.339 239.419 309.53 238.363 308.963C237.306 308.394 236.159 309.283 235.798 310.945L232.288 327.125C232.124 327.798 231.195 331.843 231.291 336.402C231.323 337.905 231.342 339.106 231.357 340.053C231.385 341.85 231.398 342.67 231.459 343.295C231.612 344.868 232.454 345.352 233.434 345.352Z" fill="#95A1B0"/>
<path d="M238.045 312.951C239.44 312.951 240.57 311.171 240.57 308.976V262.627C240.57 260.431 239.44 258.652 238.045 258.652C236.651 258.652 235.521 260.431 235.521 262.627V308.976C235.521 311.171 236.651 312.951 238.045 312.951Z" fill="#95A1B0"/>
<path d="M226.655 206.949L219.289 204.988L171.323 217.892L178.666 219.977L226.655 206.949Z" fill="#5E6E83"/>
<path d="M178.667 223.172L226.655 210.128V206.949L178.667 219.993V223.172Z" fill="#2F3A44"/>
<path d="M171.321 221.086L178.669 223.173V219.982L171.321 217.895V221.086Z" fill="#95A1B0"/>
<path d="M225.488 147.712C225.488 147.712 222.414 144.829 215.897 155.264C209.379 165.698 199.05 190.137 196.591 194.256C196.591 194.256 214.544 195.183 213.56 213.443C213.56 213.443 225.273 206.132 229.699 183.375C232.888 166.986 229.792 147.575 225.488 147.712Z" fill="#404C59"/>
<path d="M218.277 209.721C218.277 209.721 229.109 196.486 212.387 189.741C195.666 182.996 187.92 178.547 181.46 173.246C180.904 172.789 180.992 167.638 179.281 167.638C178.591 167.638 178.774 171.127 178.27 170.755C173.644 167.345 170.73 166.163 170.27 167.068C170.22 167.165 170.059 167.343 170.448 167.823C169.819 167.671 169.459 168.57 170.183 169.195C169.743 169.395 169.713 169.978 170.717 170.731C170.354 170.949 170.436 171.487 171.43 172.534C171.43 172.534 176.475 177.598 179.33 178.882C179.33 178.882 194.397 211.108 206.559 215.094C212.364 216.996 218.277 209.721 218.277 209.721Z" fill="#EFD293"/>
<path d="M170.214 254.735C172.961 263.843 192.735 264.083 211.801 256.914C230.868 249.745 244.098 236.549 241.351 227.441C238.604 218.332 220.92 216.76 201.853 223.929C182.786 231.099 167.467 245.626 170.214 254.735Z" fill="#E8F2FF"/>
<path d="M181.833 249.369C181.833 249.369 176.818 245.674 172.845 248.701C168.872 251.728 169.643 253.958 171.191 257.183C172.738 260.408 172.815 270.739 182.573 295.306C192.286 319.76 196.989 323.316 194.581 336.22C192.306 348.411 187.92 350.08 192.365 351.195C195.382 351.952 200.378 345.813 204.374 336.8C208.371 327.787 209.114 326.67 207.881 325.158C206.723 323.739 202.302 320.331 201.386 315.077C195.607 281.893 198.093 269.392 181.833 249.369Z" fill="#C49938"/>
<path d="M205.783 322.783C205.783 322.783 204.572 331.995 198.062 341.291C191.553 350.588 193.597 340.531 193.597 340.531C193.597 340.531 192.461 344.08 191.477 346.278C190.493 348.475 189.509 350.419 191.704 351.348C193.899 352.278 198.365 349.32 202.301 341.46C206.237 333.6 209.341 327.684 208.735 326.079C208.13 324.473 205.783 322.783 205.783 322.783Z" fill="#071451"/>
<path d="M221.307 196.041C218.13 200.651 214.526 212.847 214.114 219.93C213.207 235.513 219.436 253.411 238.7 258.389C265.206 265.238 269.264 233.111 258.555 210.502C254.043 200.978 246.304 196.317 239.937 193.363C232.504 189.915 226.331 188.753 221.307 196.041Z" fill="white"/>
<path d="M188.151 263.289C190.074 272.657 209.728 275.091 229.339 270.074C248.95 265.057 263.289 253.395 261.366 244.027C259.444 234.658 241.987 231.131 222.377 236.148C202.766 241.166 186.229 253.921 188.151 263.289Z" fill="white"/>
<path d="M232.995 145.455C232.995 145.455 232.116 145 231.194 146.029C231.194 146.029 225.88 146.696 224.254 147.026C223.081 147.265 222.062 148.054 221.456 149.201C219.013 153.832 212.561 166.643 212.785 172.409C212.785 172.409 213.098 193.567 213.147 199.55C213.154 200.345 213.429 201.104 213.928 201.67C216.908 205.051 231.624 215.818 253.314 211.204C254.564 210.938 255.79 210.496 256.92 209.842C258.569 208.885 260.443 207.285 260.391 204.968C260.299 200.849 266.755 166.868 264.08 161.308C261.406 155.747 248.988 148.716 248.988 148.716C248.988 148.716 248.727 147.126 247.284 147.333C247.284 147.333 242.939 151.849 237.498 150.202C237.498 150.202 233.426 149.3 232.995 145.455Z" fill="#5E6E83"/>
<path d="M231.194 146.029C231.194 146.029 230.519 148.602 233.03 151.29" stroke="#E8F2FF" stroke-width="0.107902" stroke-linecap="round" stroke-linejoin="round"/>
<path d="M248.973 148.73C248.973 148.73 248.297 151.702 244.008 153.093" stroke="#E8F2FF" stroke-width="0.107902" stroke-linecap="round" stroke-linejoin="round"/>
<path d="M249.481 148.855L228.579 180.682L225.663 146.059L222.746 146.585L226.634 187.588L253.06 149.615L249.481 148.855Z" fill="#337AF7"/>
<path d="M230.358 184.641L225.035 182.183C223.802 181.614 222.26 182.326 222.26 183.464V193.786C222.26 194.728 222.877 195.602 223.887 196.088L229.179 198.639C230.409 199.232 231.978 198.527 231.984 197.379L232.039 186.981C232.044 186.016 231.402 185.123 230.358 184.641Z" fill="white"/>
<path d="M226.963 117.287C226.963 117.287 226 120.705 224.543 126.096C223.199 131.067 226.766 139.825 222.227 145.315C216.543 152.19 215.762 160.614 214.175 168.055C213.874 169.467 218.202 168.411 220.806 162.767C228.858 145.315 232.171 145.165 245.512 142.835C245.512 142.835 241.335 120.281 226.963 117.287Z" fill="#071451"/>
<path d="M248.228 148.33C246.69 147.403 246.609 145.721 246.609 145.721C246.609 145.721 246.5 143.818 246.424 141.723C246.341 139.433 246.459 137.137 246.774 134.873C246.774 134.873 241.364 129.861 234.293 136.211C234.293 136.211 237.522 141.144 232.392 146.19C232.392 146.19 232.442 149.09 235.804 150.549C241.134 152.862 247.265 149.481 248.228 148.33Z" fill="#CCA949"/>
<path d="M229.233 113.853C229.233 113.853 226.988 117.067 226.583 121.135C226.417 122.8 226.578 125.574 226.284 128.083C225.369 135.901 230.125 142.304 233.277 142.826C240.222 143.974 245.915 136.12 245.915 136.12C245.915 136.12 248.51 136.59 249.53 133.129C250.549 129.669 247.584 128.968 246.286 131.065C246.286 131.065 249.159 115.802 236.555 113.37C236.555 113.37 232.385 112.285 229.233 113.853Z" fill="#EFD293"/>
<path d="M227.792 132.358C229.427 132.358 230.753 130.346 230.753 127.863C230.753 125.381 229.427 123.368 227.792 123.368C226.157 123.368 224.832 125.381 224.832 127.863C224.832 130.346 226.157 132.358 227.792 132.358Z" stroke="#5F7AFF" stroke-width="0.863213" stroke-miterlimit="10"/>
<path d="M226.717 121.071C227.294 121.381 227.846 121.577 228.373 121.855C228.887 122.156 229.372 122.533 229.76 123.043C230.566 124.059 230.816 125.531 230.837 126.913C230.857 128.317 230.588 129.721 230.143 131.039C230.029 131.369 229.908 131.695 229.772 132.012C229.715 132.151 229.605 132.342 229.575 132.589C229.543 132.819 229.582 133.037 229.632 133.23C229.846 134.021 230.407 134.597 231.02 134.909C231.11 134.955 231.216 134.911 231.257 134.811C231.295 134.718 231.262 134.608 231.186 134.557C230.671 134.207 230.216 133.706 230.082 133.09C230.017 132.743 230.023 132.605 230.203 132.24C230.343 131.907 230.468 131.567 230.583 131.224C231.035 129.848 231.308 128.388 231.301 126.909C231.276 125.44 231.014 123.938 230.283 122.612C229.913 121.96 229.391 121.381 228.762 121.018C228.15 120.627 227.426 120.436 226.717 120.672C226.62 120.705 226.564 120.82 226.593 120.929C226.609 120.987 226.645 121.031 226.69 121.056L226.717 121.071Z" fill="#0C1A7A"/>
<path d="M230.083 136.621C230.333 137.078 230.662 137.433 231.048 137.726C231.44 137.996 231.867 138.236 232.33 138.317C232.786 138.405 233.253 138.446 233.706 138.373C234.164 138.336 234.595 138.162 235.006 137.972C235.097 137.93 235.141 137.814 235.103 137.712C235.07 137.622 234.985 137.574 234.903 137.592L234.892 137.595C234.069 137.777 233.244 137.883 232.467 137.644C231.7 137.425 230.978 136.975 230.37 136.385L230.352 136.367C230.277 136.295 230.165 136.304 230.1 136.387C230.048 136.454 230.043 136.549 230.083 136.621Z" fill="#0C1A7A"/>
<path d="M237.683 130.515C237.683 131.254 237.238 131.853 236.688 131.853C236.138 131.853 235.693 131.254 235.693 130.515C235.693 129.777 236.138 129.178 236.688 129.178C237.238 129.178 237.683 129.777 237.683 130.515Z" fill="#0C1A7A"/>
<path d="M229.722 128.255C229.722 128.993 229.276 129.592 228.727 129.592C228.177 129.592 227.731 128.993 227.731 128.255C227.731 127.516 228.177 126.917 228.727 126.917C229.276 126.917 229.722 127.516 229.722 128.255Z" fill="#0C1A7A"/>
<path d="M234.385 125.395C234.921 124.896 235.627 124.667 236.284 124.733C236.947 124.811 237.614 125.075 238.226 125.493C238.846 125.894 239.417 126.356 239.899 126.958C240.403 127.528 240.843 128.207 241.223 128.915L241.232 128.932C241.283 129.027 241.393 129.058 241.479 129.001C241.543 128.958 241.575 128.877 241.564 128.798C241.436 127.882 241.065 127.065 240.588 126.313C240.082 125.597 239.446 124.943 238.713 124.523C237.99 124.111 237.171 123.725 236.285 123.803C235.408 123.843 234.548 124.328 234.097 125.161C234.046 125.255 234.073 125.377 234.157 125.434C234.224 125.479 234.306 125.469 234.363 125.416L234.385 125.395Z" fill="#0C1A7A"/>
<path d="M225.542 119.402C225.542 119.402 226.016 122.046 230.279 118.873C231.877 117.684 233.121 115.7 233.594 115.7C234.068 115.7 234.591 119.512 235.489 121.517C235.963 122.575 237.384 126.806 245.563 131.346C245.563 131.346 245.728 131.687 246.286 131.065C246.286 131.065 247.181 129.532 248.643 129.979C250.105 130.426 249.715 132.649 249.461 133.359C249.183 134.137 248.521 135.847 246.485 136.138C246.485 136.138 243.824 140.609 243.067 145.315C242.41 149.403 245.405 154.863 244.488 160.651C243.411 167.448 238.789 172.693 237.384 179.16C236.006 185.5 239.752 184.449 239.278 190.266C239.195 191.283 246.856 190.266 245.909 185.506C244.058 176.207 258.705 169.644 263.49 160.451C263.49 160.451 264.199 159.152 263.237 157.739C262.821 157.127 258.855 152.679 257.75 144.257C257.147 139.658 259.831 130.658 259.171 126.277C258.25 120.159 257.025 116.36 256.24 114.867C253.861 110.347 248.194 104.923 241.869 106.844C241.869 106.844 235.897 104.358 229.42 112.268C229.42 112.268 225.93 115.296 225.542 119.402Z" fill="#0C1A7A"/>
<path d="M236.738 135.002C238.795 135.002 240.462 132.99 240.462 130.507C240.462 128.025 238.795 126.012 236.738 126.012C234.682 126.012 233.015 128.025 233.015 130.507C233.015 132.99 234.682 135.002 236.738 135.002Z" stroke="#5F7AFF" stroke-width="0.863213" stroke-miterlimit="10"/>
<path d="M230.752 129.449C230.752 129.449 231.938 127.702 233.025 130.823" stroke="#5F7AFF" stroke-width="0.863213" stroke-miterlimit="10" stroke-linecap="round"/>
<path d="M240.461 130.508L246.505 129.179" stroke="#5F7AFF" stroke-width="0.863213" stroke-miterlimit="10"/>
<path d="M200.833 265.459C200.833 265.459 198.988 258.293 194.192 257.831C189.397 257.368 188.75 259.927 188.151 263.964C187.552 268.001 182.388 278.172 176.854 307.528C171.321 336.884 168.738 344.049 162.467 355.607C156.196 367.164 153.614 369.245 156.565 370.4C159.516 371.556 165.603 367.395 171.69 359.074C177.776 350.753 178.699 353.758 177.961 347.748C177.223 341.738 177.674 338.348 181.281 332.261C195.115 308.915 202.308 295.739 200.833 265.459Z" fill="#EFD293"/>
<path d="M177.777 346.675C177.777 346.675 173.917 350.564 170.738 355.402C167.559 360.239 155.145 371.053 159.535 360.903C159.535 360.903 152.308 369.558 156.565 370.4C160.822 371.243 165.893 366.595 169.148 362.421C172.403 358.247 175.128 354.738 176.945 353.315C178.761 351.892 178.837 350.185 177.777 346.675Z" fill="#071451"/>
<path d="M293.312 215.236L285.947 211.326L237.981 237.054L245.324 241.209L293.312 215.236Z" fill="#5E6E83"/>
<path d="M245.324 247.58L293.312 221.574V215.236L245.324 241.241V247.58Z" fill="#2F3A44"/>
<path d="M237.978 243.42L245.325 247.581V241.219L237.978 237.058V243.42Z" fill="#95A1B0"/>
<path d="M48.7944 257.924V341.651C48.7944 342.733 49.4557 343.733 50.5291 344.274C52.8422 345.439 55.7337 343.982 55.7337 341.651V257.924H48.7944Z" fill="url(#paint1_linear_1999_3623)"/>
<path d="M195.255 327.367V422.613C195.255 423.682 195.917 424.671 196.99 425.206C199.303 426.358 202.195 424.918 202.195 422.613V327.367C202.195 325.713 200.641 324.373 198.725 324.373C196.809 324.373 195.255 325.713 195.255 327.367Z" fill="url(#paint2_linear_1999_3623)"/>
<path d="M284.98 273.433V371.673C284.98 372.742 285.641 373.731 286.715 374.266C289.028 375.418 291.919 373.978 291.919 371.673V273.433H284.98Z" fill="#5DE0EF"/>
<path d="M286.309 264.528L151.085 186.45L54.8554 242.013L36.75 241.326L36.8135 252.431L189.176 340.405L303.448 274.424V263.317L286.309 264.528Z" fill="url(#paint3_linear_1999_3623)"/>
<path d="M36.8125 241.435L189.175 329.409L303.447 263.428L151.084 175.454L36.8125 241.435Z" fill="url(#paint4_linear_1999_3623)"/>
<path d="M189.176 329.409L189.176 340.404L303.448 274.424V263.428L189.176 329.409Z" fill="url(#paint5_linear_1999_3623)"/>
<path d="M178.228 225.753L212.056 245.285C213.24 245.969 213.24 247.677 212.056 248.361L196.917 257.102C196.368 257.419 195.691 257.419 195.142 257.102L161.314 237.57C160.13 236.886 160.13 235.177 161.314 234.494L176.452 225.753C177.001 225.436 177.678 225.436 178.228 225.753Z" fill="#BFCBD8"/>
<path d="M178.228 224.889L212.056 244.422C213.24 245.105 213.24 246.814 212.056 247.497L196.917 256.238C196.368 256.555 195.691 256.555 195.142 256.238L161.314 236.706C160.13 236.022 160.13 234.314 161.314 233.63L176.452 224.889C177.001 224.572 177.678 224.572 178.228 224.889Z" fill="#D5E1EF"/>
<path d="M108.175 225.093L181.431 268.403L181.603 190.79L108.347 147.48C104.973 167.877 104.094 200.688 108.175 225.093Z" fill="url(#paint6_linear_1999_3623)"/>
<path d="M182.982 267.587L181.431 268.404C177.348 244.715 178.521 209.575 181.603 190.791L183.153 189.974L182.982 267.587Z" fill="#BFCBD8"/>
<path d="M183.154 189.972L181.603 190.789L108.348 147.48L110.308 146.506L183.154 189.972Z" fill="#E8F2FF"/>
<path d="M162.128 268.761L144.243 259.74L124.016 269.968L137.335 276.346C137.46 280.373 139.601 280.479 142.41 278.736L162.128 268.761Z" fill="#D5E1EF"/>
<path d="M138.491 282.277C136.735 281.476 135.52 278.417 135.967 273.829L144.727 202.207L129.396 193.355L118.047 264.895C117.607 269.411 118.777 272.446 120.488 273.304L138.491 282.277Z" fill="#D5E1EF"/>
<path d="M162.101 271.347L140.608 282.22C137.846 283.618 135.303 280.198 135.919 273.873L144.679 202.252L129.349 193.4L131.575 192.368L146.327 201.219L137.721 270.39C137.375 274.495 136.993 277.671 138.165 279.07C139.186 280.288 140.385 279.846 142.41 278.737L162.128 268.762L162.101 271.347Z" fill="#BFCBD8"/>
<path d="M146.328 201.219L144.727 202.208L129.396 193.356L131.612 192.779L146.328 201.219Z" fill="white"/>
<path d="M431.935 340.412L431.549 330.176C431.549 330.176 448.527 330.194 448.527 330.491C448.526 330.788 448.854 341.017 448.854 341.017C448.854 341.017 448.691 347.789 443.767 349.299C438.844 350.81 432.839 348.765 431.935 340.412Z" fill="#F8EEA1"/>
<path d="M430.327 347.013C430.327 347.013 429.223 350.422 429.395 353.185C429.567 355.947 440.845 361.477 445.696 363.561C450.548 365.644 457.496 368.142 464.384 363.367C471.273 358.593 466.511 353.048 461.53 351.13C456.549 349.212 451.092 346.592 451.344 343.813C451.596 341.034 449.052 346.746 430.327 347.013Z" fill="#5183EB"/>
<path d="M440.105 345.604C440.105 345.604 435.575 345.805 433.174 343.161C432.274 342.17 431.962 341.132 431.924 340.222C431.924 340.222 428.198 340.322 428.528 344.687C428.859 349.052 434.898 353.074 442.5 349.352C442.5 349.352 442.661 346.296 440.105 345.604Z" fill="#749BFA"/>
<path d="M448.789 341.81C448.789 341.81 448.897 341.092 448.811 339.503C448.811 339.503 451.569 338.748 452.164 341.678C452.758 344.608 450.251 345.37 450.251 345.37L448.789 341.81Z" fill="#749BFA"/>
<path d="M452.137 355.931C452.137 355.931 443.539 351.769 441.069 348.352C438.598 344.935 438.666 341.85 443.819 340.988C448.337 340.232 449.997 341.956 451.368 346.685C451.368 346.685 454.855 349.094 460.534 351.457C466.212 353.82 455.553 357.75 452.137 355.931Z" fill="#1D19BA"/>
<path d="M450.915 365.864C450.915 365.864 449.052 358.326 456.588 352.909C462.388 348.741 468.236 352.91 468.349 356.768C468.421 359.226 467.644 363.296 460.949 365.862C458.053 366.973 453.902 367.074 450.915 365.864Z" fill="#749BFA"/>
<path d="M429.394 353.402C429.394 353.402 428.791 353.425 428.479 355.373C427.881 359.108 431.374 361.902 433.881 363.63C437.662 366.234 438.606 366.26 439.326 365.656C440.047 365.052 446.592 371.405 456.161 371.295C465.731 371.185 470.025 365.087 470.245 362.12C470.396 360.081 469.604 357.091 468.349 356.767C468.349 356.767 468.948 360.827 464.384 363.585C459.552 366.505 453.984 367.184 445.674 363.433C437.364 359.682 430.194 355.698 429.394 353.402Z" fill="#DDD2FD"/>
<path d="M445.147 354.445C445.019 354.445 444.891 354.405 444.781 354.324C444.508 354.122 444.451 353.736 444.653 353.463C444.831 353.222 449.087 347.558 455.041 347.068C455.384 347.048 455.677 347.292 455.705 347.631C455.733 347.97 455.481 348.267 455.142 348.295C449.751 348.739 445.682 354.141 445.642 354.196C445.521 354.358 445.335 354.445 445.147 354.445Z" fill="#85B0FF"/>
<path d="M449.065 356.179C448.964 356.179 448.86 356.154 448.765 356.101C448.469 355.934 448.363 355.56 448.529 355.264C448.661 355.026 451.854 349.44 458.584 348.586C458.928 348.548 459.23 348.783 459.273 349.119C459.316 349.457 459.077 349.765 458.74 349.808C452.64 350.582 449.633 355.812 449.603 355.865C449.49 356.066 449.281 356.179 449.065 356.179Z" fill="#85B0FF"/>
<path d="M416.922 213.697C416.922 213.697 442.112 176.904 446.614 210.67C451.272 245.602 451.011 264.116 450.737 273.478C449.987 299.085 454.06 343.413 454.06 343.413C453.012 350.399 435.95 352.792 430.132 349.526C425.62 346.993 420.415 270.287 413.894 242.341C413.894 242.341 408.887 224.06 416.922 213.697Z" fill="url(#paint7_linear_1999_3623)"/>
<path d="M373.045 368.683L374.656 358.568C374.656 358.568 391.307 361.886 391.248 362.178C391.19 362.469 389.43 372.569 389.43 372.569C389.43 372.569 388.046 379.178 382.923 379.702C377.799 380.226 372.307 377.052 373.045 368.683Z" fill="#F8EEA1"/>
<path d="M370.916 375.737C370.916 375.737 369.224 378.74 368.95 381.494C368.677 384.248 378.436 391.096 382.89 393.931C387.343 396.767 393.8 400.348 401.366 396.741C408.932 393.135 405.122 386.898 400.514 384.204C395.906 381.511 390.941 378.049 391.635 375.346C392.33 372.644 389.441 378.481 370.916 375.737Z" fill="#5183EB"/>
<path d="M380.255 375.309C380.255 375.309 375.752 374.78 373.807 371.786C373.078 370.663 372.937 369.588 373.045 368.684C373.045 368.684 369.154 369.135 368.976 372.546C368.748 376.917 373.841 380.983 382.017 379.393C382.017 379.393 382.667 376.403 380.255 375.309Z" fill="#749BFA"/>
<path d="M389.43 372.569C389.43 372.569 389.579 371.709 389.796 370.46C389.796 370.46 392.674 371.26 392.823 373.155C393.056 376.136 390.342 376.492 390.342 376.492L389.43 372.569Z" fill="#749BFA"/>
<path d="M390.472 387.434C390.472 387.434 382.654 381.945 380.765 378.176C378.875 374.406 380.18 372.963 384.842 371.876C389.504 370.789 390.747 373.069 391.198 378.185C391.198 378.185 394.253 381.122 399.478 384.367C404.704 387.611 393.552 389.778 390.472 387.434Z" fill="#1D19BA"/>
<path d="M387.707 396.827C387.707 396.827 387.079 389.088 395.387 384.952C401.781 381.769 406.884 386.823 406.376 390.649C406.052 393.087 404.631 396.979 397.611 398.437C394.575 399.068 390.46 398.501 387.707 396.827Z" fill="#749BFA"/>
<path d="M368.951 381.493C368.951 381.493 368.408 381.438 367.731 383.291C366.447 386.804 368.137 389.769 370.813 392.393C373.783 395.304 375.493 395.242 376.302 394.761C377.11 394.28 382.55 401.602 392.013 403.03C401.476 404.459 406.693 399.13 407.387 396.236C407.864 394.248 407.562 391.169 406.375 390.649C406.375 390.649 406.314 394.752 401.366 396.741C396.128 398.847 390.524 398.623 382.924 393.586C375.325 388.549 369.372 383.888 368.951 381.493Z" fill="#DDD2FD"/>
<path d="M383.448 384.044C383.274 384.044 383.101 383.971 382.98 383.829C382.759 383.571 382.788 383.182 383.046 382.961C383.273 382.766 388.682 378.189 394.596 379.034C394.933 379.082 395.167 379.394 395.119 379.731C395.071 380.067 394.764 380.305 394.422 380.253C389.075 379.486 383.899 383.852 383.848 383.896C383.731 383.995 383.589 384.044 383.448 384.044Z" fill="#85B0FF"/>
<path d="M386.882 386.605C386.735 386.605 386.587 386.553 386.469 386.447C386.217 386.22 386.197 385.831 386.424 385.577C386.606 385.375 390.965 380.643 397.713 381.302C398.051 381.335 398.298 381.636 398.265 381.974C398.232 382.312 397.936 382.562 397.593 382.527C391.451 381.926 387.38 386.357 387.339 386.402C387.218 386.537 387.05 386.605 386.882 386.605Z" fill="#85B0FF"/>
<path d="M447.934 220.891C446.881 213.201 444.611 188.984 442.189 185.454C442.189 185.454 412.216 189.588 384.277 188.553C384.277 188.553 378.846 201.587 380.01 219.402C380.01 219.402 380.359 259.574 377.565 282.629C375.621 298.668 366.399 369.49 368.286 372.494C370.173 375.497 380.411 382.025 391.624 378.488C395.087 377.396 403.182 324.082 412.264 293.342C416.813 277.943 419.949 248.396 421.476 237.26C421.476 237.26 421.702 230.512 427.486 229.007C427.486 229.007 448.56 225.471 447.934 220.891Z" fill="url(#paint8_linear_1999_3623)"/>
<path d="M417.684 265.889C419.387 254.401 420.661 243.206 421.477 237.26C421.477 237.26 421.702 230.512 427.486 229.007" stroke="#1951DB" stroke-width="0.107902" stroke-linecap="round" stroke-linejoin="round"/>
<path d="M446.377 162.665C446.377 162.665 445.328 146.825 464.696 150.868C479.944 154.051 497.6 149.856 501.75 147.394C501.75 147.394 501.545 143.955 502.858 142.402C504.17 140.849 505.957 140.993 507.334 138.351C508.371 136.363 509.953 138.472 508.57 140.721C506.698 143.766 510.75 142.697 515.051 141.923C518.276 141.343 519.547 141.094 520.1 141.783C520.241 141.958 520.366 142.433 520.012 142.776C520.012 142.776 520.796 142.838 521.013 143.561C521.145 144.002 521.008 144.427 520.511 144.784C520.511 144.784 521.589 145.585 519.544 147.071C519.544 147.071 520.115 147.519 517.561 149.066C515.007 150.612 510.514 151.513 507.489 151.72C504.464 151.928 479.315 178.066 460.856 176.003C455.193 175.371 447.27 171.592 446.377 162.665Z" fill="#F4D6AE"/>
<path d="M520.012 142.776C520.012 142.776 519.039 144.059 513.014 145.46" stroke="#231F20" stroke-width="0.107902" stroke-linecap="round" stroke-linejoin="round"/>
<path d="M520.511 144.785C520.511 144.785 519.093 146.152 513.644 147.817" stroke="#231F20" stroke-width="0.107902" stroke-linecap="round" stroke-linejoin="round"/>
<path d="M519.544 147.071C519.544 147.071 518.021 148.304 514.073 149.261" stroke="#231F20" stroke-width="0.107902" stroke-linecap="round" stroke-linejoin="round"/>
<path d="M438.686 110.152C438.686 110.152 446.603 111.032 461.557 135.285C467.878 145.537 471.61 150.239 473.998 152.124C473.998 152.124 456.028 150.616 450.624 171.226C450.624 171.226 443.587 165.822 437.178 146.847C430.769 127.871 431.774 107.89 438.686 110.152Z" fill="#337AF7"/>
<path d="M476.602 153.517L473.225 150.141C473.225 150.141 453.434 149.908 449.359 172.377C449.359 172.377 452.502 174.124 455.762 174.822C455.762 174.822 458.207 154.448 476.602 153.517Z" fill="#337AF7"/>
<path d="M449.359 172.531C449.35 172.531 449.341 172.53 449.331 172.528C449.247 172.513 449.192 172.433 449.207 172.349C451.578 159.276 459.251 153.847 465.27 151.593C468.005 150.57 470.405 150.191 471.936 150.053C472.023 150.038 472.095 150.109 472.103 150.193C472.111 150.278 472.048 150.352 471.964 150.36C470.451 150.496 468.081 150.87 465.379 151.882C459.434 154.107 451.855 159.473 449.51 172.404C449.496 172.478 449.432 172.531 449.359 172.531Z" fill="#E8F2FF"/>
<path d="M403.007 106.031C403.007 106.031 401.325 106.193 400.184 108.433C400.184 108.433 383.62 114.735 376.401 122.303C375.667 123.072 373.047 188.883 380.816 209.169C380.816 209.169 396.993 215.329 424.409 214.779C432.059 214.626 444.867 206.553 445.557 203.989C447.187 197.934 445.849 170.527 446.351 165.194C449.619 130.511 445.672 115.16 438.686 110.153C438.686 110.153 431.943 107.05 424.84 106.351C424.84 106.351 424.025 104.721 420.648 104.721C417.271 104.721 403.007 106.031 403.007 106.031Z" fill="url(#paint9_linear_1999_3623)"/>
<path d="M446.759 160.642C446.755 160.642 446.751 160.642 446.747 160.641C446.662 160.635 446.599 160.561 446.606 160.476C447.962 143.354 447.476 130.281 445.161 121.618C445.139 121.536 445.188 121.452 445.27 121.43C445.354 121.408 445.437 121.456 445.458 121.539C447.782 130.235 448.271 143.343 446.912 160.5C446.906 160.581 446.839 160.642 446.759 160.642Z" fill="#E8F2FF"/>
<path d="M429.671 191.586L413.243 231.315L431.48 255.303L448.093 215.127L429.671 191.586Z" fill="white"/>
<path d="M364.82 169.318C364.82 169.318 378.868 159.081 386.456 179.375C392.429 195.351 406.641 209.24 411.347 211.642C411.347 211.642 414.41 209.44 416.616 209.747C418.821 210.054 419.733 211.791 422.985 211.521C425.432 211.317 424.405 214.016 421.514 214.051C417.6 214.1 420.96 217.225 424.192 220.753C426.616 223.4 427.59 224.43 427.276 225.346C427.196 225.578 426.83 225.971 426.305 225.844C426.305 225.844 426.707 226.606 426.164 227.23C425.832 227.611 425.359 227.733 424.738 227.481C424.738 227.481 424.627 228.947 422.056 227.924C422.056 227.924 421.975 228.715 419.049 227.255C416.123 225.795 412.662 222.163 410.7 219.485C408.738 216.806 369.832 208.817 360.943 190.524C358.215 184.911 357.079 175.367 364.82 169.318Z" fill="#F4D6AE"/>
<path d="M426.305 225.844C426.305 225.844 424.548 225.693 419.727 220.937" stroke="#231F20" stroke-width="0.107902" stroke-linecap="round" stroke-linejoin="round"/>
<path d="M424.738 227.48C424.738 227.48 422.643 226.968 417.914 222.897" stroke="#231F20" stroke-width="0.107902" stroke-linecap="round" stroke-linejoin="round"/>
<path d="M422.057 227.923C422.057 227.923 420.025 227.235 416.83 224.14" stroke="#231F20" stroke-width="0.107902" stroke-linecap="round" stroke-linejoin="round"/>
<path d="M377.686 120.887C377.686 120.887 386.479 120.103 386.878 137.296C387.202 151.232 384.98 170.498 386.169 176.413C386.169 176.413 370.919 170.489 359.783 189.038C359.783 189.038 349.38 174.825 359.793 149.33C367.93 129.409 377.686 120.887 377.686 120.887Z" fill="url(#paint10_linear_1999_3623)"/>
<path d="M386.479 174.093C386.479 174.093 380.117 170.257 369.709 175.024C361.328 178.862 357.896 186.321 357.638 186.875C357.638 186.875 358.704 190.182 360.919 192.6C360.919 192.6 364.868 185.827 371.425 182.06C377.079 178.811 382.433 178.03 386.917 178.355L386.479 174.093Z" fill="#337AF7"/>
<path d="M386.878 137.296C387.161 149.489 385.496 165.764 385.871 173.605" stroke="#E8F2FF" stroke-width="0.107902" stroke-linecap="round" stroke-linejoin="round"/>
<path d="M385.952 178.303C386.278 178.314 386.6 178.332 386.917 178.355L386.479 174.093C386.479 174.093 380.117 170.257 369.709 175.024" stroke="#E8F2FF" stroke-width="0.107902" stroke-linecap="round" stroke-linejoin="round"/>
<path d="M403.075 94.4676C403.075 94.4676 403.355 103.837 402.575 106.031C401.918 107.88 407.815 111.707 415.85 109.786C418.651 109.116 420.284 107.831 421.224 106.44C420.31 105.692 419.945 103.663 419.867 100.965L405.545 91.6212L403.012 91.1846L403.075 94.4676Z" fill="#CEB499"/>
<path d="M407.038 67.7539C407.038 67.7539 415.776 65.8745 421.387 70.1906C426.998 74.5067 426.208 82.6118 427.035 83.7385C427.861 84.8653 430.8 92.1383 429.115 93.6811C427.43 95.2238 424.409 99.1083 425.272 100.403L426.998 102.993L423.545 103.424L416.028 98.8236L403.691 86.1601L407.038 67.7539Z" fill="#0515B1"/>
<path d="M423.008 75.1421C423.008 75.1421 425.8 76.5379 426.265 86.7737C426.73 97.0095 425.055 102.686 420.496 103.895C415.936 105.105 408.864 101.569 406.072 95.3345C406.072 95.3345 404.118 96.2651 403.374 92.636C402.719 89.4443 405.7 89.7514 406.072 91.1472C406.072 91.1472 406.817 92.9152 407.747 92.543C407.747 92.543 408.399 92.636 408.026 91.0541C407.654 89.4722 407.189 87.0529 407.468 84.6335C407.747 82.2141 404.863 81.0975 405.235 79.1434C405.607 77.1893 415.378 79.7017 423.008 75.1421Z" fill="#F4D6AE"/>
<path d="M425.737 80.5624C419.223 80.0628 420.45 89.1367 423.408 92.4645C423.696 93.379 423.21 94.7515 422.468 95.2586C422.445 95.238 422.444 95.2006 422.465 95.1772C422.626 94.9934 422.78 94.8034 422.908 94.5959C423.303 94.018 423.486 93.1383 423.321 92.536C421.079 89.6883 419.592 84.6624 422.132 81.5856C423.035 80.583 424.455 80.1494 425.78 80.3502C425.924 80.3767 425.881 80.5941 425.737 80.5624Z" fill="#0C1A7A"/>
<path d="M422.82 97.5067C421.83 98.7313 420.041 98.889 418.65 98.3379C418.585 98.3182 418.614 98.2153 418.68 98.2346C420.052 98.6866 421.714 98.5487 422.735 97.4409C422.776 97.3843 422.866 97.4513 422.82 97.5067Z" fill="#0C1A7A"/>
<path d="M416.115 91.427C416.823 91.3886 417.358 90.6406 417.31 89.7563C417.262 88.872 416.649 88.1862 415.941 88.2245C415.233 88.2629 414.698 89.0108 414.746 89.8952C414.794 90.7795 415.407 91.4653 416.115 91.427Z" fill="#0C1A7A"/>
<path d="M423.986 88.8542C424.679 88.8166 425.203 88.0693 425.155 87.1849C425.107 86.3006 424.506 85.6141 423.812 85.6517C423.119 85.6893 422.595 86.4366 422.643 87.321C422.691 88.2053 423.292 88.8917 423.986 88.8542Z" fill="#0C1A7A"/>
<path d="M417.434 83.9299C414.984 83.5011 412.318 84.378 410.897 86.4818C410.861 86.5401 410.766 86.4817 410.807 86.4229C412.108 84.1544 414.984 83.2005 417.46 83.8252C417.526 83.8413 417.504 83.9471 417.434 83.9299Z" fill="#0C1A7A"/>
<path d="M395.059 80.1179C395.059 80.1179 395.922 85.2972 395.059 91.7713C394.659 94.7661 392.75 97.9087 393.764 99.9719C394.419 101.304 396.868 100.498 398.08 101.698C398.867 102.477 397.328 108.215 398.08 109.036C400.805 112.008 408.844 106.466 408.87 106.014C408.915 105.246 405.437 102.823 406.712 98.677C408.439 93.0662 409.774 92.6045 408.87 91.3397C408.619 90.9879 412.755 85.2972 409.733 79.6863C408.528 77.4479 417.704 76.8607 419.66 76.6651C422.371 76.394 429.587 82.7076 426.566 74.9386C424.467 69.5418 415.154 65.5937 405.849 68.0329C398.139 70.0541 395.375 74.5619 395.059 80.1179Z" fill="#0515B1"/>
<path d="M399.633 109.147L421.308 140.974L424.332 106.351L427.357 106.877L423.325 147.88L395.922 109.907L399.633 109.147Z" fill="#0C1A7A"/>
<path d="M419.464 144.933L424.984 142.475C426.263 141.906 427.861 142.618 427.861 143.756V154.078C427.861 155.02 427.221 155.894 426.175 156.38L420.686 158.931C419.411 159.524 417.784 158.819 417.778 157.671L417.721 147.273C417.716 146.308 418.381 145.415 419.464 144.933Z" fill="white"/>
<path d="M422.044 210.032L420.092 214.717L426.566 216.876V210.032H422.044Z" fill="white"/>
<path d="M218.996 233.126C218.996 233.126 215.605 227.768 208.131 231.411C200.657 235.055 200.39 239.2 207.68 238.286C214.97 237.371 219.944 234.26 218.996 233.126Z" fill="white"/>
<path d="M256.722 203.044C256.722 203.044 249.59 188.657 237.908 202.06C226.226 215.463 219.709 221.243 212.946 225.546C206.183 229.85 203.024 233.101 203.739 233.977C203.802 234.054 203.892 234.263 204.434 234.055C204.08 234.592 204.699 235.22 205.483 234.747C205.491 235.222 205.967 235.439 206.959 234.747C207.01 235.156 207.489 235.254 208.722 234.666C208.722 234.666 214.776 231.604 216.881 229.358C216.881 229.358 249.24 225.756 256.968 215.709C260.657 210.913 256.722 203.044 256.722 203.044Z" fill="#EFD293"/>
<path d="M206.904 234.687C206.732 234.396 207.838 233.564 208.796 232.919C208.847 232.883 208.917 232.898 208.952 232.949C208.986 233 208.973 233.07 208.921 233.105C207.286 234.208 207.127 234.562 207.112 234.612C207.119 234.657 207.099 234.703 207.058 234.727C207.04 234.738 207.02 234.743 207.001 234.743C206.963 234.743 206.925 234.723 206.904 234.687Z" fill="#0C1A7A"/>
<path d="M205.474 234.778C205.516 234.778 205.557 234.754 205.576 234.714C205.58 234.705 206.014 233.835 207.78 232.596C207.831 232.56 207.843 232.49 207.808 232.439C207.772 232.388 207.702 232.377 207.651 232.412C205.827 233.691 205.39 234.58 205.373 234.617C205.346 234.673 205.37 234.74 205.426 234.766C205.441 234.774 205.458 234.778 205.474 234.778Z" fill="#0C1A7A"/>
<path d="M204.387 234.102C204.428 234.102 204.469 234.078 204.488 234.038C204.492 234.029 204.922 233.17 206.83 231.758C206.88 231.721 206.891 231.651 206.854 231.601C206.817 231.552 206.746 231.541 206.697 231.577C204.733 233.03 204.302 233.904 204.285 233.941C204.258 233.997 204.282 234.064 204.338 234.09C204.354 234.098 204.37 234.102 204.387 234.102Z" fill="#0C1A7A"/>
<path d="M262.52 158.516C262.52 158.516 257.148 155.749 251.925 175.5C247.99 190.379 239.875 199.355 239.875 199.355C239.875 199.355 256.967 198.248 253.278 219.767C253.278 219.767 263.607 214.603 267.296 203.29C271.742 189.656 267.438 156.671 262.52 158.516Z" fill="#5E6E83"/>
<path d="M262.5 155.087C262.5 155.087 257.148 155.749 251.925 175.5C247.99 190.379 239.875 199.355 239.875 199.355" stroke="#E8F2FF" stroke-width="0.107902" stroke-linecap="round" stroke-linejoin="round"/>
<path d="M253.776 129.804C254.541 126.285 252.717 122.9 249.701 122.244C246.685 121.587 243.619 123.908 242.853 127.427C242.088 130.946 243.912 134.33 246.928 134.987C249.944 135.643 253.01 133.322 253.776 129.804Z" fill="#AAAAAA"/>
<path d="M230.588 110.476L230.617 108.604C230.617 108.604 238.386 102.562 249.608 111.626V128.003H247.239V113.352C247.239 113.352 238.328 104.578 230.588 110.476Z" fill="#AAAAAA"/>
<path d="M246.154 132.343C246.154 132.343 243.996 137.522 236.659 136.659C236.659 136.659 234.501 137.522 236.227 137.954C237.953 138.385 247.32 136.604 246.154 132.343Z" fill="#AAAAAA"/>
<path d="M404.657 94.5072C407.674 93.8509 409.498 90.4663 408.732 86.9474C407.967 83.4285 404.901 81.108 401.885 81.7643C398.868 82.4206 397.044 85.8052 397.81 89.3241C398.575 92.843 401.641 95.1635 404.657 94.5072Z" fill="#AAAAAA"/>
<path d="M420.998 69.9963L420.969 68.1249C420.969 68.1249 413.2 62.0824 401.979 71.1462V87.5239H404.348V72.8726C404.348 72.8726 413.258 64.0987 420.998 69.9963Z" fill="#AAAAAA"/>
<path d="M406.635 89.292C406.635 89.292 406.428 94.8991 413.453 97.1852C413.453 97.1852 415.052 98.8722 413.303 98.5418C411.555 98.2115 403.793 92.674 406.635 89.292Z" fill="#AAAAAA"/>
<path d="M291.25 66.9704L286.771 69.5537L290.456 63.8745L291.25 66.9704Z" fill="#086CF5"/>
<path d="M243.204 53.1045L239.49 55.217L240.494 50.5195L243.204 53.1045Z" fill="#086CF5"/>
<path d="M230.505 1.02002L225.868 3.68742L230.946 2.89568L230.505 1.02002Z" fill="#086CF5"/>
<path d="M309.692 120.976L304.1 123.859L307.561 117.466L309.692 120.976Z" fill="#08A6F2"/>
<path d="M292.807 124.678L288.326 126.925L291.597 123.167L292.807 124.678Z" fill="#08A6F2"/>
<path d="M243.607 62.4386L249.287 59.5493L250.541 62.5388L243.607 62.4386Z" fill="#08A6F2"/>
<path d="M288.563 31.9154L236.204 1.17564C232.265 -1.13671 227.304 1.70342 227.304 6.27071V28.2908C227.304 32.1057 229.353 35.6268 232.669 37.5122L234.189 38.376L238.947 50.3289C239.377 51.4111 240.155 52.3197 241.158 52.9123L241.371 53.0382C242.601 53.7646 244.165 52.9444 244.267 51.5201L244.809 44.4137L284.972 67.2461C288.911 69.4852 293.8 66.6405 293.8 62.1098V41.0628C293.8 37.3008 291.807 33.8201 288.563 31.9154Z" fill="#086CF5"/>
<path d="M284.572 34.1967L232.212 3.45689C228.274 1.14454 223.313 3.98467 223.313 8.55196V30.5721C223.313 34.387 225.362 37.9081 228.678 39.7935L230.198 40.6573L234.956 52.6101C235.386 53.6924 236.164 54.601 237.167 55.1935L237.38 55.3195C238.61 56.0458 240.174 55.2257 240.275 53.8014L240.818 46.695L280.981 69.5273C284.919 71.7664 289.809 68.9217 289.809 64.3911V43.3441C289.809 39.582 287.816 36.1014 284.572 34.1967Z" fill="#78B5FF"/>
<path d="M306.884 90.6591L254.525 59.9193C250.586 57.6069 245.625 60.4471 245.625 65.0143V82.3811C245.625 86.1961 247.674 89.7171 250.991 91.6025L288.456 112.901L287.915 120.932C287.833 122.146 288.409 123.303 289.4 123.915L290.297 124.47C291.362 125.129 292.704 125 293.641 124.149L299.259 119.043L303.293 121.336C307.232 123.576 312.121 120.731 312.121 116.2V99.8065C312.121 96.0444 310.129 92.5638 306.884 90.6591Z" fill="#08A6F2"/>
<path d="M302.323 92.9403L249.964 62.2005C246.025 59.8882 241.064 62.7283 241.064 67.2956V84.6624C241.064 88.4773 243.113 91.9984 246.429 93.8838L283.895 115.182L283.353 123.213C283.272 124.427 283.848 125.584 284.839 126.197L285.736 126.751C286.801 127.41 288.143 127.282 289.08 126.431L294.698 121.324L298.732 123.618C302.671 125.857 307.56 123.012 307.56 118.481V102.088C307.56 98.3257 305.568 94.845 302.323 92.9403Z" fill="#79E4F2"/>
<path opacity="0.67" d="M235.797 18.96L275.633 42.21" stroke="#337AF7" stroke-width="2.28051" stroke-miterlimit="10" stroke-linecap="round"/>
<path opacity="0.67" d="M235.797 30.3623L266.511 48.4812" stroke="#337AF7" stroke-width="2.28051" stroke-miterlimit="10" stroke-linecap="round"/>
<path opacity="0.67" d="M252.331 75.4023L292.167 98.6524" stroke="#337AF7" stroke-width="2.28051" stroke-miterlimit="10" stroke-linecap="round"/>
<path opacity="0.67" d="M261.38 91.2412L292.167 108.915" stroke="#337AF7" stroke-width="2.28051" stroke-miterlimit="10" stroke-linecap="round"/>
<path d="M463.683 98.3278L468.161 100.911L464.476 95.2319L463.683 98.3278Z" fill="#086CF5"/>
<path d="M499.186 91.3022L502.901 93.4148L501.896 88.7173L499.186 91.3022Z" fill="#086CF5"/>
<path d="M511.885 39.2188L516.522 41.8862L511.444 41.0944L511.885 39.2188Z" fill="#086CF5"/>
<path d="M466.371 63.2726L506.188 39.3744C510.127 37.062 515.087 39.9021 515.087 44.4694V66.4896C515.087 70.3044 513.039 73.8255 509.722 75.711L508.203 76.5748L503.445 88.5276C503.014 89.6099 502.236 90.5185 501.233 91.111L501.02 91.237C499.791 91.9633 498.227 91.1432 498.125 89.7189L497.582 82.6125L469.962 98.6033C466.024 100.842 461.134 97.9977 461.134 93.467V72.42C461.134 68.658 463.127 65.1773 466.371 63.2726Z" fill="#086CF5"/>
<path d="M470.361 65.5534L510.178 41.6551C514.116 39.3428 519.077 42.1829 519.077 46.7502V68.7703C519.077 72.5852 517.029 76.1063 513.712 77.9917L512.193 78.8555L507.435 90.8084C507.004 91.8906 506.226 92.7992 505.223 93.3918L505.01 93.5177C503.781 94.2441 502.217 93.4239 502.115 91.9996L501.572 84.8932L473.952 100.884C470.014 103.123 465.124 100.278 465.124 95.7478V74.7008C465.124 70.9387 467.117 67.4581 470.361 65.5534Z" fill="#78B5FF"/>
<path d="M428.138 64.5339L433.73 67.4171L430.269 61.0244L428.138 64.5339Z" fill="#08A6F2"/>
<path d="M445.022 68.2369L449.503 70.4835L446.232 66.7261L445.022 68.2369Z" fill="#08A6F2"/>
<path d="M479.968 3.3414L474.288 0.452148L473.035 3.44158L479.968 3.3414Z" fill="#08A6F2"/>
<path d="M430.945 23.9546L469.051 0.822129C472.99 -1.49022 477.951 1.34989 477.951 5.91717V33.5463C477.951 37.3612 475.902 40.8823 472.586 42.7676L449.374 56.4591L449.915 64.49C449.997 65.7034 449.421 66.8604 448.43 67.4733L447.533 68.028C446.467 68.6869 445.125 68.5581 444.189 67.7071L438.57 62.601L434.536 64.8943C430.597 67.1334 425.708 64.2887 425.708 59.758V33.102C425.708 29.34 427.701 25.8593 430.945 23.9546Z" fill="#08A6F2"/>
<path d="M435.506 26.2354L473.612 3.10289C477.551 0.790539 482.512 3.63066 482.512 8.19793V35.827C482.512 39.6419 480.463 43.163 477.147 45.0484L453.935 58.7398L454.476 66.7708C454.558 67.9841 453.982 69.1412 452.991 69.7541L452.094 70.3088C451.028 70.9677 449.686 70.8389 448.75 69.9879L443.131 64.8817L439.097 67.175C435.158 69.4141 430.269 66.5694 430.269 62.0388V35.3828C430.269 31.6207 432.262 28.1401 435.506 26.2354Z" fill="#79E4F2"/>
<path opacity="0.67" d="M509.445 58.2983L474.74 77.5575" stroke="#337AF7" stroke-width="2.28051" stroke-miterlimit="10" stroke-linecap="round"/>
<path opacity="0.67" d="M509.444 67.9912L483.861 82.1192" stroke="#337AF7" stroke-width="2.28051" stroke-miterlimit="10" stroke-linecap="round"/>
<path d="M467.821 24.4717C467.794 30.5573 462.969 37.8295 461.631 41.4273C461.323 42.2541 460.722 42.9362 459.958 43.3773L456.736 45.2374C456.088 45.6117 455.339 44.9526 455.622 44.2596C458.264 37.7829 468.359 19.6624 458.605 25.8191C457.241 26.6795 456.131 29.0429 455.646 30.9493C455.388 31.9599 454.743 32.8246 453.839 33.346L451.009 34.9801C450.368 35.35 449.571 34.8165 449.688 34.086C450.586 28.4723 453.738 22.2383 458.605 19.6621C462.48 17.6105 468.2 18.5184 467.821 24.4717Z" fill="#E8F2FF"/>
<path d="M460.068 49.8268L456.762 51.7357C455.932 52.2151 454.897 51.6004 454.921 50.6421L454.957 49.1875C454.976 48.413 455.397 47.7045 456.068 47.3171L459.375 45.4081C460.205 44.9288 461.239 45.5435 461.216 46.5018L461.179 47.9564C461.16 48.7309 460.739 49.4394 460.068 49.8268Z" fill="#E8F2FF"/>
<defs>
<linearGradient id="paint0_linear_1999_3623" x1="228.8" y1="248.25" x2="268.976" y2="140.532" gradientUnits="userSpaceOnUse">
<stop stop-color="#0C1A7A"/>
<stop offset="0.04667" stop-color="#122789"/>
<stop offset="0.17032" stop-color="#2147AC"/>
<stop offset="0.30153" stop-color="#2E61C9"/>
<stop offset="0.44074" stop-color="#3775DF"/>
<stop offset="0.59162" stop-color="#3E83EF"/>
<stop offset="0.76268" stop-color="#428CF9"/>
<stop offset="0.99721" stop-color="#448FFC"/>
</linearGradient>
<linearGradient id="paint1_linear_1999_3623" x1="21.7092" y1="373.917" x2="70.1701" y2="256.776" gradientUnits="userSpaceOnUse">
<stop offset="0.11453" stop-color="#09B2EF"/>
<stop offset="0.3106" stop-color="#09ACEA"/>
<stop offset="0.55973" stop-color="#099CDE"/>
<stop offset="0.83643" stop-color="#0982CA"/>
<stop offset="1" stop-color="#0A70BC"/>
</linearGradient>
<linearGradient id="paint2_linear_1999_3623" x1="198.084" y1="317.287" x2="199.047" y2="403.939" gradientUnits="userSpaceOnUse">
<stop stop-color="#09B1EE"/>
<stop offset="0.11993" stop-color="#11BCEC"/>
<stop offset="0.34513" stop-color="#1CCCE9"/>
<stop offset="0.60123" stop-color="#22D6E8"/>
<stop offset="0.95251" stop-color="#25D9E8"/>
</linearGradient>
<linearGradient id="paint3_linear_1999_3623" x1="22.4925" y1="322.082" x2="188.094" y2="256.291" gradientUnits="userSpaceOnUse">
<stop stop-color="#0A70BC"/>
<stop offset="0.16357" stop-color="#0982CA"/>
<stop offset="0.44027" stop-color="#099CDE"/>
<stop offset="0.6894" stop-color="#09ACEA"/>
<stop offset="0.88547" stop-color="#09B2EF"/>
</linearGradient>
<linearGradient id="paint4_linear_1999_3623" x1="-28.7273" y1="276.64" x2="192.716" y2="249.682" gradientUnits="userSpaceOnUse">
<stop stop-color="#549EFA"/>
<stop offset="0.23327" stop-color="#6BB7FB"/>
<stop offset="0.52711" stop-color="#82D1FD"/>
<stop offset="0.79176" stop-color="#91E1FE"/>
<stop offset="1" stop-color="#96E7FF"/>
</linearGradient>
<linearGradient id="paint5_linear_1999_3623" x1="189.759" y1="335.895" x2="306.739" y2="265.61" gradientUnits="userSpaceOnUse">
<stop stop-color="#25D9E8"/>
<stop offset="0.20128" stop-color="#45DAEA"/>
<stop offset="0.7497" stop-color="#98DCF2"/>
<stop offset="1" stop-color="#BADEF5"/>
</linearGradient>
<linearGradient id="paint6_linear_1999_3623" x1="143.494" y1="268.418" x2="143.443" y2="147.465" gradientUnits="userSpaceOnUse">
<stop offset="0.00033" stop-color="#95A1B0"/>
<stop offset="0.99739" stop-color="#E8F2FF"/>
</linearGradient>
<linearGradient id="paint7_linear_1999_3623" x1="433.206" y1="342.49" x2="433.206" y2="232.493" gradientUnits="userSpaceOnUse">
<stop stop-color="#81B9F8"/>
<stop offset="0.40315" stop-color="#8BBFF8"/>
<stop offset="1" stop-color="#A4CDFA"/>
</linearGradient>
<linearGradient id="paint8_linear_1999_3623" x1="368.033" y1="282.482" x2="447.947" y2="282.482" gradientUnits="userSpaceOnUse">
<stop stop-color="#81B9F8"/>
<stop offset="0.09961" stop-color="#8ABEF8"/>
<stop offset="0.31501" stop-color="#98C6F9"/>
<stop offset="0.57529" stop-color="#A1CBF9"/>
<stop offset="1" stop-color="#A4CDFA"/>
</linearGradient>
<linearGradient id="paint9_linear_1999_3623" x1="406.441" y1="241.943" x2="415.757" y2="82.9868" gradientUnits="userSpaceOnUse">
<stop offset="0.04749" stop-color="#1D4AD6"/>
<stop offset="0.12873" stop-color="#2052DB"/>
<stop offset="0.38673" stop-color="#2A68EA"/>
<stop offset="0.63512" stop-color="#3075F3"/>
<stop offset="0.86145" stop-color="#337AF7"/>
</linearGradient>
<linearGradient id="paint10_linear_1999_3623" x1="349.193" y1="197.455" x2="383.173" y2="145.467" gradientUnits="userSpaceOnUse">
<stop offset="0.04749" stop-color="#1D4AD6"/>
<stop offset="0.59473" stop-color="#2A68EA"/>
<stop offset="1" stop-color="#337AF7"/>
</linearGradient>
</defs>
</svg>
