<svg width="48" height="48" viewBox="0 0 48 48" fill="none" xmlns="http://www.w3.org/2000/svg">
<path d="M16.0005 22.8004C16.0005 24.3404 17.2005 25.6004 18.6605 25.6004H21.6605C22.9405 25.6004 23.9805 24.5004 23.9805 23.1604C23.9805 21.7004 23.3405 21.1804 22.4005 20.8404L17.6005 19.1604C16.6405 18.8204 16.0005 18.3004 16.0005 16.8404C16.0005 15.5004 17.0405 14.4004 18.3205 14.4004H21.3205C22.8005 14.4204 24.0005 15.6604 24.0005 17.2004" stroke="#0878FF" stroke-width="3.25" stroke-linecap="round" stroke-linejoin="round"/>
<path d="M19.9995 25.7002V27.1802" stroke="#0878FF" stroke-width="3.25" stroke-linecap="round" stroke-linejoin="round"/>
<path d="M19.9995 12.8203V14.3803" stroke="#0878FF" stroke-width="3.25" stroke-linecap="round" stroke-linejoin="round"/>
<path d="M19.9805 35.96C28.806 35.96 35.9605 28.8055 35.9605 19.98C35.9605 11.1545 28.806 4 19.9805 4C11.155 4 4.00049 11.1545 4.00049 19.98C4.00049 28.8055 11.155 35.96 19.9805 35.96Z" stroke="#0878FF" stroke-width="3.25" stroke-linecap="round" stroke-linejoin="round"/>
<path d="M25.9609 39.76C27.7609 42.3 30.7009 43.96 34.0609 43.96C39.5209 43.96 43.9609 39.52 43.9609 34.06C43.9609 30.74 42.3209 27.8 39.8209 26" stroke="#0878FF" stroke-width="3.25" stroke-linecap="round" stroke-linejoin="round"/>
</svg>
