<svg width="30" height="30" viewBox="0 0 30 30" fill="none" xmlns="http://www.w3.org/2000/svg">
<path d="M26.7281 5.34755C24.9016 9.90197 20.3235 16.0931 16.4925 19.165L14.156 21.0389C13.8595 21.2524 13.563 21.4422 13.2309 21.5727C13.2309 21.3592 13.2191 21.122 13.1835 20.8966C13.053 19.9003 12.6023 18.9752 11.8077 18.1806C11.0012 17.3741 10.0167 16.8996 9.00859 16.7692C8.77139 16.7573 8.53418 16.7336 8.29697 16.7573C8.42743 16.3896 8.62906 16.0457 8.87813 15.761L10.7284 13.4245C13.7884 9.5936 20.0032 4.99174 24.5458 3.17709C25.2456 2.91616 25.9216 3.10592 26.3486 3.54476C26.7993 3.9836 27.0128 4.65965 26.7281 5.34755Z" stroke="white" stroke-width="1.77907" stroke-linecap="round" stroke-linejoin="round"/>
<path d="M13.2309 21.5725C13.2309 22.8771 12.7328 24.1225 11.7958 25.0713C11.0723 25.7948 10.0879 26.2929 8.91374 26.4471L5.99606 26.7673C4.40676 26.9452 3.04281 25.5932 3.23257 23.9801L3.55281 21.0625C3.83746 18.465 6.00792 16.8046 8.30885 16.7571C8.54606 16.7452 8.79513 16.7571 9.02048 16.769C10.0286 16.8994 11.013 17.362 11.8195 18.1804C12.6142 18.975 13.0649 19.9001 13.1954 20.8964C13.2072 21.1218 13.2309 21.3471 13.2309 21.5725Z" stroke="white" stroke-width="1.77907" stroke-linecap="round" stroke-linejoin="round"/>
<path d="M17.7498 17.8363C17.7498 14.7407 15.2354 12.2263 12.1398 12.2263" stroke="white" stroke-width="1.77907" stroke-linecap="round" stroke-linejoin="round"/>
</svg>
