<svg width="287" height="582" viewBox="0 0 287 582" fill="none" xmlns="http://www.w3.org/2000/svg">
<g filter="url(#filter0_ii_1488_3490)">
<rect x="2.83496" width="281.278" height="581.2" rx="44.0618" fill="#F9F9FB"/>
</g>
<path d="M38.4263 91.2089C39.4173 91.2089 40.1393 91.4118 40.5943 91.8178C41.0493 92.2238 41.2773 92.7928 41.2773 93.5238C41.2773 93.8568 41.2243 94.1728 41.1193 94.4738C41.0166 94.7744 40.8438 95.0462 40.6153 95.2668C40.3813 95.4938 40.0713 95.6749 39.6863 95.8079C39.3053 95.9409 38.8343 96.0068 38.2743 96.0068H37.4553V98.8839H36.1953V91.2089H38.4263ZM38.3423 92.2538H37.4553V94.9568H38.1433C38.5383 94.9568 38.8743 94.9119 39.1513 94.8209C39.4273 94.7259 39.6373 94.5768 39.7813 94.3738C39.9243 94.1708 39.9963 93.9039 39.9963 93.5709C39.9963 93.1269 39.8613 92.7959 39.5923 92.5789C39.3263 92.3619 38.9093 92.2538 38.3423 92.2538ZM44.9623 92.9619C45.6973 92.9619 46.2523 93.1248 46.6263 93.4508C47.0043 93.7758 47.1933 94.2828 47.1933 94.9728V98.8839H46.3173L46.0803 98.0598H46.0383C45.8904 98.2532 45.7194 98.4278 45.5293 98.5798C45.3478 98.7194 45.141 98.8227 44.9203 98.8839C44.6933 98.9539 44.4143 98.9889 44.0853 98.9889C43.7393 98.9889 43.4293 98.9258 43.1563 98.7998C42.8865 98.6736 42.6613 98.4686 42.5103 98.2119C42.3533 97.9499 42.2743 97.6168 42.2743 97.2148C42.2743 96.6158 42.4963 96.1658 42.9413 95.8648C43.3893 95.5638 44.0643 95.3979 44.9673 95.3669L45.9753 95.3298V95.0248C45.9753 94.6228 45.8813 94.3358 45.6923 94.1638C45.5063 93.9928 45.2443 93.9069 44.9043 93.9069C44.6143 93.9069 44.3323 93.9488 44.0593 94.0328C43.7861 94.1167 43.5194 94.2203 43.2613 94.3428L42.8623 93.4718C43.1463 93.3208 43.4683 93.1989 43.8283 93.1039C44.1988 93.0087 44.5798 92.961 44.9623 92.9619ZM45.9703 96.1068L45.2193 96.1328C44.6033 96.1538 44.1713 96.2588 43.9233 96.4478C43.8025 96.5372 43.7054 96.6547 43.6404 96.7901C43.5754 96.9255 43.5445 97.0748 43.5503 97.2249C43.5503 97.5119 43.6363 97.7219 43.8073 97.8549C43.9793 97.9849 44.2043 98.0489 44.4843 98.0489C44.9113 98.0489 45.2653 97.9289 45.5453 97.6869C45.8283 97.4419 45.9703 97.0828 45.9703 96.6108V96.1068ZM48.0443 93.0728H49.3883L50.5793 96.3899C50.6323 96.5409 50.6793 96.6899 50.7213 96.8369C50.7673 96.9799 50.8053 97.1218 50.8373 97.2618C50.8723 97.4018 50.9003 97.5419 50.9213 97.6819H50.9523C50.9873 97.4999 51.0363 97.2968 51.0993 97.0728C51.1663 96.8448 51.2393 96.6179 51.3203 96.3899L52.4643 93.0728H53.7923L51.2993 99.6819C51.1553 100.06 50.9783 100.382 50.7683 100.648C50.5751 100.906 50.3231 101.115 50.0333 101.257C49.7503 101.397 49.4263 101.467 49.0623 101.467C48.8873 101.467 48.7353 101.456 48.6053 101.435C48.4945 101.421 48.3843 101.402 48.2753 101.378V100.391C48.4801 100.437 48.6894 100.46 48.8993 100.459C49.1203 100.459 49.3113 100.415 49.4723 100.328C49.636 100.237 49.7762 100.11 49.8813 99.9548C49.9982 99.788 50.0917 99.606 50.1593 99.4138L50.3643 98.8679L48.0443 93.0728ZM61.2423 92.9619C61.8933 92.9619 62.3833 93.1299 62.7123 93.4659C63.0443 93.8019 63.2103 94.3409 63.2103 95.0829V98.8839H61.9773V95.3038C61.9773 94.8628 61.8913 94.5298 61.7193 94.3058C61.5483 94.0818 61.2873 93.9698 60.9373 93.9698C60.4473 93.9698 60.0943 94.1278 59.8773 94.4428C59.6633 94.7538 59.5563 95.2068 59.5563 95.8018V98.8839H58.3233V95.3038C58.3233 95.0098 58.2843 94.7648 58.2073 94.5688C58.1471 94.3857 58.027 94.2283 57.8663 94.1219C57.6912 94.0149 57.4884 93.962 57.2833 93.9698C56.9443 93.9698 56.6733 94.0468 56.4703 94.2008C56.2703 94.3548 56.1273 94.5829 56.0393 94.8839C55.9523 95.1809 55.9083 95.5468 55.9083 95.9808V98.8839H54.6743V93.0728H55.6353L55.8083 93.8549H55.8763C55.9953 93.6519 56.1423 93.4858 56.3173 93.3558C56.4963 93.2228 56.6943 93.1249 56.9113 93.0619C57.1283 92.9959 57.3533 92.9619 57.5883 92.9619C58.0223 92.9619 58.3873 93.0388 58.6853 93.1928C58.9823 93.3438 59.2053 93.5748 59.3523 93.8858H59.4463C59.6283 93.5708 59.8823 93.3388 60.2073 93.1878C60.5333 93.0378 60.8783 92.9619 61.2423 92.9619ZM67.2473 92.9619C67.7653 92.9619 68.2103 93.0688 68.5813 93.2828C68.9523 93.4958 69.2373 93.7989 69.4363 94.1909C69.6363 94.5829 69.7363 95.0518 69.7363 95.5978V96.2589H65.8563C65.8703 96.8229 66.0213 97.2569 66.3083 97.5609C66.5983 97.8659 67.0043 98.0179 67.5263 98.0179C67.8973 98.0179 68.2293 97.9828 68.5233 97.9128C68.8203 97.8388 69.1273 97.7328 69.4423 97.5928V98.5948C69.1593 98.7291 68.8616 98.8297 68.5553 98.8948C68.1987 98.9627 67.8362 98.9942 67.4733 98.9889C66.9033 98.9889 66.4003 98.8788 65.9663 98.6578C65.5365 98.4344 65.1836 98.0871 64.9533 97.6609C64.7123 97.2199 64.5913 96.6719 64.5913 96.0179C64.5913 95.3669 64.7013 94.8139 64.9223 94.3589C65.1423 93.9039 65.4523 93.5568 65.8513 93.3188C66.2503 93.0808 66.7153 92.9619 67.2473 92.9619ZM67.2473 93.8918C66.8593 93.8918 66.5443 94.0179 66.3023 94.2689C66.0643 94.5209 65.9243 94.8909 65.8823 95.3769H68.5283C68.5303 95.1124 68.4804 94.8501 68.3813 94.6049C68.2987 94.3911 68.152 94.208 67.9613 94.0808C67.7763 93.9548 67.5383 93.8918 67.2473 93.8918ZM74.1563 92.9619C74.8103 92.9619 75.3203 93.1318 75.6843 93.4718C76.0513 93.8078 76.2353 94.3478 76.2353 95.0938V98.8839H75.0013V95.3249C75.0013 94.8729 74.9083 94.5349 74.7233 94.3109C74.5373 94.0839 74.2503 93.9698 73.8623 93.9698C73.2993 93.9698 72.9073 94.1428 72.6863 94.4898C72.4693 94.8358 72.3613 95.3389 72.3613 95.9969V98.8839H71.1273V93.0728H72.0883L72.2613 93.8598H72.3293C72.4553 93.6568 72.6113 93.4908 72.7963 93.3608C72.9853 93.2278 73.1953 93.1289 73.4263 93.0619C73.6613 92.9959 73.9043 92.9619 74.1563 92.9619ZM80.1253 97.9919C80.4344 97.9926 80.7415 97.9409 81.0333 97.8388V98.7738C80.8973 98.8328 80.7203 98.8838 80.5033 98.9258C80.2802 98.9684 80.0535 98.9895 79.8263 98.9889C79.4973 98.9889 79.2013 98.9348 78.9393 98.8258C78.6726 98.7108 78.4525 98.5093 78.3143 98.2538C78.1603 97.9848 78.0833 97.6118 78.0833 97.1358V94.0118H77.2903V93.4608L78.1413 93.0248L78.5453 91.7809H79.3223V93.0728H80.9863V94.0118H79.3223V97.1198C79.3223 97.4138 79.3953 97.6328 79.5423 97.7758C79.6893 97.9198 79.8833 97.9919 80.1253 97.9919ZM88.4463 98.8839L86.2363 92.4738H86.1883C86.2199 92.9355 86.2445 93.3975 86.2623 93.8598C86.2723 94.1428 86.2783 94.4149 86.2783 94.6739V98.8839H85.1333V91.2089H86.9023L89.0293 97.3348H89.0603L91.2603 91.2089H93.0243V98.8839H91.8213V94.6108C91.8213 94.3758 91.8253 94.1219 91.8323 93.8499L91.8633 93.0728L91.8953 92.4848H91.8533L89.5593 98.8839H88.4463ZM97.2343 92.9619C97.7523 92.9619 98.1963 93.0688 98.5673 93.2828C98.9383 93.4958 99.2243 93.7989 99.4233 94.1909C99.6233 94.5829 99.7223 95.0518 99.7223 95.5978V96.2589H95.8433C95.8573 96.8229 96.0073 97.2569 96.2943 97.5609C96.5853 97.8659 96.9913 98.0179 97.5123 98.0179C97.8833 98.0179 98.2163 97.9828 98.5103 97.9128C98.8073 97.8388 99.1133 97.7328 99.4283 97.5928V98.5948C99.1383 98.7318 98.8423 98.8318 98.5413 98.8948C98.1851 98.9627 97.8229 98.9942 97.4603 98.9889C96.8893 98.9889 96.3873 98.8788 95.9533 98.6578C95.5235 98.4344 95.1706 98.0871 94.9403 97.6609C94.6983 97.2199 94.5783 96.6719 94.5783 96.0179C94.5783 95.3669 94.6883 94.8139 94.9083 94.3589C95.108 93.9274 95.4318 93.5653 95.8383 93.3188C96.2373 93.0808 96.7023 92.9619 97.2343 92.9619ZM97.2343 93.8918C96.8453 93.8918 96.5303 94.0179 96.2893 94.2689C96.0513 94.5209 95.9113 94.8909 95.8693 95.3769H98.5153C98.5164 95.1125 98.4665 94.8504 98.3683 94.6049C98.2857 94.3911 98.139 94.208 97.9483 94.0808C97.7623 93.9548 97.5243 93.8918 97.2343 93.8918ZM103.276 97.9919C103.586 97.9929 103.893 97.9411 104.185 97.8388V98.7738C104.048 98.8328 103.871 98.8838 103.654 98.9258C103.431 98.9685 103.204 98.9896 102.977 98.9889C102.648 98.9889 102.352 98.9348 102.09 98.8258C101.824 98.7104 101.604 98.5091 101.465 98.2538C101.311 97.9848 101.234 97.6118 101.234 97.1358V94.0118H100.442V93.4608L101.292 93.0248L101.696 91.7809H102.473V93.0728H104.137V94.0118H102.473V97.1198C102.473 97.4138 102.547 97.6328 102.694 97.7758C102.841 97.9198 103.035 97.9919 103.276 97.9919ZM106.6 90.7148V92.7679C106.6 92.9819 106.593 93.1899 106.579 93.3929C106.568 93.5959 106.556 93.7528 106.542 93.8648H106.61C106.726 93.6699 106.879 93.5005 107.062 93.3669C107.243 93.2326 107.445 93.1311 107.66 93.0668C107.884 93.0008 108.122 92.9678 108.374 92.9678C108.818 92.9678 109.196 93.0428 109.508 93.1928C109.819 93.3398 110.057 93.5699 110.222 93.8809C110.39 94.1919 110.474 94.5968 110.474 95.0938V98.8839H109.24V95.3249C109.24 94.8729 109.147 94.5349 108.962 94.3109C108.776 94.0839 108.489 93.9698 108.101 93.9698C107.726 93.9698 107.429 94.0488 107.209 94.2058C106.992 94.3598 106.836 94.5899 106.741 94.8939C106.647 95.1949 106.6 95.5629 106.6 95.9969V98.8839H105.366V90.7148H106.6ZM117.346 95.9648C117.346 96.4478 117.283 96.8769 117.157 97.2509C117.031 97.6259 116.847 97.9428 116.606 98.2018C116.362 98.4588 116.064 98.6595 115.734 98.7899C115.367 98.9277 114.977 98.9952 114.584 98.9889C114.209 98.9934 113.837 98.9258 113.487 98.7899C113.161 98.6566 112.866 98.4563 112.621 98.2018C112.37 97.9269 112.179 97.6032 112.059 97.2509C111.92 96.8367 111.853 96.4017 111.86 95.9648C111.86 95.3248 111.97 94.7819 112.191 94.3379C112.415 93.8899 112.733 93.5488 113.146 93.3138C113.559 93.0798 114.051 92.9619 114.621 92.9619C115.157 92.9619 115.629 93.0798 116.039 93.3138C116.448 93.5488 116.768 93.8899 116.999 94.3379C117.23 94.7859 117.346 95.3278 117.346 95.9648ZM113.13 95.9648C113.13 96.3888 113.181 96.7508 113.282 97.0518C113.387 97.3528 113.548 97.5838 113.765 97.7448C113.982 97.9018 114.262 97.9808 114.605 97.9808C114.948 97.9808 115.228 97.9018 115.445 97.7448C115.673 97.5693 115.84 97.327 115.923 97.0518C116.025 96.7508 116.075 96.3888 116.075 95.9648C116.075 95.5418 116.025 95.1829 115.923 94.8889C115.841 94.6177 115.673 94.3803 115.445 94.2119C115.228 94.0539 114.947 93.9759 114.6 93.9759C114.089 93.9759 113.716 94.1468 113.482 94.4898C113.247 94.8328 113.13 95.3248 113.13 95.9648ZM120.716 98.9889C120.023 98.9889 119.467 98.7368 119.047 98.2328C118.63 97.7258 118.422 96.9778 118.422 95.9908C118.422 94.9938 118.634 94.2399 119.057 93.7289C119.484 93.2179 120.046 92.9619 120.742 92.9619C121.036 92.9619 121.294 93.0029 121.514 93.0829C121.735 93.1599 121.924 93.2649 122.081 93.3979C122.242 93.5309 122.379 93.6798 122.491 93.8438H122.548C122.525 93.6885 122.504 93.5328 122.485 93.3769C122.465 93.1868 122.455 92.9959 122.454 92.8048V90.7148H123.693V98.8839H122.727L122.506 98.0909H122.454C122.231 98.4529 121.89 98.7272 121.488 98.8679C121.24 98.9538 120.979 98.9948 120.716 98.9889ZM121.063 97.9858C121.591 97.9858 121.964 97.8338 122.181 97.5298C122.398 97.2248 122.51 96.7678 122.517 96.1588V95.9969C122.517 95.3459 122.412 94.8468 122.202 94.4998C121.992 94.1498 121.609 93.9759 121.052 93.9759C120.608 93.9759 120.268 94.1558 120.034 94.5158C119.803 94.8728 119.687 95.3718 119.687 96.0118C119.687 96.6528 119.803 97.1428 120.034 97.4818C120.268 97.8178 120.611 97.9858 121.063 97.9858Z" fill="#2F363E"/>
<path d="M67.5902 127.132H38.2863C37.317 127.132 36.5312 127.918 36.5312 128.887V146.142C36.5312 147.111 37.317 147.897 38.2863 147.897H67.5902C68.5595 147.897 69.3452 147.111 69.3452 146.142V128.887C69.3452 127.918 68.5595 127.132 67.5902 127.132Z" fill="#0E8BFF"/>
<mask id="mask0_1488_3490" style="mask-type:alpha" maskUnits="userSpaceOnUse" x="36" y="127" width="34" height="21">
<path d="M67.5902 127.132H38.2863C37.317 127.132 36.5312 127.918 36.5312 128.887V146.142C36.5312 147.111 37.317 147.897 38.2863 147.897H67.5902C68.5595 147.897 69.3452 147.111 69.3452 146.142V128.887C69.3452 127.918 68.5595 127.132 67.5902 127.132Z" fill="#16084C"/>
</mask>
<g mask="url(#mask0_1488_3490)">
<path d="M58.3456 140.898C64.8548 140.898 70.1316 135.621 70.1316 129.112C70.1316 122.603 64.8548 117.326 58.3456 117.326C51.8364 117.326 46.5596 122.603 46.5596 129.112C46.5596 135.621 51.8364 140.898 58.3456 140.898Z" fill="white" fill-opacity="0.2"/>
<path d="M68.0516 141.193C74.5608 141.193 79.8376 135.916 79.8376 129.407C79.8376 122.898 74.5608 117.621 68.0516 117.621C61.5424 117.621 56.2656 122.898 56.2656 129.407C56.2656 135.916 61.5424 141.193 68.0516 141.193Z" fill="white" fill-opacity="0.17"/>
</g>
<path d="M48.0714 141.572L49.4584 133.433H51.6764L50.2894 141.572H48.0714ZM58.2934 133.612C57.657 133.381 56.9845 133.265 56.3074 133.27C54.1184 133.27 52.5754 134.372 52.5624 135.953C52.5504 137.121 53.6634 137.773 54.5044 138.161C55.3664 138.56 55.6564 138.814 55.6524 139.17C55.6474 139.715 54.9634 139.963 54.3274 139.963C53.4404 139.963 52.9694 139.839 52.2414 139.537L51.9554 139.408L51.6444 141.227C52.1624 141.454 53.1194 141.651 54.1124 141.661C56.4414 141.661 57.9534 140.571 57.9714 138.884C57.9794 137.959 57.3894 137.255 56.1104 136.675C55.3364 136.301 54.8624 136.048 54.8674 135.667C54.8674 135.33 55.2684 134.968 56.1364 134.968C56.7047 134.956 57.2694 135.062 57.7944 135.28L57.9924 135.374L58.2934 133.612ZM63.9924 133.433H62.2854C61.7574 133.433 61.3614 133.578 61.1294 134.105L57.8484 141.531H60.1834C60.1834 141.531 60.5574 140.543 60.6434 140.326L63.4414 140.33C63.5064 140.61 63.7064 141.531 63.7064 141.531H65.7794L63.9924 133.433ZM61.2784 138.665C61.4614 138.197 62.1614 136.393 62.1614 136.393C62.1484 136.415 62.3434 135.922 62.4554 135.617L62.6054 136.318L63.1174 138.665H61.2784ZM46.1884 133.433L44.0244 138.964L43.7944 137.84C43.3914 136.544 42.1354 135.141 40.7324 134.438L42.7114 141.531L45.0504 141.528L48.5304 133.433H46.1784" fill="url(#paint0_linear_1488_3490)"/>
<path d="M41.9063 133.433H38.3493L38.3203 133.602C41.1003 134.275 42.9393 135.901 43.7033 137.855L42.9263 134.117C42.7923 133.603 42.4033 133.449 41.9223 133.431" fill="url(#paint1_linear_1488_3490)"/>
<path d="M79.8646 128.401C79.1266 128.401 78.5436 128.647 78.1146 129.14C77.6886 129.63 77.4766 130.302 77.4766 131.157C77.4766 132.036 77.6816 132.715 78.0916 133.196C78.5056 133.674 79.0936 133.913 79.8556 133.913C80.3246 133.913 80.8586 133.829 81.4586 133.66V134.345C80.9936 134.519 80.4196 134.606 79.7366 134.606C78.7476 134.606 77.9826 134.306 77.4436 133.706C76.9086 133.106 76.6406 132.253 76.6406 131.147C76.6406 130.455 76.7686 129.849 77.0256 129.328C77.2866 128.808 77.6596 128.407 78.1466 128.125C78.6366 127.843 79.2126 127.702 79.8736 127.702C80.5786 127.702 81.1936 127.831 81.7206 128.088L81.3896 128.759C80.9142 128.528 80.3933 128.405 79.8646 128.401ZM85.9056 134.515L85.7536 133.798H85.7166C85.4656 134.113 85.2146 134.328 84.9636 134.441C84.7156 134.551 84.4046 134.606 84.0316 134.606C83.5316 134.606 83.1396 134.478 82.8556 134.221C82.5736 133.963 82.4326 133.597 82.4326 133.123C82.4326 132.106 83.2456 131.573 84.8716 131.524L85.7266 131.497V131.184C85.7266 130.789 85.6406 130.498 85.4686 130.311C85.3006 130.122 85.0296 130.027 84.6556 130.027C84.2366 130.027 83.7616 130.155 83.2316 130.412L82.9976 129.829C83.2548 129.691 83.5278 129.584 83.8106 129.512C84.1076 129.436 84.4046 129.397 84.7016 129.397C85.3026 129.397 85.7466 129.531 86.0336 129.797C86.3246 130.063 86.4706 130.491 86.4706 131.079V134.515H85.9056ZM84.1826 133.977C84.6576 133.977 85.0296 133.847 85.2986 133.587C85.5716 133.326 85.7076 132.962 85.7076 132.493V132.039L84.9456 132.071C84.3386 132.092 83.9006 132.187 83.6316 132.356C83.3656 132.521 83.2316 132.78 83.2316 133.132C83.2316 133.407 83.3146 133.617 83.4796 133.761C83.6486 133.905 83.8826 133.977 84.1826 133.977ZM90.3426 129.388C90.5666 129.388 90.7666 129.407 90.9446 129.443L90.8386 130.151C90.658 130.108 90.4732 130.085 90.2876 130.082C89.8806 130.082 89.5316 130.247 89.2406 130.578C88.9526 130.909 88.8086 131.32 88.8086 131.814V134.515H88.0456V129.48H88.6756L88.7626 130.412H88.7996C88.9866 130.085 89.2116 129.832 89.4746 129.655C89.7376 129.477 90.0276 129.388 90.3426 129.388ZM95.3126 133.839H95.2716C94.9196 134.351 94.3926 134.606 93.6916 134.606C93.0326 134.606 92.5196 134.381 92.1526 133.931C91.7886 133.481 91.6056 132.841 91.6056 132.011C91.6056 131.181 91.7896 130.537 92.1576 130.077C92.5246 129.618 93.0366 129.388 93.6916 129.388C94.3746 129.388 94.8976 129.636 95.2626 130.132H95.3226L95.2896 129.769L95.2716 129.416V127.367H96.0346V134.515H95.4136L95.3126 133.839ZM93.7876 133.968C94.3086 133.968 94.6856 133.827 94.9176 133.545C95.1536 133.26 95.2716 132.803 95.2716 132.172V132.011C95.2716 131.298 95.1526 130.789 94.9136 130.486C94.6776 130.18 94.2996 130.027 93.7786 130.027C93.3316 130.027 92.9886 130.201 92.7496 130.55C92.5136 130.896 92.3956 131.386 92.3956 132.02C92.3956 132.663 92.5136 133.149 92.7496 133.476C92.9856 133.804 93.3316 133.968 93.7876 133.968ZM105.314 134.515H104.533V131.354H100.996V134.515H100.215V127.799H100.996V130.656H104.533V127.799H105.314V134.515ZM111.391 131.993C111.391 132.813 111.184 133.455 110.771 133.917C110.357 134.377 109.786 134.606 109.057 134.606C108.607 134.606 108.207 134.501 107.858 134.289C107.504 134.073 107.223 133.756 107.05 133.38C106.86 132.985 106.765 132.522 106.765 131.993C106.765 131.172 106.97 130.533 107.381 130.077C107.791 129.618 108.361 129.388 109.089 129.388C109.794 129.388 110.353 129.622 110.766 130.091C111.183 130.559 111.391 131.193 111.391 131.993ZM107.555 131.993C107.555 132.636 107.684 133.126 107.941 133.463C108.198 133.799 108.576 133.968 109.076 133.968C109.575 133.968 109.953 133.801 110.21 133.467C110.471 133.13 110.601 132.639 110.601 131.993C110.601 131.353 110.471 130.867 110.21 130.537C109.953 130.203 109.572 130.036 109.066 130.036C108.567 130.036 108.191 130.2 107.936 130.527C107.682 130.855 107.555 131.343 107.555 131.993ZM113.495 134.515H112.732V127.367H113.495V134.515ZM118.538 133.839H118.497C118.145 134.351 117.618 134.606 116.917 134.606C116.258 134.606 115.745 134.381 115.378 133.931C115.014 133.481 114.831 132.841 114.831 132.011C114.831 131.181 115.015 130.537 115.383 130.077C115.75 129.618 116.261 129.388 116.917 129.388C117.6 129.388 118.123 129.636 118.488 130.132H118.548L118.515 129.769L118.497 129.416V127.367H119.26V134.515H118.639L118.538 133.839ZM117.013 133.968C117.534 133.968 117.911 133.827 118.143 133.545C118.379 133.26 118.497 132.803 118.497 132.172V132.011C118.497 131.298 118.378 130.789 118.139 130.486C117.903 130.18 117.525 130.027 117.004 130.027C116.557 130.027 116.214 130.201 115.975 130.55C115.739 130.896 115.621 131.386 115.621 132.02C115.621 132.663 115.739 133.149 115.975 133.476C116.211 133.804 116.557 133.968 117.013 133.968ZM123.008 134.606C122.264 134.606 121.676 134.38 121.244 133.927C120.815 133.473 120.601 132.844 120.601 132.039C120.601 131.227 120.8 130.582 121.198 130.105C121.599 129.627 122.137 129.388 122.81 129.388C123.441 129.388 123.94 129.596 124.308 130.013C124.675 130.426 124.859 130.973 124.859 131.653V132.135H121.391C121.406 132.726 121.555 133.175 121.836 133.481C122.121 133.787 122.521 133.94 123.035 133.94C123.588 133.938 124.135 133.822 124.643 133.6V134.28C124.396 134.389 124.139 134.472 123.876 134.528C123.59 134.584 123.299 134.61 123.008 134.606ZM122.801 130.027C122.397 130.027 122.074 130.158 121.832 130.422C121.593 130.685 121.452 131.049 121.409 131.515H124.041C124.041 131.034 123.934 130.667 123.72 130.412C123.505 130.155 123.199 130.027 122.801 130.027ZM128.46 129.388C128.684 129.388 128.885 129.407 129.062 129.443L128.956 130.151C128.775 130.108 128.59 130.085 128.405 130.082C127.998 130.082 127.649 130.247 127.358 130.578C127.07 130.909 126.926 131.32 126.926 131.814V134.515H126.164V129.48H126.793L126.88 130.412H126.917C127.104 130.085 127.329 129.832 127.592 129.655C127.847 129.48 128.15 129.386 128.46 129.388ZM79.0566 140.367L78.8816 142.191L80.6966 141.662L80.8156 142.466L79.0796 142.645L80.2006 144.138L79.4556 144.547L78.6246 142.912L77.8626 144.547L77.0906 144.138L78.2016 142.645L76.4746 142.466L76.6036 141.662L78.3906 142.191L78.2116 140.367H79.0566ZM84.2376 140.367L84.0636 142.191L85.8776 141.662L85.9976 142.466L84.2606 142.645L85.3816 144.138L84.6376 144.547L83.8066 142.912L83.0436 144.547L82.2716 144.138L83.3836 142.645L81.6566 142.466L81.7846 141.662L83.5716 142.191L83.3926 140.367H84.2376ZM89.4196 140.367L89.2446 142.191L91.0596 141.662L91.1786 142.466L89.4426 142.645L90.5636 144.138L89.8186 144.547L88.9876 142.912L88.2256 144.547L87.4536 144.138L88.5646 142.645L86.8376 142.466L86.9666 141.662L88.7536 142.191L88.5746 140.367H89.4196ZM94.6006 140.367L94.4266 142.191L96.2406 141.662L96.3606 142.466L94.6236 142.645L95.7446 144.138L95.0006 144.547L94.1696 142.912L93.4066 144.547L92.6346 144.138L93.7466 142.645L92.0196 142.466L92.1476 141.662L93.9346 142.191L93.7556 140.367H94.6006ZM99.7826 140.367L99.6076 142.191L101.423 141.662L101.542 142.466L99.8056 142.645L100.927 144.138L100.183 144.547L99.3506 142.912L98.5886 144.547L97.8166 144.138L98.9276 142.645L97.2006 142.466L97.3296 141.662L99.1166 142.191L98.9376 140.367H99.7826ZM104.964 140.367L104.79 142.191L106.604 141.662L106.724 142.466L104.987 142.645L106.108 144.138L105.364 144.547L104.533 142.912L103.77 144.547L102.998 144.138L104.11 142.645L102.383 142.466L102.511 141.662L104.298 142.191L104.119 140.367H104.964ZM108.488 147.515L111.244 141.497H107.583V140.799H112.061V141.387L109.324 147.515H108.488ZM113.072 144.644C113.072 144.239 113.1 143.844 113.155 143.458C113.213 143.073 113.309 142.714 113.444 142.384C113.572 142.06 113.759 141.763 113.995 141.506C114.237 141.248 114.533 141.048 114.863 140.918C115.213 140.774 115.631 140.702 116.118 140.702C116.255 140.702 116.404 140.71 116.563 140.725C116.722 140.738 116.854 140.759 116.958 140.79V141.446C116.831 141.404 116.7 141.375 116.568 141.359C116.423 141.341 116.277 141.332 116.131 141.332C115.562 141.332 115.113 141.456 114.785 141.704C114.454 141.962 114.209 142.314 114.083 142.714C113.932 143.176 113.848 143.657 113.835 144.143H113.885C114.094 143.811 114.41 143.56 114.781 143.431C115.018 143.353 115.266 143.316 115.516 143.321C115.908 143.321 116.249 143.4 116.54 143.559C116.834 143.719 117.061 143.95 117.22 144.253C117.382 144.556 117.463 144.924 117.463 145.356C117.463 145.818 117.378 146.218 117.206 146.554C117.044 146.882 116.788 147.154 116.471 147.335C116.156 147.516 115.779 147.606 115.341 147.606C115.014 147.606 114.712 147.544 114.436 147.418C114.155 147.289 113.909 147.097 113.715 146.858C113.499 146.583 113.338 146.27 113.242 145.934C113.129 145.564 113.072 145.134 113.072 144.644ZM115.332 146.963C115.749 146.963 116.082 146.83 116.333 146.564C116.585 146.297 116.71 145.895 116.71 145.356C116.71 144.915 116.598 144.565 116.375 144.308C116.151 144.051 115.814 143.922 115.364 143.922C115.085 143.916 114.81 143.982 114.565 144.115C114.352 144.228 114.17 144.392 114.037 144.593C113.917 144.766 113.851 144.971 113.848 145.181C113.848 145.383 113.877 145.588 113.936 145.797C113.997 146.005 114.089 146.198 114.211 146.375C114.334 146.553 114.488 146.695 114.675 146.803C114.876 146.913 115.102 146.969 115.332 146.963ZM120.509 143.408C120.965 143.408 121.362 143.486 121.699 143.642C122.036 143.795 122.296 144.019 122.48 144.313C122.666 144.607 122.76 144.964 122.76 145.383C122.76 145.842 122.66 146.239 122.461 146.573C122.257 146.908 121.958 147.175 121.602 147.34C121.229 147.518 120.782 147.606 120.261 147.606C119.912 147.606 119.587 147.576 119.287 147.515C119.02 147.466 118.764 147.372 118.529 147.239V146.513C118.753 146.648 119.024 146.755 119.342 146.835C119.661 146.914 119.97 146.954 120.27 146.954C120.61 146.954 120.907 146.901 121.161 146.793C121.418 146.683 121.618 146.518 121.758 146.297C121.902 146.074 121.974 145.793 121.974 145.457C121.974 145.01 121.836 144.665 121.561 144.423C121.288 144.178 120.857 144.056 120.265 144.056C120.076 144.056 119.867 144.071 119.641 144.102C119.414 144.132 119.227 144.166 119.08 144.203L118.695 143.95L118.952 140.799H122.291V141.497H119.604L119.434 143.523C119.55 143.498 119.7 143.474 119.884 143.449C120.091 143.42 120.3 143.406 120.509 143.408Z" fill="#2F363E"/>
<path d="M67.5902 173.025H38.2863C37.317 173.025 36.5312 173.811 36.5312 174.78V192.035C36.5312 193.004 37.317 193.79 38.2863 193.79H67.5902C68.5595 193.79 69.3452 193.004 69.3452 192.035V174.78C69.3452 173.811 68.5595 173.025 67.5902 173.025Z" fill="#F1F1F1"/>
<mask id="mask1_1488_3490" style="mask-type:alpha" maskUnits="userSpaceOnUse" x="36" y="173" width="34" height="21">
<path d="M67.5902 173.025H38.2863C37.317 173.025 36.5312 173.811 36.5312 174.78V192.035C36.5312 193.004 37.317 193.79 38.2863 193.79H67.5902C68.5595 193.79 69.3452 193.004 69.3452 192.035V174.78C69.3452 173.811 68.5595 173.025 67.5902 173.025Z" fill="#16084C"/>
</mask>
<g mask="url(#mask1_1488_3490)">
<path d="M58.3456 186.79C64.8548 186.79 70.1316 181.513 70.1316 175.004C70.1316 168.495 64.8548 163.218 58.3456 163.218C51.8364 163.218 46.5596 168.495 46.5596 175.004C46.5596 181.513 51.8364 186.79 58.3456 186.79Z" fill="white" fill-opacity="0.2"/>
<path d="M68.0516 187.085C74.5608 187.085 79.8376 181.808 79.8376 175.299C79.8376 168.789 74.5608 163.513 68.0516 163.513C61.5424 163.513 56.2656 168.789 56.2656 175.299C56.2656 181.808 61.5424 187.085 68.0516 187.085Z" fill="white" fill-opacity="0.17"/>
</g>
<path d="M79.8646 174.293C79.1266 174.293 78.5436 174.539 78.1146 175.033C77.6886 175.523 77.4766 176.195 77.4766 177.049C77.4766 177.928 77.6816 178.608 78.0916 179.089C78.5056 179.566 79.0936 179.805 79.8556 179.805C80.3246 179.805 80.8586 179.721 81.4586 179.553V180.237C80.9936 180.412 80.4196 180.499 79.7366 180.499C78.7476 180.499 77.9826 180.199 77.4436 179.599C76.9086 178.998 76.6406 178.145 76.6406 177.04C76.6406 176.348 76.7686 175.741 77.0256 175.221C77.2708 174.717 77.6612 174.298 78.1466 174.017C78.6366 173.736 79.2126 173.595 79.8736 173.595C80.5786 173.595 81.1936 173.723 81.7206 173.981L81.3896 174.651C80.9142 174.42 80.3933 174.297 79.8646 174.293ZM85.9056 180.407L85.7536 179.69H85.7166C85.4656 180.006 85.2146 180.22 84.9636 180.333C84.7156 180.444 84.4046 180.499 84.0316 180.499C83.5316 180.499 83.1396 180.37 82.8556 180.113C82.5736 179.856 82.4326 179.49 82.4326 179.015C82.4326 177.998 83.2456 177.466 84.8716 177.417L85.7266 177.389V177.077C85.7266 176.682 85.6406 176.391 85.4686 176.204C85.3006 176.014 85.0296 175.919 84.6556 175.919C84.2366 175.919 83.7616 176.048 83.2316 176.305L82.9976 175.722C83.2456 175.587 83.5166 175.481 83.8106 175.405C84.1076 175.328 84.4046 175.29 84.7016 175.29C85.3026 175.29 85.7466 175.423 86.0336 175.689C86.3246 175.956 86.4706 176.383 86.4706 176.971V180.407H85.9056ZM84.1826 179.87C84.6576 179.87 85.0296 179.739 85.2986 179.479C85.5716 179.219 85.7076 178.854 85.7076 178.386V177.931L84.9456 177.963C84.3386 177.985 83.9006 178.08 83.6316 178.248C83.3656 178.413 83.2316 178.672 83.2316 179.024C83.2316 179.3 83.3146 179.51 83.4796 179.654C83.6486 179.798 83.8826 179.87 84.1826 179.87ZM90.3426 175.281C90.5666 175.281 90.7666 175.299 90.9446 175.336L90.8386 176.043C90.658 176 90.4732 175.977 90.2876 175.974C89.8806 175.974 89.5316 176.14 89.2406 176.47C88.9526 176.801 88.8086 177.213 88.8086 177.706V180.407H88.0456V175.372H88.6756L88.7626 176.305H88.7996C88.9866 175.977 89.2116 175.725 89.4746 175.547C89.7376 175.369 90.0276 175.281 90.3426 175.281ZM95.3126 179.732H95.2716C94.9196 180.243 94.3926 180.499 93.6916 180.499C93.0326 180.499 92.5196 180.274 92.1526 179.824C91.7886 179.373 91.6056 178.733 91.6056 177.904C91.6056 177.074 91.7896 176.429 92.1576 175.97C92.5246 175.51 93.0366 175.281 93.6916 175.281C94.3746 175.281 94.8976 175.529 95.2626 176.025H95.3226L95.2896 175.662L95.2716 175.308V173.259H96.0346V180.407H95.4136L95.3126 179.732ZM93.7876 179.86C94.3086 179.86 94.6856 179.719 94.9176 179.438C95.1536 179.153 95.2716 178.695 95.2716 178.064V177.904C95.2716 177.19 95.1526 176.682 94.9136 176.378C94.6776 176.072 94.2996 175.919 93.7786 175.919C93.3316 175.919 92.9886 176.094 92.7496 176.443C92.5136 176.789 92.3956 177.279 92.3956 177.913C92.3956 178.556 92.5136 179.041 92.7496 179.369C92.9856 179.697 93.3316 179.86 93.7876 179.86ZM105.314 180.407H104.533V177.247H100.996V180.407H100.215V173.691H100.996V176.548H104.533V173.691H105.314V180.407ZM111.391 177.885C111.391 178.706 111.184 179.347 110.771 179.81C110.357 180.269 109.786 180.499 109.057 180.499C108.607 180.499 108.207 180.393 107.858 180.182C107.504 179.965 107.223 179.649 107.05 179.272C106.86 178.877 106.765 178.415 106.765 177.885C106.765 177.064 106.97 176.426 107.381 175.97C107.791 175.51 108.361 175.281 109.089 175.281C109.794 175.281 110.353 175.515 110.766 175.983C111.183 176.452 111.391 177.086 111.391 177.885ZM107.555 177.885C107.555 178.528 107.684 179.018 107.941 179.355C108.198 179.692 108.576 179.86 109.076 179.86C109.575 179.86 109.953 179.693 110.21 179.36C110.471 179.023 110.601 178.531 110.601 177.885C110.601 177.245 110.471 176.76 110.21 176.429C109.953 176.095 109.572 175.928 109.066 175.928C108.567 175.928 108.191 176.092 107.936 176.42C107.682 176.747 107.555 177.236 107.555 177.885ZM113.495 180.407H112.732V173.259H113.495V180.407ZM118.538 179.732H118.497C118.145 180.243 117.618 180.499 116.917 180.499C116.258 180.499 115.745 180.274 115.378 179.824C115.014 179.373 114.831 178.733 114.831 177.904C114.831 177.074 115.015 176.429 115.383 175.97C115.75 175.51 116.261 175.281 116.917 175.281C117.6 175.281 118.123 175.529 118.488 176.025H118.548L118.515 175.662L118.497 175.308V173.259H119.26V180.407H118.639L118.538 179.732ZM117.013 179.86C117.534 179.86 117.911 179.719 118.143 179.438C118.379 179.153 118.497 178.695 118.497 178.064V177.904C118.497 177.19 118.378 176.682 118.139 176.378C117.903 176.072 117.525 175.919 117.004 175.919C116.557 175.919 116.214 176.094 115.975 176.443C115.739 176.789 115.621 177.279 115.621 177.913C115.621 178.556 115.739 179.041 115.975 179.369C116.211 179.697 116.557 179.86 117.013 179.86ZM123.008 180.499C122.264 180.499 121.676 180.272 121.244 179.819C120.815 179.366 120.601 178.736 120.601 177.931C120.601 177.12 120.8 176.475 121.198 175.997C121.599 175.519 122.137 175.281 122.81 175.281C123.441 175.281 123.94 175.489 124.308 175.905C124.675 176.319 124.859 176.865 124.859 177.545V178.028H121.391C121.406 178.619 121.555 179.067 121.836 179.373C122.121 179.68 122.521 179.833 123.035 179.833C123.577 179.833 124.113 179.719 124.643 179.493V180.173C124.396 180.282 124.139 180.365 123.876 180.421C123.59 180.477 123.299 180.504 123.008 180.499ZM122.801 175.919C122.397 175.919 122.074 176.051 121.832 176.314C121.593 176.577 121.452 176.942 121.409 177.407H124.041C124.041 176.927 123.934 176.559 123.72 176.305C123.505 176.048 123.199 175.919 122.801 175.919ZM128.46 175.281C128.684 175.281 128.885 175.299 129.062 175.336L128.956 176.043C128.775 176 128.59 175.977 128.405 175.974C127.998 175.974 127.649 176.14 127.358 176.47C127.07 176.801 126.926 177.213 126.926 177.706V180.407H126.164V175.372H126.793L126.88 176.305H126.917C127.104 175.977 127.329 175.725 127.592 175.547C127.856 175.369 128.145 175.281 128.46 175.281ZM79.0566 186.259L78.8816 188.083L80.6966 187.555L80.8156 188.359L79.0796 188.538L80.2006 190.031L79.4556 190.44L78.6246 188.804L77.8626 190.44L77.0906 190.031L78.2016 188.538L76.4746 188.359L76.6036 187.555L78.3906 188.083L78.2116 186.259H79.0566ZM84.2376 186.259L84.0636 188.083L85.8776 187.555L85.9976 188.359L84.2606 188.538L85.3816 190.031L84.6376 190.44L83.8066 188.804L83.0436 190.44L82.2716 190.031L83.3836 188.538L81.6566 188.359L81.7846 187.555L83.5716 188.083L83.3926 186.259H84.2376ZM89.4196 186.259L89.2446 188.083L91.0596 187.555L91.1786 188.359L89.4426 188.538L90.5636 190.031L89.8186 190.44L88.9876 188.804L88.2256 190.44L87.4536 190.031L88.5646 188.538L86.8376 188.359L86.9666 187.555L88.7536 188.083L88.5746 186.259H89.4196ZM94.6006 186.259L94.4266 188.083L96.2406 187.555L96.3606 188.359L94.6236 188.538L95.7446 190.031L95.0006 190.44L94.1696 188.804L93.4066 190.44L92.6346 190.031L93.7466 188.538L92.0196 188.359L92.1476 187.555L93.9346 188.083L93.7556 186.259H94.6006ZM99.7826 186.259L99.6076 188.083L101.423 187.555L101.542 188.359L99.8056 188.538L100.927 190.031L100.183 190.44L99.3506 188.804L98.5886 190.44L97.8166 190.031L98.9276 188.538L97.2006 188.359L97.3296 187.555L99.1166 188.083L98.9376 186.259H99.7826ZM104.964 186.259L104.79 188.083L106.604 187.555L106.724 188.359L104.987 188.538L106.108 190.031L105.364 190.44L104.533 188.804L103.77 190.44L102.998 190.031L104.11 188.538L102.383 188.359L102.511 187.555L104.298 188.083L104.119 186.259H104.964ZM108.488 193.407L111.244 187.389H107.583V186.691H112.061V187.279L109.324 193.407H108.488ZM113.072 190.536C113.072 190.132 113.1 189.737 113.155 189.351C113.213 188.965 113.309 188.607 113.444 188.276C113.579 187.942 113.763 187.65 113.995 187.399C114.237 187.141 114.533 186.941 114.863 186.811C115.213 186.667 115.631 186.595 116.118 186.595C116.255 186.595 116.404 186.602 116.563 186.618C116.722 186.63 116.854 186.651 116.958 186.682V187.339C116.831 187.296 116.7 187.267 116.568 187.252C116.423 187.233 116.277 187.224 116.131 187.224C115.562 187.224 115.113 187.348 114.785 187.596C114.454 187.854 114.209 188.207 114.083 188.607C113.932 189.069 113.848 189.55 113.835 190.035H113.885C114.092 189.702 114.409 189.45 114.781 189.323C114.992 189.25 115.237 189.213 115.516 189.213C115.908 189.213 116.249 189.293 116.54 189.452C116.834 189.611 117.061 189.842 117.22 190.146C117.382 190.449 117.463 190.816 117.463 191.248C117.463 191.71 117.378 192.11 117.206 192.447C117.043 192.774 116.788 193.046 116.471 193.228C116.156 193.409 115.779 193.499 115.341 193.499C115.029 193.502 114.72 193.438 114.436 193.311C114.156 193.181 113.909 192.99 113.715 192.75C113.499 192.476 113.338 192.162 113.242 191.827C113.122 191.407 113.065 190.972 113.072 190.536ZM115.332 192.856C115.749 192.856 116.082 192.723 116.333 192.456C116.585 192.19 116.71 191.787 116.71 191.248C116.71 190.807 116.598 190.458 116.375 190.201C116.151 189.943 115.814 189.815 115.364 189.815C115.058 189.815 114.792 189.879 114.565 190.008C114.352 190.121 114.17 190.285 114.037 190.485C113.917 190.658 113.851 190.863 113.848 191.073C113.848 191.276 113.877 191.481 113.936 191.689C113.997 191.897 114.089 192.09 114.211 192.268C114.334 192.445 114.488 192.588 114.675 192.695C114.876 192.806 115.102 192.861 115.332 192.856ZM120.509 189.3C120.965 189.3 121.362 189.378 121.699 189.535C122.036 189.688 122.296 189.911 122.48 190.205C122.666 190.499 122.76 190.856 122.76 191.276C122.76 191.735 122.66 192.132 122.461 192.465C122.257 192.801 121.958 193.068 121.602 193.232C121.229 193.41 120.782 193.499 120.261 193.499C119.934 193.501 119.607 193.47 119.287 193.407C119.02 193.359 118.764 193.265 118.529 193.131V192.406C118.753 192.54 119.024 192.648 119.342 192.727C119.661 192.807 119.97 192.847 120.27 192.847C120.61 192.847 120.907 192.793 121.161 192.686C121.406 192.586 121.614 192.413 121.758 192.19C121.902 191.966 121.974 191.686 121.974 191.349C121.974 190.902 121.836 190.557 121.561 190.316C121.288 190.071 120.857 189.948 120.265 189.948C120.076 189.948 119.867 189.963 119.641 189.994C119.452 190.018 119.265 190.051 119.08 190.095L118.695 189.842L118.952 186.691H122.291V187.389H119.604L119.434 189.415C119.55 189.391 119.7 189.366 119.884 189.342C120.068 189.314 120.276 189.3 120.509 189.3Z" fill="#2F363E"/>
<path d="M67.5902 216.574H38.2863C37.317 216.574 36.5312 217.36 36.5312 218.329V235.584C36.5312 236.553 37.317 237.339 38.2863 237.339H67.5902C68.5595 237.339 69.3452 236.553 69.3452 235.584V218.329C69.3452 217.36 68.5595 216.574 67.5902 216.574Z" fill="#F1F1F1"/>
<mask id="mask2_1488_3490" style="mask-type:alpha" maskUnits="userSpaceOnUse" x="36" y="216" width="34" height="22">
<path d="M67.5902 216.574H38.2863C37.317 216.574 36.5312 217.36 36.5312 218.329V235.584C36.5312 236.553 37.317 237.339 38.2863 237.339H67.5902C68.5595 237.339 69.3452 236.553 69.3452 235.584V218.329C69.3452 217.36 68.5595 216.574 67.5902 216.574Z" fill="#16084C"/>
</mask>
<g mask="url(#mask2_1488_3490)">
<path d="M58.3456 230.34C64.8548 230.34 70.1316 225.063 70.1316 218.554C70.1316 212.045 64.8548 206.768 58.3456 206.768C51.8364 206.768 46.5596 212.045 46.5596 218.554C46.5596 225.063 51.8364 230.34 58.3456 230.34Z" fill="white" fill-opacity="0.2"/>
<path d="M68.0516 230.635C74.5608 230.635 79.8376 225.358 79.8376 218.849C79.8376 212.34 74.5608 207.063 68.0516 207.063C61.5424 207.063 56.2656 212.34 56.2656 218.849C56.2656 225.358 61.5424 230.635 68.0516 230.635Z" fill="white" fill-opacity="0.17"/>
</g>
<path d="M82.7024 225.847C82.7024 226.527 82.4694 227.051 82.0034 227.418C81.5414 227.783 80.8784 227.965 80.0144 227.965H79.2244V230.606H78.4434V223.89H80.1844C81.8624 223.89 82.7024 224.543 82.7024 225.847ZM79.2244 227.294H79.9274C80.6194 227.294 81.1204 227.182 81.4294 226.959C81.7384 226.735 81.8934 226.377 81.8934 225.884C81.8934 225.44 81.7484 225.109 81.4574 224.892C81.1664 224.674 80.7134 224.566 80.0974 224.566H79.2244V227.294ZM87.0934 230.606L86.9413 229.89H86.9054C86.6534 230.205 86.4024 230.419 86.1514 230.533C85.9034 230.643 85.5924 230.698 85.2194 230.698C84.7204 230.698 84.3284 230.569 84.0434 230.312C83.7614 230.055 83.6204 229.689 83.6204 229.214C83.6204 228.198 84.4334 227.665 86.0594 227.616L86.9144 227.588V227.276C86.9144 226.881 86.8283 226.59 86.6573 226.403C86.4883 226.213 86.2174 226.118 85.8434 226.118C85.4244 226.118 84.9494 226.247 84.4194 226.504L84.1854 225.921C84.4334 225.786 84.7044 225.68 84.9984 225.604C85.2954 225.527 85.5924 225.489 85.8894 225.489C86.4904 225.489 86.9344 225.622 87.2224 225.889C87.5124 226.155 87.6584 226.582 87.6584 227.17V230.606H87.0934ZM85.3704 230.069C85.8454 230.069 86.2174 229.939 86.4874 229.678C86.7594 229.418 86.8954 229.054 86.8954 228.585V228.13L86.1334 228.162C85.5274 228.184 85.0894 228.279 84.8194 228.447C84.5534 228.613 84.4194 228.871 84.4194 229.224C84.4194 229.499 84.5024 229.709 84.6684 229.853C84.8364 229.997 85.0704 230.069 85.3704 230.069ZM88.4344 225.572H89.2523L90.3544 228.443C90.5964 229.098 90.7464 229.571 90.8054 229.862H90.8414C90.8814 229.706 90.9644 229.439 91.0894 229.063C91.2184 228.683 91.6344 227.519 92.3394 225.572H93.1564L90.9933 231.304C90.7783 231.871 90.5274 232.272 90.2404 232.508C89.9554 232.747 89.6044 232.866 89.1884 232.866C88.9554 232.866 88.7254 232.84 88.4994 232.788V232.177C88.6674 232.214 88.8554 232.232 89.0644 232.232C89.5874 232.232 89.9614 231.938 90.1844 231.35L90.4654 230.634L88.4344 225.572ZM96.3174 230.698C96.0079 230.701 95.701 230.641 95.4164 230.519C95.1451 230.395 94.911 230.202 94.7374 229.959H94.6814C94.7184 230.252 94.7374 230.531 94.7374 230.795V232.866H93.9744V225.572H94.5944L94.7003 226.261H94.7374C94.9334 225.985 95.1614 225.786 95.4214 225.664C95.6814 225.541 95.9804 225.48 96.3174 225.48C96.9844 225.48 97.4994 225.708 97.8604 226.164C98.2254 226.621 98.4073 227.261 98.4073 228.084C98.4073 228.911 98.2223 229.554 97.8513 230.014C97.4843 230.47 96.9724 230.698 96.3174 230.698ZM96.2074 226.127C95.6924 226.127 95.3204 226.27 95.0904 226.555C94.8614 226.839 94.7434 227.293 94.7374 227.914V228.084C94.7374 228.792 94.8544 229.299 95.0904 229.605C95.3264 229.908 95.7044 230.06 96.2254 230.06C96.6604 230.06 97.0004 229.883 97.2454 229.531C97.4934 229.179 97.6174 228.694 97.6174 228.075C97.6174 227.447 97.4934 226.967 97.2454 226.633C97.0004 226.296 96.6544 226.127 96.2074 226.127ZM102.84 230.606L102.688 229.89H102.651C102.4 230.205 102.149 230.419 101.898 230.533C101.65 230.643 101.339 230.698 100.965 230.698C100.466 230.698 100.074 230.569 99.7894 230.312C99.5084 230.055 99.3674 229.689 99.3674 229.214C99.3674 228.198 100.18 227.665 101.806 227.616L102.66 227.588V227.276C102.66 226.881 102.575 226.59 102.403 226.403C102.235 226.213 101.964 226.118 101.59 226.118C101.171 226.118 100.696 226.247 100.166 226.504L99.9324 225.921C100.18 225.786 100.451 225.68 100.745 225.604C101.042 225.527 101.339 225.489 101.636 225.489C102.236 225.489 102.68 225.622 102.968 225.889C103.259 226.155 103.405 226.582 103.405 227.17V230.606H102.84ZM101.117 230.069C101.592 230.069 101.964 229.939 102.233 229.678C102.506 229.418 102.642 229.054 102.642 228.585V228.13L101.88 228.162C101.273 228.184 100.835 228.279 100.566 228.447C100.299 228.613 100.166 228.871 100.166 229.224C100.166 229.499 100.249 229.709 100.414 229.853C100.583 229.997 100.817 230.069 101.117 230.069ZM105.743 230.606H104.98V223.459H105.743V230.606ZM114.99 223.89V228.236C114.99 229.002 114.758 229.603 114.296 230.041C113.833 230.479 113.198 230.698 112.39 230.698C111.581 230.698 110.955 230.478 110.511 230.037C110.07 229.596 109.849 228.989 109.849 228.218V223.89H110.63V228.273C110.63 228.833 110.783 229.263 111.09 229.563C111.396 229.864 111.846 230.014 112.44 230.014C113.007 230.014 113.443 229.864 113.749 229.563C114.056 229.26 114.209 228.827 114.209 228.263V223.89H114.99ZM119.905 229.233C119.905 229.701 119.73 230.063 119.381 230.317C119.032 230.571 118.542 230.698 117.911 230.698C117.243 230.698 116.723 230.592 116.349 230.381V229.674C116.591 229.796 116.85 229.893 117.126 229.963C117.404 230.034 117.672 230.069 117.929 230.069C118.327 230.069 118.634 230.006 118.848 229.88C118.951 229.822 119.035 229.737 119.092 229.634C119.149 229.531 119.176 229.414 119.17 229.297C119.17 229.199 119.146 229.103 119.101 229.016C119.056 228.929 118.992 228.853 118.912 228.796C118.744 228.655 118.413 228.49 117.92 228.3C117.452 228.126 117.118 227.974 116.919 227.845C116.741 227.732 116.59 227.579 116.478 227.4C116.379 227.218 116.33 227.014 116.335 226.807C116.335 226.397 116.502 226.074 116.836 225.838C117.17 225.599 117.628 225.48 118.21 225.48C118.752 225.48 119.281 225.59 119.799 225.811L119.528 226.431C119.023 226.222 118.565 226.118 118.154 226.118C117.793 226.118 117.521 226.175 117.337 226.288C117.153 226.402 117.061 226.558 117.061 226.757C117.058 226.879 117.093 227 117.162 227.101C117.233 227.196 117.344 227.287 117.498 227.372C117.651 227.458 117.945 227.582 118.38 227.744C118.977 227.962 119.379 228.181 119.588 228.401C119.799 228.622 119.905 228.899 119.905 229.233ZM123.276 230.698C122.532 230.698 121.944 230.471 121.512 230.018C121.084 229.565 120.869 228.936 120.869 228.13C120.869 227.319 121.068 226.674 121.466 226.196C121.868 225.719 122.405 225.48 123.079 225.48C123.71 225.48 124.209 225.688 124.576 226.105C124.944 226.518 125.127 227.065 125.127 227.744V228.227H121.659C121.675 228.818 121.823 229.266 122.105 229.573C122.39 229.879 122.789 230.032 123.304 230.032C123.858 230.03 124.405 229.914 124.912 229.692V230.372C124.666 230.481 124.408 230.564 124.144 230.62C123.859 230.676 123.568 230.703 123.276 230.698ZM123.07 226.118C122.665 226.118 122.342 226.25 122.1 226.513C121.861 226.777 121.721 227.141 121.678 227.607H124.31C124.31 227.126 124.203 226.758 123.988 226.504C123.774 226.247 123.468 226.118 123.07 226.118ZM128.729 225.48C128.952 225.48 129.153 225.498 129.331 225.535L129.225 226.242C129.045 226.199 128.86 226.176 128.674 226.173C128.266 226.173 127.917 226.339 127.626 226.67C127.338 227 127.195 227.412 127.195 227.905V230.606H126.432V225.572H127.061L127.149 226.504H127.185C127.372 226.176 127.597 225.924 127.861 225.746C128.124 225.569 128.413 225.48 128.729 225.48Z" fill="#2F363E"/>
<path d="M39.2188 270.567H47.2818M43.2498 274.599V266.535" stroke="#0878FF" stroke-width="1.428" stroke-linecap="round" stroke-linejoin="round"/>
<path d="M65.8138 274.567L65.0628 272.435H62.1288L61.3778 274.567H60.0498L62.9058 266.86H64.3018L67.1528 274.567H65.8138ZM64.7378 271.354L64.0078 269.254C63.9684 269.126 63.928 268.998 63.8868 268.871L63.7298 268.362L63.5988 267.921C63.5586 268.083 63.5146 268.244 63.4668 268.404C63.4207 268.569 63.3717 268.734 63.3198 268.897L63.2148 269.254L62.4798 271.354H64.7378ZM69.9928 274.672C69.2998 274.672 68.7428 274.42 68.3228 273.916C67.9068 273.408 67.6988 272.661 67.6988 271.674C67.6988 270.677 67.9098 269.922 68.3338 269.412C68.7608 268.901 69.3228 268.645 70.0188 268.645C70.3128 268.645 70.5698 268.685 70.7908 268.766C71.0108 268.843 71.1998 268.948 71.3578 269.081C71.5188 269.214 71.6548 269.363 71.7668 269.527H71.8248C71.8014 269.372 71.7804 269.216 71.7618 269.06C71.7419 268.87 71.7315 268.679 71.7308 268.488V266.398H72.9688V274.567H72.0038L71.7828 273.774H71.7308C71.5074 274.136 71.1664 274.41 70.7648 274.551C70.5167 274.637 70.2553 274.678 69.9928 274.672ZM70.3388 273.669C70.8678 273.669 71.2408 273.517 71.4578 273.212C71.6748 272.908 71.7868 272.451 71.7938 271.842V271.679C71.7938 271.028 71.6888 270.53 71.4788 270.183C71.2688 269.833 70.8848 269.658 70.3288 269.658C69.8838 269.658 69.5448 269.838 69.3098 270.199C69.0788 270.556 68.9638 271.055 68.9638 271.695C68.9638 272.336 69.0788 272.826 69.3098 273.165C69.5448 273.501 69.8878 273.669 70.3388 273.669ZM76.6918 274.672C75.9988 274.672 75.4418 274.42 75.0218 273.916C74.6058 273.408 74.3968 272.661 74.3968 271.674C74.3968 270.677 74.6088 269.922 75.0328 269.412C75.4598 268.901 76.0208 268.645 76.7178 268.645C77.0118 268.645 77.2688 268.685 77.4898 268.766C77.7098 268.843 77.8988 268.948 78.0558 269.081C78.2168 269.214 78.3538 269.363 78.4658 269.527H78.5238C78.4994 269.372 78.4784 269.216 78.4608 269.06C78.4406 268.87 78.4299 268.679 78.4288 268.488V266.398H79.6678V274.567H78.7018L78.4818 273.774H78.4288C78.3238 273.942 78.1908 274.094 78.0298 274.231C77.8728 274.364 77.6838 274.471 77.4628 274.551C77.2151 274.637 76.954 274.678 76.6918 274.672ZM77.0378 273.669C77.5668 273.669 77.9388 273.517 78.1558 273.212C78.3728 272.908 78.4848 272.451 78.4918 271.842V271.679C78.4918 271.028 78.3868 270.53 78.1768 270.183C77.9668 269.833 77.5838 269.658 77.0278 269.658C76.5828 269.658 76.2438 269.838 76.0088 270.199C75.7778 270.556 75.6628 271.055 75.6628 271.695C75.6628 272.336 75.7778 272.826 76.0088 273.165C76.2438 273.501 76.5868 273.669 77.0378 273.669ZM87.2118 268.645C87.9018 268.645 88.4548 268.897 88.8708 269.401C89.2908 269.905 89.5008 270.654 89.5008 271.648C89.5008 272.306 89.4028 272.861 89.2068 273.312C89.0138 273.76 88.7428 274.1 88.3928 274.331C88.0316 274.563 87.6097 274.681 87.1808 274.672C86.8868 274.672 86.6308 274.633 86.4138 274.556C86.2131 274.488 86.0252 274.387 85.8578 274.257C85.7106 274.139 85.5798 274.001 85.4688 273.848H85.3958C85.4323 274.157 85.4567 274.467 85.4688 274.777V277.144H84.2298V268.755H85.2378L85.4108 269.558H85.4688C85.5778 269.394 85.7088 269.242 85.8628 269.102C86.0198 268.962 86.2088 268.852 86.4298 268.771C86.6538 268.687 86.9148 268.645 87.2118 268.645ZM86.8808 269.653C86.5418 269.653 86.2688 269.721 86.0618 269.858C85.8588 269.991 85.7108 270.192 85.6158 270.461C85.5248 270.731 85.4758 271.069 85.4688 271.475V271.648C85.4688 272.078 85.5128 272.444 85.5998 272.745C85.6908 273.043 85.8398 273.27 86.0468 273.428C86.2568 273.582 86.5398 273.659 86.8968 273.659C87.1978 273.659 87.4468 273.576 87.6428 273.412C87.8418 273.247 87.9908 273.013 88.0888 272.708C88.1932 272.359 88.2428 271.996 88.2358 271.632C88.2358 271.006 88.1238 270.519 87.8998 270.173C87.6788 269.826 87.3398 269.653 86.8808 269.653ZM93.2068 268.645C93.9418 268.645 94.4968 268.808 94.8708 269.133C95.2488 269.459 95.4378 269.966 95.4378 270.656V274.567H94.5618L94.3258 273.743H94.2838C94.1188 273.953 93.9488 274.126 93.7738 274.262C93.5923 274.402 93.3856 274.505 93.1648 274.567C92.9378 274.637 92.6598 274.672 92.3308 274.672C91.9838 274.672 91.6738 274.609 91.4008 274.483C91.1315 274.356 90.9067 274.151 90.7558 273.895C90.5978 273.632 90.5188 273.3 90.5188 272.897C90.5188 272.299 90.7418 271.849 91.1858 271.548C91.6338 271.247 92.3098 271.081 93.2128 271.049L94.2208 271.013V270.708C94.2208 270.306 94.1258 270.019 93.9368 269.847C93.7518 269.676 93.4888 269.59 93.1498 269.59C92.8631 269.589 92.5779 269.632 92.3038 269.716C92.0307 269.8 91.764 269.904 91.5058 270.026L91.1068 269.154C91.3908 269.004 91.7128 268.881 92.0728 268.787C92.4432 268.691 92.8243 268.644 93.2068 268.645ZM94.2148 271.79L93.4648 271.816C92.8488 271.837 92.4158 271.942 92.1678 272.131C92.0471 272.22 91.95 272.338 91.8849 272.473C91.8199 272.609 91.789 272.758 91.7948 272.908C91.7948 273.195 91.8808 273.405 92.0518 273.538C92.2238 273.667 92.4498 273.732 92.7298 273.732C93.1568 273.732 93.5098 273.611 93.7898 273.37C94.0738 273.125 94.2148 272.766 94.2148 272.294V271.79ZM96.2888 268.755H97.6328L98.8248 272.073C98.8768 272.224 98.9238 272.372 98.9658 272.519C99.0118 272.663 99.0498 272.805 99.0818 272.945C99.1168 273.085 99.1448 273.225 99.1658 273.365H99.1968C99.2318 273.183 99.2808 272.98 99.3438 272.756C99.4108 272.528 99.4838 272.301 99.5648 272.073L100.709 268.755H102.037L99.5438 275.365C99.3998 275.743 99.2238 276.065 99.0138 276.331C98.8202 276.589 98.5683 276.798 98.2788 276.94C97.9754 277.084 97.6427 277.156 97.3068 277.15C97.1318 277.15 96.9798 277.139 96.8508 277.118C96.7396 277.104 96.6291 277.085 96.5198 277.06V276.073C96.7249 276.119 96.9345 276.143 97.1448 276.142C97.3648 276.142 97.5558 276.098 97.7168 276.01C97.8778 275.923 98.0138 275.799 98.1258 275.638C98.2378 275.48 98.3308 275.3 98.4048 275.097L98.6088 274.551L96.2888 268.755ZM109.487 268.645C110.138 268.645 110.628 268.813 110.957 269.149C111.289 269.485 111.455 270.024 111.455 270.766V274.567H110.222V270.986C110.222 270.545 110.136 270.213 109.965 269.989C109.793 269.765 109.532 269.653 109.182 269.653C108.692 269.653 108.339 269.81 108.122 270.125C107.908 270.437 107.802 270.89 107.802 271.485V274.567H106.568V270.986C106.568 270.692 106.529 270.447 106.452 270.251C106.391 270.068 106.271 269.911 106.111 269.805C105.936 269.698 105.733 269.645 105.528 269.653C105.189 269.653 104.918 269.73 104.715 269.884C104.515 270.038 104.372 270.265 104.284 270.566C104.189 270.924 104.145 271.294 104.153 271.664V274.567H102.919V268.755H103.88L104.053 269.537H104.122C104.233 269.343 104.384 269.173 104.563 269.039C104.741 268.906 104.942 268.806 105.156 268.745C105.373 268.678 105.598 268.645 105.833 268.645C106.267 268.645 106.633 268.722 106.93 268.876C107.228 269.027 107.45 269.258 107.597 269.569H107.691C107.873 269.254 108.127 269.021 108.453 268.871C108.778 268.72 109.123 268.645 109.487 268.645ZM115.493 268.645C116.011 268.645 116.455 268.752 116.826 268.965C117.197 269.179 117.482 269.482 117.682 269.873C117.881 270.265 117.981 270.734 117.981 271.28V271.942H114.101C114.115 272.505 114.266 272.939 114.553 273.244C114.843 273.548 115.249 273.701 115.771 273.701C116.142 273.701 116.474 273.666 116.768 273.596C117.066 273.522 117.372 273.415 117.687 273.275V274.278C117.404 274.412 117.106 274.512 116.8 274.577C116.443 274.645 116.081 274.677 115.718 274.672C115.148 274.672 114.646 274.562 114.212 274.341C113.781 274.118 113.428 273.771 113.198 273.344C112.957 272.903 112.836 272.355 112.836 271.7C112.836 271.049 112.946 270.496 113.167 270.041C113.387 269.586 113.697 269.24 114.096 269.002C114.495 268.764 114.961 268.645 115.493 268.645ZM115.493 269.574C115.104 269.574 114.789 269.7 114.548 269.952C114.31 270.204 114.17 270.573 114.128 271.06H116.773C116.775 270.796 116.725 270.533 116.626 270.288C116.544 270.074 116.397 269.891 116.207 269.763C116.021 269.637 115.783 269.574 115.493 269.574ZM122.401 268.645C123.056 268.645 123.565 268.815 123.929 269.154C124.296 269.49 124.48 270.031 124.48 270.776V274.567H123.246V271.007C123.246 270.556 123.154 270.218 122.968 269.994C122.783 269.767 122.496 269.653 122.107 269.653C121.544 269.653 121.152 269.826 120.931 270.173C120.714 270.519 120.606 271.021 120.606 271.679V274.567H119.372V268.755H120.333L120.506 269.543H120.574C120.7 269.34 120.856 269.174 121.042 269.044C121.231 268.911 121.441 268.811 121.672 268.745C121.906 268.678 122.149 268.645 122.401 268.645ZM128.37 273.674C128.531 273.674 128.69 273.66 128.848 273.632C129.005 273.601 129.149 273.564 129.278 273.522V274.457C129.142 274.516 128.965 274.567 128.748 274.609C128.525 274.652 128.298 274.673 128.071 274.672C127.742 274.672 127.446 274.618 127.184 274.509C126.917 274.394 126.697 274.192 126.559 273.937C126.405 273.667 126.328 273.295 126.328 272.819V269.695H125.535V269.144L126.386 268.708L126.79 267.464H127.567V268.755H129.231V269.695H127.567V272.803C127.567 273.097 127.641 273.316 127.787 273.459C127.934 273.603 128.129 273.674 128.37 273.674ZM139.82 268.645C140.471 268.645 140.961 268.813 141.29 269.149C141.622 269.485 141.789 270.024 141.789 270.766V274.567H140.555V270.986C140.555 270.545 140.469 270.213 140.298 269.989C140.126 269.765 139.865 269.653 139.515 269.653C139.025 269.653 138.672 269.81 138.455 270.125C138.242 270.437 138.135 270.89 138.135 271.485V274.567H136.901V270.986C136.901 270.692 136.863 270.447 136.786 270.251C136.725 270.068 136.604 269.911 136.444 269.805C136.269 269.698 136.067 269.645 135.862 269.653C135.522 269.653 135.251 269.73 135.048 269.884C134.848 270.038 134.705 270.265 134.617 270.566C134.522 270.924 134.478 271.294 134.486 271.664V274.567H133.252V268.755H134.213L134.386 269.537H134.455C134.566 269.343 134.717 269.173 134.896 269.039C135.074 268.906 135.275 268.806 135.489 268.745C135.706 268.678 135.932 268.645 136.166 268.645C136.6 268.645 136.966 268.722 137.263 268.876C137.561 269.027 137.783 269.258 137.93 269.569H138.025C138.207 269.254 138.46 269.021 138.786 268.871C139.111 268.72 139.456 268.645 139.82 268.645ZM145.826 268.645C146.344 268.645 146.788 268.752 147.159 268.965C147.53 269.179 147.815 269.482 148.015 269.873C148.214 270.265 148.314 270.734 148.314 271.28V271.942H144.434C144.448 272.505 144.599 272.939 144.886 273.244C145.176 273.548 145.582 273.701 146.104 273.701C146.475 273.701 146.807 273.666 147.101 273.596C147.399 273.522 147.705 273.415 148.02 273.275V274.278C147.737 274.412 147.439 274.513 147.133 274.577C146.776 274.645 146.414 274.677 146.051 274.672C145.481 274.672 144.979 274.562 144.545 274.341C144.115 274.118 143.762 273.77 143.532 273.344C143.29 272.903 143.169 272.355 143.169 271.7C143.169 271.049 143.28 270.496 143.5 270.041C143.721 269.586 144.03 269.24 144.429 269.002C144.828 268.764 145.294 268.645 145.826 268.645ZM145.826 269.574C145.437 269.574 145.122 269.7 144.881 269.952C144.643 270.204 144.503 270.573 144.461 271.06H147.107C147.108 270.796 147.058 270.533 146.96 270.288C146.877 270.074 146.73 269.891 146.54 269.763C146.354 269.637 146.116 269.574 145.826 269.574ZM151.868 273.674C152.029 273.674 152.188 273.66 152.346 273.632C152.503 273.601 152.647 273.564 152.776 273.522V274.457C152.64 274.516 152.463 274.567 152.246 274.609C152.023 274.652 151.796 274.673 151.569 274.672C151.24 274.672 150.944 274.618 150.682 274.509C150.415 274.394 150.195 274.192 150.057 273.937C149.903 273.667 149.826 273.295 149.826 272.819V269.695H149.033V269.144L149.884 268.708L150.288 267.464H151.065V268.755H152.729V269.695H151.065V272.803C151.065 273.097 151.138 273.316 151.285 273.459C151.432 273.603 151.627 273.674 151.868 273.674ZM155.191 266.398V268.451C155.191 268.66 155.184 268.868 155.17 269.076C155.16 269.279 155.148 269.436 155.134 269.548H155.202C155.324 269.345 155.475 269.179 155.653 269.049C155.832 268.916 156.031 268.817 156.252 268.75C156.476 268.684 156.714 268.65 156.966 268.65C157.41 268.65 157.788 268.726 158.1 268.876C158.411 269.023 158.649 269.252 158.814 269.564C158.982 269.875 159.066 270.279 159.066 270.776V274.567H157.832V271.007C157.832 270.556 157.739 270.218 157.554 269.994C157.368 269.767 157.081 269.653 156.693 269.653C156.318 269.653 156.021 269.732 155.8 269.889C155.583 270.043 155.428 270.272 155.333 270.577C155.239 270.878 155.191 271.245 155.191 271.679V274.567H153.958V266.398H155.191ZM165.938 271.648C165.938 272.131 165.875 272.56 165.749 272.934C165.623 273.309 165.439 273.625 165.197 273.884C164.953 274.142 164.656 274.342 164.326 274.472C163.986 274.605 163.603 274.672 163.176 274.672C162.777 274.672 162.411 274.605 162.079 274.472C161.752 274.34 161.456 274.139 161.213 273.884C160.962 273.61 160.77 273.286 160.651 272.934C160.512 272.52 160.444 272.085 160.452 271.648C160.452 271.007 160.562 270.465 160.782 270.02C161.006 269.572 161.325 269.231 161.738 268.997C162.151 268.762 162.642 268.645 163.213 268.645C163.748 268.645 164.221 268.762 164.63 268.997C165.04 269.231 165.36 269.572 165.591 270.02C165.822 270.468 165.938 271.011 165.938 271.648ZM161.722 271.648C161.722 272.071 161.773 272.434 161.874 272.735C161.979 273.036 162.14 273.267 162.357 273.428C162.574 273.585 162.854 273.664 163.197 273.664C163.54 273.664 163.82 273.585 164.037 273.428C164.254 273.267 164.413 273.036 164.515 272.735C164.616 272.434 164.667 272.071 164.667 271.648C164.667 271.224 164.616 270.866 164.515 270.572C164.413 270.274 164.254 270.048 164.037 269.894C163.82 269.737 163.538 269.658 163.192 269.658C162.681 269.658 162.308 269.83 162.074 270.173C161.839 270.516 161.722 271.007 161.722 271.648ZM169.308 274.672C168.615 274.672 168.058 274.42 167.638 273.916C167.222 273.408 167.014 272.661 167.014 271.674C167.014 270.677 167.225 269.922 167.649 269.412C168.076 268.901 168.638 268.645 169.334 268.645C169.628 268.645 169.885 268.685 170.106 268.766C170.326 268.843 170.515 268.948 170.673 269.081C170.834 269.214 170.97 269.363 171.082 269.527H171.14C171.116 269.372 171.095 269.216 171.077 269.06C171.057 268.87 171.047 268.679 171.046 268.488V266.398H172.284V274.567H171.319L171.098 273.774H171.046C170.822 274.136 170.481 274.41 170.08 274.551C169.832 274.637 169.57 274.678 169.308 274.672ZM169.654 273.669C170.183 273.669 170.556 273.517 170.773 273.212C170.99 272.908 171.102 272.451 171.109 271.842V271.679C171.109 271.028 171.004 270.53 170.794 270.183C170.584 269.833 170.2 269.658 169.644 269.658C169.199 269.658 168.86 269.838 168.625 270.199C168.394 270.556 168.279 271.055 168.279 271.695C168.279 272.336 168.394 272.826 168.625 273.165C168.86 273.501 169.203 273.669 169.654 273.669ZM105.66 55.699V46.105H107.235V54.36H111.31V55.699H105.66ZM118.876 48.435V55.699H117.662L117.452 54.721H117.367C117.214 54.971 117.019 55.178 116.783 55.345C116.543 55.5087 116.277 55.6307 115.996 55.706C115.699 55.79 115.391 55.8317 115.083 55.83C114.537 55.83 114.068 55.738 113.679 55.555C113.297 55.3702 112.986 55.0662 112.793 54.689C112.588 54.299 112.485 53.796 112.485 53.179V48.435H114.033V52.89C114.033 53.455 114.147 53.877 114.375 54.157C114.607 54.437 114.965 54.577 115.451 54.577C115.919 54.577 116.291 54.481 116.566 54.288C116.842 54.096 117.037 53.811 117.151 53.435C117.269 53.059 117.328 52.597 117.328 52.051V48.435H118.876ZM122.361 45.488V50.423C122.361 50.646 122.352 50.891 122.335 51.158C122.317 51.421 122.3 51.668 122.282 51.9H122.315C122.429 51.746 122.565 51.567 122.722 51.361C122.884 51.156 123.037 50.976 123.181 50.823L125.399 48.435H127.171L124.264 51.558L127.362 55.699H125.55L123.227 52.51L122.361 53.251V55.699H120.819V45.488H122.361ZM131.102 48.297C132.021 48.297 132.714 48.5 133.183 48.907C133.655 49.314 133.891 49.948 133.891 50.81V55.699H132.795L132.5 54.669H132.448C132.263 54.9104 132.049 55.1284 131.811 55.318C131.584 55.493 131.326 55.6224 131.05 55.699C130.765 55.787 130.418 55.83 130.006 55.83C129.606 55.8373 129.21 55.7567 128.845 55.594C128.508 55.4358 128.227 55.1797 128.038 54.859C127.841 54.531 127.742 54.115 127.742 53.612C127.742 52.864 128.02 52.302 128.576 51.926C129.136 51.55 129.98 51.342 131.109 51.302L132.369 51.256V50.876C132.369 50.373 132.251 50.014 132.014 49.8C131.783 49.585 131.454 49.478 131.03 49.478C130.667 49.478 130.315 49.531 129.974 49.636C129.632 49.741 129.299 49.8703 128.976 50.023L128.477 48.933C128.86 48.734 129.266 48.5799 129.685 48.474C130.148 48.355 130.624 48.2955 131.102 48.297ZM132.362 52.228L131.424 52.261C130.654 52.287 130.114 52.418 129.803 52.654C129.492 52.89 129.337 53.214 129.337 53.625C129.337 53.984 129.444 54.247 129.659 54.413C129.873 54.575 130.155 54.656 130.505 54.656C131.039 54.656 131.481 54.505 131.831 54.203C132.185 53.897 132.362 53.448 132.362 52.858V52.228ZM137.015 46.105L137.114 46.25C137.035 46.569 136.932 46.91 136.805 47.273C136.561 47.9937 136.281 48.7013 135.965 49.393H134.85L135.04 48.579C135.106 48.29 135.169 48.002 135.23 47.713C135.342 47.1799 135.438 46.6437 135.519 46.105H137.015ZM142.994 53.625C142.994 54.102 142.878 54.505 142.646 54.833C142.414 55.161 142.075 55.41 141.629 55.581C141.187 55.747 140.644 55.83 140.001 55.83C139.494 55.83 139.056 55.793 138.689 55.719C138.333 55.6511 137.987 55.541 137.658 55.391V54.059C138.004 54.22 138.391 54.36 138.82 54.479C139.253 54.597 139.662 54.656 140.047 54.656C140.555 54.656 140.92 54.577 141.143 54.419C141.248 54.3485 141.334 54.2527 141.392 54.1403C141.451 54.028 141.48 53.9027 141.478 53.776C141.48 53.6246 141.431 53.4769 141.34 53.356C141.252 53.23 141.086 53.1 140.841 52.969C140.497 52.7859 140.142 52.624 139.778 52.484C139.378 52.3283 138.99 52.1439 138.617 51.932C138.328 51.7732 138.082 51.5459 137.901 51.27C137.739 51.007 137.658 50.672 137.658 50.266C137.658 49.622 137.912 49.135 138.42 48.802C138.932 48.465 139.607 48.297 140.447 48.297C140.894 48.297 141.314 48.343 141.707 48.435C142.105 48.522 142.495 48.651 142.875 48.822L142.39 49.983C142.068 49.8415 141.737 49.7232 141.399 49.629C141.073 49.5333 140.735 49.4848 140.395 49.485C139.997 49.485 139.693 49.546 139.483 49.668C139.388 49.7183 139.308 49.794 139.254 49.8867C139.199 49.9794 139.172 50.0855 139.174 50.193C139.174 50.364 139.225 50.508 139.325 50.627C139.426 50.745 139.599 50.863 139.844 50.981C140.093 51.099 140.439 51.246 140.881 51.421C141.314 51.587 141.688 51.762 142.003 51.946C142.322 52.125 142.567 52.346 142.738 52.608C142.908 52.871 142.994 53.21 142.994 53.625ZM153.553 55.693L152.634 52.313L152.476 51.709C152.413 51.4668 152.352 51.2241 152.293 50.981L152.122 50.279L152.011 49.78H151.958C151.936 49.898 151.901 50.064 151.853 50.279C151.744 50.7618 151.628 51.2428 151.505 51.722C151.448 51.963 151.396 52.169 151.348 52.339L150.383 55.693H148.69L146.656 48.428H148.218L149.163 52.037C149.224 52.282 149.283 52.547 149.34 52.831C149.443 53.3113 149.529 53.7953 149.596 54.282H149.648C149.698 53.9416 149.757 53.6025 149.825 53.265C149.865 53.063 149.904 52.875 149.943 52.7C149.983 52.521 150.02 52.376 150.055 52.267L151.171 48.428H152.857L153.927 52.267C154.052 52.7234 154.155 53.1856 154.235 53.652C154.283 53.901 154.314 54.109 154.327 54.275H154.379C154.397 54.126 154.428 53.925 154.471 53.671C154.519 53.413 154.574 53.14 154.635 52.851C154.697 52.558 154.76 52.287 154.826 52.037L155.79 48.428H157.326L155.279 55.693H153.553ZM161.152 48.297C162.071 48.297 162.764 48.5 163.232 48.907C163.705 49.314 163.941 49.948 163.941 50.81V55.699H162.845L162.55 54.669H162.497C162.312 54.9104 162.098 55.1283 161.861 55.318C161.634 55.493 161.375 55.6224 161.099 55.699C160.815 55.787 160.467 55.83 160.056 55.83C159.656 55.8373 159.26 55.7567 158.895 55.594C158.557 55.4361 158.276 55.1799 158.087 54.859C157.891 54.531 157.792 54.115 157.792 53.612C157.792 52.864 158.07 52.302 158.625 51.926C159.185 51.55 160.03 51.342 161.159 51.302L162.418 51.256V50.876C162.418 50.373 162.3 50.014 162.064 49.8C161.832 49.585 161.504 49.478 161.08 49.478C160.717 49.478 160.364 49.531 160.023 49.636C159.682 49.7411 159.349 49.8705 159.026 50.023L158.527 48.933C158.91 48.7338 159.316 48.5798 159.735 48.474C160.198 48.355 160.674 48.2955 161.152 48.297ZM162.412 52.228L161.473 52.261C160.704 52.287 160.163 52.418 159.853 52.654C159.542 52.89 159.387 53.214 159.387 53.625C159.387 53.984 159.494 54.247 159.708 54.413C159.923 54.575 160.205 54.656 160.555 54.656C161.089 54.656 161.53 54.505 161.88 54.203C162.235 53.897 162.412 53.448 162.412 52.858V52.228ZM167.38 55.699H165.831V45.488H167.38V55.699ZM170.865 55.699H169.316V45.488H170.865V55.699ZM175.695 48.297C176.342 48.297 176.898 48.43 177.361 48.697C177.825 48.964 178.182 49.343 178.431 49.832C178.68 50.322 178.805 50.909 178.805 51.591V52.418H173.956C173.973 53.122 174.161 53.665 174.52 54.045C174.883 54.426 175.391 54.616 176.042 54.616C176.506 54.616 176.922 54.573 177.289 54.485C177.683 54.3856 178.067 54.2517 178.438 54.085V55.338C178.084 55.5054 177.712 55.6309 177.329 55.712C176.883 55.7972 176.43 55.8367 175.977 55.83C175.264 55.83 174.636 55.693 174.093 55.417C173.555 55.1375 173.114 54.7031 172.827 54.17C172.525 53.619 172.374 52.934 172.374 52.116C172.374 51.302 172.512 50.611 172.788 50.042C173.063 49.474 173.45 49.041 173.949 48.743C174.448 48.446 175.03 48.297 175.695 48.297ZM175.695 49.458C175.209 49.458 174.815 49.616 174.513 49.931C174.216 50.246 174.041 50.707 173.988 51.316H177.296C177.297 50.9855 177.235 50.6578 177.112 50.351C177.008 50.0838 176.825 49.8548 176.587 49.695C176.355 49.537 176.058 49.458 175.695 49.458ZM182.979 54.584C183.18 54.584 183.379 54.566 183.576 54.531C183.773 54.492 183.952 54.446 184.114 54.393V55.561C183.944 55.636 183.723 55.699 183.451 55.752C183.172 55.8048 182.889 55.8309 182.605 55.83C182.194 55.83 181.824 55.763 181.496 55.627C181.163 55.4826 180.888 55.2309 180.715 54.912C180.522 54.575 180.426 54.109 180.426 53.514V49.609H179.435V48.92L180.498 48.376L181.004 46.82H181.975V48.435H184.055V49.609H181.975V53.494C181.975 53.862 182.067 54.135 182.25 54.314C182.434 54.494 182.677 54.584 182.979 54.584Z" fill="#2F363E"/>
<path d="M242.181 62.4579C248.675 62.4579 253.94 57.1933 253.94 50.6989C253.94 44.2046 248.675 38.9399 242.181 38.9399C235.687 38.9399 230.422 44.2046 230.422 50.6989C230.422 57.1933 235.687 62.4579 242.181 62.4579Z" fill="#6FDEF7" fill-opacity="0.34"/>
<path d="M240.614 54.9708L239.811 52.6938H236.676L235.873 54.9708H234.454L237.506 46.7358H238.998L242.044 54.9708H240.614ZM239.464 51.5378L238.684 49.2939L238.555 48.8848L238.387 48.3398C238.33 48.1538 238.284 47.9959 238.246 47.8689C238.209 48.0229 238.162 48.1948 238.106 48.3848C238.054 48.5718 238.001 48.7478 237.949 48.9128L237.837 49.2939L237.051 51.5378H239.464ZM249.786 50.7919C249.786 51.7159 249.614 52.4878 249.27 53.1088C248.931 53.7212 248.407 54.2103 247.772 54.5058C247.117 54.8158 246.328 54.9708 245.404 54.9708H243.127V46.7699H245.651C246.5 46.7699 247.233 46.9228 247.85 47.2298C248.456 47.5216 248.956 47.994 249.281 48.5818C249.617 49.1758 249.786 49.9129 249.786 50.7919ZM248.383 50.8308C248.383 50.1578 248.277 49.6049 248.064 49.1709C247.871 48.7535 247.542 48.4136 247.132 48.2058C246.725 47.9928 246.222 47.8858 245.623 47.8858H244.473V53.8438H245.427C246.418 53.8438 247.158 53.5908 247.648 53.0858C248.138 52.5818 248.383 51.8298 248.383 50.8308Z" fill="#6FDEF7"/>
<path d="M45.6725 187.715C45.817 187.871 45.8085 188.045 45.783 188.114H43.148V189.717H41.5925V188.114H39V186.719L43.1905 181.25H39.1615V179.603L41.5925 179.629V178H43.148V179.621H45.613V180.929L41.414 186.433C41.414 186.45 44.406 186.45 44.9245 186.467C44.95 186.485 45.0095 186.667 45.086 186.823C45.256 187.178 45.443 187.455 45.6725 187.715ZM55.2945 186.901C55.252 186.641 55.201 186.597 54.895 186.606C54.7505 186.606 54.606 186.597 54.5805 186.58C54.4275 186.485 54.4275 186.459 54.4275 182.637C54.4275 180.184 54.419 178.945 54.3935 178.901C54.3595 178.832 54.3085 178.832 53.603 178.832C53.195 178.832 52.8295 178.841 52.8125 178.858C52.7785 178.875 52.7615 179.707 52.7615 182.862C52.7615 187.126 52.7615 187.057 52.94 187.421C53.11 187.75 53.5095 188.045 53.9685 188.166C54.2235 188.235 54.963 188.244 55.2435 188.183C55.609 188.105 55.677 187.993 55.5325 187.698C55.4475 187.516 55.3285 187.126 55.2945 186.901ZM58.737 186.901L58.5925 186.615H58.3205C57.9805 186.606 57.9465 186.589 57.887 186.433C57.836 186.32 57.8275 185.765 57.8275 182.645C57.8275 180.193 57.819 178.953 57.7935 178.91C57.7595 178.841 57.7085 178.841 57.003 178.841C56.595 178.841 56.2295 178.858 56.204 178.875C56.153 178.901 56.1445 179.387 56.1445 182.845C56.1445 186.571 56.1445 186.797 56.2125 187.057C56.34 187.568 56.6205 187.88 57.1645 188.114C57.3685 188.201 57.462 188.218 57.8785 188.227C58.4395 188.244 58.72 188.201 59.009 188.053C59.2895 187.915 59.298 187.819 59.06 187.455C58.9665 187.308 58.822 187.057 58.737 186.901ZM66.9225 180.938C66.6845 181.198 66.217 181.259 65.928 181.059C65.6985 180.903 65.5795 180.687 65.588 180.401C65.588 180.063 65.7495 179.82 66.047 179.681C66.251 179.595 66.591 179.621 66.7865 179.759C67.1605 180.019 67.2285 180.6 66.9225 180.938ZM66.6335 179.82C66.4465 179.725 66.2595 179.716 66.098 179.794C65.4945 180.071 65.622 180.99 66.268 181.051C66.4975 181.077 66.608 181.042 66.761 180.903C67.118 180.583 67.05 180.037 66.6335 179.82ZM66.591 180.652C66.727 180.86 66.7355 180.869 66.642 180.869C66.5995 180.869 66.5315 180.791 66.472 180.678C66.387 180.539 66.336 180.487 66.2765 180.487C66.2 180.487 66.1915 180.505 66.1915 180.678C66.1915 180.817 66.1745 180.869 66.1405 180.869C66.115 180.869 66.081 180.843 66.064 180.808C66.0385 180.739 66.0385 180.037 66.064 179.993C66.0725 179.976 66.183 179.967 66.319 179.967C66.5825 179.967 66.7015 180.045 66.7015 180.21C66.7015 180.305 66.608 180.427 66.5145 180.461C66.489 180.47 66.506 180.531 66.591 180.652ZM66.557 180.236C66.5655 180.184 66.5485 180.132 66.523 180.115C66.4975 180.097 66.4125 180.08 66.336 180.08C66.2 180.08 66.1915 180.08 66.1915 180.219V180.349L66.37 180.34C66.523 180.323 66.54 180.314 66.557 180.236ZM51.9285 183.989C52.0135 184.587 51.988 185.133 51.869 185.211C51.8435 185.228 50.781 185.245 49.5145 185.245H47.211L47.2365 185.384C47.2705 185.592 47.449 185.965 47.5935 186.121C47.874 186.441 48.3075 186.606 48.9025 186.606C49.557 186.606 50.0585 186.433 50.4495 186.069C50.56 185.956 50.679 185.878 50.7385 185.878C50.798 185.878 50.9 185.965 51.0785 186.164C51.223 186.32 51.4355 186.528 51.5545 186.623C51.8435 186.849 51.8435 186.927 51.563 187.195C51.1125 187.629 50.56 187.932 49.9055 188.123C49.642 188.192 49.5145 188.209 48.8855 188.209C48.248 188.209 48.129 188.201 47.8485 188.123C47.0325 187.897 46.4035 187.447 45.9785 186.788C45.596 186.199 45.4345 185.583 45.4345 184.743C45.4345 184.145 45.511 183.737 45.7065 183.217C46.0635 182.273 46.905 181.527 47.8485 181.311C48.0015 181.276 48.146 181.241 48.163 181.233C48.1885 181.224 48.4435 181.215 48.7325 181.215C49.149 181.215 49.336 181.233 49.574 181.285C50.883 181.605 51.716 182.567 51.9285 183.989ZM50.2625 183.885L50.237 183.763C50.203 183.573 50.05 183.269 49.9055 183.105C49.7525 182.923 49.421 182.732 49.149 182.68C48.9025 182.628 48.5795 182.628 48.35 182.689C47.8145 182.827 47.3895 183.252 47.279 183.763L47.2535 183.885H48.758H50.2625ZM65.418 183.339C65.6135 183.911 65.673 185.15 65.5115 185.263H60.828L60.8535 185.358C61.032 186.19 61.576 186.597 62.5195 186.606C63.191 186.606 63.667 186.441 64.075 186.069C64.347 185.817 64.4065 185.826 64.6445 186.103C64.7465 186.225 64.9675 186.441 65.129 186.58C65.4775 186.875 65.4775 186.892 65.1545 187.213C64.7295 187.629 64.177 187.941 63.5395 188.105C63.3355 188.166 63.089 188.192 62.647 188.201C62.12 188.218 61.984 188.209 61.644 188.14C60.5815 187.915 59.7995 187.299 59.366 186.355C59.0515 185.67 58.958 184.708 59.128 183.885C59.4085 182.489 60.2925 181.553 61.61 181.25C61.899 181.189 62.8085 181.189 63.1145 181.25C64.075 181.458 64.772 181.978 65.197 182.827C65.282 183.001 65.3755 183.226 65.418 183.339ZM63.8625 183.798C63.8625 183.651 63.6075 183.191 63.4545 183.044C63.2675 182.871 63.0125 182.741 62.7575 182.689C61.8905 182.498 61.0745 182.983 60.879 183.789L60.8535 183.893H63.854V183.798H63.8625Z" fill="#6C1CD3"/>
<path fill-rule="evenodd" clip-rule="evenodd" d="M51.4045 223.027H55.9525C58.3944 223.027 59.3136 224.263 59.1716 226.079C58.9368 229.078 57.1241 230.737 54.7198 230.737H53.5059C53.176 230.737 52.9542 230.955 52.8649 231.547L52.3496 234.986C52.3155 235.21 52.1981 235.339 52.022 235.356H49.1645C48.8957 235.356 48.8006 235.151 48.871 234.706L50.6132 223.679C50.6813 223.237 50.9232 223.027 51.4045 223.027Z" fill="#009EE3"/>
<path fill-rule="evenodd" clip-rule="evenodd" d="M48.5606 219.232H53.1133C54.3953 219.232 55.9168 219.273 56.9334 220.171C57.6132 220.771 57.9701 221.725 57.8879 222.754C57.6085 226.23 55.5294 228.177 52.74 228.177H50.4953C50.1126 228.177 49.8602 228.431 49.7522 229.117L49.1253 233.108C49.0842 233.366 48.9727 233.519 48.7731 233.538H45.9637C45.6526 233.538 45.5423 233.303 45.6233 232.784L47.6425 219.99C47.7235 219.476 48.0065 219.232 48.5606 219.232Z" fill="#113984"/>
<path fill-rule="evenodd" clip-rule="evenodd" d="M49.8174 228.712L50.6122 223.679C50.6814 223.237 50.9233 223.026 51.4046 223.026H55.9526C56.7051 223.026 57.3144 223.144 57.7911 223.361C57.3344 226.455 55.3328 228.174 52.7124 228.174H50.4713C50.1708 228.175 49.95 228.325 49.8174 228.712Z" fill="#172C70"/>
<g filter="url(#filter1_ii_1488_3490)">
<rect y="214.335" width="2.83512" height="41.3928" rx="1.02469" fill="#F9F9FB"/>
</g>
<g filter="url(#filter2_ii_1488_3490)">
<rect y="157.916" width="2.83512" height="40.8257" rx="1.02469" fill="#F9F9FB"/>
</g>
<g filter="url(#filter3_ii_1488_3490)">
<rect y="115.956" width="2.83512" height="20.9799" rx="1.02469" fill="#F9F9FB"/>
</g>
<g filter="url(#filter4_ii_1488_3490)">
<rect x="284.079" y="172.092" width="2.83512" height="68.3264" rx="1.02469" fill="#F9F9FB"/>
</g>
<path d="M84.0587 14.2158L84.0584 12.8216H202.573L202.573 14.2158H200.58C198.362 14.2158 196.565 16.0134 196.565 18.2308L196.564 21.2673C196.564 29.6019 189.808 36.3584 181.473 36.3584H106.832C98.4971 36.3584 91.7405 29.6017 91.7406 21.2669L91.7406 18.2309C91.7407 16.0134 89.943 14.2158 87.7255 14.2158H84.0587Z" fill="#F9F9FB" stroke="#F9F9FB" stroke-width="0.276903"/>
<defs>
<filter id="filter0_ii_1488_3490" x="0.529399" y="-1.28087" width="283.584" height="582.481" filterUnits="userSpaceOnUse" color-interpolation-filters="sRGB">
<feFlood flood-opacity="0" result="BackgroundImageFix"/>
<feBlend mode="normal" in="SourceGraphic" in2="BackgroundImageFix" result="shape"/>
<feColorMatrix in="SourceAlpha" type="matrix" values="0 0 0 0 0 0 0 0 0 0 0 0 0 0 0 0 0 0 127 0" result="hardAlpha"/>
<feMorphology radius="3.8426" operator="dilate" in="SourceAlpha" result="effect1_innerShadow_1488_3490"/>
<feOffset dx="-2.56173"/>
<feGaussianBlur stdDeviation="3.07408"/>
<feComposite in2="hardAlpha" operator="arithmetic" k2="-1" k3="1"/>
<feColorMatrix type="matrix" values="0 0 0 0 0.819608 0 0 0 0 0.835294 0 0 0 0 0.862745 0 0 0 1 0"/>
<feBlend mode="normal" in2="shape" result="effect1_innerShadow_1488_3490"/>
<feColorMatrix in="SourceAlpha" type="matrix" values="0 0 0 0 0 0 0 0 0 0 0 0 0 0 0 0 0 0 127 0" result="hardAlpha"/>
<feOffset dy="-1.28087"/>
<feGaussianBlur stdDeviation="2.56173"/>
<feComposite in2="hardAlpha" operator="arithmetic" k2="-1" k3="1"/>
<feColorMatrix type="matrix" values="0 0 0 0 0.819608 0 0 0 0 0.835294 0 0 0 0 0.862745 0 0 0 1 0"/>
<feBlend mode="normal" in2="effect1_innerShadow_1488_3490" result="effect2_innerShadow_1488_3490"/>
</filter>
<filter id="filter1_ii_1488_3490" x="-0.256173" y="214.335" width="3.60348" height="41.3928" filterUnits="userSpaceOnUse" color-interpolation-filters="sRGB">
<feFlood flood-opacity="0" result="BackgroundImageFix"/>
<feBlend mode="normal" in="SourceGraphic" in2="BackgroundImageFix" result="shape"/>
<feColorMatrix in="SourceAlpha" type="matrix" values="0 0 0 0 0 0 0 0 0 0 0 0 0 0 0 0 0 0 127 0" result="hardAlpha"/>
<feOffset dx="-0.256173"/>
<feGaussianBlur stdDeviation="0.640434"/>
<feComposite in2="hardAlpha" operator="arithmetic" k2="-1" k3="1"/>
<feColorMatrix type="matrix" values="0 0 0 0 0 0 0 0 0 0 0 0 0 0 0 0 0 0 0.2 0"/>
<feBlend mode="normal" in2="shape" result="effect1_innerShadow_1488_3490"/>
<feColorMatrix in="SourceAlpha" type="matrix" values="0 0 0 0 0 0 0 0 0 0 0 0 0 0 0 0 0 0 127 0" result="hardAlpha"/>
<feOffset dx="0.512347"/>
<feGaussianBlur stdDeviation="0.256173"/>
<feComposite in2="hardAlpha" operator="arithmetic" k2="-1" k3="1"/>
<feColorMatrix type="matrix" values="0 0 0 0 1 0 0 0 0 1 0 0 0 0 1 0 0 0 1 0"/>
<feBlend mode="normal" in2="effect1_innerShadow_1488_3490" result="effect2_innerShadow_1488_3490"/>
</filter>
<filter id="filter2_ii_1488_3490" x="-0.256173" y="157.916" width="3.60348" height="40.8257" filterUnits="userSpaceOnUse" color-interpolation-filters="sRGB">
<feFlood flood-opacity="0" result="BackgroundImageFix"/>
<feBlend mode="normal" in="SourceGraphic" in2="BackgroundImageFix" result="shape"/>
<feColorMatrix in="SourceAlpha" type="matrix" values="0 0 0 0 0 0 0 0 0 0 0 0 0 0 0 0 0 0 127 0" result="hardAlpha"/>
<feOffset dx="-0.256173"/>
<feGaussianBlur stdDeviation="0.640434"/>
<feComposite in2="hardAlpha" operator="arithmetic" k2="-1" k3="1"/>
<feColorMatrix type="matrix" values="0 0 0 0 0 0 0 0 0 0 0 0 0 0 0 0 0 0 0.2 0"/>
<feBlend mode="normal" in2="shape" result="effect1_innerShadow_1488_3490"/>
<feColorMatrix in="SourceAlpha" type="matrix" values="0 0 0 0 0 0 0 0 0 0 0 0 0 0 0 0 0 0 127 0" result="hardAlpha"/>
<feOffset dx="0.512347"/>
<feGaussianBlur stdDeviation="0.256173"/>
<feComposite in2="hardAlpha" operator="arithmetic" k2="-1" k3="1"/>
<feColorMatrix type="matrix" values="0 0 0 0 1 0 0 0 0 1 0 0 0 0 1 0 0 0 1 0"/>
<feBlend mode="normal" in2="effect1_innerShadow_1488_3490" result="effect2_innerShadow_1488_3490"/>
</filter>
<filter id="filter3_ii_1488_3490" x="-0.256173" y="115.956" width="3.60348" height="20.98" filterUnits="userSpaceOnUse" color-interpolation-filters="sRGB">
<feFlood flood-opacity="0" result="BackgroundImageFix"/>
<feBlend mode="normal" in="SourceGraphic" in2="BackgroundImageFix" result="shape"/>
<feColorMatrix in="SourceAlpha" type="matrix" values="0 0 0 0 0 0 0 0 0 0 0 0 0 0 0 0 0 0 127 0" result="hardAlpha"/>
<feOffset dx="-0.256173"/>
<feGaussianBlur stdDeviation="0.640434"/>
<feComposite in2="hardAlpha" operator="arithmetic" k2="-1" k3="1"/>
<feColorMatrix type="matrix" values="0 0 0 0 0 0 0 0 0 0 0 0 0 0 0 0 0 0 0.2 0"/>
<feBlend mode="normal" in2="shape" result="effect1_innerShadow_1488_3490"/>
<feColorMatrix in="SourceAlpha" type="matrix" values="0 0 0 0 0 0 0 0 0 0 0 0 0 0 0 0 0 0 127 0" result="hardAlpha"/>
<feOffset dx="0.512347"/>
<feGaussianBlur stdDeviation="0.256173"/>
<feComposite in2="hardAlpha" operator="arithmetic" k2="-1" k3="1"/>
<feColorMatrix type="matrix" values="0 0 0 0 1 0 0 0 0 1 0 0 0 0 1 0 0 0 1 0"/>
<feBlend mode="normal" in2="effect1_innerShadow_1488_3490" result="effect2_innerShadow_1488_3490"/>
</filter>
<filter id="filter4_ii_1488_3490" x="283.567" y="172.092" width="3.60348" height="68.3264" filterUnits="userSpaceOnUse" color-interpolation-filters="sRGB">
<feFlood flood-opacity="0" result="BackgroundImageFix"/>
<feBlend mode="normal" in="SourceGraphic" in2="BackgroundImageFix" result="shape"/>
<feColorMatrix in="SourceAlpha" type="matrix" values="0 0 0 0 0 0 0 0 0 0 0 0 0 0 0 0 0 0 127 0" result="hardAlpha"/>
<feOffset dx="0.256173"/>
<feGaussianBlur stdDeviation="0.640434"/>
<feComposite in2="hardAlpha" operator="arithmetic" k2="-1" k3="1"/>
<feColorMatrix type="matrix" values="0 0 0 0 0 0 0 0 0 0 0 0 0 0 0 0 0 0 0.3 0"/>
<feBlend mode="normal" in2="shape" result="effect1_innerShadow_1488_3490"/>
<feColorMatrix in="SourceAlpha" type="matrix" values="0 0 0 0 0 0 0 0 0 0 0 0 0 0 0 0 0 0 127 0" result="hardAlpha"/>
<feOffset dx="-0.512347"/>
<feGaussianBlur stdDeviation="0.256173"/>
<feComposite in2="hardAlpha" operator="arithmetic" k2="-1" k3="1"/>
<feColorMatrix type="matrix" values="0 0 0 0 1 0 0 0 0 1 0 0 0 0 1 0 0 0 1 0"/>
<feBlend mode="normal" in2="effect1_innerShadow_1488_3490" result="effect2_innerShadow_1488_3490"/>
</filter>
<linearGradient id="paint0_linear_1488_3490" x1="53.2564" y1="133.27" x2="53.2564" y2="141.661" gradientUnits="userSpaceOnUse">
<stop stop-color="white"/>
<stop offset="1" stop-color="white" stop-opacity="0.75"/>
</linearGradient>
<linearGradient id="paint1_linear_1488_3490" x1="41.0123" y1="133.431" x2="41.0123" y2="137.855" gradientUnits="userSpaceOnUse">
<stop stop-color="white"/>
<stop offset="1" stop-color="white" stop-opacity="0.75"/>
</linearGradient>
</defs>
</svg>
