<svg width="112" height="53" viewBox="0 0 112 53" fill="none" xmlns="http://www.w3.org/2000/svg">
<path d="M4.77539 41.5059C4.36523 41.5059 3.99805 41.5801 3.67383 41.7285C3.35352 41.877 3.08203 42.0918 2.85938 42.373C2.63672 42.6504 2.4668 42.9883 2.34961 43.3867C2.23242 43.7812 2.17383 44.2266 2.17383 44.7227C2.17383 45.3867 2.26758 45.959 2.45508 46.4395C2.64258 46.916 2.92773 47.2832 3.31055 47.541C3.69336 47.7949 4.17773 47.9219 4.76367 47.9219C5.12695 47.9219 5.48047 47.8867 5.82422 47.8164C6.16797 47.7461 6.52344 47.6504 6.89062 47.5293V48.7246C6.54297 48.8613 6.19141 48.9609 5.83594 49.0234C5.48047 49.0859 5.07031 49.1172 4.60547 49.1172C3.73047 49.1172 3.00391 48.9355 2.42578 48.5723C1.85156 48.209 1.42188 47.6973 1.13672 47.0371C0.855469 46.377 0.714844 45.6035 0.714844 44.7168C0.714844 44.0684 0.804688 43.4746 0.984375 42.9355C1.16406 42.3965 1.42578 41.9316 1.76953 41.541C2.11328 41.1465 2.53711 40.8438 3.04102 40.6328C3.54883 40.418 4.12891 40.3105 4.78125 40.3105C5.21094 40.3105 5.63281 40.3594 6.04688 40.457C6.46484 40.5508 6.85156 40.6855 7.20703 40.8613L6.71484 42.0215C6.41797 41.8809 6.10742 41.7598 5.7832 41.6582C5.45898 41.5566 5.12305 41.5059 4.77539 41.5059ZM14.0041 42.5137V49H12.9202L12.7327 48.127H12.6565C12.5198 48.3496 12.3459 48.5352 12.135 48.6836C11.9241 48.8281 11.6897 48.9355 11.4319 49.0059C11.1741 49.0801 10.9026 49.1172 10.6174 49.1172C10.1291 49.1172 9.71117 49.0352 9.36352 48.8711C9.01977 48.7031 8.75609 48.4453 8.5725 48.0977C8.38891 47.75 8.29711 47.3008 8.29711 46.75V42.5137H9.67992V46.4922C9.67992 46.9961 9.78148 47.373 9.98461 47.623C10.1916 47.873 10.512 47.998 10.9455 47.998C11.3635 47.998 11.6955 47.9121 11.9416 47.7402C12.1877 47.5684 12.3616 47.3145 12.4631 46.9785C12.5686 46.6426 12.6213 46.2305 12.6213 45.7422V42.5137H14.0041ZM20.0805 49H15.1528V48.1504L18.4282 43.5742H15.352V42.5137H19.9868V43.4512L16.7759 47.9395H20.0805V49ZM23.655 48.0039C23.8347 48.0039 24.0124 47.9883 24.1882 47.957C24.364 47.9219 24.5241 47.8809 24.6687 47.834V48.877C24.5163 48.9434 24.3191 49 24.0769 49.0469C23.8347 49.0938 23.5827 49.1172 23.321 49.1172C22.9538 49.1172 22.6238 49.0566 22.3308 48.9355C22.0378 48.8105 21.8054 48.5977 21.6335 48.2969C21.4616 47.9961 21.3757 47.5801 21.3757 47.0488V43.5625H20.4909V42.9473L21.4402 42.4609L21.8913 41.0723H22.7585V42.5137H24.6159V43.5625H22.7585V47.0312C22.7585 47.3594 22.8405 47.6035 23.0046 47.7637C23.1687 47.9238 23.3855 48.0039 23.655 48.0039ZM31.4892 45.7422C31.4892 46.2812 31.4189 46.7598 31.2783 47.1777C31.1377 47.5957 30.9326 47.9492 30.663 48.2383C30.3935 48.5234 30.0693 48.7422 29.6904 48.8945C29.3115 49.043 28.8838 49.1172 28.4072 49.1172C27.9619 49.1172 27.5537 49.043 27.1826 48.8945C26.8115 48.7422 26.4892 48.5234 26.2158 48.2383C25.9463 47.9492 25.7373 47.5957 25.5888 47.1777C25.4404 46.7598 25.3662 46.2812 25.3662 45.7422C25.3662 45.0273 25.4892 44.4219 25.7353 43.9258C25.9853 43.4258 26.3408 43.0449 26.8017 42.7832C27.2627 42.5215 27.8115 42.3906 28.4482 42.3906C29.0459 42.3906 29.5732 42.5215 30.0302 42.7832C30.4873 43.0449 30.8447 43.4258 31.1025 43.9258C31.3603 44.4258 31.4892 45.0312 31.4892 45.7422ZM26.7841 45.7422C26.7841 46.2148 26.8408 46.6191 26.9541 46.9551C27.0713 47.291 27.2509 47.5488 27.4931 47.7285C27.7353 47.9043 28.0478 47.9922 28.4306 47.9922C28.8134 47.9922 29.1259 47.9043 29.3681 47.7285C29.6103 47.5488 29.788 47.291 29.9013 46.9551C30.0146 46.6191 30.0713 46.2148 30.0713 45.7422C30.0713 45.2695 30.0146 44.8691 29.9013 44.541C29.788 44.209 29.6103 43.957 29.3681 43.7852C29.1259 43.6094 28.8115 43.5215 28.4248 43.5215C27.8545 43.5215 27.4384 43.7129 27.1767 44.0957C26.915 44.4785 26.7841 45.0273 26.7841 45.7422ZM40.1613 42.3906C40.8879 42.3906 41.4348 42.5781 41.802 42.9531C42.173 43.3281 42.3586 43.9297 42.3586 44.7578V49H40.9816V45.0039C40.9816 44.5117 40.8859 44.1406 40.6945 43.8906C40.5031 43.6406 40.2121 43.5156 39.8215 43.5156C39.2746 43.5156 38.8801 43.6914 38.6379 44.043C38.3996 44.3906 38.2805 44.8965 38.2805 45.5605V49H36.9035V45.0039C36.9035 44.6758 36.8605 44.4023 36.7746 44.1836C36.6926 43.9609 36.5656 43.7949 36.3937 43.6855C36.2219 43.5723 36.0051 43.5156 35.7434 43.5156C35.3645 43.5156 35.0617 43.6016 34.8352 43.7734C34.6125 43.9453 34.4523 44.1992 34.3547 44.5352C34.257 44.8672 34.2082 45.2754 34.2082 45.7598V49H32.8312V42.5137H33.9035L34.0969 43.3867H34.173C34.3059 43.1602 34.4699 42.9746 34.6652 42.8301C34.8645 42.6816 35.0852 42.5723 35.3273 42.502C35.5695 42.4277 35.8215 42.3906 36.0832 42.3906C36.5676 42.3906 36.9758 42.4766 37.3078 42.6484C37.6398 42.8164 37.8879 43.0742 38.052 43.4219H38.1574C38.3605 43.0703 38.6437 42.8105 39.007 42.6426C39.3703 42.4746 39.7551 42.3906 40.1613 42.3906ZM45.4174 42.5137V49H44.0405V42.5137H45.4174ZM44.7377 40.0293C44.9487 40.0293 45.1303 40.0859 45.2827 40.1992C45.4389 40.3125 45.517 40.5078 45.517 40.7852C45.517 41.0586 45.4389 41.2539 45.2827 41.3711C45.1303 41.4844 44.9487 41.541 44.7377 41.541C44.519 41.541 44.3334 41.4844 44.1811 41.3711C44.0327 41.2539 43.9584 41.0586 43.9584 40.7852C43.9584 40.5078 44.0327 40.3125 44.1811 40.1992C44.3334 40.0859 44.519 40.0293 44.7377 40.0293ZM51.4938 49H46.5661V48.1504L49.8415 43.5742H46.7653V42.5137H51.4001V43.4512L48.1891 47.9395H51.4938V49ZM55.2382 42.3906C55.8163 42.3906 56.3124 42.5098 56.7265 42.748C57.1405 42.9863 57.4589 43.3242 57.6816 43.7617C57.9042 44.1992 58.0155 44.7227 58.0155 45.332V46.0703H53.6855C53.7011 46.6992 53.8691 47.1836 54.1894 47.5234C54.5136 47.8633 54.9667 48.0332 55.5488 48.0332C55.9628 48.0332 56.3339 47.9941 56.662 47.916C56.9941 47.834 57.3359 47.7148 57.6874 47.5586V48.6777C57.3632 48.8301 57.0331 48.9414 56.6972 49.0117C56.3613 49.082 55.9589 49.1172 55.4902 49.1172C54.8534 49.1172 54.2929 48.9941 53.8085 48.748C53.328 48.498 52.9511 48.127 52.6777 47.6348C52.4081 47.1426 52.2734 46.5312 52.2734 45.8008C52.2734 45.0742 52.3964 44.457 52.6425 43.9492C52.8886 43.4414 53.2343 43.0547 53.6796 42.7891C54.1249 42.5234 54.6445 42.3906 55.2382 42.3906ZM55.2382 43.4277C54.8046 43.4277 54.453 43.5684 54.1835 43.8496C53.9179 44.1309 53.7616 44.543 53.7148 45.0859H56.6679C56.664 44.7617 56.6093 44.4746 56.5038 44.2246C56.4023 43.9746 56.246 43.7793 56.0351 43.6387C55.828 43.498 55.5624 43.4277 55.2382 43.4277ZM61.227 42.5137H62.727L64.057 46.2168C64.1156 46.3848 64.1684 46.5508 64.2152 46.7148C64.266 46.875 64.309 47.0332 64.3441 47.1895C64.3832 47.3457 64.4145 47.502 64.4379 47.6582H64.473C64.5121 47.4551 64.5668 47.2285 64.6371 46.9785C64.7113 46.7246 64.7934 46.4707 64.8832 46.2168L66.1605 42.5137H67.643L64.8598 49.8906C64.6996 50.3125 64.5023 50.6719 64.268 50.9688C64.0375 51.2695 63.7641 51.4961 63.4477 51.6484C63.1312 51.8047 62.7699 51.8828 62.3637 51.8828C62.1684 51.8828 61.9984 51.8711 61.8539 51.8477C61.7094 51.8281 61.5863 51.8066 61.4848 51.7832V50.6816C61.5668 50.7012 61.6703 50.7188 61.7953 50.7344C61.9203 50.75 62.0492 50.7578 62.182 50.7578C62.4281 50.7578 62.641 50.709 62.8207 50.6113C63.0004 50.5137 63.1527 50.375 63.2777 50.1953C63.4027 50.0195 63.5062 49.8184 63.5883 49.5918L63.8168 48.9824L61.227 42.5137ZM74.1295 45.7422C74.1295 46.2812 74.0592 46.7598 73.9186 47.1777C73.778 47.5957 73.5729 47.9492 73.3034 48.2383C73.0338 48.5234 72.7096 48.7422 72.3307 48.8945C71.9518 49.043 71.5241 49.1172 71.0475 49.1172C70.6022 49.1172 70.194 49.043 69.8229 48.8945C69.4518 48.7422 69.1295 48.5234 68.8561 48.2383C68.5866 47.9492 68.3776 47.5957 68.2291 47.1777C68.0807 46.7598 68.0065 46.2812 68.0065 45.7422C68.0065 45.0273 68.1295 44.4219 68.3756 43.9258C68.6256 43.4258 68.9811 43.0449 69.442 42.7832C69.903 42.5215 70.4518 42.3906 71.0885 42.3906C71.6862 42.3906 72.2135 42.5215 72.6705 42.7832C73.1276 43.0449 73.485 43.4258 73.7428 43.9258C74.0006 44.4258 74.1295 45.0312 74.1295 45.7422ZM69.4245 45.7422C69.4245 46.2148 69.4811 46.6191 69.5944 46.9551C69.7116 47.291 69.8913 47.5488 70.1334 47.7285C70.3756 47.9043 70.6881 47.9922 71.0709 47.9922C71.4538 47.9922 71.7663 47.9043 72.0084 47.7285C72.2506 47.5488 72.4284 47.291 72.5416 46.9551C72.6549 46.6191 72.7116 46.2148 72.7116 45.7422C72.7116 45.2695 72.6549 44.8691 72.5416 44.541C72.4284 44.209 72.2506 43.957 72.0084 43.7852C71.7663 43.6094 71.4518 43.5215 71.0651 43.5215C70.4948 43.5215 70.0788 43.7129 69.817 44.0957C69.5553 44.4785 69.4245 45.0273 69.4245 45.7422ZM81.1259 42.5137V49H80.0419L79.8544 48.127H79.7782C79.6415 48.3496 79.4677 48.5352 79.2567 48.6836C79.0458 48.8281 78.8114 48.9355 78.5536 49.0059C78.2958 49.0801 78.0243 49.1172 77.7391 49.1172C77.2509 49.1172 76.8329 49.0352 76.4852 48.8711C76.1415 48.7031 75.8778 48.4453 75.6942 48.0977C75.5106 47.75 75.4188 47.3008 75.4188 46.75V42.5137H76.8016V46.4922C76.8016 46.9961 76.9032 47.373 77.1063 47.623C77.3134 47.873 77.6337 47.998 78.0673 47.998C78.4852 47.998 78.8173 47.9121 79.0634 47.7402C79.3095 47.5684 79.4833 47.3145 79.5848 46.9785C79.6903 46.6426 79.743 46.2305 79.743 45.7422V42.5137H81.1259ZM87.1205 49H85.7377V39.8828H87.1205V49ZM90.2262 42.5137V49H88.8492V42.5137H90.2262ZM89.5465 40.0293C89.7574 40.0293 89.9391 40.0859 90.0914 40.1992C90.2477 40.3125 90.3258 40.5078 90.3258 40.7852C90.3258 41.0586 90.2477 41.2539 90.0914 41.3711C89.9391 41.4844 89.7574 41.541 89.5465 41.541C89.3277 41.541 89.1422 41.4844 88.9898 41.3711C88.8414 41.2539 88.7672 41.0586 88.7672 40.7852C88.7672 40.5078 88.8414 40.3125 88.9898 40.1992C89.1422 40.0859 89.3277 40.0293 89.5465 40.0293ZM95.3416 42.3906C96.0721 42.3906 96.6405 42.5801 97.0467 42.959C97.4569 43.334 97.662 43.9375 97.662 44.7695V49H96.285V45.0273C96.285 44.5234 96.1815 44.1465 95.9745 43.8965C95.7674 43.6426 95.4471 43.5156 95.0135 43.5156C94.3846 43.5156 93.9471 43.709 93.701 44.0957C93.4588 44.4824 93.3377 45.043 93.3377 45.7773V49H91.9608V42.5137H93.0331L93.2264 43.3926H93.3026C93.4432 43.166 93.617 42.9805 93.8241 42.8359C94.035 42.6875 94.2694 42.5762 94.5272 42.502C94.7889 42.4277 95.0604 42.3906 95.3416 42.3906ZM100.727 39.8828V44.2891C100.727 44.4883 100.719 44.707 100.703 44.9453C100.688 45.1797 100.672 45.4004 100.656 45.6074H100.686C100.787 45.4707 100.908 45.3105 101.049 45.127C101.193 44.9434 101.33 44.7832 101.459 44.6465L103.44 42.5137H105.022L102.426 45.3027L105.191 49H103.574L101.5 46.1523L100.727 46.8145V49H99.3497V39.8828H100.727ZM110.055 46.3867H109.018L108.737 40.4336H110.336L110.055 46.3867ZM108.667 48.2734C108.667 47.9531 108.749 47.7285 108.913 47.5996C109.081 47.4668 109.286 47.4004 109.528 47.4004C109.766 47.4004 109.969 47.4668 110.137 47.5996C110.305 47.7285 110.389 47.9531 110.389 48.2734C110.389 48.5859 110.305 48.8125 110.137 48.9531C109.969 49.0898 109.766 49.1582 109.528 49.1582C109.286 49.1582 109.081 49.0898 108.913 48.9531C108.749 48.8125 108.667 48.5859 108.667 48.2734Z" fill="#ACB9C9"/>
<path d="M30.0417 31.926C30.9396 27.531 32.6954 23.3136 35.1647 19.5587C37.6475 15.7731 40.813 12.4364 44.4775 9.79793C46.5277 8.31806 48.7385 7.05615 51.0607 6.08218C51.7609 5.78606 51.3328 4.67859 50.6326 4.97471C46.3291 6.81638 42.4345 9.51834 39.1019 12.8178C35.8135 16.1001 33.1264 20.0156 31.2291 24.2623C30.1693 26.6577 29.3773 29.1533 28.8445 31.7269C28.7299 32.484 29.8963 32.6696 30.0417 31.926Z" fill="#ACB9C9"/>
<path d="M41.8403 4.88545C45.2146 4.06486 48.8378 4.21735 52.1454 5.33193C52.1142 4.98759 52.0608 4.65181 52.0295 4.30748C49.7448 6.23442 47.7385 8.48654 46.1349 10.9903C45.9598 11.2617 45.9689 11.6146 46.2267 11.8204C46.4538 12.0127 46.8817 12.0001 47.0568 11.7287C48.6196 9.31705 50.5237 7.12989 52.7284 5.25934C53.0314 4.98946 53.0781 4.38585 52.6124 4.2349C48.9927 3.03731 45.1138 2.88183 41.3901 3.78655C41.085 3.85355 40.9477 4.28853 41.0504 4.55432C41.201 4.878 41.5131 4.96101 41.8403 4.88545Z" fill="#ACB9C9"/>
</svg>
