<svg width="143" height="149" viewBox="0 0 143 149" fill="none" xmlns="http://www.w3.org/2000/svg">
<path d="M40.6831 120.606L39.9509 122.198H29.573L30.146 120.606H40.6831ZM39.3143 123.79L38.5821 125.381H29.573L30.146 123.79H39.3143ZM42.5613 116.309L41.7973 117.964C41.4578 117.656 41.0996 117.391 40.7229 117.168C40.3462 116.945 39.9509 116.773 39.5371 116.651C39.1233 116.529 38.6882 116.468 38.2319 116.468C37.3299 116.468 36.5182 116.717 35.7966 117.216C35.075 117.715 34.5047 118.449 34.0855 119.42C33.6664 120.391 33.4568 121.582 33.4568 122.994C33.4568 124.405 33.6664 125.596 34.0855 126.567C34.5047 127.538 35.075 128.273 35.7966 128.772C36.5182 129.27 37.3299 129.52 38.2319 129.52C38.6988 129.52 39.1392 129.459 39.553 129.337C39.9722 129.215 40.3621 129.048 40.7229 128.835C41.089 128.623 41.4259 128.384 41.7336 128.119L42.5295 129.774C41.9724 130.3 41.3198 130.698 40.5717 130.968C39.8236 131.233 39.0437 131.366 38.2319 131.366C36.9267 131.366 35.7701 131.027 34.762 130.347C33.7592 129.668 32.9713 128.703 32.3983 127.45C31.8306 126.198 31.5467 124.713 31.5467 122.994C31.5467 121.275 31.8306 119.789 32.3983 118.537C32.9713 117.285 33.7592 116.319 34.762 115.64C35.7701 114.961 36.9267 114.621 38.2319 114.621C39.0755 114.621 39.8634 114.767 40.5956 115.059C41.3331 115.351 41.9883 115.767 42.5613 116.309Z" fill="white"/>
<g opacity="0.15">
<path d="M72.409 148.417L1.91486 107.755C-0.636805 106.282 -0.639029 102.6 1.91264 101.126L59.496 67.8516C62.3214 66.2191 65.8034 66.218 68.63 67.8483L136.47 106.979C139.022 108.451 139.024 112.134 136.472 113.608L76.236 148.416C75.052 149.1 73.5931 149.1 72.409 148.417Z" fill="#6BE6FB"/>
</g>
<g style="mix-blend-mode:multiply" opacity="0.15">
<path d="M69.2996 133.278L28.1891 109.691C25.3626 108.061 25.3614 103.983 28.1858 102.351L91.9463 65.5069C95.0744 63.6986 98.9303 63.6975 102.061 65.5024L140.232 87.3936C143.059 89.0239 143.06 93.1012 140.236 94.7337L73.5371 133.275C72.2263 134.033 70.6105 134.033 69.2996 133.276V133.278Z" fill="#0878FF"/>
</g>
<path d="M53.2583 77.2014V4.92231C53.2583 1.13876 57.3534 -1.22596 60.6307 0.665814L94.667 20.318C97.5837 22.0017 99.3809 25.1142 99.3809 28.4827V98.1556C99.3809 101.939 95.2857 104.304 92.0085 102.412L55.7154 81.4568C54.1953 80.5788 53.2583 78.9563 53.2583 77.2003V77.2014Z" fill="url(#paint0_linear_1587_3404)"/>
<path d="M96.6012 102.578L93.0469 104.243L93.2149 101.947L96.6012 102.578Z" fill="#0878FF"/>
<path d="M49.6973 76.9677V6.5826C49.6973 2.80351 53.7879 0.442129 57.0607 2.33168L90.889 21.8648C93.9392 23.6264 95.8187 26.8813 95.8187 30.4034V99.8359C95.8187 103.615 91.728 105.976 88.4553 104.087L53.8013 84.0775C51.2619 82.6108 49.6973 79.9011 49.6973 76.9677Z" fill="url(#paint1_linear_1587_3404)"/>
<path d="M52.4238 76.5749V8.70922C52.4238 6.55482 54.7563 5.20833 56.6225 6.28553L87.5029 24.1161C90.3116 25.7374 92.0409 28.7342 92.0409 31.9769V98.1378C92.0409 100.292 89.7085 101.639 87.8423 100.562L55.4852 81.8786C53.5901 80.7847 52.4238 78.7627 52.4238 76.5749Z" fill="url(#paint2_linear_1587_3404)"/>
<path d="M64.5869 15.7466V10.8926C64.5869 9.68071 65.8989 8.92289 66.9494 9.52937L78.1988 16.0248C79.237 16.6246 79.8769 17.7319 79.8769 18.9315V23.7767C79.8769 24.9885 78.5649 25.7463 77.5144 25.1398L66.2572 18.6399C65.2234 18.0435 64.5869 16.9407 64.5869 15.7466Z" fill="#0878FF"/>
<path d="M66.9482 16.5512V16.5011C66.9482 16.1539 67.3244 15.9369 67.6248 16.1105L70.8442 17.97C71.1413 18.1414 71.3249 18.4585 71.3249 18.8024V18.8502C71.3249 19.1974 70.9488 19.4144 70.6483 19.2408L67.4268 17.3802C67.1307 17.21 66.9482 16.8939 66.9482 16.5523V16.5512Z" fill="#0516B1"/>
<path d="M72.3921 19.726V19.6759C72.3921 19.3287 72.7682 19.1117 73.0687 19.2853L76.288 21.1448C76.5852 21.3162 76.7688 21.6334 76.7688 21.9772V22.0251C76.7688 22.3723 76.3926 22.5893 76.0922 22.4157L72.8706 20.5551C72.5746 20.3848 72.3921 20.0688 72.3921 19.7271V19.726Z" fill="#0516B1"/>
<path d="M70.8545 65.4792V39.475C70.8545 37.3997 73.1012 36.1021 74.8984 37.1404L115.473 60.5683C117.463 61.7179 118.69 63.8422 118.69 66.1413V89.9865C118.69 92.0619 116.443 93.3595 114.646 92.3212L72.2021 67.8138C71.3675 67.332 70.8545 66.4417 70.8545 65.4792Z" fill="#4095FC"/>
<path d="M117.754 92.0308C117.754 92.0308 116.828 93.1736 114.399 93.6833L116.077 91.8572L117.755 92.0319L117.754 92.0308Z" fill="#4095FC"/>
<path d="M70.259 38.2643L72.2988 37.0881L71.8826 38.3233L70.259 38.2643Z" fill="#4095FC"/>
<path d="M69.1007 66.4818V40.4777C69.1007 38.4023 71.3475 37.1048 73.1447 38.143L113.719 61.571C115.71 62.7205 116.936 64.8449 116.936 67.1439V90.9892C116.936 93.0646 114.689 94.3621 112.892 93.3239L70.4483 68.8165C69.6137 68.3346 69.1007 67.4444 69.1007 66.4818Z" fill="#6BE6FB"/>
<path d="M116.979 75.7737L69.1572 48.4632V42.1992L116.979 69.5097V75.7737Z" fill="#4095FC"/>
<path d="M26.0493 39.2413V15.81C26.0493 14.8697 27.0675 14.2821 27.8821 14.7517L46.2646 25.3657C47.1671 25.8865 47.7224 26.8491 47.7224 27.8907V50.3449C47.7224 51.2852 46.7041 51.8728 45.8896 51.4032L26.6602 40.2996C26.2819 40.0815 26.0493 39.6786 26.0493 39.2413Z" fill="#0516B1"/>
<path d="M47.4907 51.0304C47.4907 51.0304 47.0945 52.0208 45.2117 52.1198L46.103 51.0304H47.4896H47.4907Z" fill="#0516B1"/>
<path d="M25.3962 15.2636L26.5981 14.7974L26.449 15.2391L25.3962 15.2636Z" fill="#0516B1"/>
<path d="M24.6604 39.7944V16.3631C24.6604 15.4228 25.6786 14.8352 26.4932 15.3048L44.8757 25.9188C45.7782 26.4396 46.3335 27.4021 46.3335 28.4437V50.898C46.3335 51.8383 45.3152 52.4259 44.5007 51.9563L25.2713 40.8527C24.893 40.6345 24.6604 40.2317 24.6604 39.7944Z" fill="#4095FC"/>
<path d="M42.3506 36.062L35.7695 24.698C35.5336 24.2907 35.0117 24.1505 34.6033 24.3864L28.0455 28.1655C27.4757 28.4938 27.4746 29.3162 28.0455 29.6456L29.9695 30.7562V35.7115L28.0755 34.6187C27.7985 34.4585 27.4513 34.6577 27.449 34.977L27.4446 35.6447C27.4446 35.7938 27.5225 35.9329 27.6516 36.0086L41.3413 43.9963C41.6184 44.1577 41.9667 43.9596 41.969 43.6391L41.9756 42.8869C41.9767 42.7367 41.8966 42.5964 41.7664 42.5219L40.0215 41.5148V36.5595L41.1844 37.2305C41.9423 37.6678 42.7891 36.8198 42.3506 36.062ZM36.1312 34.3539V39.3092L33.7264 37.916V32.9606L36.1312 34.3539ZM31.3172 31.534L32.3777 32.1817V37.137L31.3172 36.4893V31.534ZM38.6728 40.7358L37.4799 40.0882V35.1328L38.6728 35.7805V40.7358Z" fill="#E8F2FF" stroke="#4095FC" stroke-width="0.222562" stroke-linecap="round" stroke-linejoin="round"/>
<path d="M27.449 37.4919L27.4446 38.1596C27.4446 38.3087 27.5225 38.4478 27.6516 38.5235L41.3413 46.5112C41.6184 46.6726 41.9667 46.4745 41.969 46.154L41.9756 45.4018C41.9767 45.2515 41.8966 45.1124 41.7664 45.0368L28.0744 37.1336C27.7973 36.9734 27.4501 37.1726 27.4479 37.4919H27.449Z" fill="#E8F2FF" stroke="#4095FC" stroke-width="0.333842" stroke-linecap="round" stroke-linejoin="round"/>
<path d="M26.0493 106.232V82.801C26.0493 81.8607 27.0675 81.2732 27.8821 81.7428L46.2646 92.3567C47.1671 92.8775 47.7224 93.8401 47.7224 94.8817V117.336C47.7224 118.276 46.7041 118.864 45.8896 118.394L26.6602 107.291C26.2819 107.072 26.0493 106.67 26.0493 106.232Z" fill="#0516B1"/>
<path d="M47.4907 118.021C47.4907 118.021 47.0945 119.012 45.2117 119.111L46.103 118.021H47.4896H47.4907Z" fill="#0516B1"/>
<path d="M25.3962 82.2547L26.5981 81.7884L26.449 82.2302L25.3962 82.2547Z" fill="#0516B1"/>
<path d="M24.6604 106.785V83.3541C24.6604 82.4138 25.6786 81.8263 26.4932 82.2959L44.8757 92.9098C45.7782 93.4306 46.3335 94.3932 46.3335 95.4348V117.889C46.3335 118.829 45.3152 119.417 44.5007 118.947L25.2713 107.844C24.893 107.626 24.6604 107.223 24.6604 106.785Z" fill="#4095FC"/>
<path d="M41.0097 101.542C40.8138 99.5688 39.484 97.9252 38.0719 96.6188L38.6772 94.1984L37.2072 92.9298L36.6419 95.3179C36.2591 94.9707 35.8707 94.6291 35.479 94.2919L36.0287 91.9138L34.591 90.6641L33.9934 93.07L33.0242 92.2955V92.2577L31.0289 90.5273L30.6416 92.113C31.553 92.5815 32.2018 93.3593 32.411 94.3097L31.7077 97.1596L31.8769 97.3321L31.8123 97.2942C31.7889 97.2464 31.7533 97.2052 31.7077 97.1774C31.3694 98.5217 31.0567 99.9249 30.6183 101.216L30.5626 101.242L30.4992 101.251C29.9706 100.975 29.4498 100.579 29.0258 100.133L28.2903 101.649L31.2381 104.218L30.6238 106.643L32.1105 107.92L32.6759 105.477C33.0642 105.831 33.457 106.179 33.8554 106.522L33.2734 108.938L34.7112 110.187L35.3255 107.771C39.6265 111.395 42.8358 107.352 39.1457 103.588C40.49 103.841 41.1288 102.938 41.0086 101.54L41.0097 101.542ZM33.161 103.753L33.9612 100.465C35.5057 101.733 37.4665 103.22 37.6902 105.338C36.9034 107.567 34.196 104.716 33.1622 103.753H33.161ZM34.3406 98.9868L35.0595 96.0535C36.4193 97.075 37.8638 98.3202 38.1453 100.064C37.5333 102.215 35.3744 100.073 34.3406 98.9868Z" fill="#E8F2FF" stroke="#4095FC" stroke-width="0.222562" stroke-linecap="round" stroke-linejoin="round"/>
<path d="M89.3749 88.0512C87.1037 86.0448 84.7935 85.3226 82.8316 85.7566C82.1717 85.9024 81.6999 86.0671 80.7918 86.3687L75.802 88.7879L78.7131 89.5368C78.4171 90.2157 78.1767 90.979 78.002 91.8248C76.6767 98.2568 79.6212 107.1 84.5453 111.479C85.8874 112.672 87.2439 113.413 88.5336 113.73L86.9913 115.706L92.1325 112.832C93.1908 112.227 93.7494 112.089 94.4004 111.169C95.077 110.213 95.5889 109.295 95.916 107.706C97.2469 101.252 94.3024 92.4079 89.3727 88.0512H89.3749Z" fill="url(#paint3_linear_1587_3404)"/>
<path d="M84.0033 90.3937C88.9331 94.7504 91.8776 103.595 90.5466 110.048C89.2157 116.501 84.099 118.199 79.1748 113.822C74.2507 109.444 71.3062 100.599 72.6315 94.1673C73.9569 87.7352 79.0747 86.0382 84.0033 90.3937Z" fill="#F6FB9B"/>
<path d="M83.5504 113.187C82.1817 113.187 80.7172 112.539 79.3106 111.288C75.5237 107.92 73.2714 101.157 74.2907 96.2093C74.7915 93.7778 76.0078 92.1253 77.7137 91.5555C79.4241 90.9858 81.3949 91.58 83.2633 93.2314C87.0546 96.5821 89.307 103.347 88.2832 108.31C87.7791 110.753 86.5606 112.411 84.8513 112.978C84.4318 113.117 83.9955 113.186 83.5504 113.186V113.187ZM79.0246 91.8003C78.6229 91.8003 78.2323 91.8627 77.8573 91.9873C76.3116 92.5025 75.2021 94.0348 74.7359 96.3016C73.7455 101.107 75.9332 107.678 79.6122 110.95C81.3504 112.495 83.1598 113.063 84.7088 112.549C86.2579 112.035 87.3696 110.498 87.8392 108.22C88.8329 103.398 86.6462 96.8269 82.9628 93.573C81.6431 92.4068 80.2821 91.8003 79.0246 91.8003Z" fill="#CEBD45"/>
<path d="M84.5297 106.553C84.5185 104.339 82.9628 102.603 81.7421 101.139V98.5773C82.4854 99.1727 83.1654 99.8748 83.7841 100.644L84.3839 99.0202C83.606 98.022 82.7169 97.1451 81.7432 96.424V95.1298L80.8685 94.5345V95.8632C79.2883 94.9462 77.9329 95.4525 78.1677 97.7104C78.3703 99.6601 79.7468 101.26 80.8685 102.583V105.275C79.8592 104.483 78.9378 103.49 78.1377 102.419V104.711C78.9356 105.73 79.8614 106.602 80.8685 107.316V109.061L81.7432 109.656V107.876C82.9183 108.573 84.6521 108.644 84.5308 106.552L84.5297 106.553ZM80.8674 100.057C80.4101 99.5399 79.4041 97.2976 80.8674 98.0165V100.057ZM81.7421 105.811V103.648C82.1727 104.157 82.5678 104.746 82.6067 105.475C82.4777 105.972 82.1583 106.057 81.7421 105.811Z" fill="#CEBD45"/>
<path d="M81.9091 109.972L80.7006 109.15V107.402C79.6846 106.672 78.7776 105.802 78.0053 104.813L77.9697 104.768V101.916L78.2702 102.319C79.0347 103.342 79.8515 104.218 80.7006 104.926L80.6961 102.64C79.5866 101.332 78.2056 99.7035 77.9998 97.7282C77.8562 96.3406 78.3002 95.743 78.6986 95.4848C79.2005 95.1599 79.9194 95.1988 80.6994 95.5838V94.2195L81.908 95.0419V96.3406C82.8639 97.0583 83.7396 97.9241 84.5141 98.9178L84.5709 98.9913L83.8376 100.979L83.6528 100.75C83.0964 100.057 82.51 99.4475 81.908 98.9334V101.08L82.066 101.268C83.2322 102.661 84.6833 104.394 84.6966 106.549C84.7556 107.597 84.3595 108.065 84.0167 108.273C83.398 108.649 82.5467 108.468 81.9091 108.157V109.974V109.972ZM81.0344 108.974L81.5752 109.341V107.584L81.8267 107.733C82.4399 108.096 83.3012 108.315 83.8431 107.986C84.2293 107.751 84.404 107.272 84.3639 106.562V106.553C84.3539 104.516 83.003 102.903 81.8111 101.481L81.5752 101.199V98.229L81.8467 98.446C82.4955 98.9657 83.1276 99.5933 83.7285 100.312L84.1948 99.0491C83.4347 98.0866 82.5768 97.2486 81.6431 96.5576L81.5752 96.5075V95.2177L81.0344 94.8505V96.1536L80.784 96.0078C80.0206 95.5649 79.3274 95.477 78.8811 95.7652C78.4282 96.0579 78.2335 96.7434 78.3325 97.6937C78.5272 99.5666 79.8715 101.151 80.9509 102.424L81.0344 102.522V105.618L80.764 105.407C79.906 104.733 79.0803 103.895 78.3036 102.911V104.653C79.067 105.619 79.9617 106.469 80.9643 107.18L81.0344 107.231V108.974ZM82.145 106.111C81.997 106.111 81.8334 106.059 81.6576 105.954L81.5752 105.905V103.192L81.8701 103.54C82.2685 104.011 82.7314 104.655 82.7737 105.466V105.491L82.7682 105.516C82.6936 105.802 82.5567 105.987 82.362 106.068C82.2941 106.095 82.2218 106.11 82.145 106.11V106.111ZM81.9091 105.712C82.0159 105.764 82.1394 105.799 82.2351 105.76C82.3431 105.716 82.4043 105.576 82.4388 105.458C82.4054 104.944 82.1795 104.506 81.9102 104.13V105.712H81.9091ZM81.0344 100.499L80.7428 100.17C80.4046 99.7869 79.6679 98.3648 80.0418 97.874C80.2065 97.6581 80.5092 97.6559 80.942 97.8684L81.0355 97.9141V100.499H81.0344ZM80.4023 98.0443C80.3522 98.0443 80.3211 98.0565 80.3066 98.0765C80.1631 98.2646 80.4157 98.9857 80.7006 99.5076V98.1244C80.5659 98.0665 80.468 98.0443 80.4023 98.0443Z" fill="#F6FB9B"/>
<path d="M26.0493 72.7368V49.3056C26.0493 48.3652 27.0675 47.7777 27.8821 48.2473L46.2646 58.8612C47.1671 59.382 47.7224 60.3446 47.7224 61.3862V83.8405C47.7224 84.7808 46.7041 85.3683 45.8896 84.8987L26.6602 73.7951C26.2819 73.577 26.0493 73.1742 26.0493 72.7368Z" fill="#0516B1"/>
<path d="M47.4907 84.5259C47.4907 84.5259 47.0945 85.5163 45.2117 85.6153L46.103 84.5259H47.4896H47.4907Z" fill="#0516B1"/>
<path d="M25.3962 48.7591L26.5981 48.2929L26.449 48.7347L25.3962 48.7591Z" fill="#0516B1"/>
<path d="M24.6604 73.2899V49.8586C24.6604 48.9183 25.6786 48.3307 26.4932 48.8003L44.8757 59.4143C45.7782 59.9351 46.3335 60.8977 46.3335 61.9393V84.3935C46.3335 85.3338 45.3152 85.9214 44.5007 85.4518L25.2713 74.3482C24.893 74.1301 24.6604 73.7273 24.6604 73.2899Z" fill="#4095FC"/>
<path d="M34.5109 57.3567L29.3586 59.4588C28.2492 59.9117 28.2191 61.0991 29.3052 61.582L34.4575 63.8767C35.5436 64.3607 36.9191 63.7732 36.9191 62.8262V58.4295C36.9191 57.5025 35.597 56.9127 34.5109 57.3567Z" fill="#E8F2FF"/>
<path d="M35.2923 64.2739C34.9762 64.2739 34.658 64.2105 34.3675 64.0803L29.2152 61.7857C28.6254 61.5231 28.2782 61.0479 28.286 60.5138C28.2949 59.9729 28.6644 59.5011 29.2753 59.2518L34.4276 57.1497C35.1086 56.8715 35.9243 56.945 36.5063 57.3367C36.917 57.6127 37.1429 57.9999 37.1429 58.4295V62.8262C37.1429 63.2579 36.9025 63.6619 36.483 63.9345C36.1369 64.1593 35.7174 64.2739 35.2934 64.2739H35.2923ZM35.2889 57.4302C35.0519 57.4302 34.8126 57.4736 34.5945 57.5626L29.4422 59.6647C29.0016 59.8439 28.7356 60.1643 28.73 60.5216C28.7245 60.871 28.9737 61.1915 29.3955 61.3795L34.5478 63.6741C35.0864 63.9145 35.7663 63.8689 36.2393 63.5617C36.4095 63.4505 36.6955 63.2079 36.6955 62.8273V58.4306C36.6955 58.1546 36.5397 57.8976 36.2559 57.7073C35.9844 57.5248 35.6383 57.4302 35.2878 57.4302H35.2889Z" fill="#4095FC"/>
<path d="M28.2749 68.9344V60.7408C28.2749 59.8049 29.2931 59.2263 30.0977 59.7036L40.5336 65.9031C40.8997 66.1201 41.1234 66.5151 41.1234 66.9402V74.9602C41.1234 75.8894 40.1174 76.4692 39.314 76.0052L28.878 69.9793C28.5053 69.7634 28.2749 69.3651 28.2749 68.9344Z" fill="#E8F2FF"/>
<path d="M39.9185 76.3913C39.6725 76.3913 39.4277 76.3268 39.2041 76.1977L28.7681 70.1718C28.3275 69.917 28.0537 69.4429 28.0537 68.9344V60.7408C28.0537 60.22 28.3241 59.7559 28.7759 59.4989C29.2277 59.2418 29.7652 59.2463 30.2126 59.5122L40.6485 65.7117C41.0802 65.9676 41.3473 66.4383 41.3473 66.9402V74.9602C41.3473 75.4766 41.0802 75.9395 40.6329 76.1977C40.4092 76.3268 40.1633 76.3913 39.9185 76.3913ZM29.4826 59.7548C29.3156 59.7548 29.1487 59.7982 28.9951 59.885C28.6836 60.062 28.4977 60.3824 28.4977 60.7397V68.9333C28.4977 69.2838 28.6858 69.6098 28.9896 69.7857L39.4255 75.8115C39.7337 75.9896 40.101 75.9896 40.4092 75.8115C40.7175 75.6335 40.9011 75.3152 40.9011 74.9591V66.9391C40.9011 66.5941 40.7164 66.2692 40.4192 66.0934L29.9833 59.8939C29.8264 59.8004 29.6539 59.7537 29.4814 59.7537L29.4826 59.7548Z" fill="#4095FC"/>
<path d="M39.6934 70.144L42.7303 71.9456C42.9907 72.1003 43.1509 72.3808 43.1509 72.6846V73.3956C43.1509 74.0522 42.4443 74.4662 41.8712 74.1434L38.841 72.4386C38.5728 72.2873 38.4059 72.0046 38.4037 71.6975L38.397 70.8896C38.3914 70.2208 39.1181 69.8024 39.6934 70.144Z" fill="#E8F2FF"/>
<path d="M42.2928 74.5329C42.1014 74.5329 41.91 74.484 41.7353 74.3849L38.7051 72.6801C38.3513 72.4809 38.1287 72.1048 38.1254 71.6986L38.1187 70.8907C38.1154 70.4745 38.3279 70.1028 38.6884 69.8959C39.049 69.6889 39.4774 69.6911 39.8346 69.9036L42.8715 71.7053C43.2153 71.9089 43.4279 72.2839 43.4279 72.6834V73.3945C43.4279 73.8029 43.2176 74.169 42.8648 74.376C42.6857 74.4806 42.4887 74.5329 42.2906 74.5329H42.2928ZM39.256 70.2998C39.1569 70.2998 39.0579 70.3254 38.9667 70.3777C38.783 70.4834 38.674 70.6737 38.6751 70.8851L38.6818 71.693C38.684 71.9 38.7964 72.0925 38.9778 72.1938L42.008 73.8986C42.1893 74.001 42.4052 73.9988 42.5855 73.8942C42.7658 73.7885 42.8726 73.6015 42.8726 73.3934V72.6823C42.8726 72.4787 42.7636 72.2873 42.5888 72.1838L39.552 70.3822C39.4596 70.3276 39.3572 70.2998 39.256 70.2998Z" fill="#4095FC"/>
<path d="M35.7965 65.705C35.7576 65.705 35.7186 65.695 35.683 65.6739L29.3634 61.9415C29.2577 61.8792 29.2221 61.7423 29.2844 61.6366C29.3467 61.5309 29.4836 61.4953 29.5893 61.5576L35.9089 65.29C36.0146 65.3523 36.0502 65.4891 35.9879 65.5949C35.9468 65.665 35.8722 65.7039 35.7965 65.7039V65.705Z" fill="#4095FC"/>
<defs>
<linearGradient id="paint0_linear_1587_3404" x1="62.9909" y1="93.0856" x2="90.0856" y2="8.63129" gradientUnits="userSpaceOnUse">
<stop offset="0.1" stop-color="#0878FF"/>
<stop offset="0.76" stop-color="#0525BC"/>
<stop offset="0.88" stop-color="#0516B1"/>
</linearGradient>
<linearGradient id="paint1_linear_1587_3404" x1="51.6169" y1="86.4311" x2="96.8024" y2="15.4261" gradientUnits="userSpaceOnUse">
<stop stop-color="#0516B1"/>
<stop offset="0.45" stop-color="#0645D6"/>
<stop offset="0.9" stop-color="#0878FF"/>
</linearGradient>
<linearGradient id="paint2_linear_1587_3404" x1="61.56" y1="102.925" x2="81.23" y2="11.6838" gradientUnits="userSpaceOnUse">
<stop stop-color="#83BBFF"/>
<stop offset="0.04" stop-color="#92C3FF"/>
<stop offset="0.11" stop-color="#ACD1FF"/>
<stop offset="0.19" stop-color="#C2DDFF"/>
<stop offset="0.28" stop-color="#D3E6FF"/>
<stop offset="0.39" stop-color="#DFEDFF"/>
<stop offset="0.55" stop-color="#E6F0FF"/>
<stop offset="1" stop-color="#E8F2FF"/>
</linearGradient>
<linearGradient id="paint3_linear_1587_3404" x1="75.9022" y1="84.8942" x2="95.2016" y2="111.12" gradientUnits="userSpaceOnUse">
<stop offset="0.09" stop-color="#CEBD45"/>
<stop offset="0.53" stop-color="#F6FB9B"/>
<stop offset="0.82" stop-color="#CEBD45"/>
</linearGradient>
</defs>
</svg>
