<svg width="99" height="157" viewBox="0 0 99 157" fill="none" xmlns="http://www.w3.org/2000/svg">
<g style="mix-blend-mode:multiply" opacity="0.15">
<path d="M51.0919 156.046L5.24532 130.355C3.58583 129.424 3.58438 127.098 5.24387 126.166L42.6938 105.143C44.5313 104.112 46.7959 104.111 48.6341 105.141L92.7546 129.865C94.4141 130.795 94.4156 133.121 92.7561 134.053L53.5808 156.045C52.8108 156.477 51.8619 156.477 51.0919 156.046Z" fill="#6BE6FB"/>
<path d="M51.801 147.001L1.37006 117.853C-0.456028 116.797 -0.456817 114.157 1.36848 113.101L42.5632 89.2477C44.5842 88.0776 47.0751 88.076 49.0978 89.2453L97.6299 117.297C99.456 118.352 99.4568 120.992 97.6315 122.049L54.5389 147.001C53.6918 147.492 52.6481 147.492 51.801 147.002V147.001Z" fill="#0878FF"/>
</g>
<path d="M24.2457 102.299V31.118C24.2457 27.3926 28.2792 25.0632 31.5062 26.9269L65.025 46.2808C67.8979 47.9398 69.6674 51.0041 69.6674 54.3212V122.935C69.6674 126.66 65.6339 128.99 62.4069 127.126L26.6652 106.489C25.1679 105.624 24.2457 104.026 24.2457 102.298V102.299Z" fill="url(#paint0_linear_1587_3406)"/>
<path d="M26.7215 27.018L23.4229 28.5553L26.2435 28.7405L26.7215 27.018Z" fill="#0516B1"/>
<path d="M66.9297 127.29L63.4294 128.929L63.5952 126.667L66.9297 127.29Z" fill="#0878FF"/>
<path d="M20.7393 102.068V32.7525C20.7393 29.0312 24.7687 26.7048 27.9916 28.5655L61.3067 47.8017C64.3106 49.5365 66.161 52.742 66.161 56.2105V124.589C66.161 128.31 62.1316 130.636 58.9087 128.776L24.781 109.071C22.2796 107.627 20.7393 104.958 20.7393 102.069V102.068Z" fill="url(#paint1_linear_1587_3406)"/>
<path d="M23.4229 101.681V34.8466C23.4229 32.7249 25.7195 31.3985 27.5577 32.4598L57.9681 50.0196C60.7336 51.6162 62.4376 54.5668 62.4376 57.7611V122.916C62.4376 125.038 60.141 126.364 58.3028 125.303L26.438 106.904C24.5722 105.826 23.4229 103.836 23.4229 101.681Z" fill="url(#paint2_linear_1587_3406)"/>
<path d="M35.4026 41.7775V36.9969C35.4026 35.8035 36.6952 35.0574 37.7289 35.6541L48.807 42.0508C49.8295 42.6413 50.4599 43.7324 50.4599 44.9134V49.6849C50.4599 50.8782 49.1673 51.6244 48.1336 51.0277L37.0473 44.6269C36.03 44.0394 35.4026 42.9535 35.4026 41.7775Z" fill="#0878FF"/>
<path d="M37.7279 42.5697V42.5206C37.7279 42.1787 38.0974 41.9658 38.3942 42.1357L41.5649 43.9667C41.8576 44.1356 42.0377 44.4478 42.0377 44.7855V44.8326C42.0377 45.1744 41.6683 45.3873 41.3715 45.2174L38.1987 43.3854C37.907 43.2176 37.7279 42.9064 37.7279 42.5697Z" fill="#0516B1"/>
<path d="M43.089 45.6965V45.6473C43.089 45.3055 43.4585 45.0926 43.7553 45.2625L46.926 47.0935C47.2187 47.2624 47.3988 47.5745 47.3988 47.9123V47.9594C47.3988 48.3012 47.0294 48.5141 46.7326 48.3442L43.5598 46.5122C43.2681 46.3443 43.089 46.0332 43.089 45.6965Z" fill="#0516B1"/>
<path d="M28.2687 78.513V45.7056C28.2687 44.3894 29.6944 43.5665 30.8345 44.2246L56.5728 59.0854C57.8358 59.8142 58.6136 61.1621 58.6136 62.6205V94.0585C58.6136 95.3747 57.1879 96.1976 56.0478 95.5395L29.1243 79.994C28.5952 79.688 28.2687 79.124 28.2687 78.513Z" fill="#0878FF"/>
<path d="M58.29 95.0206C58.29 95.0206 57.7353 96.4074 55.0999 96.5466L56.3485 95.0206H58.291H58.29Z" fill="#0878FF"/>
<path d="M27.3547 44.9421L29.0373 44.2881L28.8285 44.9073L27.3547 44.9421Z" fill="#0878FF"/>
<path d="M26.3242 79.2878V46.4804C26.3242 45.1642 27.7499 44.3413 28.8901 44.9994L54.6284 59.8602C55.8913 60.5889 56.6692 61.9369 56.6692 63.3953V94.8333C56.6692 96.1495 55.2435 96.9724 54.1033 96.3143L27.1798 80.7688C26.6507 80.4627 26.3242 79.8988 26.3242 79.2878Z" fill="#5DE0EF"/>
<path d="M42.7543 93.73C41.3286 92.4701 39.8783 92.0178 38.6471 92.29C38.2325 92.3821 37.9368 92.4845 37.3667 92.6748L34.2349 94.1937L36.0618 94.6634C35.8755 95.0892 35.725 95.5682 35.6155 96.0994C34.7834 100.136 36.6318 105.687 39.7227 108.435C40.565 109.184 41.4166 109.649 42.2261 109.849L41.2579 111.088L44.4849 109.285C45.1492 108.905 45.4992 108.818 45.9086 108.241C46.3333 107.641 46.6547 107.065 46.8604 106.067C47.6956 102.016 45.8472 96.4658 42.7532 93.7311L42.7543 93.73Z" fill="url(#paint3_linear_1587_3406)"/>
<path d="M39.3828 95.1997C42.4768 97.9334 44.3242 103.485 43.49 107.536C42.6549 111.587 39.4432 112.652 36.3523 109.904C33.2614 107.156 31.4141 101.605 32.2451 97.568C33.0772 93.5314 36.2889 92.466 39.3828 95.1997Z" fill="#F6FB9B"/>
<path d="M39.0994 109.506C38.2407 109.506 37.3206 109.098 36.4384 108.313C34.0619 106.2 32.6485 101.955 33.2882 98.8504C33.6024 97.3244 34.3659 96.2866 35.4364 95.9294C36.51 95.5712 37.7464 95.9448 38.9193 96.9816C41.2989 99.0848 42.7123 103.33 42.0706 106.446C41.7543 107.979 40.9898 109.02 39.9172 109.376C39.6542 109.463 39.3799 109.507 39.1005 109.507L39.0994 109.506ZM36.2593 96.083C36.0075 96.083 35.7619 96.1219 35.5265 96.2007C34.5562 96.5241 33.8603 97.4861 33.5676 98.9088C32.9463 101.925 34.3188 106.049 36.6288 108.102C37.7198 109.072 38.8558 109.428 39.8271 109.106C40.7994 108.783 41.4974 107.818 41.7912 106.388C42.4155 103.362 41.042 99.2383 38.731 97.1955C37.902 96.4637 37.0484 96.083 36.2593 96.083Z" fill="#CEBD45"/>
<path d="M39.7136 105.341C39.7064 103.951 38.73 102.862 37.9635 101.943V100.335C38.4302 100.709 38.857 101.15 39.2448 101.632L39.6215 100.613C39.1333 99.9865 38.5755 99.4358 37.9635 98.9835V98.1718L37.4149 97.7983V98.6324C36.4231 98.0562 35.5726 98.3745 35.719 99.792C35.8459 101.015 36.7097 102.02 37.4149 102.851V104.541C36.7813 104.044 36.2031 103.42 35.7006 102.748V104.187C36.201 104.826 36.7824 105.374 37.4149 105.821V106.916L37.9635 107.29V106.172C38.7004 106.609 39.7893 106.654 39.7136 105.341ZM37.4149 101.265C37.1273 100.94 36.4958 99.5331 37.4149 99.9844V101.265ZM37.9635 104.876V103.518C38.2337 103.838 38.4824 104.207 38.5059 104.665C38.425 104.977 38.2244 105.03 37.9635 104.876Z" fill="#CEBD45" stroke="#F6FB9B" stroke-width="0.307042" stroke-miterlimit="10"/>
<path d="M40.358 18.0821L41.9065 16.9972L40.358 16.4834V18.0821Z" fill="#0878FF"/>
<path d="M7.44619 18.1589L6.28455 19.0114V17.2296L7.44619 18.1589Z" fill="#0878FF"/>
<path d="M7.02862 18.2684C6.5087 18.2684 6.07884 17.8559 6.06144 17.3329C6.04916 16.9573 6.04302 16.5796 6.04507 16.2112C6.05837 12.7508 6.66938 9.7152 7.86275 7.19029C9.0418 4.69506 10.7305 2.80266 12.8829 1.56528C15.0414 0.324832 17.5356 -0.181786 20.2959 0.0577065C23.09 0.301293 26.0325 1.30532 29.0435 3.0442C33.8088 5.7953 38.3418 10.1543 42.1552 15.6483C42.4602 16.0873 42.3507 16.6902 41.9116 16.9952C41.4726 17.3002 40.8687 17.1906 40.5648 16.7516C36.914 11.4909 32.595 7.3305 28.0753 4.72065C22.6714 1.60008 17.6185 1.07606 13.848 3.24378C10.0888 5.40433 8.00604 10.013 7.9825 16.2194C7.98148 16.5643 7.9866 16.9184 7.99785 17.2694C8.01525 17.8037 7.59665 18.251 7.0624 18.2694C7.05114 18.2694 7.0409 18.2694 7.02965 18.2694L7.02862 18.2684Z" fill="#0878FF"/>
<path d="M5.55706 19.3522C5.03714 19.3522 4.60729 18.9397 4.58989 18.4167C4.57761 18.0411 4.57146 17.6635 4.57351 17.295C4.58681 13.8347 5.19783 10.799 6.3912 8.27413C7.57024 5.77891 9.25897 3.8865 11.4113 2.64913C13.5698 1.40868 16.064 0.901034 18.8243 1.14155C21.6184 1.38514 24.5609 2.38916 27.572 4.12804C32.3373 6.87914 36.8702 11.2381 40.6837 16.7321C40.9887 17.1712 40.8792 17.774 40.4401 18.079C40.001 18.384 39.3972 18.2745 39.0932 17.8354C35.4425 12.5748 31.1234 8.41435 26.6038 5.80449C21.1998 2.68392 16.1469 2.15991 12.3765 4.32762C8.61725 6.48817 6.53448 11.0969 6.51094 17.3032C6.50992 17.6481 6.51504 18.0022 6.5263 18.3533C6.54369 18.8875 6.12509 19.3348 5.59084 19.3532C5.57958 19.3532 5.56935 19.3532 5.55809 19.3532L5.55706 19.3522Z" fill="#09D5E5"/>
<path d="M35.0502 21.8832L36.0931 21.1535L35.0502 20.8065V21.8832Z" fill="#0878FF"/>
<path d="M12.9791 21.8126L11.8953 22.6642V21.4647L12.9791 21.8126Z" fill="#0878FF"/>
<path d="M12.3549 22.0931C11.835 22.0931 11.4052 21.6806 11.3878 21.1576C11.3796 20.9007 11.3755 20.6418 11.3765 20.39C11.3949 15.6063 13.0867 12.0047 16.1418 10.2484C17.6535 9.3795 19.3954 9.02435 21.3216 9.1922C23.2508 9.36005 25.2773 10.0509 27.3468 11.2453C30.5973 13.1223 33.6872 16.0914 36.2827 19.8312C36.5877 20.2703 36.4782 20.8731 36.0391 21.1781C35.6001 21.4831 34.9972 21.3736 34.6922 20.9345C32.2584 17.4271 29.3835 14.6565 26.3786 12.9207C22.8394 10.8768 19.5469 10.5237 17.1069 11.9259C14.6751 13.3229 13.3283 16.332 13.3129 20.3962C13.3129 20.6244 13.316 20.8588 13.3231 21.0921C13.3405 21.6264 12.9219 22.0736 12.3877 22.0921C12.3764 22.0921 12.3662 22.0921 12.3549 22.0921V22.0931Z" fill="#0878FF"/>
<path d="M11.3631 22.8228C10.8432 22.8228 10.4133 22.4104 10.3959 21.8874C10.3877 21.6305 10.3837 21.3726 10.3847 21.1198C10.4031 16.3361 12.0949 12.7345 15.15 10.9782C16.6616 10.1093 18.4036 9.75412 20.3298 9.92197C22.259 10.0898 24.2855 10.7807 26.3549 11.9751C29.6055 13.8521 32.6954 16.8212 35.2909 20.561C35.5959 21 35.4864 21.6029 35.0473 21.9079C34.6082 22.2129 34.0054 22.1033 33.7004 21.6643C31.2666 18.1568 28.3917 15.3863 25.3867 13.6505C21.8476 11.6066 18.5551 11.2535 16.1151 12.6557C13.6833 14.0527 12.3364 17.0617 12.3211 21.1259C12.3211 21.3552 12.3242 21.5885 12.3313 21.8219C12.3487 22.3561 11.9301 22.8034 11.3959 22.8218C11.3846 22.8218 11.3744 22.8218 11.3631 22.8218V22.8228Z" fill="#09D5E5"/>
<path d="M30.0997 25.3006L30.6115 24.9424L30.0997 24.7725V25.3006Z" fill="#0878FF"/>
<path d="M19.2584 25.2976L18.7159 25.6855L18.7937 25.097L19.2584 25.2976Z" fill="#0878FF"/>
<path d="M18.9175 25.3661C18.3976 25.3661 17.9678 24.9537 17.9504 24.4307C17.9463 24.2986 17.9442 24.1666 17.9442 24.0356C17.9534 21.5066 18.8715 19.5886 20.5285 18.6358C22.1896 17.6809 24.3164 17.8549 26.5158 19.125C28.1728 20.0819 29.7428 21.5885 31.0569 23.4819C31.3619 23.921 31.2524 24.5238 30.8134 24.8288C30.3743 25.1338 29.7715 25.0243 29.4665 24.5852C28.314 22.9241 26.959 21.6161 25.5476 20.8014C23.9704 19.8905 22.5304 19.7176 21.4926 20.3143C20.4589 20.9079 19.8857 22.2322 19.8796 24.0428C19.8796 24.1492 19.8806 24.2577 19.8847 24.3662C19.9021 24.9004 19.4835 25.3477 18.9493 25.3661C18.938 25.3661 18.9278 25.3661 18.9165 25.3661H18.9175Z" fill="#0878FF"/>
<path d="M18.2266 25.8267C17.7067 25.8267 17.2768 25.4143 17.2594 24.8913C17.2553 24.7603 17.2533 24.6272 17.2533 24.4962C17.2625 21.9662 18.1806 20.0492 19.8376 19.0964C21.4987 18.1415 23.6254 18.3155 25.8249 19.5856C27.4819 20.5425 29.0519 22.0491 30.366 23.9425C30.671 24.3816 30.5615 24.9844 30.1224 25.2894C29.6834 25.5944 29.0806 25.4849 28.7756 25.0458C27.6231 23.3847 26.268 22.0767 24.8567 21.262C23.2795 20.3511 21.8395 20.1782 20.8017 20.7749C19.768 21.3685 19.1948 22.6928 19.1887 24.5034C19.1887 24.6098 19.1897 24.7193 19.1938 24.8268C19.2112 25.361 18.7926 25.8083 18.2583 25.8267C18.2471 25.8267 18.2369 25.8267 18.2256 25.8267H18.2266Z" fill="#09D5E5"/>
<path d="M31.0264 52.8972L31.0115 52.8887V52.9059V55.5679H31.0015L31.0165 55.5765L33.3506 56.9244L33.3656 56.933V56.9157V54.2374H33.3758L33.3606 54.2287L31.0264 52.8972Z" fill="#0753E2" stroke="#0753E2" stroke-width="0.02"/>
<path d="M31.0264 55.6025L31.0115 55.594V55.6112V58.2741H31.0015L31.0165 58.2828L33.3506 59.6306L33.3656 59.6392V59.6219V56.9426H33.3758L33.3606 56.934L31.0264 55.6025Z" fill="#0753E2" stroke="#0753E2" stroke-width="0.02"/>
<path d="M31.0264 58.3077L31.0115 58.2992V58.3164V60.9793H31.0015L31.0165 60.988L33.3506 62.3358L33.3656 62.3445V62.3272V59.6479H33.3758L33.3606 59.6392L31.0264 58.3077Z" fill="#0753E2" stroke="#0753E2" stroke-width="0.02"/>
<path d="M31.0264 63.7192L31.0115 63.7106V63.7278V66.3908H31.0015L31.0165 66.3994L33.3506 67.7472L33.3656 67.7559V67.7386V65.0593H33.3758L33.3606 65.0506L31.0264 63.7192Z" fill="#0753E2" stroke="#0753E2" stroke-width="0.02"/>
<path d="M31.0264 69.1306L31.0115 69.1221V69.1393V71.8013H31.0015L31.0165 71.8099L33.3506 73.1577L33.3656 73.1664V73.1491V70.4707H33.3758L33.3606 70.4621L31.0264 69.1306Z" fill="#0753E2" stroke="#0753E2" stroke-width="0.02"/>
<path d="M31.0264 71.8358L31.0115 71.8273V71.8445V74.5074H31.0015L31.0165 74.5161L33.3506 75.8639L33.3656 75.8725V75.8552V73.1759H33.3758L33.3606 73.1673L31.0264 71.8358Z" fill="#0753E2" stroke="#0753E2" stroke-width="0.02"/>
<path d="M31.0264 74.541L31.0115 74.5325V74.5497V77.2126H31.0015L31.0165 77.2213L33.3506 78.5691L33.3656 78.5778V78.5605V75.8812H33.3758L33.3606 75.8725L31.0264 74.541Z" fill="#0753E2" stroke="#0753E2" stroke-width="0.02"/>
<path d="M33.3568 56.9417L33.3418 56.9331V56.9503V59.6133H33.3318L33.3468 59.6219L35.681 60.9697L35.696 60.9784V60.9611V58.2818H35.7061L35.6909 58.2731L33.3568 56.9417Z" fill="#0753E2" stroke="#0753E2" stroke-width="0.02"/>
<path d="M33.3568 59.6479L33.3418 59.6393V59.6566V62.3185H33.3318L33.3468 62.3272L35.681 63.675L35.696 63.6837V63.6663V60.9871H35.7061L35.6909 60.9784L33.3568 59.6479Z" fill="#0753E2" stroke="#0753E2" stroke-width="0.02"/>
<path d="M33.3568 62.3531L33.3418 62.3446V62.3618V65.0247H33.3318L33.3468 65.0334L35.681 66.3812L35.696 66.3898V66.3725V63.6932H35.7061L35.6909 63.6846L33.3568 62.3531Z" fill="#0753E2" stroke="#0753E2" stroke-width="0.02"/>
<path d="M33.3568 65.0583L33.3418 65.0498V65.067V67.7299H33.3318L33.3468 67.7386L35.681 69.0864L35.696 69.0951V69.0778V66.3985H35.7061L35.6909 66.3898L33.3568 65.0583Z" fill="#0753E2" stroke="#0753E2" stroke-width="0.02"/>
<path d="M33.3568 67.7645L33.3418 67.756V67.7732V70.4352H33.3318L33.3468 70.4438L35.681 71.7916L35.696 71.8003V71.783V69.1037H35.7061L35.6909 69.095L33.3568 67.7645Z" fill="#0753E2" stroke="#0753E2" stroke-width="0.02"/>
<path d="M33.3568 70.4697L33.3418 70.4612V70.4784V73.1414H33.3318L33.3468 73.15L35.681 74.4978L35.696 74.5065V74.4892V71.8099H35.7061L35.6909 71.8012L33.3568 70.4697Z" fill="#0753E2" stroke="#0753E2" stroke-width="0.02"/>
<path d="M33.3568 75.8812L33.3418 75.8727V75.8899V78.5518H33.3318L33.3468 78.5605L35.681 79.9083L35.696 79.917V79.8996V77.2204H35.7061L35.6909 77.2117L33.3568 75.8812Z" fill="#0753E2" stroke="#0753E2" stroke-width="0.02"/>
<path d="M35.6882 55.5756L35.6732 55.567V55.5843V58.2472H35.6632L35.6782 58.2559L38.0124 59.6037L38.0274 59.6123V59.595V56.9157H38.0376L38.0223 56.907L35.6882 55.5756Z" fill="#0753E2" stroke="#0753E2" stroke-width="0.02"/>
<path d="M35.6882 60.987L35.6732 60.9784V60.9957V63.6576H35.6632L35.6782 63.6663L38.0124 65.0141L38.0274 65.0228V65.0054V62.3271H38.0376L38.0223 62.3185L35.6882 60.987Z" fill="#0753E2" stroke="#0753E2" stroke-width="0.02"/>
<path d="M35.6882 66.3974L35.6732 66.3889V66.4061V69.0691H35.6632L35.6782 69.0777L38.0124 70.4255L38.0274 70.4342V70.4169V67.7376H38.0376L38.0223 67.7289L35.6882 66.3974Z" fill="#0753E2" stroke="#0753E2" stroke-width="0.02"/>
<path d="M35.6882 71.8089L35.6732 71.8004V71.8176V74.4805H35.6632L35.6782 74.4892L38.0124 75.837L38.0274 75.8457V75.8283V73.1491H38.0376L38.0223 73.1404L35.6882 71.8089Z" fill="#0753E2" stroke="#0753E2" stroke-width="0.02"/>
<path d="M35.6882 74.5141L35.6732 74.5056V74.5228V77.1858H35.6632L35.6782 77.1944L38.0124 78.5422L38.0274 78.5509V78.5336V75.8543H38.0376L38.0223 75.8456L35.6882 74.5141Z" fill="#0753E2" stroke="#0753E2" stroke-width="0.02"/>
<path d="M35.6882 77.2203L35.6732 77.2118V77.229V79.8909H35.6632L35.6782 79.8996L38.0124 81.2474L38.0274 81.2561V81.2388V78.5604H38.0376L38.0223 78.5518L35.6882 77.2203Z" fill="#0753E2" stroke="#0753E2" stroke-width="0.02"/>
<path d="M38.0184 56.9147L38.0034 56.9062V56.9234V59.5864H37.9934L38.0084 59.595L40.3426 60.9428L40.3576 60.9515V60.9342V58.2549H40.3678L40.3525 58.2462L38.0184 56.9147Z" fill="#0753E2" stroke="#0753E2" stroke-width="0.02"/>
<path d="M38.0184 59.6209L38.0034 59.6124V59.6296V62.2915H37.9934L38.0084 62.3002L40.3426 63.648L40.3576 63.6567V63.6394V60.961H40.3678L40.3525 60.9524L38.0184 59.6209Z" fill="#0753E2" stroke="#0753E2" stroke-width="0.02"/>
<path d="M38.0184 65.0314L38.0034 65.0229V65.0401V67.703H37.9934L38.0084 67.7117L40.3426 69.0595L40.3576 69.0681V69.0508V66.3715H40.3678L40.3525 66.3629L38.0184 65.0314Z" fill="#0753E2" stroke="#0753E2" stroke-width="0.02"/>
<path d="M38.0184 67.7376L38.0034 67.7291V67.7463V70.4082H37.9934L38.0084 70.4169L40.3426 71.7647L40.3576 71.7734V71.7561V69.0777H40.3678L40.3525 69.0691L38.0184 67.7376Z" fill="#0753E2" stroke="#0753E2" stroke-width="0.02"/>
<path d="M38.0184 70.4428L38.0034 70.4343V70.4515V73.1144H37.9934L38.0084 73.1231L40.3426 74.4709L40.3576 74.4796V74.4623V71.783H40.3678L40.3525 71.7743L38.0184 70.4428Z" fill="#0753E2" stroke="#0753E2" stroke-width="0.02"/>
<path d="M38.0184 75.8543L38.0034 75.8457V75.8629V78.5249H37.9934L38.0084 78.5336L40.3426 79.8814L40.3576 79.89V79.8727V77.1944H40.3678L40.3525 77.1857L38.0184 75.8543Z" fill="#0753E2" stroke="#0753E2" stroke-width="0.02"/>
<path d="M40.3486 58.2549L40.3336 58.2463V58.2635V60.9255H40.3236L40.3386 60.9342L42.6728 62.282L42.6878 62.2907V62.2733V59.5941H42.698L42.6827 59.5854L40.3486 58.2549Z" fill="#0753E2" stroke="#0753E2" stroke-width="0.02"/>
<path d="M40.3486 63.6653L40.3336 63.6568V63.674V66.3369H40.3236L40.3386 66.3456L42.6728 67.6934L42.6878 67.7021V67.6848V65.0055H42.698L42.6827 64.9968L40.3486 63.6653Z" fill="#0753E2" stroke="#0753E2" stroke-width="0.02"/>
<path d="M40.3486 66.3715L40.3336 66.3629V66.3802V69.0421H40.3236L40.3386 69.0508L42.6728 70.3986L42.6878 70.4073V70.3899V67.7107H42.698L42.6827 67.702L40.3486 66.3715Z" fill="#0753E2" stroke="#0753E2" stroke-width="0.02"/>
<path d="M40.3486 69.0768L40.3336 69.0682V69.0854V71.7484H40.3236L40.3386 71.757L42.6728 73.1048L42.6878 73.1135V73.0962V70.4169H42.698L42.6827 70.4082L40.3486 69.0768Z" fill="#0753E2" stroke="#0753E2" stroke-width="0.02"/>
<path d="M40.3486 71.782L40.3336 71.7734V71.7906V74.4536H40.3236L40.3386 74.4622L42.6728 75.81L42.6878 75.8187V75.8014V73.1221H42.698L42.6827 73.1134L40.3486 71.782Z" fill="#0753E2" stroke="#0753E2" stroke-width="0.02"/>
<path d="M40.3486 79.8986L40.3336 79.8901V79.9073V82.5703H40.3236L40.3386 82.5789L42.6728 83.9267L42.6878 83.9354V83.9181V81.2388H42.698L42.6827 81.2301L40.3486 79.8986Z" fill="#0753E2" stroke="#0753E2" stroke-width="0.02"/>
<path d="M42.6788 67.7107L42.6638 67.7021V67.7194V70.3823H42.6538L42.6688 70.391L45.003 71.7378L45.018 71.7465V71.7291V69.0508H45.0282L45.0129 69.0421L42.6788 67.7107Z" fill="#0753E2" stroke="#0753E2" stroke-width="0.02"/>
<path d="M42.6788 70.4159L42.6638 70.4073V70.4246V73.0875H42.6538L42.6688 73.0962L45.003 74.444L45.018 74.4526V74.4353V71.756H45.0282L45.0129 71.7473L42.6788 70.4159Z" fill="#0753E2" stroke="#0753E2" stroke-width="0.02"/>
<path d="M42.6788 73.1221L42.6638 73.1136V73.1308V75.7927H42.6538L42.6688 75.8014L45.003 77.1492L45.018 77.1579V77.1405V74.4613H45.0282L45.0129 74.4526L42.6788 73.1221Z" fill="#0753E2" stroke="#0753E2" stroke-width="0.02"/>
<path d="M42.6788 75.8273L42.6638 75.8188V75.836V78.4989H42.6538L42.6688 78.5076L45.003 79.8544L45.018 79.8631V79.8458V77.1675H45.0282L45.0129 77.1588L42.6788 75.8273Z" fill="#0753E2" stroke="#0753E2" stroke-width="0.02"/>
<path d="M42.6788 78.5325L42.6638 78.524V78.5412V81.2042H42.6538L42.6688 81.2128L45.003 82.5606L45.018 82.5693V82.552V79.8727H45.0282L45.0129 79.864L42.6788 78.5325Z" fill="#0753E2" stroke="#0753E2" stroke-width="0.02"/>
<path d="M45.0102 60.9332L44.9952 60.9246V60.9419V63.6048H44.9853L45.0002 63.6135L47.3344 64.9613L47.3494 64.9699V64.9526V62.2733H47.3596L47.3444 62.2646L45.0102 60.9332Z" fill="#0753E2" stroke="#0753E2" stroke-width="0.02"/>
<path d="M45.0102 63.6384L44.9952 63.6299V63.6471V66.31H44.9853L45.0002 66.3187L47.3344 67.6665L47.3494 67.6752V67.6578V64.9786H47.3596L47.3444 64.9699L45.0102 63.6384Z" fill="#0753E2" stroke="#0753E2" stroke-width="0.02"/>
<path d="M45.0102 66.3446L44.9952 66.3361V66.3533V69.0153H44.9853L45.0002 69.0239L47.3344 70.3717L47.3494 70.3804V70.3631V67.6848H47.3596L47.3444 67.6761L45.0102 66.3446Z" fill="#0753E2" stroke="#0753E2" stroke-width="0.02"/>
<path d="M45.0102 69.0498L44.9952 69.0413V69.0585V71.7215H44.9853L45.0002 71.7301L47.3344 73.0779L47.3494 73.0866V73.0693V70.39H47.3596L47.3444 70.3813L45.0102 69.0498Z" fill="#0753E2" stroke="#0753E2" stroke-width="0.02"/>
<path d="M45.0102 71.755L44.9952 71.7465V71.7637V74.4267H44.9853L45.0002 74.4353L47.3344 75.7831L47.3494 75.7918V75.7745V73.0952H47.3596L47.3444 73.0865L45.0102 71.755Z" fill="#0753E2" stroke="#0753E2" stroke-width="0.02"/>
<path d="M45.0102 77.1665L44.9952 77.158V77.1752V79.8381H44.9853L45.0002 79.8468L47.3344 81.1946L47.3494 81.2032V81.1859V78.5066H47.3596L47.3444 78.498L45.0102 77.1665Z" fill="#0753E2" stroke="#0753E2" stroke-width="0.02"/>
<path d="M45.0102 82.5779L44.9952 82.5694V82.5866V85.2486H44.9853L45.0002 85.2572L47.3344 86.605L47.3494 86.6137V86.5964V83.918H47.3596L47.3444 83.9094L45.0102 82.5779Z" fill="#0753E2" stroke="#0753E2" stroke-width="0.02"/>
<path d="M47.3405 62.2724L47.3256 62.2638V62.281V64.944H47.3156L47.3306 64.9526L49.6647 66.3004L49.6797 66.3091V66.2918V63.6125H49.6899L49.6747 63.6038L47.3405 62.2724Z" fill="#0753E2" stroke="#0753E2" stroke-width="0.02"/>
<path d="M47.3405 67.6838L47.3256 67.6752V67.6924V70.3554H47.3156L47.3306 70.364L49.6647 71.7118L49.6797 71.7205V71.7032V69.0239H49.6899L49.6747 69.0152L47.3405 67.6838Z" fill="#0753E2" stroke="#0753E2" stroke-width="0.02"/>
<path d="M47.3405 70.389L47.3256 70.3805V70.3977V73.0606H47.3156L47.3306 73.0693L49.6647 74.4171L49.6797 74.4257V74.4084V71.7291H49.6899L49.6747 71.7205L47.3405 70.389Z" fill="#0753E2" stroke="#0753E2" stroke-width="0.02"/>
<path d="M47.3405 75.8004L47.3256 75.7919V75.8091V78.472H47.3156L47.3306 78.4807L49.6647 79.8285L49.6797 79.8372V79.8199V77.1406H49.6899L49.6747 77.1319L47.3405 75.8004Z" fill="#0753E2" stroke="#0753E2" stroke-width="0.02"/>
<path d="M47.3405 83.9171L47.3256 83.9085V83.9258V86.5887H47.3156L47.3306 86.5973L49.6647 87.9451L49.6797 87.9538V87.9365V85.2572H49.6899L49.6747 85.2485L47.3405 83.9171Z" fill="#0753E2" stroke="#0753E2" stroke-width="0.02"/>
<path d="M49.6708 63.6124L49.6559 63.6039V63.6211V66.2831H49.6459L49.6609 66.2918L51.995 67.6396L52.01 67.6482V67.6309V64.9516H52.0202L52.005 64.9429L49.6708 63.6124Z" fill="#0753E2" stroke="#0753E2" stroke-width="0.02"/>
<path d="M49.6708 66.3176L49.6559 66.3091V66.3263V68.9893H49.6459L49.6609 68.9979L51.995 70.3457L52.01 70.3544V70.3371V67.6578H52.0202L52.005 67.6491L49.6708 66.3176Z" fill="#0753E2" stroke="#0753E2" stroke-width="0.02"/>
<path d="M49.6708 69.0229L49.6559 69.0144V69.0316V71.6946H49.6459L49.6609 71.7032L51.995 73.051L52.01 73.0597V73.0424V70.3631H52.0202L52.005 70.3544L49.6708 69.0229Z" fill="#0753E2" stroke="#0753E2" stroke-width="0.02"/>
<path d="M49.6708 74.4343L49.6559 74.4258V74.443V77.106H49.6459L49.6609 77.1146L51.9951 78.4615L52.01 78.4701V78.4528V75.7745H52.0202L52.005 75.7658L49.6708 74.4343Z" fill="#0753E2" stroke="#0753E2" stroke-width="0.02"/>
<path d="M49.6708 79.8458L49.6559 79.8373V79.8545V82.5164H49.6459L49.6609 82.5251L51.995 83.8729L52.01 83.8816V83.8642V81.185H52.0202L52.005 81.1763L49.6708 79.8458Z" fill="#0753E2" stroke="#0753E2" stroke-width="0.02"/>
<path d="M49.6708 82.551L49.6559 82.5424V82.5597V85.2226H49.6459L49.6609 85.2313L51.9951 86.5781L52.01 86.5868V86.5694V83.8911H52.0202L52.005 83.8824L49.6708 82.551Z" fill="#0753E2" stroke="#0753E2" stroke-width="0.02"/>
<path d="M49.6708 85.2563L49.6559 85.2477V85.265V87.9279H49.6459L49.6609 87.9365L51.995 89.2844L52.01 89.293V89.2757V86.5964H52.0202L52.005 86.5877L49.6708 85.2563Z" fill="#0753E2" stroke="#0753E2" stroke-width="0.02"/>
<defs>
<linearGradient id="paint0_linear_1587_3406" x1="33.8305" y1="117.941" x2="60.5135" y2="34.7708" gradientUnits="userSpaceOnUse">
<stop offset="0.1" stop-color="#0878FF"/>
<stop offset="0.76" stop-color="#0525BC"/>
<stop offset="0.88" stop-color="#0516B1"/>
</linearGradient>
<linearGradient id="paint1_linear_1587_3406" x1="22.6296" y1="111.388" x2="67.1282" y2="41.4623" gradientUnits="userSpaceOnUse">
<stop stop-color="#0516B1"/>
<stop offset="0.45" stop-color="#0645D6"/>
<stop offset="0.9" stop-color="#0878FF"/>
</linearGradient>
<linearGradient id="paint2_linear_1587_3406" x1="32.4212" y1="127.632" x2="51.7925" y2="37.7768" gradientUnits="userSpaceOnUse">
<stop stop-color="#83BBFF"/>
<stop offset="0.04" stop-color="#92C3FF"/>
<stop offset="0.11" stop-color="#ACD1FF"/>
<stop offset="0.19" stop-color="#C2DDFF"/>
<stop offset="0.28" stop-color="#D3E6FF"/>
<stop offset="0.39" stop-color="#DFEDFF"/>
<stop offset="0.55" stop-color="#E6F0FF"/>
<stop offset="1" stop-color="#E8F2FF"/>
</linearGradient>
<linearGradient id="paint3_linear_1587_3406" x1="34.2983" y1="91.7486" x2="46.4111" y2="108.208" gradientUnits="userSpaceOnUse">
<stop offset="0.09" stop-color="#CEBD45"/>
<stop offset="0.53" stop-color="#F6FB9B"/>
<stop offset="0.82" stop-color="#CEBD45"/>
</linearGradient>
</defs>
</svg>
