<svg width="107" height="161" viewBox="0 0 107 161" fill="none" xmlns="http://www.w3.org/2000/svg">
<g style="mix-blend-mode:multiply" opacity="0.15">
<path d="M53.2779 160.639L3.35605 131.984C1.54903 130.946 1.54746 128.351 3.35447 127.312L44.1333 103.863C46.1341 102.713 48.6 102.712 50.6016 103.861L98.6439 131.437C100.451 132.475 100.453 135.07 98.6455 136.109L55.988 160.638C55.1495 161.12 54.1164 161.12 53.2779 160.639Z" fill="#6BE6FB"/>
<path d="M52.4527 150.395L1.38749 120.94C-0.461524 119.873 -0.46269 117.206 1.38516 116.138L43.0984 92.0348C45.1451 90.8522 47.6674 90.851 49.7153 92.0325L98.8571 120.378C100.706 121.445 100.707 124.112 98.8594 125.18L55.2251 150.394C54.368 150.889 53.311 150.889 52.4527 150.394V150.395Z" fill="#0878FF"/>
</g>
<path d="M74.784 89.5322L29.1192 116.15C26.7295 117.543 26.7434 121.001 29.1448 122.375L54.096 136.641C56.2346 137.863 58.8627 137.853 60.9897 136.612L105.008 110.954C107.398 109.561 107.384 106.102 104.982 104.729L78.3774 89.5171C77.2633 88.8798 75.8922 88.8856 74.784 89.5322Z" fill="url(#paint0_linear_1587_3405)"/>
<path d="M27.3332 119.621L27.1448 116.594L28.4542 118.514L27.3332 119.621Z" fill="#0878FF"/>
<path d="M106.779 107.57L106.522 104.712L105.132 105.663L106.779 107.57Z" fill="#0516B1"/>
<path d="M73.3258 87.3681L28.8565 113.288C26.4691 114.68 26.483 118.134 28.8821 119.506L53.6809 133.685C55.9172 134.963 58.6651 134.953 60.8909 133.655L104.758 108.085C107.145 106.693 107.131 103.239 104.732 101.867L79.3287 87.3414C77.4669 86.2773 75.1783 86.2866 73.3258 87.3658V87.3681Z" fill="url(#paint1_linear_1587_3405)"/>
<path d="M74.0815 89.2357L31.2043 114.229C29.8425 115.022 29.8506 116.992 31.2194 117.774L53.8564 130.717C55.9147 131.894 58.4452 131.884 60.4942 130.69L102.293 106.324C103.655 105.531 103.647 103.561 102.278 102.779L78.5587 89.2159C77.1702 88.4216 75.4631 88.4286 74.0804 89.2345L74.0815 89.2357Z" fill="url(#paint2_linear_1587_3405)"/>
<path d="M84.4813 91.8963L81.4148 93.6837C80.6484 94.1303 80.6531 95.2385 81.4229 95.6781L89.669 100.394C90.4307 100.829 91.3657 100.825 92.1228 100.383L95.1847 98.5993C95.951 98.1527 95.9464 97.0445 95.1765 96.6049L86.9246 91.887C86.1676 91.4533 85.2361 91.4579 84.4813 91.8975V91.8963Z" fill="#0878FF"/>
<path d="M84.0688 94.4757L84.0374 94.4943C83.8188 94.6222 83.8199 94.9397 84.0397 95.0653L86.4004 96.4154C86.6179 96.5399 86.8865 96.5387 87.1028 96.4119L87.133 96.3945C87.3517 96.2666 87.3505 95.9491 87.1307 95.8235L84.7688 94.4734C84.5525 94.3489 84.2851 94.3501 84.07 94.4769L84.0688 94.4757Z" fill="#0516B1"/>
<path d="M88.0795 96.7456L88.0481 96.7642C87.8295 96.8922 87.8307 97.2096 88.0505 97.3352L90.4111 98.6853C90.6286 98.8098 90.8972 98.8086 91.1135 98.6819L91.1438 98.6644C91.3624 98.5365 91.3612 98.219 91.1414 98.0934L88.7796 96.7433C88.5633 96.6189 88.2958 96.62 88.0807 96.7468L88.0795 96.7456Z" fill="#0516B1"/>
<g style="mix-blend-mode:multiply" opacity="0.15">
<path d="M59.8501 113.341L45.4557 105.038C44.9347 104.738 44.9347 103.986 45.4557 103.685L57.2138 96.8911C57.7906 96.5573 58.5011 96.5573 59.0791 96.8911L72.9315 104.881C73.4525 105.181 73.4525 105.934 72.9315 106.235L60.6315 113.343C60.3896 113.482 60.0919 113.482 59.8501 113.343V113.341Z" fill="#0878FF"/>
</g>
<path d="M13.5189 32.4641L20.6126 28.4323L22.5256 28.7428L13.5189 32.4641Z" fill="#4095FC"/>
<path d="M64.105 103.224L70.2684 100.029L64.105 98.2272V103.224Z" fill="#4095FC"/>
<path d="M16.0111 56.9036V35.7714C16.0111 29.608 22.6826 25.7565 28.0203 28.8382L63.6144 49.9657C68.002 52.4997 70.7057 57.1815 70.7057 62.2483C70.7057 62.2483 70.6173 71.6213 70.6173 76.5357C70.6173 80.1128 70.7383 99.3146 70.7336 99.3285C70.0359 101.654 64.8912 99.7053 62.5759 97.4027C62.5468 97.3737 62.5201 97.3411 62.498 97.3062L52.3459 85.3958C52.2993 85.3225 52.2354 85.2609 52.1598 85.2179L21.957 67.2034C18.2764 65.0788 16.0099 61.1517 16.0099 56.9024L16.0111 56.9036Z" fill="#4095FC"/>
<path d="M10.6617 59.6945V38.5623C10.6617 32.399 17.3332 28.5474 22.671 31.6291L58.265 52.7567C62.6526 55.2906 65.3564 59.9725 65.3564 65.0392C65.3564 65.0392 65.268 74.4122 65.268 79.3266C65.268 82.9037 65.3889 102.105 65.3843 102.119C64.4319 104.948 59.5419 102.496 57.2265 100.194C57.1975 100.165 57.1707 100.132 57.1486 100.097L50.7178 90.1637C50.6713 90.0904 50.6073 90.0288 50.5317 89.9858L16.6076 69.9944C12.927 67.8697 10.6605 63.9426 10.6605 59.6934L10.6617 59.6945Z" fill="#6BE6FB"/>
<path d="M67.2427 43.3232L68.1463 42.7836L67.2985 42.5557L67.2427 43.3232Z" fill="#0764EF"/>
<path d="M54.1312 35.1271L67.401 42.7895C68.0499 43.1639 68.7768 42.4395 68.4046 41.7894L61.7703 30.2127C61.5668 29.858 61.1132 29.7383 60.7609 29.9453L54.1265 33.8596C53.6428 34.1445 53.6463 34.8457 54.1324 35.1271H54.1312Z" fill="#B72525"/>
<path d="M53.2824 35.6365L66.5523 43.2988C67.2012 43.6733 67.928 42.9488 67.5559 42.2987L60.9215 30.7221C60.718 30.3674 60.2645 30.2476 59.9121 30.4546L53.2778 34.3689C52.794 34.6538 52.7975 35.3551 53.2836 35.6365H53.2824Z" fill="#F95858"/>
<path d="M21.1696 8.25482L20.266 8.79557L21.1137 9.02233L21.1696 8.25482Z" fill="#0764EF"/>
<path d="M35.131 15.9416L21.8611 8.27929C21.2122 7.90484 20.4854 8.62932 20.8575 9.27939L27.4919 20.8561C27.6954 21.2107 28.1489 21.3305 28.5013 21.1235L35.1356 17.2092C35.6194 16.9243 35.6159 16.2231 35.1298 15.9416H35.131Z" fill="#41AF3E"/>
<path d="M34.281 16.4509L21.0111 8.7886C20.3622 8.41415 19.6354 9.13863 20.0075 9.78869L26.6419 21.3654C26.8454 21.72 27.2989 21.8398 27.6513 21.6328L34.2856 17.7185C34.7694 17.4336 34.7659 16.7324 34.2798 16.4509H34.281Z" fill="#91E02B"/>
<path d="M51.1786 2.74851C48.5958 0.465735 45.9665 -0.355272 43.7361 0.137797C42.9849 0.304092 42.4488 0.490155 41.4161 0.834373L35.74 3.58696L39.0519 4.4382C38.7147 5.21037 38.4414 6.07789 38.2437 7.04077C36.7366 14.3566 40.0857 24.4168 45.6863 29.3975C47.2132 30.7546 48.7552 31.5977 50.2227 31.9582L48.4679 34.205L54.3162 30.9372C55.5198 30.2488 56.1547 30.0918 56.8966 29.0452C57.6665 27.9579 58.2479 26.9136 58.6212 25.1053C60.1341 17.7639 56.785 7.70362 51.1786 2.74851Z" fill="url(#paint3_linear_1587_3405)"/>
<path d="M45.0675 5.41388C50.675 10.369 54.0242 20.4292 52.5101 27.7706C50.9972 35.112 45.1757 37.0436 39.574 32.0629C33.9723 27.0822 30.6232 17.0219 32.1314 9.70614C33.6386 2.39034 39.46 0.458764 45.0675 5.41388Z" fill="#F6FB9B"/>
<path d="M44.5536 31.3407C42.9965 31.3407 41.33 30.6023 39.731 29.18C35.4237 25.3495 32.8618 17.6557 34.0212 12.0284C34.591 9.26189 35.9737 7.38265 37.9146 6.73491C39.8601 6.08601 42.1022 6.76282 44.2268 8.64091C48.54 12.4529 51.1007 20.1466 49.9378 25.7925C49.3645 28.5718 47.9783 30.4569 46.034 31.1023C45.556 31.2605 45.0606 31.3396 44.5536 31.3396V31.3407ZM39.4066 7.01285C38.9496 7.01285 38.5054 7.08378 38.0786 7.22566C36.3203 7.81176 35.0585 9.55495 34.5271 12.1331C33.4002 17.5987 35.8888 25.0738 40.0741 28.7951C42.051 30.5534 44.1105 31.1988 45.8712 30.6139C47.633 30.029 48.897 28.2811 49.432 25.6902C50.5623 20.2048 48.0749 12.7308 43.8849 9.02931C42.3836 7.70245 40.8346 7.01285 39.4054 7.01285H39.4066Z" fill="#CEBD45"/>
<path d="M45.6662 23.7935C45.6534 21.2747 43.8835 19.3012 42.495 17.6348V14.7206C43.3404 15.3985 44.1137 16.1975 44.8173 17.072L45.4987 15.2253C44.6138 14.0891 43.6021 13.0925 42.4938 12.2727V10.8004L41.4995 10.1236V11.6354C39.7017 10.5923 38.1597 11.1679 38.4272 13.7368C38.6574 15.9544 40.2238 17.7743 41.4995 19.2803V22.3422C40.3518 21.441 39.304 20.3118 38.3934 19.0931V21.7003C39.3005 22.8597 40.3541 23.8517 41.4995 24.6634V26.6484L42.4938 27.3252V25.3006C43.83 26.0926 45.8023 26.1751 45.665 23.7947L45.6662 23.7935ZM41.5007 16.4056C40.9797 15.8172 39.8354 13.2669 41.5007 14.0845V16.4056ZM42.495 22.9492V20.4897C42.9846 21.0688 43.4346 21.7375 43.4776 22.5667C43.3311 23.1318 42.9671 23.2283 42.495 22.9481V22.9492Z" fill="#CEBD45" stroke="#F6FB9B" stroke-width="0.34887" stroke-miterlimit="10"/>
<path d="M46.1676 50.0657C47.8306 50.6925 48.7818 52.0438 48.9376 54.1068C49.0935 56.1698 48.3597 57.9967 46.8607 59.4841C46.4374 59.8853 45.9711 60.2283 45.521 60.5737C44.0069 61.7575 42.4917 62.9414 40.9822 64.1008C40.2682 64.6497 39.467 64.5055 39.1437 63.7694C38.8448 63.0879 39.1135 62.182 39.7891 61.6505C41.5649 60.2876 43.3441 58.9003 45.1233 57.513C45.9664 56.8361 46.4316 55.8151 46.3339 54.7929C46.1769 53.0311 44.5268 52.3322 43.115 53.4347C41.3358 54.822 39.5554 56.2093 37.7587 57.5932C37.0482 58.1188 36.283 57.9804 35.9492 57.292C35.5992 56.6012 35.855 55.6674 36.5481 55.1395C38.3657 53.7335 40.167 52.3253 41.9858 50.9205C43.1452 50.0495 44.3442 49.7378 45.6641 49.9262C45.7827 49.9471 45.9827 50.0088 46.1664 50.0669L46.1676 50.0657Z" fill="#088FF9"/>
<path d="M27.7171 62.0111C29.3428 60.697 30.9988 59.4132 32.6664 58.1561C33.5177 57.5304 34.5119 58.0619 34.5282 59.1445C34.5329 59.7981 34.2456 60.3237 33.7363 60.7098C32.2222 61.8936 30.6906 63.074 29.1766 64.2578C28.1753 65.0323 27.7334 66.4092 28.1113 67.5325C28.5684 68.8954 29.9778 69.2757 31.1837 68.3372C32.7327 67.1592 34.2677 65.9545 35.8214 64.752C36.4761 64.2415 37.2424 64.3799 37.5797 65.0439C37.9344 65.7103 37.6901 66.672 37.0366 67.1813C35.4411 68.4256 33.87 69.7257 32.2373 70.8875C30.3813 72.2109 28.5951 72.2655 27.0426 71.0317C25.4762 69.7699 25.0692 67.8372 25.5355 65.6358C25.9739 64.0822 26.6658 62.8763 27.7183 62.0111H27.7171Z" fill="#088FF9"/>
<path d="M32.7407 63.695C32.6756 63.081 32.8954 62.5425 33.3582 62.1239C33.4861 61.996 33.6443 61.8995 33.7908 61.775C35.7329 60.2667 37.6749 58.7573 39.6169 57.249C40.3054 56.7455 41.0764 56.8594 41.4136 57.5223C41.7509 58.1863 41.5462 59.1283 40.8915 59.6388C38.8041 61.2715 36.7202 62.8809 34.6153 64.5102C34.3071 64.7555 33.9955 64.8253 33.5024 64.7369C33.1443 64.673 32.8233 64.3125 32.7407 63.695Z" fill="#088FF9"/>
<path d="M44.8899 49.8831C46.5529 50.5099 47.5041 51.8612 47.6599 53.9242C47.8158 55.9871 47.082 57.8141 45.583 59.3014C45.1597 59.7026 44.6934 60.0457 44.2433 60.3911C42.7292 61.5749 41.214 62.7587 39.7045 63.9181C38.9905 64.467 38.1893 64.3228 37.866 63.5867C37.5671 62.9052 37.8358 61.9993 38.5114 61.4679C40.2871 60.105 42.0664 58.7176 43.8456 57.3303C44.6887 56.6535 45.1539 55.6325 45.0562 54.6103C44.8992 52.8485 43.2491 52.1496 41.8373 53.252C40.0581 54.6394 38.2777 56.0267 36.481 57.4105C35.7704 57.9362 35.0053 57.7978 34.6715 57.1093C34.3215 56.4186 34.5773 55.4848 35.2704 54.9568C37.088 53.5509 38.8893 52.1426 40.7081 50.7378C41.8675 49.8668 43.0665 49.5552 44.3864 49.7435C44.505 49.7645 44.705 49.8261 44.8887 49.8843L44.8899 49.8831Z" fill="#E8F2FF"/>
<path d="M26.4385 61.8285C28.0643 60.5144 29.7202 59.2305 31.3878 57.9734C32.2391 57.3478 33.2334 57.8792 33.2496 58.9619C33.2543 59.6155 32.9671 60.1411 32.4577 60.5272C30.9436 61.711 29.4121 62.8913 27.898 64.0752C26.8967 64.8497 26.4548 66.2265 26.8328 67.3499C27.2898 68.7128 28.6992 69.0931 29.9051 68.1546C31.4541 66.9766 32.9892 65.7719 34.5428 64.5694C35.1975 64.0589 35.9639 64.1973 36.3011 64.8613C36.6558 65.5276 36.4116 66.4894 35.758 66.9987C34.1625 68.243 32.5914 69.5431 30.9587 70.7049C29.1027 72.0283 27.3165 72.0829 25.7641 70.8491C24.1976 69.5873 23.7906 67.6546 24.2569 65.4532C24.6954 63.8996 25.3873 62.6937 26.4397 61.8285H26.4385Z" fill="#E8F2FF"/>
<path d="M31.4622 63.5123C31.397 62.8983 31.6168 62.3599 32.0797 61.9412C32.2076 61.8133 32.3657 61.7168 32.5123 61.5923C34.4543 60.0841 36.3963 58.5746 38.3384 57.0663C39.0268 56.5628 39.7978 56.6768 40.1351 57.3396C40.4723 58.0036 40.2676 58.9456 39.6129 59.4561C37.5255 61.0888 35.4416 62.6983 33.3367 64.3275C33.0286 64.5729 32.7169 64.6426 32.2239 64.5543C31.8657 64.4903 31.5447 64.1298 31.4622 63.5123Z" fill="#E8F2FF"/>
<defs>
<linearGradient id="paint0_linear_1587_3405" x1="88.4073" y1="89.8281" x2="45.0306" y2="138.049" gradientUnits="userSpaceOnUse">
<stop offset="0.12" stop-color="#0516B1"/>
<stop offset="0.24" stop-color="#0525BC"/>
<stop offset="0.9" stop-color="#0878FF"/>
</linearGradient>
<linearGradient id="paint1_linear_1587_3405" x1="80.0147" y1="85.0923" x2="51.7974" y2="139.79" gradientUnits="userSpaceOnUse">
<stop offset="0.1" stop-color="#0878FF"/>
<stop offset="0.55" stop-color="#0645D6"/>
<stop offset="0.99" stop-color="#0516B1"/>
</linearGradient>
<linearGradient id="paint2_linear_1587_3405" x1="94.097" y1="85.2998" x2="43.6969" y2="131.33" gradientUnits="userSpaceOnUse">
<stop stop-color="#E8F2FF"/>
<stop offset="0.45" stop-color="#E6F0FF"/>
<stop offset="0.61" stop-color="#DFEDFF"/>
<stop offset="0.72" stop-color="#D3E6FF"/>
<stop offset="0.81" stop-color="#C2DDFF"/>
<stop offset="0.89" stop-color="#ACD1FF"/>
<stop offset="0.96" stop-color="#92C3FF"/>
<stop offset="0.99" stop-color="#83BBFF"/>
</linearGradient>
<linearGradient id="paint3_linear_1587_3405" x1="35.8528" y1="-0.842527" x2="57.806" y2="28.9893" gradientUnits="userSpaceOnUse">
<stop offset="0.09" stop-color="#CEBD45"/>
<stop offset="0.53" stop-color="#F6FB9B"/>
<stop offset="0.82" stop-color="#CEBD45"/>
</linearGradient>
</defs>
</svg>
