<svg width="56" height="50" viewBox="0 0 56 50" fill="none" xmlns="http://www.w3.org/2000/svg">
<path d="M48.8825 15.0987C48.8825 16.2012 48.8037 17.2775 48.6725 18.3012C47.465 17.7762 46.1525 17.4875 44.7613 17.4875C41.5588 17.4875 38.7238 19.0362 36.965 21.3987C35.18 19.0362 32.345 17.4875 29.1425 17.4875C23.7612 17.4875 19.4038 21.8712 19.4038 27.305C19.4038 34.34 23.1313 39.7212 27.2788 43.3699C27.1475 43.4487 27.0163 43.475 26.885 43.5275C26.0975 43.8163 24.785 43.8163 23.9975 43.5275C17.1988 41.1913 2 31.5312 2 15.0987C2 7.85372 7.82748 2 15.02 2C19.2987 2 23.0787 4.04747 25.4412 7.22372C27.83 4.04747 31.61 2 35.8625 2C43.055 2 48.8825 7.85372 48.8825 15.0987Z" stroke="#5AE1E2" stroke-width="2.55" stroke-linecap="round" stroke-linejoin="round"/>
<path d="M54.5 27.3048C54.5 39.5898 43.1338 46.8348 38.0413 48.5673C37.4376 48.7773 36.4663 48.7773 35.8625 48.5673C33.6838 47.8323 30.3501 46.0735 27.2788 43.3698C23.1313 39.721 19.4038 34.3398 19.4038 27.3048C19.4038 21.871 23.7613 17.4873 29.1425 17.4873C32.345 17.4873 35.1801 19.036 36.9651 21.3985C38.7238 19.036 41.5588 17.4873 44.7613 17.4873C46.1526 17.4873 47.465 17.776 48.6725 18.301C52.1113 19.8235 54.5 23.2623 54.5 27.3048Z" stroke="#5AE1E2" stroke-width="2.55" stroke-linecap="round" stroke-linejoin="round"/>
</svg>
