<svg width="63" height="63" viewBox="0 0 63 63" fill="none" xmlns="http://www.w3.org/2000/svg">
<path d="M52.1325 21.2364C52.1325 22.3389 52.0537 23.4152 51.9225 24.4389C50.715 23.9139 49.4025 23.6252 48.0113 23.6252C44.8088 23.6252 41.9738 25.1739 40.215 27.5364C38.43 25.1739 35.595 23.6252 32.3925 23.6252C27.0112 23.6252 22.6538 28.0089 22.6538 33.4427C22.6538 40.4777 26.3813 45.8589 30.5288 49.5076C30.3975 49.5864 30.2663 49.6127 30.135 49.6652C29.3475 49.954 28.035 49.954 27.2475 49.6652C20.4488 47.329 5.25 37.6689 5.25 21.2364C5.25 13.9914 11.0775 8.1377 18.27 8.1377C22.5487 8.1377 26.3287 10.1852 28.6912 13.3614C31.08 10.1852 34.86 8.1377 39.1125 8.1377C46.305 8.1377 52.1325 13.9914 52.1325 21.2364Z" stroke="#5AE1E2" stroke-width="3" stroke-linecap="round" stroke-linejoin="round"/>
<path d="M57.75 33.4425C57.75 45.7275 46.3838 52.9725 41.2913 54.705C40.6876 54.915 39.7163 54.915 39.1125 54.705C36.9338 53.97 33.6001 52.2112 30.5288 49.5075C26.3813 45.8587 22.6538 40.4775 22.6538 33.4425C22.6538 28.0087 27.0113 23.625 32.3925 23.625C35.595 23.625 38.4301 25.1737 40.2151 27.5362C41.9738 25.1737 44.8088 23.625 48.0113 23.625C49.4026 23.625 50.715 23.9137 51.9225 24.4387C55.3613 25.9612 57.75 29.4 57.75 33.4425Z" stroke="#5AE1E2" stroke-width="3" stroke-linecap="round" stroke-linejoin="round"/>
</svg>
