<svg width="41" height="50" viewBox="0 0 41 50" fill="none" xmlns="http://www.w3.org/2000/svg">
<path d="M38.8 13.5V36.5C38.8 45.7 36.5 48 27.3 48H13.5C4.3 48 2 45.7 2 36.5V13.5C2 4.3 4.3 2 13.5 2H27.3C36.5 2 38.8 4.3 38.8 13.5Z" stroke="#5AE1E2" stroke-width="3.45" stroke-linecap="round" stroke-linejoin="round"/>
<path d="M25 10.0498H15.8" stroke="#5AE1E2" stroke-width="3.45" stroke-linecap="round" stroke-linejoin="round"/>
<path d="M20.3998 41.3302C22.3687 41.3302 23.9648 39.7341 23.9648 37.7652C23.9648 35.7963 22.3687 34.2002 20.3998 34.2002C18.4309 34.2002 16.8348 35.7963 16.8348 37.7652C16.8348 39.7341 18.4309 41.3302 20.3998 41.3302Z" stroke="#5AE1E2" stroke-width="3.45" stroke-linecap="round" stroke-linejoin="round"/>
</svg>
