<svg width="54" height="55" viewBox="0 0 54 55" fill="none" xmlns="http://www.w3.org/2000/svg">
<path d="M42.6603 15.115C42.5078 15.0896 42.3299 15.0896 42.1774 15.115C38.6699 14.9879 35.874 12.1158 35.874 8.5575C35.874 4.92292 38.7969 2 42.4315 2C46.0661 2 48.989 4.94834 48.989 8.5575C48.9636 12.1158 46.1678 14.9879 42.6603 15.115Z" stroke="#5AE1E2" stroke-width="2.5" stroke-linecap="round" stroke-linejoin="round"/>
<path d="M40.0423 33.6187C43.5244 34.2033 47.3623 33.5933 50.0565 31.7887C53.6402 29.3996 53.6402 25.4854 50.0565 23.0962C47.3369 21.2917 43.4481 20.6816 39.9661 21.2916" stroke="#5AE1E2" stroke-width="2.5" stroke-linecap="round" stroke-linejoin="round"/>
<path d="M12.0841 15.115C12.2366 15.0896 12.4145 15.0896 12.567 15.115C16.0745 14.9879 18.8704 12.1158 18.8704 8.5575C18.8704 4.92292 15.9475 2 12.3129 2C8.67829 2 5.75537 4.94834 5.75537 8.5575C5.78079 12.1158 8.57663 14.9879 12.0841 15.115Z" stroke="#5AE1E2" stroke-width="2.5" stroke-linecap="round" stroke-linejoin="round"/>
<path d="M14.702 33.6187C11.2199 34.2033 7.38198 33.5933 4.68781 31.7887C1.10406 29.3996 1.10406 25.4854 4.68781 23.0962C7.4074 21.2917 11.2961 20.6816 14.7782 21.2916" stroke="#5AE1E2" stroke-width="2.5" stroke-linecap="round" stroke-linejoin="round"/>
<path d="M27.4103 34.1018C27.2578 34.0764 27.0799 34.0764 26.9274 34.1018C23.4199 33.9747 20.624 31.1027 20.624 27.5443C20.624 23.9097 23.5469 20.9868 27.1815 20.9868C30.8161 20.9868 33.739 23.9352 33.739 27.5443C33.7136 31.1027 30.9178 34.0002 27.4103 34.1018Z" stroke="#5AE1E2" stroke-width="2.5" stroke-linecap="round" stroke-linejoin="round"/>
<path d="M20.0141 42.108C16.4304 44.4972 16.4304 48.4114 20.0141 50.8005C24.0808 53.5201 30.7399 53.5201 34.8066 50.8005C38.3904 48.4114 38.3904 44.4972 34.8066 42.108C30.7654 39.4139 24.0808 39.4139 20.0141 42.108Z" stroke="#5AE1E2" stroke-width="2.5" stroke-linecap="round" stroke-linejoin="round"/>
</svg>
