<svg width="61" height="61" viewBox="0 0 61 61" fill="none" xmlns="http://www.w3.org/2000/svg">
<path d="M45.7499 18.1985C45.5974 18.1731 45.4195 18.1731 45.267 18.1985C41.7595 18.0714 38.9636 15.1993 38.9636 11.641C38.9636 8.00642 41.8865 5.0835 45.5211 5.0835C49.1557 5.0835 52.0786 8.03183 52.0786 11.641C52.0532 15.1993 49.2574 18.0714 45.7499 18.1985Z" stroke="#5AE1E2" stroke-width="3.8125" stroke-linecap="round" stroke-linejoin="round"/>
<path d="M43.1319 36.7022C46.614 37.2868 50.4519 36.6768 53.1461 34.8722C56.7298 32.4831 56.7298 28.5689 53.1461 26.1797C50.4265 24.3752 46.5377 23.7651 43.0557 24.3751" stroke="#5AE1E2" stroke-width="3.8125" stroke-linecap="round" stroke-linejoin="round"/>
<path d="M15.1737 18.1985C15.3262 18.1731 15.5041 18.1731 15.6566 18.1985C19.1641 18.0714 21.96 15.1993 21.96 11.641C21.96 8.00642 19.0371 5.0835 15.4025 5.0835C11.7679 5.0835 8.84497 8.03183 8.84497 11.641C8.87039 15.1993 11.6662 18.0714 15.1737 18.1985Z" stroke="#5AE1E2" stroke-width="3.8125" stroke-linecap="round" stroke-linejoin="round"/>
<path d="M17.7916 36.7022C14.3095 37.2868 10.4716 36.6768 7.77741 34.8722C4.19366 32.4831 4.19366 28.5689 7.77741 26.1797C10.497 24.3752 14.3857 23.7651 17.8678 24.3751" stroke="#5AE1E2" stroke-width="3.8125" stroke-linecap="round" stroke-linejoin="round"/>
<path d="M30.4999 37.1853C30.3474 37.1599 30.1695 37.1599 30.017 37.1853C26.5095 37.0582 23.7136 34.1862 23.7136 30.6278C23.7136 26.9932 26.6365 24.0703 30.2711 24.0703C33.9057 24.0703 36.8286 27.0187 36.8286 30.6278C36.8032 34.1862 34.0074 37.0837 30.4999 37.1853Z" stroke="#5AE1E2" stroke-width="3.8125" stroke-linecap="round" stroke-linejoin="round"/>
<path d="M23.1037 45.1915C19.52 47.5807 19.52 51.4949 23.1037 53.884C27.1704 56.6036 33.8295 56.6036 37.8962 53.884C41.48 51.4949 41.48 47.5807 37.8962 45.1915C33.855 42.4974 27.1704 42.4974 23.1037 45.1915Z" stroke="#5AE1E2" stroke-width="3.8125" stroke-linecap="round" stroke-linejoin="round"/>
</svg>
