<svg width="22" height="28" viewBox="0 0 22 28" fill="none" xmlns="http://www.w3.org/2000/svg">
<path d="M20.8333 7.55216V19.948C20.8333 24.9063 19.5938 26.1459 14.6354 26.1459H7.19792C2.23958 26.1459 1 24.9063 1 19.948V7.55216C1 2.59383 2.23958 1.35425 7.19792 1.35425H14.6354C19.5938 1.35425 20.8333 2.59383 20.8333 7.55216Z" stroke="#616F81" stroke-width="1.85938" stroke-linecap="round" stroke-linejoin="round"/>
<path d="M13.3958 5.69287H8.4375" stroke="#616F81" stroke-width="1.85938" stroke-linecap="round" stroke-linejoin="round"/>
<path d="M10.9167 22.5512C11.9779 22.5512 12.8381 21.691 12.8381 20.6298C12.8381 19.5687 11.9779 18.7085 10.9167 18.7085C9.85558 18.7085 8.99536 19.5687 8.99536 20.6298C8.99536 21.691 9.85558 22.5512 10.9167 22.5512Z" stroke="#616F81" stroke-width="1.85938" stroke-linecap="round" stroke-linejoin="round"/>
</svg>
