<svg width="314" height="200" viewBox="0 0 314 200" fill="none" xmlns="http://www.w3.org/2000/svg">
<path d="M303 0H11C4.92487 0 0 4.92486 0 11V188.974C0 195.05 4.92487 199.974 11 199.974H303C309.075 199.974 314 195.05 314 188.975V11C314 4.92487 309.075 0 303 0Z" fill="url(#paint0_linear_1965_3502)"/>
<mask id="mask0_1965_3502" style="mask-type:luminance" maskUnits="userSpaceOnUse" x="0" y="0" width="314" height="200">
<path d="M303 0H11C4.92487 0 0 4.92486 0 11V188.974C0 195.05 4.92487 199.974 11 199.974H303C309.075 199.974 314 195.05 314 188.975V11C314 4.92487 309.075 0 303 0Z" fill="white"/>
</mask>
<g mask="url(#mask0_1965_3502)">
<path d="M158.625 98.7463L138.767 110.194L92.0428 112.296L-0.703003 89.4779V38.0811H39.3884L69.5384 42.5649L103.257 50.3865L130.9 74.8106L156.756 97.5782" fill="url(#paint1_linear_1965_3502)"/>
<path d="M172.775 161.842L0 126.32V199.974H314L313.757 181.396L274.037 175.217L251.485 167.415L237.169 153.948H202.454L172.775 161.842Z" fill="url(#paint2_linear_1965_3502)"/>
<path d="M79.1002 44.3216C79.1002 44.3216 67.611 35.0512 45.1261 32.0532C35.6889 30.7949 4.23141 29.8512 -17.4742 43.3779L-13.0702 52.5006C-13.0702 52.5006 0.141941 36.7718 43.2387 39.9176C53.2833 40.6508 59.5966 42.7488 69.9775 49.6694C80.3585 56.59 79.1002 44.3216 79.1002 44.3216Z" fill="url(#paint3_linear_1965_3502)"/>
<path d="M105.168 37.459L87.6941 27.4163V27.3345L87.623 27.3755L87.5556 27.3368V27.4144L52.6287 47.5812V67.828L87.623 47.6223L105.168 57.7058V37.459Z" fill="url(#paint4_linear_1965_3502)"/>
<path d="M52.6287 47.5811L70.2414 57.7033V77.9501L52.6287 67.8278V47.5811Z" fill="url(#paint5_linear_1965_3502)"/>
<path d="M70.2413 77.9501V57.7033L105.307 37.4565V57.7033L70.2413 77.9501Z" fill="#95D6F9"/>
<path d="M147.048 44.7782L119.895 29.1731V29.0459L119.785 29.1096L119.68 29.0495V29.1701L65.4081 60.5069V91.9679L119.785 60.5707L147.048 76.2392V44.7782Z" fill="url(#paint6_linear_1965_3502)"/>
<path d="M65.4081 60.5068L92.7761 76.2356V107.697L65.4081 91.9678V60.5068Z" fill="url(#paint7_linear_1965_3502)"/>
<path d="M92.7761 107.696V76.2354L147.263 44.7744V76.2354L92.7761 107.696Z" fill="url(#paint8_linear_1965_3502)"/>
<path d="M254.702 114.486L227.454 98.8264V98.6987L227.343 98.7627L227.238 98.7023V98.8234L172.775 130.27V161.842L227.343 130.334L254.702 146.058V114.486Z" fill="url(#paint9_linear_1965_3502)"/>
<path d="M172.775 130.271L200.239 146.055V177.626L172.775 161.842V130.271Z" fill="url(#paint10_linear_1965_3502)"/>
<path d="M200.239 177.626V146.055L254.918 114.483V146.055L200.239 177.626Z" fill="url(#paint11_linear_1965_3502)"/>
<path d="M259.452 136.595L241.718 126.403V126.32L241.646 126.361L241.577 126.322V126.401L206.131 146.867V167.415L241.646 146.909L259.452 157.142V136.595Z" fill="url(#paint12_linear_1965_3502)"/>
<path d="M206.131 146.868L224.006 157.14V177.688L206.131 167.415V146.868Z" fill="url(#paint13_linear_1965_3502)"/>
<path d="M224.006 177.688V157.14L259.592 136.593V157.14L224.006 177.688Z" fill="url(#paint14_linear_1965_3502)"/>
<path d="M239.986 164.042C239.986 164.042 250.083 174.812 271.937 180.891C281.109 183.442 312.134 188.726 335.502 178.331L332.402 168.687C332.402 168.687 317.141 182.438 274.894 173.363C265.047 171.248 259.084 168.297 249.76 160.007C240.436 151.718 239.986 164.042 239.986 164.042Z" fill="url(#paint15_linear_1965_3502)"/>
<path d="M129.916 61.938L126.351 63.8051L129.916 65.8633V78.914L155.752 93.8318V97.7572L159.317 95.89V78.914L129.916 61.938ZM153.394 87.2169C153.026 89.0021 151.61 89.4718 150.248 88.2607C148.886 87.0495 148.071 84.603 148.438 82.8239C148.805 81.0448 150.22 80.5752 151.584 81.7802C152.947 82.9852 153.762 85.4317 153.394 87.2169Z" fill="#A6F2F2"/>
<path d="M126.351 63.8052V80.7812L155.752 97.7572V80.7812L126.351 63.8052ZM151.696 87.8959C151.328 89.6811 149.913 90.1508 148.551 88.9397C147.189 87.7285 146.374 85.282 146.741 83.5029C147.107 81.7238 148.523 81.2542 149.886 82.4592C151.25 83.6642 152.064 86.1107 151.696 87.8959Z" fill="#35D4EF"/>
<path d="M112.3 72.3193L108.735 74.1865L112.3 76.2447V89.2953L138.136 104.213V108.139L141.701 106.271V89.2953L112.3 72.3193ZM135.778 97.5983C135.41 99.3834 133.994 99.8531 132.632 98.642C131.27 97.4309 130.455 94.9844 130.822 93.2053C131.188 91.4262 132.604 90.9565 133.968 92.1615C135.331 93.3665 136.146 95.8131 135.778 97.5983Z" fill="#A6F2F2"/>
<path d="M108.735 74.1865V91.1625L138.136 108.139V91.1625L108.735 74.1865ZM134.08 98.2773C133.712 100.062 132.297 100.532 130.934 99.321C129.572 98.1099 128.758 95.6634 129.124 93.8843C129.491 92.1052 130.907 91.6355 132.27 92.8405C133.634 94.0456 134.448 96.4921 134.08 98.2773Z" fill="url(#paint16_linear_1965_3502)"/>
</g>
<defs>
<linearGradient id="paint0_linear_1965_3502" x1="-42.7581" y1="241.02" x2="369.53" y2="-50.0631" gradientUnits="userSpaceOnUse">
<stop offset="0.17039" stop-color="#0516B1"/>
<stop offset="0.2578" stop-color="#051DB3"/>
<stop offset="0.39177" stop-color="#0533B8"/>
<stop offset="0.55559" stop-color="#0656C2"/>
<stop offset="0.74293" stop-color="#0786CF"/>
<stop offset="0.94766" stop-color="#08C4E0"/>
<stop offset="1" stop-color="#09D5E5"/>
</linearGradient>
<linearGradient id="paint1_linear_1965_3502" x1="-0.703003" y1="75.1887" x2="158.625" y2="75.1887" gradientUnits="userSpaceOnUse">
<stop stop-color="#0516B1"/>
<stop offset="0.44657" stop-color="#191692" stop-opacity="0.89188"/>
<stop offset="0.79502" stop-color="#26167F" stop-opacity="0.82489"/>
<stop offset="1" stop-color="#2B1679" stop-opacity="0.8"/>
</linearGradient>
<linearGradient id="paint2_linear_1965_3502" x1="-47.6474" y1="191.852" x2="241.527" y2="151.291" gradientUnits="userSpaceOnUse">
<stop offset="0.2324" stop-color="#0516B1" stop-opacity="0.2"/>
<stop offset="0.43629" stop-color="#0C16A6" stop-opacity="0.31132"/>
<stop offset="0.79781" stop-color="#1E168B" stop-opacity="0.60685"/>
<stop offset="1" stop-color="#2B1679" stop-opacity="0.8"/>
</linearGradient>
<linearGradient id="paint3_linear_1965_3502" x1="-17.4742" y1="41.9407" x2="79.1481" y2="41.9407" gradientUnits="userSpaceOnUse">
<stop stop-color="#0878FF"/>
<stop offset="1" stop-color="#A6F2F2"/>
</linearGradient>
<linearGradient id="paint4_linear_1965_3502" x1="49.1586" y1="71.521" x2="99.621" y2="39.4899" gradientUnits="userSpaceOnUse">
<stop stop-color="#3088E8"/>
<stop offset="0.03237" stop-color="#358DE8"/>
<stop offset="0.3246" stop-color="#65B8EC"/>
<stop offset="0.58211" stop-color="#88D7EF"/>
<stop offset="0.79275" stop-color="#9EEBF1"/>
<stop offset="0.93017" stop-color="#A6F2F2"/>
</linearGradient>
<linearGradient id="paint5_linear_1965_3502" x1="42.2935" y1="82.8972" x2="69.9702" y2="53.7888" gradientUnits="userSpaceOnUse">
<stop stop-color="#0516B1"/>
<stop offset="0.18944" stop-color="#1238C1"/>
<stop offset="0.42992" stop-color="#205ED4"/>
<stop offset="0.65304" stop-color="#2A79E1"/>
<stop offset="0.85002" stop-color="#308AE9"/>
<stop offset="1" stop-color="#3390EC"/>
</linearGradient>
<linearGradient id="paint6_linear_1965_3502" x1="53.0441" y1="101.547" x2="143.411" y2="45.1797" gradientUnits="userSpaceOnUse">
<stop stop-color="#3088E8"/>
<stop offset="0.03237" stop-color="#358DE8"/>
<stop offset="0.3246" stop-color="#65B8EC"/>
<stop offset="0.58211" stop-color="#88D7EF"/>
<stop offset="0.79275" stop-color="#9EEBF1"/>
<stop offset="0.93017" stop-color="#A6F2F2"/>
</linearGradient>
<linearGradient id="paint7_linear_1965_3502" x1="54.9342" y1="98.3768" x2="96.9265" y2="73.5632" gradientUnits="userSpaceOnUse">
<stop stop-color="#0516B1"/>
<stop offset="0.18944" stop-color="#1238C1"/>
<stop offset="0.42992" stop-color="#205ED4"/>
<stop offset="0.65304" stop-color="#2A79E1"/>
<stop offset="0.85002" stop-color="#308AE9"/>
<stop offset="1" stop-color="#3390EC"/>
</linearGradient>
<linearGradient id="paint8_linear_1965_3502" x1="86.7323" y1="105.982" x2="128.784" y2="68.4033" gradientUnits="userSpaceOnUse">
<stop stop-color="#194BCB"/>
<stop offset="0.26354" stop-color="#2272D8"/>
<stop offset="0.59244" stop-color="#2C9EE8"/>
<stop offset="0.84906" stop-color="#32B9F1"/>
<stop offset="1" stop-color="#35C3F5"/>
</linearGradient>
<linearGradient id="paint9_linear_1965_3502" x1="153.611" y1="187.203" x2="240.936" y2="115.983" gradientUnits="userSpaceOnUse">
<stop stop-color="#3088E8"/>
<stop offset="0.03237" stop-color="#358DE8"/>
<stop offset="0.3246" stop-color="#65B8EC"/>
<stop offset="0.58211" stop-color="#88D7EF"/>
<stop offset="0.79275" stop-color="#9EEBF1"/>
<stop offset="0.93017" stop-color="#A6F2F2"/>
</linearGradient>
<linearGradient id="paint10_linear_1965_3502" x1="160.982" y1="186.716" x2="196.294" y2="141.384" gradientUnits="userSpaceOnUse">
<stop stop-color="#0516B1"/>
<stop offset="0.18944" stop-color="#1238C1"/>
<stop offset="0.42992" stop-color="#205ED4"/>
<stop offset="0.65304" stop-color="#2A79E1"/>
<stop offset="0.85002" stop-color="#308AE9"/>
<stop offset="1" stop-color="#3390EC"/>
</linearGradient>
<linearGradient id="paint11_linear_1965_3502" x1="197.228" y1="190.127" x2="230.87" y2="141.275" gradientUnits="userSpaceOnUse">
<stop stop-color="#194BCB"/>
<stop offset="0.26354" stop-color="#2272D8"/>
<stop offset="0.59244" stop-color="#2C9EE8"/>
<stop offset="0.84906" stop-color="#32B9F1"/>
<stop offset="1" stop-color="#35C3F5"/>
</linearGradient>
<linearGradient id="paint12_linear_1965_3502" x1="184.314" y1="209.296" x2="251.24" y2="130.203" gradientUnits="userSpaceOnUse">
<stop stop-color="#3088E8"/>
<stop offset="0.03237" stop-color="#358DE8"/>
<stop offset="0.3246" stop-color="#65B8EC"/>
<stop offset="0.58211" stop-color="#88D7EF"/>
<stop offset="0.79275" stop-color="#9EEBF1"/>
<stop offset="0.93017" stop-color="#A6F2F2"/>
</linearGradient>
<linearGradient id="paint13_linear_1965_3502" x1="195.661" y1="198.321" x2="219.043" y2="154.897" gradientUnits="userSpaceOnUse">
<stop stop-color="#0516B1"/>
<stop offset="0.18944" stop-color="#1238C1"/>
<stop offset="0.42992" stop-color="#205ED4"/>
<stop offset="0.65304" stop-color="#2A79E1"/>
<stop offset="0.85002" stop-color="#308AE9"/>
<stop offset="1" stop-color="#3390EC"/>
</linearGradient>
<linearGradient id="paint14_linear_1965_3502" x1="236.427" y1="187.226" x2="241.795" y2="157.163" gradientUnits="userSpaceOnUse">
<stop stop-color="#194BCB"/>
<stop offset="0.26354" stop-color="#2272D8"/>
<stop offset="0.59244" stop-color="#2C9EE8"/>
<stop offset="0.84906" stop-color="#32B9F1"/>
<stop offset="1" stop-color="#35C3F5"/>
</linearGradient>
<linearGradient id="paint15_linear_1965_3502" x1="239.986" y1="170.829" x2="335.502" y2="170.829" gradientUnits="userSpaceOnUse">
<stop stop-color="#A6F2F2"/>
<stop offset="1" stop-color="#0878FF"/>
</linearGradient>
<linearGradient id="paint16_linear_1965_3502" x1="111.452" y1="92.3501" x2="131.315" y2="90.3817" gradientUnits="userSpaceOnUse">
<stop offset="0.15531" stop-color="#35C3F5"/>
<stop offset="0.95698" stop-color="#35D4EF"/>
</linearGradient>
</defs>
</svg>
