<svg width="191" height="166" viewBox="0 0 191 166" fill="none" xmlns="http://www.w3.org/2000/svg">
<rect x="0.101074" y="0.723145" width="190.613" height="164.391" rx="4.03415" fill="white"/>
<path d="M37.9054 95.8771C39.0203 95.8771 39.8338 96.1056 40.346 96.5626C40.8581 97.0195 41.1142 97.6597 41.1142 98.4831C41.1142 98.8574 41.0551 99.2139 40.9369 99.5527C40.8226 99.8876 40.6335 100.185 40.3696 100.445C40.1056 100.701 39.757 100.904 39.3236 101.054C38.8942 101.203 38.3643 101.278 37.734 101.278H36.8121V104.517H35.3939V95.8771H37.9054ZM37.8108 97.053H36.8121V100.096H37.5863C38.0314 100.096 38.4096 100.045 38.7209 99.9427C39.0321 99.8364 39.2685 99.6689 39.43 99.4404C39.5915 99.2119 39.6723 98.9106 39.6723 98.5363C39.6723 98.036 39.5206 97.6637 39.2173 97.4194C38.9179 97.1752 38.449 97.053 37.8108 97.053ZM45.2626 97.8508C46.0899 97.8508 46.7143 98.034 47.1359 98.4004C47.5613 98.7668 47.7741 99.338 47.7741 100.114V104.517H46.7872L46.5213 103.589H46.474C46.2888 103.825 46.0978 104.02 45.9008 104.174C45.7038 104.328 45.4753 104.442 45.2153 104.517C44.9592 104.595 44.646 104.635 44.2757 104.635C43.8857 104.635 43.537 104.564 43.2297 104.422C42.9225 104.276 42.6802 104.056 42.5029 103.76C42.3256 103.465 42.237 103.09 42.237 102.637C42.237 101.964 42.4871 101.458 42.9875 101.119C43.4917 100.78 44.2521 100.593 45.2685 100.557L46.4031 100.516V100.173C46.4031 99.7201 46.2967 99.3971 46.084 99.2041C45.8752 99.011 45.5797 98.9145 45.1976 98.9145C44.8706 98.9145 44.5534 98.9618 44.2462 99.0563C43.9389 99.1509 43.6395 99.2671 43.3479 99.405L42.8988 98.424C43.2179 98.2546 43.5804 98.1167 43.9861 98.0104C44.3959 97.904 44.8213 97.8508 45.2626 97.8508ZM46.3972 101.391L45.5521 101.42C44.8588 101.444 44.3722 101.562 44.0925 101.775C43.8128 101.987 43.6729 102.279 43.6729 102.649C43.6729 102.972 43.7695 103.209 43.9625 103.358C44.1555 103.504 44.4097 103.577 44.7248 103.577C45.2054 103.577 45.6033 103.441 45.9185 103.169C46.2376 102.893 46.3972 102.49 46.3972 101.958V101.391ZM48.7314 97.9749H50.2442L51.5856 101.71C51.6447 101.879 51.6979 102.046 51.7452 102.212C51.7964 102.373 51.8397 102.533 51.8752 102.691C51.9146 102.848 51.9461 103.006 51.9697 103.163H52.0052C52.0446 102.958 52.0997 102.73 52.1707 102.478C52.2455 102.222 52.3282 101.966 52.4189 101.71L53.7071 97.9749H55.2022L52.3952 105.415C52.2337 105.84 52.0347 106.203 51.7984 106.502C51.5659 106.806 51.2902 107.034 50.971 107.188C50.6519 107.345 50.2875 107.424 49.8778 107.424C49.6808 107.424 49.5095 107.412 49.3637 107.389C49.2179 107.369 49.0938 107.347 48.9914 107.324V106.213C49.0741 106.232 49.1785 106.25 49.3046 106.266C49.4307 106.282 49.5607 106.289 49.6946 106.289C49.9428 106.289 50.1575 106.24 50.3387 106.142C50.52 106.043 50.6736 105.903 50.7997 105.722C50.9257 105.545 51.0301 105.342 51.1129 105.113L51.3433 104.499L48.7314 97.9749ZM63.5876 97.8508C64.3204 97.8508 64.8719 98.0399 65.2422 98.4181C65.6165 98.7963 65.8036 99.403 65.8036 100.238V104.517H64.4149V100.486C64.4149 99.99 64.3184 99.6157 64.1254 99.3636C63.9323 99.1115 63.6388 98.9854 63.2449 98.9854C62.6933 98.9854 62.2954 99.1627 62.0512 99.5173C61.8108 99.8679 61.6907 100.378 61.6907 101.048V104.517H60.302V100.486C60.302 100.155 60.2586 99.8797 60.172 99.6591C60.0892 99.4345 59.9612 99.2671 59.7879 99.1568C59.6145 99.0425 59.3959 98.9854 59.1319 98.9854C58.7498 98.9854 58.4445 99.0721 58.216 99.2454C57.9914 99.4188 57.8299 99.6748 57.7314 100.014C57.6329 100.349 57.5837 100.76 57.5837 101.249V104.517H56.195V97.9749H57.2764L57.4714 98.8554H57.5482C57.6822 98.6269 57.8476 98.4398 58.0446 98.294C58.2455 98.1443 58.4681 98.034 58.7124 97.9631C58.9566 97.8882 59.2107 97.8508 59.4747 97.8508C59.9632 97.8508 60.3749 97.9375 60.7097 98.1108C61.0446 98.2802 61.2948 98.5402 61.4602 98.8909H61.5666C61.7715 98.5363 62.0571 98.2743 62.4235 98.1049C62.7898 97.9355 63.1779 97.8508 63.5876 97.8508ZM70.348 97.8508C70.931 97.8508 71.4313 97.971 71.8489 98.2113C72.2665 98.4516 72.5876 98.7924 72.8122 99.2336C73.0367 99.6748 73.149 100.203 73.149 100.817V101.562H68.782C68.7977 102.196 68.9671 102.685 69.2902 103.027C69.6172 103.37 70.0742 103.542 70.6612 103.542C71.0788 103.542 71.453 103.502 71.7839 103.423C72.1188 103.341 72.4635 103.22 72.8181 103.063V104.192C72.4911 104.345 72.1582 104.458 71.8194 104.528C71.4806 104.599 71.0748 104.635 70.6021 104.635C69.9599 104.635 69.3946 104.511 68.9061 104.262C68.4215 104.01 68.0413 103.636 67.7655 103.14C67.4937 102.643 67.3578 102.027 67.3578 101.29C67.3578 100.557 67.4819 99.9349 67.7301 99.4227C67.9783 98.9106 68.3269 98.5205 68.7761 98.2526C69.2252 97.9848 69.7491 97.8508 70.348 97.8508ZM70.348 98.8968C69.9107 98.8968 69.5561 99.0386 69.2843 99.3222C69.0164 99.6059 68.8588 100.022 68.8115 100.569H71.7898C71.7859 100.242 71.7308 99.9526 71.6244 99.7004C71.522 99.4483 71.3644 99.2513 71.1516 99.1095C70.9428 98.9677 70.6749 98.8968 70.348 98.8968ZM78.1247 97.8508C78.8614 97.8508 79.4346 98.0419 79.8444 98.424C80.258 98.8022 80.4648 99.4109 80.4648 100.25V104.517H79.0761V100.51C79.0761 100.002 78.9717 99.6217 78.7629 99.3695C78.5541 99.1134 78.2311 98.9854 77.7938 98.9854C77.1595 98.9854 76.7183 99.1804 76.4701 99.5704C76.2258 99.9605 76.1037 100.526 76.1037 101.266V104.517H74.715V97.9749H75.7964L75.9914 98.8613H76.0682C76.2101 98.6328 76.3854 98.4457 76.5942 98.2999C76.8069 98.1502 77.0433 98.0379 77.3033 97.9631C77.5673 97.8882 77.8411 97.8508 78.1247 97.8508ZM84.8437 103.512C85.0249 103.512 85.2042 103.496 85.3815 103.465C85.5587 103.429 85.7203 103.388 85.866 103.341V104.393C85.7124 104.459 85.5134 104.517 85.2692 104.564C85.0249 104.611 84.7708 104.635 84.5069 104.635C84.1365 104.635 83.8036 104.574 83.5082 104.452C83.2127 104.326 82.9783 104.111 82.805 103.807C82.6316 103.504 82.5449 103.085 82.5449 102.549V99.0327H81.6526V98.4122L82.6099 97.9217L83.065 96.5212H83.9396V97.9749H85.8128V99.0327H83.9396V102.531C83.9396 102.862 84.0223 103.108 84.1878 103.27C84.3532 103.431 84.5719 103.512 84.8437 103.512ZM92.975 104.635C92.3565 104.635 91.8207 104.515 91.3677 104.274C90.9146 104.034 90.566 103.666 90.3217 103.169C90.0775 102.673 89.9553 102.043 89.9553 101.278C89.9553 100.482 90.0893 99.8324 90.3572 99.3282C90.6251 98.8239 90.9954 98.4516 91.4681 98.2113C91.9448 97.971 92.4905 97.8508 93.105 97.8508C93.4951 97.8508 93.8476 97.8902 94.1628 97.969C94.4819 98.0438 94.7518 98.1364 94.9724 98.2467L94.5587 99.3577C94.3184 99.2592 94.0722 99.1765 93.8201 99.1095C93.5679 99.0425 93.3256 99.009 93.0932 99.009C92.7111 99.009 92.392 99.0937 92.1359 99.2631C91.8838 99.4326 91.6947 99.6847 91.5686 100.02C91.4465 100.354 91.3854 100.77 91.3854 101.266C91.3854 101.747 91.4484 102.153 91.5745 102.484C91.7006 102.811 91.8877 103.059 92.1359 103.228C92.3841 103.394 92.6894 103.477 93.0518 103.477C93.4104 103.477 93.7314 103.433 94.0151 103.347C94.2987 103.26 94.5666 103.148 94.8188 103.01V104.215C94.5706 104.357 94.3046 104.461 94.021 104.528C93.7373 104.599 93.3887 104.635 92.975 104.635ZM102.146 101.231C102.146 101.775 102.075 102.257 101.934 102.679C101.792 103.1 101.585 103.457 101.313 103.748C101.041 104.036 100.714 104.257 100.332 104.41C99.9501 104.56 99.5187 104.635 99.0381 104.635C98.5889 104.635 98.1773 104.56 97.803 104.41C97.4287 104.257 97.1037 104.036 96.8279 103.748C96.5561 103.457 96.3453 103.1 96.1956 102.679C96.0459 102.257 95.9711 101.775 95.9711 101.231C95.9711 100.51 96.0952 99.8994 96.3434 99.3991C96.5955 98.8948 96.954 98.5107 97.4189 98.2467C97.8838 97.9828 98.4373 97.8508 99.0794 97.8508C99.6822 97.8508 100.214 97.9828 100.675 98.2467C101.136 98.5107 101.496 98.8948 101.756 99.3991C102.016 99.9033 102.146 100.514 102.146 101.231ZM97.4012 101.231C97.4012 101.708 97.4583 102.115 97.5725 102.454C97.6907 102.793 97.8719 103.053 98.1162 103.234C98.3605 103.412 98.6756 103.5 99.0617 103.5C99.4478 103.5 99.7629 103.412 100.007 103.234C100.251 103.053 100.431 102.793 100.545 102.454C100.659 102.115 100.716 101.708 100.716 101.231C100.716 100.754 100.659 100.35 100.545 100.02C100.431 99.6847 100.251 99.4306 100.007 99.2572C99.7629 99.08 99.4458 98.9913 99.0558 98.9913C98.4806 98.9913 98.061 99.1844 97.7971 99.5704C97.5331 99.9565 97.4012 100.51 97.4012 101.231ZM111.135 97.8508C111.867 97.8508 112.419 98.0399 112.789 98.4181C113.163 98.7963 113.351 99.403 113.351 100.238V104.517H111.962V100.486C111.962 99.99 111.865 99.6157 111.672 99.3636C111.479 99.1115 111.186 98.9854 110.792 98.9854C110.24 98.9854 109.842 99.1627 109.598 99.5173C109.358 99.8679 109.238 100.378 109.238 101.048V104.517H107.849V100.486C107.849 100.155 107.806 99.8797 107.719 99.6591C107.636 99.4345 107.508 99.2671 107.335 99.1568C107.162 99.0425 106.943 98.9854 106.679 98.9854C106.297 98.9854 105.991 99.0721 105.763 99.2454C105.538 99.4188 105.377 99.6748 105.278 100.014C105.18 100.349 105.131 100.76 105.131 101.249V104.517H103.742V97.9749H104.823L105.018 98.8554H105.095C105.229 98.6269 105.395 98.4398 105.592 98.294C105.792 98.1443 106.015 98.034 106.259 97.9631C106.504 97.8882 106.758 97.8508 107.022 97.8508C107.51 97.8508 107.922 97.9375 108.257 98.1108C108.592 98.2802 108.842 98.5402 109.007 98.8909H109.114C109.318 98.5363 109.604 98.2743 109.97 98.1049C110.337 97.9355 110.725 97.8508 111.135 97.8508ZM118.645 97.8508C119.422 97.8508 120.044 98.1345 120.513 98.7018C120.986 99.2691 121.222 100.112 121.222 101.231C121.222 101.972 121.112 102.596 120.891 103.104C120.674 103.609 120.369 103.991 119.975 104.251C119.585 104.507 119.13 104.635 118.61 104.635C118.279 104.635 117.991 104.591 117.747 104.505C117.503 104.418 117.294 104.306 117.121 104.168C116.947 104.026 116.802 103.872 116.684 103.707H116.601C116.62 103.865 116.638 104.04 116.654 104.233C116.674 104.422 116.684 104.595 116.684 104.753V107.418H115.289V97.9749H116.424L116.619 98.879H116.684C116.806 98.6939 116.953 98.5225 117.127 98.3649C117.304 98.2073 117.517 98.0832 117.765 97.9926C118.017 97.8981 118.311 97.8508 118.645 97.8508ZM118.273 98.9854C117.891 98.9854 117.584 99.0622 117.351 99.2159C117.123 99.3656 116.955 99.5921 116.849 99.8955C116.747 100.199 116.691 100.579 116.684 101.036V101.231C116.684 101.716 116.733 102.127 116.831 102.466C116.934 102.801 117.101 103.057 117.334 103.234C117.57 103.408 117.889 103.494 118.291 103.494C118.63 103.494 118.909 103.402 119.13 103.217C119.355 103.031 119.522 102.767 119.632 102.425C119.743 102.082 119.798 101.678 119.798 101.213C119.798 100.508 119.672 99.9605 119.42 99.5704C119.171 99.1804 118.789 98.9854 118.273 98.9854ZM124.224 104.517H122.829V95.3216H124.224V104.517ZM128.815 97.8508C129.399 97.8508 129.899 97.971 130.316 98.2113C130.734 98.4516 131.055 98.7924 131.28 99.2336C131.504 99.6748 131.617 100.203 131.617 100.817V101.562H127.25C127.265 102.196 127.435 102.685 127.758 103.027C128.085 103.37 128.542 103.542 129.129 103.542C129.546 103.542 129.921 103.502 130.251 103.423C130.586 103.341 130.931 103.22 131.286 103.063V104.192C130.959 104.345 130.626 104.458 130.287 104.528C129.948 104.599 129.542 104.635 129.07 104.635C128.427 104.635 127.862 104.511 127.374 104.262C126.889 104.01 126.509 103.636 126.233 103.14C125.961 102.643 125.825 102.027 125.825 101.29C125.825 100.557 125.949 99.9349 126.198 99.4227C126.446 98.9106 126.794 98.5205 127.244 98.2526C127.693 97.9848 128.217 97.8508 128.815 97.8508ZM128.815 98.8968C128.378 98.8968 128.024 99.0386 127.752 99.3222C127.484 99.6059 127.326 100.022 127.279 100.569H130.257C130.253 100.242 130.198 99.9526 130.092 99.7004C129.989 99.4483 129.832 99.2513 129.619 99.1095C129.41 98.9677 129.142 98.8968 128.815 98.8968ZM135.617 103.512C135.798 103.512 135.978 103.496 136.155 103.465C136.332 103.429 136.494 103.388 136.64 103.341V104.393C136.486 104.459 136.287 104.517 136.043 104.564C135.798 104.611 135.544 104.635 135.28 104.635C134.91 104.635 134.577 104.574 134.282 104.452C133.986 104.326 133.752 104.111 133.578 103.807C133.405 103.504 133.318 103.085 133.318 102.549V99.0327H132.426V98.4122L133.383 97.9217L133.838 96.5212H134.713V97.9749H136.586V99.0327H134.713V102.531C134.713 102.862 134.796 103.108 134.961 103.27C135.127 103.431 135.345 103.512 135.617 103.512ZM140.575 97.8508C141.158 97.8508 141.659 97.971 142.076 98.2113C142.494 98.4516 142.815 98.7924 143.039 99.2336C143.264 99.6748 143.376 100.203 143.376 100.817V101.562H139.009C139.025 102.196 139.194 102.685 139.517 103.027C139.844 103.37 140.301 103.542 140.888 103.542C141.306 103.542 141.68 103.502 142.011 103.423C142.346 103.341 142.691 103.22 143.045 103.063V104.192C142.718 104.345 142.385 104.458 142.047 104.528C141.708 104.599 141.302 104.635 140.829 104.635C140.187 104.635 139.622 104.511 139.133 104.262C138.649 104.01 138.269 103.636 137.993 103.14C137.721 102.643 137.585 102.027 137.585 101.29C137.585 100.557 137.709 99.9349 137.957 99.4227C138.206 98.9106 138.554 98.5205 139.003 98.2526C139.452 97.9848 139.976 97.8508 140.575 97.8508ZM140.575 98.8968C140.138 98.8968 139.783 99.0386 139.512 99.3222C139.244 99.6059 139.086 100.022 139.039 100.569H142.017C142.013 100.242 141.958 99.9526 141.852 99.7004C141.749 99.4483 141.592 99.2513 141.379 99.1095C141.17 98.9677 140.902 98.8968 140.575 98.8968ZM147.141 104.635C146.36 104.635 145.734 104.351 145.261 103.784C144.793 103.213 144.558 102.371 144.558 101.261C144.558 100.138 144.796 99.2888 145.273 98.7136C145.754 98.1384 146.386 97.8508 147.17 97.8508C147.501 97.8508 147.791 97.8961 148.039 97.9867C148.287 98.0734 148.5 98.1916 148.677 98.3413C148.858 98.491 149.012 98.6584 149.138 98.8436H149.203C149.183 98.7215 149.16 98.5461 149.132 98.3176C149.108 98.0852 149.097 97.8705 149.097 97.6735V95.3216H150.491V104.517H149.404L149.156 103.624H149.097C148.978 103.813 148.829 103.985 148.647 104.138C148.47 104.288 148.257 104.408 148.009 104.499C147.765 104.589 147.475 104.635 147.141 104.635ZM147.531 103.506C148.125 103.506 148.545 103.335 148.789 102.992C149.034 102.649 149.16 102.135 149.167 101.45V101.266C149.167 100.534 149.049 99.9723 148.813 99.5823C148.577 99.1883 148.145 98.9913 147.519 98.9913C147.018 98.9913 146.636 99.1942 146.372 99.6C146.112 100.002 145.982 100.563 145.982 101.284C145.982 102.005 146.112 102.557 146.372 102.939C146.636 103.317 147.022 103.506 147.531 103.506ZM153.682 101.881H152.636L152.353 95.8771H153.966L153.682 101.881ZM152.282 103.784C152.282 103.461 152.364 103.234 152.53 103.104C152.699 102.97 152.906 102.903 153.15 102.903C153.391 102.903 153.596 102.97 153.765 103.104C153.934 103.234 154.019 103.461 154.019 103.784C154.019 104.099 153.934 104.328 153.765 104.469C153.596 104.607 153.391 104.676 153.15 104.676C152.906 104.676 152.699 104.607 152.53 104.469C152.364 104.328 152.282 104.099 152.282 103.784Z" fill="#2F363E"/>
<path d="M58.0774 135.773V133.863C57.3109 133.851 56.6031 133.783 55.954 133.659C55.3111 133.529 54.7547 133.362 54.2849 133.158V131.183C54.7609 131.406 55.3482 131.607 56.0467 131.786C56.7453 131.965 57.4222 132.067 58.0774 132.092V128.615C57.1811 128.312 56.4516 127.997 55.8891 127.669C55.3327 127.341 54.9247 126.961 54.6651 126.528C54.4055 126.09 54.2756 125.564 54.2756 124.952C54.2756 124.322 54.4333 123.781 54.7485 123.329C55.07 122.872 55.5151 122.51 56.0838 122.245C56.6587 121.979 57.3233 121.821 58.0774 121.772V120.26H59.2829V121.744C59.9691 121.762 60.6027 121.84 61.1838 121.976C61.7711 122.105 62.3305 122.288 62.8622 122.523L62.1852 124.247C61.7216 124.062 61.2394 123.91 60.7387 123.793C60.238 123.676 59.7527 123.595 59.2829 123.552V126.946C60.0371 127.193 60.7078 127.459 61.2951 127.743C61.8885 128.028 62.3522 128.386 62.686 128.819C63.026 129.245 63.196 129.805 63.196 130.497C63.196 131.406 62.8622 132.157 62.1945 132.75C61.5269 133.338 60.5563 133.69 59.2829 133.808V135.773H58.0774ZM59.2829 132.018C59.8763 131.944 60.3183 131.789 60.6089 131.554C60.8994 131.313 61.0447 131.001 61.0447 130.618C61.0447 130.358 60.9829 130.139 60.8593 129.959C60.7418 129.78 60.5533 129.619 60.2936 129.477C60.0402 129.335 59.7033 129.196 59.2829 129.06V132.018ZM58.0774 126.491V123.589C57.7189 123.626 57.416 123.7 57.1687 123.812C56.9214 123.923 56.736 124.068 56.6124 124.247C56.4887 124.427 56.4269 124.64 56.4269 124.887C56.4269 125.159 56.4825 125.391 56.5938 125.583C56.7051 125.774 56.8813 125.941 57.1224 126.083C57.3696 126.226 57.688 126.362 58.0774 126.491ZM69.6034 126.195C70.475 126.195 71.2416 126.352 71.903 126.668C72.5707 126.977 73.0899 127.434 73.4609 128.04C73.8318 128.64 74.0172 129.375 74.0172 130.247C74.0172 131.199 73.8163 132.021 73.4145 132.713C73.0127 133.4 72.4223 133.928 71.6434 134.299C70.8645 134.67 69.9156 134.855 68.7967 134.855C68.0858 134.855 67.4212 134.794 66.8031 134.67C66.1911 134.546 65.6625 134.361 65.2174 134.114V132.148C65.6811 132.407 66.2374 132.621 66.8865 132.788C67.5356 132.948 68.1569 133.029 68.7503 133.029C69.3809 133.029 69.9218 132.936 70.373 132.75C70.8243 132.565 71.1705 132.281 71.4116 131.897C71.6589 131.514 71.7825 131.029 71.7825 130.442C71.7825 129.663 71.5321 129.063 71.0314 128.643C70.5369 128.216 69.761 128.003 68.704 128.003C68.3331 128.003 67.9374 128.037 67.5171 128.105C67.1029 128.167 66.7567 128.235 66.4785 128.309L65.5234 127.743L66.0334 121.113H73.0807V123.033H67.9529L67.6561 126.408C67.8787 126.358 68.1445 126.312 68.4536 126.269C68.7627 126.219 69.146 126.195 69.6034 126.195ZM85.0425 127.882C85.0425 128.976 84.9559 129.956 84.7828 130.822C84.6159 131.681 84.3501 132.41 83.9854 133.01C83.6206 133.61 83.1446 134.067 82.5574 134.382C81.9701 134.698 81.2592 134.855 80.4247 134.855C79.3799 134.855 78.5176 134.58 77.8376 134.03C77.1576 133.474 76.6538 132.676 76.3261 131.638C75.9985 130.593 75.8347 129.341 75.8347 127.882C75.8347 126.423 75.983 125.175 76.2798 124.136C76.5827 123.091 77.071 122.291 77.7448 121.735C78.4187 121.178 79.3119 120.9 80.4247 120.9C81.4756 120.9 82.341 121.178 83.021 121.735C83.7072 122.285 84.2141 123.082 84.5417 124.127C84.8755 125.165 85.0425 126.417 85.0425 127.882ZM78.0323 127.882C78.0323 129.026 78.1065 129.981 78.2548 130.748C78.4094 131.514 78.6628 132.089 79.0152 132.472C79.3676 132.849 79.8374 133.038 80.4247 133.038C81.0119 133.038 81.4817 132.849 81.8341 132.472C82.1865 132.095 82.4399 131.523 82.5945 130.757C82.7552 129.99 82.8356 129.032 82.8356 127.882C82.8356 126.745 82.7583 125.793 82.6037 125.026C82.4492 124.26 82.1957 123.685 81.8434 123.302C81.491 122.912 81.0181 122.717 80.4247 122.717C79.8312 122.717 79.3583 122.912 79.0059 123.302C78.6597 123.685 78.4094 124.26 78.2548 125.026C78.1065 125.793 78.0323 126.745 78.0323 127.882ZM87.1195 133.52C87.1195 133.013 87.2494 132.658 87.509 132.454C87.7748 132.244 88.0963 132.138 88.4734 132.138C88.8504 132.138 89.1719 132.244 89.4377 132.454C89.7097 132.658 89.8457 133.013 89.8457 133.52C89.8457 134.015 89.7097 134.373 89.4377 134.596C89.1719 134.812 88.8504 134.92 88.4734 134.92C88.0963 134.92 87.7748 134.812 87.509 134.596C87.2494 134.373 87.1195 134.015 87.1195 133.52ZM101.121 127.882C101.121 128.976 101.035 129.956 100.862 130.822C100.695 131.681 100.429 132.41 100.064 133.01C99.6995 133.61 99.2235 134.067 98.6362 134.382C98.049 134.698 97.3381 134.855 96.5035 134.855C95.4588 134.855 94.5964 134.58 93.9164 134.03C93.2364 133.474 92.7326 132.676 92.405 131.638C92.0773 130.593 91.9135 129.341 91.9135 127.882C91.9135 126.423 92.0619 125.175 92.3586 124.136C92.6615 123.091 93.1499 122.291 93.8237 121.735C94.4975 121.178 95.3908 120.9 96.5035 120.9C97.5544 120.9 98.4199 121.178 99.0999 121.735C99.7861 122.285 100.293 123.082 100.621 124.127C100.954 125.165 101.121 126.417 101.121 127.882ZM94.1112 127.882C94.1112 129.026 94.1853 129.981 94.3337 130.748C94.4882 131.514 94.7417 132.089 95.0941 132.472C95.4464 132.849 95.9162 133.038 96.5035 133.038C97.0908 133.038 97.5606 132.849 97.913 132.472C98.2653 132.095 98.5188 131.523 98.6733 130.757C98.8341 129.99 98.9144 129.032 98.9144 127.882C98.9144 126.745 98.8371 125.793 98.6826 125.026C98.5281 124.26 98.2746 123.685 97.9222 123.302C97.5699 122.912 97.097 122.717 96.5035 122.717C95.9101 122.717 95.4372 122.912 95.0848 123.302C94.7386 123.685 94.4882 124.26 94.3337 125.026C94.1853 125.793 94.1112 126.745 94.1112 127.882ZM111.989 127.882C111.989 128.976 111.902 129.956 111.729 130.822C111.562 131.681 111.297 132.41 110.932 133.01C110.567 133.61 110.091 134.067 109.504 134.382C108.917 134.698 108.206 134.855 107.371 134.855C106.326 134.855 105.464 134.58 104.784 134.03C104.104 133.474 103.6 132.676 103.273 131.638C102.945 130.593 102.781 129.341 102.781 127.882C102.781 126.423 102.929 125.175 103.226 124.136C103.529 123.091 104.017 122.291 104.691 121.735C105.365 121.178 106.258 120.9 107.371 120.9C108.422 120.9 109.287 121.178 109.967 121.735C110.654 122.285 111.161 123.082 111.488 124.127C111.822 125.165 111.989 126.417 111.989 127.882ZM104.979 127.882C104.979 129.026 105.053 129.981 105.201 130.748C105.356 131.514 105.609 132.089 105.962 132.472C106.314 132.849 106.784 133.038 107.371 133.038C107.958 133.038 108.428 132.849 108.781 132.472C109.133 132.095 109.386 131.523 109.541 130.757C109.702 129.99 109.782 129.032 109.782 127.882C109.782 126.745 109.705 125.793 109.55 125.026C109.396 124.26 109.142 123.685 108.79 123.302C108.437 122.912 107.965 122.717 107.371 122.717C106.778 122.717 106.305 122.912 105.952 123.302C105.606 123.685 105.356 124.26 105.201 125.026C105.053 125.793 104.979 126.745 104.979 127.882Z" fill="#2F363E"/>
<path d="M124.414 123.47V128.129C124.414 128.638 124.31 129.091 124.103 129.488C123.9 129.885 123.591 130.199 123.178 130.429C122.764 130.655 122.245 130.768 121.622 130.768C120.732 130.768 120.054 130.527 119.588 130.045C119.125 129.562 118.893 128.917 118.893 128.109V123.47H119.735V128.134C119.735 128.744 119.896 129.216 120.218 129.547C120.543 129.879 121.027 130.045 121.671 130.045C122.111 130.045 122.47 129.966 122.749 129.808C123.032 129.647 123.24 129.424 123.375 129.138C123.513 128.85 123.581 128.516 123.581 128.139V123.47H124.414ZM130.387 128.754C130.387 129.181 130.28 129.545 130.067 129.848C129.857 130.146 129.561 130.374 129.181 130.532C128.8 130.69 128.352 130.768 127.836 130.768C127.564 130.768 127.306 130.755 127.063 130.729C126.82 130.703 126.597 130.665 126.393 130.616C126.19 130.567 126.011 130.506 125.857 130.434V129.631C126.103 129.733 126.403 129.828 126.758 129.916C127.112 130.002 127.483 130.045 127.871 130.045C128.232 130.045 128.537 129.997 128.787 129.902C129.036 129.803 129.225 129.664 129.353 129.483C129.484 129.299 129.55 129.079 129.55 128.823C129.55 128.577 129.496 128.372 129.387 128.208C129.279 128.04 129.099 127.889 128.846 127.755C128.596 127.617 128.255 127.471 127.821 127.316C127.516 127.208 127.247 127.09 127.014 126.962C126.781 126.83 126.585 126.683 126.428 126.519C126.27 126.354 126.15 126.164 126.068 125.947C125.99 125.731 125.95 125.483 125.95 125.204C125.95 124.82 126.047 124.491 126.241 124.219C126.438 123.943 126.709 123.733 127.053 123.588C127.401 123.441 127.8 123.367 128.25 123.367C128.634 123.367 128.989 123.403 129.314 123.475C129.642 123.547 129.942 123.644 130.215 123.766L129.954 124.485C129.694 124.376 129.419 124.286 129.126 124.214C128.838 124.142 128.539 124.106 128.23 124.106C127.922 124.106 127.661 124.152 127.447 124.243C127.237 124.332 127.076 124.458 126.965 124.623C126.853 124.787 126.797 124.982 126.797 125.209C126.797 125.461 126.85 125.672 126.955 125.839C127.063 126.006 127.234 126.156 127.467 126.287C127.703 126.415 128.015 126.55 128.403 126.691C128.826 126.845 129.186 127.009 129.481 127.183C129.777 127.354 130.001 127.564 130.156 127.814C130.31 128.06 130.387 128.373 130.387 128.754ZM137.577 127.001C137.577 127.812 137.429 128.49 137.134 129.035C136.838 129.577 136.41 129.985 135.848 130.261C135.29 130.534 134.612 130.67 133.815 130.67H131.86V123.47H134.031C134.763 123.47 135.394 123.605 135.922 123.874C136.451 124.14 136.858 124.536 137.144 125.061C137.432 125.583 137.577 126.23 137.577 127.001ZM136.695 127.031C136.695 126.384 136.587 125.85 136.37 125.43C136.157 125.01 135.842 124.698 135.425 124.495C135.011 124.288 134.504 124.184 133.903 124.184H132.697V129.951H133.716C134.708 129.951 135.451 129.706 135.947 129.217C136.446 128.728 136.695 127.999 136.695 127.031Z" fill="#616F81"/>
<path d="M94.3996 72.3289C109.099 72.3289 121.126 60.3021 121.126 45.6027C121.126 30.9033 109.099 18.8765 94.3996 18.8765C79.7001 18.8765 67.6733 30.9033 67.6733 45.6027C67.6733 60.3021 79.7001 72.3289 94.3996 72.3289Z" fill="#91E02B" fill-opacity="0.33"/>
<path d="M84.9336 45.6027L91.2365 51.9057L103.865 39.2998" stroke="#91E02B" stroke-width="3.34078" stroke-linecap="round" stroke-linejoin="round"/>
</svg>
