<svg width="123" height="126" viewBox="0 0 123 126" fill="none" xmlns="http://www.w3.org/2000/svg">
<path fill-rule="evenodd" clip-rule="evenodd" d="M6.05153 20.73C18.0232 2.89436 47.9238 -8.09975 78.8004 9.23964C79.6921 9.74039 80.009 10.8692 79.5082 11.7609C79.0075 12.6526 77.8787 12.9695 76.987 12.4687C47.6868 -3.98541 19.9543 6.66239 9.12649 22.794C3.73023 30.8335 2.57083 40.1088 7.18153 48.2529C11.8336 56.47 22.6199 64.0044 42.1413 67.8289C43.1449 68.0255 43.7991 68.9984 43.6025 70.002C43.4058 71.0056 42.4329 71.6598 41.4293 71.4632C21.3717 67.5337 9.36003 59.6179 3.95875 50.0774C-1.48388 40.4639 0.0480459 29.6742 6.05153 20.73ZM37.7347 16.8289C38.6535 16.3799 39.7624 16.7609 40.2113 17.6797C43.683 24.7852 45.3173 30.5161 45.2153 36.3477C45.1138 42.149 43.2948 47.8505 40.2462 54.8752C39.8391 55.8134 38.7485 56.2438 37.8104 55.8367C36.8722 55.4295 36.4418 54.339 36.8489 53.4008C39.842 46.5041 41.4239 41.3436 41.5124 36.2829C41.6004 31.2524 40.2139 26.1213 36.8838 19.3055C36.4349 18.3866 36.8158 17.2778 37.7347 16.8289ZM29.8667 20.7629C30.786 20.3149 31.8944 20.697 32.3424 21.6164C35.0907 27.2565 36.3745 31.7916 36.2749 36.353C36.176 40.8871 34.7118 45.2419 32.3689 50.4945C31.9523 51.4285 30.8575 51.8479 29.9235 51.4313C28.9895 51.0147 28.5701 49.9199 28.9867 48.9859C31.2756 43.8543 32.49 40.0498 32.5724 36.2722C32.6542 32.5218 31.6221 28.5927 29.0132 23.2386C28.5652 22.3193 28.9473 21.2109 29.8667 20.7629ZM22.4321 24.4801C23.3438 24.0168 24.4584 24.3803 24.9217 25.292C26.9697 29.3223 27.9892 32.6648 27.9306 36.1153C27.8725 39.5359 26.7559 42.8502 24.9563 46.8039C24.5326 47.7347 23.4346 48.1458 22.5038 47.7222C21.5731 47.2985 21.1619 46.2005 21.5856 45.2697C23.3243 41.4497 24.1828 38.6979 24.2277 36.0524C24.2721 33.4368 23.5224 30.7133 21.6201 26.9698C21.1568 26.0581 21.5204 24.9434 22.4321 24.4801ZM15.2368 28.1938C16.1428 27.7195 17.2618 28.0695 17.7361 28.9756C19.0852 31.5528 19.9156 33.8077 19.929 36.1881C19.9426 38.5787 19.1318 40.8436 17.7243 43.4458C17.2377 44.3453 16.1141 44.6801 15.2146 44.1936C14.3151 43.707 13.9803 42.5834 14.4668 41.6839C15.7457 39.3195 16.2341 37.7011 16.2257 36.2091C16.2172 34.7068 15.7044 33.0798 14.455 30.6931C13.9807 29.7871 14.3308 28.6681 15.2368 28.1938Z" fill="#5AE1E2"/>
<path d="M120.442 123.25L118.822 82.0495C118.561 79.1445 118.019 77.591 116.42 75.3812C116.177 75.0442 115.856 74.7698 115.493 74.5678L101.462 66.7729M101.462 66.7729L97.9901 79.7349M101.462 66.7729L107.48 41.4241M97.9901 79.7349L103.777 86.9102M97.9901 79.7349L84.7966 64.2268C83.5874 62.8641 82.8327 62.3682 81.3234 62.9716C81.1694 63.0331 81.0238 63.1157 80.8858 63.2077L77.1057 65.7278C76.9866 65.8072 76.872 65.8947 76.7683 65.9933C75.5156 67.1837 75.6577 67.9567 76.2325 69.319L91.8124 97.5004C91.9185 97.6923 92.0032 97.8951 92.0651 98.1054L93.1293 101.724M93.1293 101.724V106.816M93.1293 101.724L91.972 106.527M93.1293 106.816L93.3423 110.863C93.3546 111.096 93.3941 111.327 93.4601 111.551L94.4136 114.794C94.483 115.03 94.5812 115.256 94.7059 115.468L96.6078 118.701C96.7569 118.955 96.9426 119.185 97.1588 119.385L99.6679 121.701C99.7836 121.808 99.9076 121.905 100.039 121.993L102.619 123.713M93.1293 106.816L91.972 106.527M46.8366 95.2429L45.2163 101.724C44.7753 104.788 45.3617 105.916 48.6883 107.279L84.7966 116.538C88.3064 117.492 89.4778 116.662 90.3518 113.066L91.972 106.527M46.8366 95.2429L91.972 106.527M46.8366 95.2429L62.5671 30.433M107.48 41.4241L109.1 34.5994C109.804 31.2928 109.139 30.0698 106.545 28.9102C106.398 28.8443 106.244 28.7933 106.087 28.7544L70.9088 20.0172C66.9854 19.1771 65.4356 19.8615 64.1963 23.7206L62.5671 30.433M107.48 41.4241L62.5671 30.433M81.5561 28.8128L90.8147 31.1274" stroke="#0878FF" stroke-width="3.70342" stroke-linecap="round" stroke-linejoin="round"/>
</svg>
