<svg width="106" height="106" viewBox="0 0 106 106" fill="none" xmlns="http://www.w3.org/2000/svg">
<path fill-rule="evenodd" clip-rule="evenodd" d="M35.8017 10.3225C36.1609 9.19913 37.3627 8.57969 38.486 8.93888C55.1237 14.2589 66.5515 20.343 75.4813 29.2025C84.3864 38.0375 90.6414 49.4723 97.2232 65.1542C97.6796 66.2417 97.168 67.4932 96.0806 67.9496C94.9931 68.4061 93.7416 67.8945 93.2852 66.807C86.7656 51.2734 80.7719 40.4676 72.4734 32.2343C64.1995 24.0256 53.4687 18.2135 37.1852 13.0068C36.0619 12.6476 35.4425 11.4458 35.8017 10.3225ZM29.9962 29.0694C30.3566 27.9465 31.559 27.3283 32.682 27.6887C45.8451 31.9131 54.802 36.7158 61.6871 43.6061C68.5499 50.4741 73.1842 59.2507 78.0027 71.0643C78.4481 72.1563 77.924 73.4026 76.832 73.848C75.74 74.2935 74.4937 73.7693 74.0482 72.6773C69.2874 61.0051 64.9121 52.8756 58.666 46.6248C52.4422 40.3963 44.1907 35.8675 31.3769 31.7552C30.254 31.3948 29.6358 30.1924 29.9962 29.0694ZM24.5209 46.7498C24.8624 45.621 26.0544 44.9828 27.1832 45.3243C36.6698 48.1946 43.2859 51.5849 48.4341 56.6873C53.5577 61.7655 57.0507 68.3687 60.613 77.2954C61.0501 78.3907 60.5165 79.633 59.4212 80.0701C58.3258 80.5073 57.0835 79.9737 56.6464 78.8783C53.1469 70.1091 49.9164 64.1696 45.4277 59.7207C40.9634 55.296 35.078 52.175 25.9464 49.4121C24.8176 49.0706 24.1794 47.8786 24.5209 46.7498ZM19.4061 64.0479C19.734 62.9151 20.9182 62.2625 22.051 62.5904C28.173 64.3622 32.7241 66.3939 36.2358 69.7202C39.7561 73.0546 42.0219 77.4894 43.9969 83.6337C44.3578 84.7565 43.7402 85.9593 42.6175 86.3202C41.4947 86.6811 40.2919 86.0635 39.931 84.9407C38.0514 79.0933 36.0668 75.4426 33.2988 72.8208C30.5223 70.1909 26.7474 68.3956 20.8637 66.6928C19.7308 66.3649 19.0783 65.1808 19.4061 64.0479Z" fill="#0878FF"/>
</svg>
