<svg width="76" height="76" viewBox="0 0 76 76" fill="none" xmlns="http://www.w3.org/2000/svg">
<g filter="url(#filter0_d_781_12108)">
<rect x="12.0498" y="11.1172" width="52" height="52" rx="9.24444" fill="white"/>
<rect x="12.1942" y="11.2616" width="51.7111" height="51.7111" rx="9.1" stroke="#D9D9D9" stroke-width="0.288889"/>
</g>
<path d="M43.3926 39.8672C42.7548 39.8672 42.236 39.348 42.236 38.7102C42.236 38.0724 42.7548 37.5536 43.3926 37.5536C44.0305 37.5536 44.5493 38.0723 44.5493 38.7102C44.5493 39.3481 44.0305 39.8672 43.3926 39.8672ZM30.6078 39.8672C29.97 39.8672 29.4512 39.348 29.4512 38.7102C29.4512 38.0724 29.9699 37.5536 30.6078 37.5536C31.2456 37.5536 31.7644 38.0723 31.7644 38.7102C31.7644 39.3481 31.2457 39.8672 30.6078 39.8672ZM43.8075 32.8997L46.1192 28.896C46.1828 28.7855 46.2 28.6542 46.167 28.5311C46.134 28.4079 46.0535 28.3029 45.9431 28.239C45.8326 28.1754 45.7014 28.1582 45.5783 28.1912C45.4551 28.2242 45.3501 28.3047 45.2862 28.415L42.9456 32.4694C41.1555 31.6526 39.1453 31.1975 37.0002 31.1975C34.8551 31.1975 32.8449 31.6526 31.055 32.4694L28.7142 28.415C28.6504 28.3047 28.5453 28.2242 28.4222 28.1912C28.299 28.1582 28.1678 28.1754 28.0573 28.239C27.9469 28.3028 27.8663 28.4079 27.8333 28.531C27.8003 28.6542 27.8175 28.7855 27.8813 28.896L30.193 32.8997C26.2234 35.0587 23.5085 39.0773 23.1113 43.8251H50.8891C50.4916 39.0774 47.7767 35.0587 43.8075 32.8996" fill="#3DDB85"/>
<defs>
<filter id="filter0_d_781_12108" x="0.494248" y="0.717187" width="75.1111" height="75.1111" filterUnits="userSpaceOnUse" color-interpolation-filters="sRGB">
<feFlood flood-opacity="0" result="BackgroundImageFix"/>
<feColorMatrix in="SourceAlpha" type="matrix" values="0 0 0 0 0 0 0 0 0 0 0 0 0 0 0 0 0 0 127 0" result="hardAlpha"/>
<feOffset dy="1.15556"/>
<feGaussianBlur stdDeviation="5.77778"/>
<feComposite in2="hardAlpha" operator="out"/>
<feColorMatrix type="matrix" values="0 0 0 0 0.0367917 0 0 0 0 0.0348958 0 0 0 0 0.0484375 0 0 0 0.1 0"/>
<feBlend mode="normal" in2="BackgroundImageFix" result="effect1_dropShadow_781_12108"/>
<feBlend mode="normal" in="SourceGraphic" in2="effect1_dropShadow_781_12108" result="shape"/>
</filter>
</defs>
</svg>
