<svg width="22" height="21" viewBox="0 0 22 21" fill="none" xmlns="http://www.w3.org/2000/svg">
<path d="M11.2909 1.95489C14.0811 1.95489 14.4299 1.95489 15.5634 2.04209C18.4409 2.12928 19.7488 3.52439 19.836 6.3146C19.9232 7.44812 19.9232 7.70971 19.9232 10.4999C19.9232 13.2901 19.9232 13.6389 19.836 14.6852C19.7488 17.4755 18.3537 18.8706 15.5634 18.9578C14.4299 19.0449 14.1683 19.0449 11.2909 19.0449C8.50072 19.0449 8.15195 19.0449 7.10562 18.9578C4.22821 18.8706 2.9203 17.4755 2.8331 14.6852C2.74591 13.5517 2.74591 13.2901 2.74591 10.4999C2.74591 7.70971 2.74591 7.36093 2.8331 6.3146C2.9203 3.52439 4.3154 2.12928 7.10562 2.04209C8.15195 1.95489 8.50072 1.95489 11.2909 1.95489ZM11.2909 0.0366211C8.41353 0.0366211 8.06475 0.0366211 7.01842 0.123815C3.18188 0.298204 1.08922 2.39086 0.914831 6.22741C0.827637 7.27374 0.827637 7.62251 0.827637 10.4999C0.827637 13.3773 0.827637 13.7261 0.914831 14.7724C1.08922 18.609 3.18188 20.7016 7.01842 20.876C8.06475 20.9632 8.41353 20.9632 11.2909 20.9632C14.1683 20.9632 14.5171 20.9632 15.5634 20.876C19.4 20.7016 21.4927 18.609 21.667 14.7724C21.7542 13.7261 21.7542 13.3773 21.7542 10.4999C21.7542 7.62251 21.7542 7.27374 21.667 6.22741C21.4927 2.39086 19.4 0.298204 15.5634 0.123815C14.5171 0.0366211 14.1683 0.0366211 11.2909 0.0366211ZM11.2909 5.09388C8.32633 5.09388 5.8849 7.53532 5.8849 10.4999C5.8849 13.4645 8.32633 15.906 11.2909 15.906C14.2555 15.906 16.697 13.4645 16.697 10.4999C16.697 7.53532 14.2555 5.09388 11.2909 5.09388ZM11.2909 13.9877C9.37266 13.9877 7.80317 12.4182 7.80317 10.4999C7.80317 8.58165 9.37266 7.01215 11.2909 7.01215C13.2092 7.01215 14.7787 8.58165 14.7787 10.4999C14.7787 12.4182 13.2092 13.9877 11.2909 13.9877ZM16.8714 3.69878C16.1738 3.69878 15.6506 4.22194 15.6506 4.91949C15.6506 5.61705 16.1738 6.14021 16.8714 6.14021C17.5689 6.14021 18.0921 5.61705 18.0921 4.91949C18.0921 4.22194 17.5689 3.69878 16.8714 3.69878Z" fill="#2F363E"/>
</svg>
