<svg width="19" height="19" viewBox="0 0 19 19" fill="none" xmlns="http://www.w3.org/2000/svg">
<path d="M18.1724 1.82353V17.1765C18.1724 17.5275 18.0329 17.8641 17.7847 18.1123C17.5365 18.3606 17.1999 18.5 16.8488 18.5H1.49589C1.14487 18.5 0.808226 18.3606 0.560016 18.1123C0.311806 17.8641 0.172363 17.5275 0.172363 17.1765L0.172363 1.82353C0.172363 1.47251 0.311806 1.13586 0.560016 0.887653C0.808226 0.639443 1.14487 0.5 1.49589 0.5L16.8488 0.5C17.1999 0.5 17.5365 0.639443 17.7847 0.887653C18.0329 1.13586 18.1724 1.47251 18.1724 1.82353ZM5.46648 7.38235H2.81942V15.8529H5.46648V7.38235ZM5.70472 4.47059C5.70611 4.27036 5.66805 4.07182 5.59272 3.8863C5.51738 3.70078 5.40624 3.53191 5.26564 3.38935C5.12504 3.24678 4.95773 3.1333 4.77328 3.0554C4.58882 2.97749 4.39083 2.93668 4.1906 2.93529H4.14295C3.73577 2.93529 3.34526 3.09705 3.05733 3.38497C2.76941 3.67289 2.60766 4.0634 2.60766 4.47059C2.60766 4.87777 2.76941 5.26828 3.05733 5.55621C3.34526 5.84413 3.73577 6.00588 4.14295 6.00588C4.34319 6.01081 4.54244 5.97623 4.72932 5.90413C4.91619 5.83202 5.08703 5.7238 5.23206 5.58565C5.3771 5.44749 5.49349 5.28212 5.57459 5.09897C5.65569 4.91582 5.69991 4.71848 5.70472 4.51824V4.47059ZM15.5253 10.7071C15.5253 8.16059 13.9053 7.17059 12.2959 7.17059C11.7689 7.1442 11.2443 7.25644 10.7742 7.4961C10.3042 7.73577 9.90521 8.09448 9.61707 8.53647H9.54295V7.38235H7.05472V15.8529H9.70178V11.3476C9.66351 10.8862 9.80886 10.4283 10.1062 10.0735C10.4036 9.7186 10.829 9.4954 11.29 9.45235H11.3906C12.2324 9.45235 12.8571 9.98177 12.8571 11.3159V15.8529H15.5041L15.5253 10.7071Z" fill="#2F363E"/>
</svg>
