<svg width="22" height="19" viewBox="0 0 22 19" fill="none" xmlns="http://www.w3.org/2000/svg">
<path d="M7.27288 18.0036C15.1701 18.0036 19.4888 11.4609 19.4888 5.78772C19.4888 5.60183 19.485 5.4169 19.4764 5.23268C20.3147 4.62671 21.0434 3.87031 21.6182 3.00966C20.849 3.35145 20.0212 3.5816 19.1527 3.68537C20.039 3.1539 20.7198 2.31277 21.0408 1.31027C20.2111 1.80224 19.2924 2.15973 18.3147 2.35252C17.5309 1.51805 16.4151 0.996094 15.1805 0.996094C12.8092 0.996094 10.8864 2.91898 10.8864 5.28909C10.8864 5.62611 10.9242 5.95361 10.9975 6.26803C7.42949 6.0888 4.26538 4.38013 2.14804 1.78248C1.77888 2.41678 1.56634 3.15413 1.56634 3.94028C1.56634 5.42975 2.3244 6.74476 3.47709 7.51425C2.77281 7.49259 2.11114 7.29885 1.53254 6.97706C1.53159 6.99491 1.53159 7.013 1.53159 7.0318C1.53159 9.1113 3.01178 10.8473 4.97608 11.2408C4.61549 11.3391 4.2361 11.3919 3.84434 11.3919C3.56777 11.3919 3.29882 11.3643 3.03724 11.3146C3.58372 13.0201 5.16887 14.2616 7.0482 14.2966C5.57848 15.4483 3.72724 16.1345 1.71581 16.1345C1.3695 16.1345 1.02772 16.1148 0.69165 16.075C2.59169 17.2927 4.84779 18.0036 7.27288 18.0036Z" fill="#2F363E"/>
</svg>
