<svg width="748" height="549" viewBox="0 0 748 549" fill="none" xmlns="http://www.w3.org/2000/svg">
<path d="M234.999 80.1657L331.439 23.0703L432.065 81.1721" stroke="#6BE6FB" stroke-width="2.22663" stroke-miterlimit="10" stroke-linecap="round"/>
<path d="M278.574 73.298L331.492 41.9692L386.713 73.8502" stroke="#4095FC" stroke-width="1.33598" stroke-miterlimit="10" stroke-linecap="round"/>
<path d="M278.574 32.3287L331.492 1L386.713 32.8809" stroke="#4095FC" stroke-width="1.33598" stroke-miterlimit="10" stroke-linecap="round"/>
<path d="M194.839 56.4617L262.391 18.3818" stroke="#6BE6FB" stroke-width="2.22663" stroke-miterlimit="10" stroke-linecap="round"/>
<path d="M406.084 109.655L358.328 83.1313" stroke="#6BE6FB" stroke-width="2.22663" stroke-miterlimit="10" stroke-linecap="round"/>
<path d="M301.397 25.113C304.038 22.7795 306.728 21.9378 309.012 22.4411C309.778 22.6103 310.33 22.8018 311.386 23.1536L317.193 25.968L313.804 26.8409C314.147 27.6291 314.428 28.5198 314.632 29.5039C316.173 36.9899 312.749 47.2814 307.017 52.3759C305.454 53.7653 303.878 54.6248 302.377 54.9944L304.172 57.2923L298.191 53.9479C296.957 53.2443 296.312 53.084 295.55 52.0107C294.789 50.9375 294.165 49.8286 293.787 47.9805C292.237 40.4723 295.666 30.1808 301.402 25.1086L301.397 25.113Z" fill="url(#paint0_linear_2107_3438)"/>
<path d="M307.645 27.8384C301.909 32.9063 298.485 43.1978 300.03 50.7104C301.58 58.2186 307.534 60.1959 313.265 55.1014C318.997 50.0068 322.421 39.7153 320.88 32.2294C319.339 24.7434 313.381 22.7706 307.645 27.8384Z" fill="#F6FB9B"/>
<path d="M306.657 54.1174C304.666 53.4583 303.25 51.53 302.662 48.6844C301.473 42.9085 304.092 35.0351 308.505 31.1385C310.678 29.2191 312.971 28.5244 314.962 29.188C316.948 29.8515 318.36 31.7753 318.943 34.6031C320.128 40.3612 317.509 48.2301 313.1 52.149C311.466 53.6052 309.761 54.3578 308.166 54.3578C307.65 54.3578 307.142 54.2777 306.652 54.1174H306.657ZM308.857 31.5348C304.572 35.3201 302.025 42.9664 303.183 48.5775C303.731 51.2272 305.022 53.0174 306.826 53.6141C308.629 54.2109 310.736 53.5518 312.758 51.7527C317.037 47.9451 319.584 40.2989 318.431 34.71C317.888 32.0737 316.596 30.2879 314.797 29.6912C314.361 29.5442 313.907 29.473 313.439 29.473C311.978 29.473 310.393 30.1766 308.857 31.5348Z" fill="#CEBD45"/>
<path d="M312.25 42.8241L313.991 41.8132V43.1314L311.952 44.3159V46.1908L313.991 45.0062V46.3244L311.952 47.5089V50.2165L310.994 50.7732V48.0656L308.955 49.2502V47.932L310.994 46.7474V44.8726L308.955 46.0572V44.739L310.705 43.7236L308.015 36.3001L309.039 35.7033L311.484 42.4812L313.938 32.8577L314.922 32.2832L312.245 42.8241H312.25Z" fill="#CEBD45"/>
<path d="M377.432 84.3873C375.834 82.9756 374.208 82.468 372.828 82.7708C372.364 82.8732 372.031 82.989 371.394 83.2027L367.885 84.9039L369.933 85.4294C369.724 85.9059 369.554 86.4447 369.434 87.037C368.504 91.5615 370.574 97.7827 374.039 100.864C374.983 101.702 375.936 102.227 376.844 102.45L375.758 103.839L379.374 101.817C380.118 101.39 380.51 101.296 380.968 100.646C381.427 99.996 381.805 99.328 382.037 98.2103C382.972 93.6724 380.901 87.4467 377.432 84.3829V84.3873Z" fill="url(#paint1_linear_2107_3438)"/>
<path d="M373.652 86.0341C377.121 89.0979 379.191 95.3192 378.256 99.8615C377.321 104.404 373.718 105.597 370.258 102.516C366.793 99.434 364.723 93.2128 365.653 88.6882C366.584 84.1637 370.187 82.9702 373.652 86.0341Z" fill="#F6FB9B"/>
<path d="M373.335 102.067C372.373 102.067 371.34 101.613 370.352 100.731C367.689 98.362 366.103 93.6059 366.82 90.1235C367.172 88.4134 368.027 87.2511 369.229 86.8503C370.432 86.4495 371.817 86.8681 373.135 88.0304C375.802 90.3862 377.388 95.1467 376.666 98.6381C376.31 100.357 375.455 101.524 374.253 101.92C373.959 102.018 373.652 102.067 373.335 102.067ZM370.151 87.0195C369.871 87.0195 369.595 87.0641 369.332 87.1531C368.245 87.5138 367.466 88.596 367.136 90.1903C366.442 93.5703 367.978 98.1928 370.565 100.495C371.79 101.582 373.059 101.983 374.15 101.622C375.241 101.261 376.021 100.179 376.35 98.5758C377.049 95.1824 375.509 90.5599 372.921 88.2709C371.99 87.4515 371.033 87.024 370.151 87.024V87.0195Z" fill="#CEBD45"/>
<path d="M371.977 90.6486C371.1 90.1632 370.405 90.8312 370.142 92.2473L372.409 93.4942V94.3448L370.044 93.0444C370.031 93.2359 370.022 93.4408 370.022 93.6545C370.022 93.8683 370.031 94.082 370.044 94.2869L372.409 95.5872V96.4378L370.142 95.1909C370.405 96.9009 370.94 97.7025 371.821 98.1879C372.373 98.4908 372.859 98.2948 373.242 97.6446L373.647 98.6333C373.197 99.4794 372.227 99.4616 371.737 99.2389C370.423 98.6377 369.679 97.3107 369.381 94.7767L368.566 94.327V93.4764L369.31 93.8861C369.301 93.6857 369.296 93.4675 369.296 93.2537C369.296 93.04 369.305 92.8307 369.31 92.6392L368.566 92.2295V91.3789L369.381 91.8287C369.679 89.6243 371.153 89.1033 372.022 89.464C372.89 89.8247 373.647 90.3858 374.052 91.8287L373.393 92.7015C373.006 91.6238 372.529 90.9514 371.977 90.6486Z" fill="#CEBD45"/>
<g opacity="0.09">
<path d="M537.483 435.34L313.007 305.862C304.88 301.172 304.875 289.447 312.998 284.753L496.366 178.797C505.361 173.6 516.45 173.595 525.45 178.783L741.478 303.39C749.605 308.079 749.61 319.805 741.487 324.499L549.671 435.336C545.899 437.514 541.255 437.518 537.483 435.34Z" fill="#6BE6FB"/>
</g>
<path d="M117.415 137.387C115.184 135.414 112.913 134.706 110.984 135.134C110.334 135.276 109.871 135.436 108.98 135.735L104.077 138.113L106.936 138.848C106.647 139.516 106.411 140.264 106.237 141.096C104.937 147.416 107.827 156.104 112.668 160.406C113.986 161.577 115.317 162.307 116.587 162.619L115.072 164.561L120.122 161.737C121.164 161.145 121.712 161.007 122.349 160.103C122.986 159.199 123.516 158.264 123.841 156.701C125.15 150.359 122.256 141.671 117.41 137.391L117.415 137.387Z" fill="url(#paint2_linear_2107_3438)"/>
<path d="M112.133 139.689C116.978 143.969 119.869 152.657 118.564 158.998C117.254 165.34 112.227 167.005 107.39 162.703C102.554 158.402 99.6596 149.713 100.96 143.394C102.26 137.075 107.288 135.405 112.133 139.689Z" fill="#F6FB9B"/>
<path d="M111.692 162.08C110.347 162.08 108.909 161.443 107.529 160.214C103.806 156.905 101.597 150.261 102.599 145.398C103.093 143.006 104.287 141.385 105.961 140.824C107.64 140.263 109.577 140.846 111.412 142.472C115.139 145.763 117.348 152.411 116.346 157.288C115.852 159.688 114.654 161.318 112.975 161.875C112.561 162.013 112.133 162.08 111.697 162.08H111.692ZM107.248 141.065C106.852 141.065 106.469 141.127 106.099 141.247C104.581 141.755 103.489 143.26 103.031 145.487C102.06 150.207 104.206 156.664 107.822 159.88C109.528 161.398 111.309 161.955 112.828 161.452C114.351 160.948 115.442 159.434 115.905 157.199C116.88 152.46 114.734 146.003 111.113 142.806C109.818 141.661 108.477 141.065 107.244 141.065H107.248Z" fill="#CEBD45"/>
<path d="M112.654 155.566C112.645 153.393 111.113 151.687 109.915 150.249V147.733C110.646 148.316 111.314 149.007 111.919 149.764L112.507 148.169C111.741 147.19 110.868 146.326 109.911 145.618V144.349L109.051 143.765V145.07C107.497 144.17 106.166 144.665 106.397 146.887C106.598 148.802 107.947 150.374 109.051 151.674V154.319C108.058 153.54 107.154 152.565 106.371 151.514V153.767C107.154 154.769 108.063 155.624 109.051 156.328V158.042L109.911 158.626V156.876C111.064 157.561 112.77 157.633 112.65 155.575L112.654 155.566ZM109.056 149.185C108.606 148.677 107.618 146.473 109.056 147.181V149.185ZM109.915 154.836V152.712C110.338 153.211 110.726 153.789 110.766 154.506C110.637 154.996 110.325 155.076 109.915 154.836Z" fill="#CEBD45"/>
<path d="M110.076 158.925L108.887 158.119V156.4C107.889 155.683 106.999 154.828 106.237 153.857L106.201 153.812V151.011L106.495 151.408C107.248 152.414 108.05 153.274 108.882 153.968V151.724C107.787 150.437 106.429 148.838 106.228 146.897C106.086 145.534 106.522 144.946 106.914 144.692C107.408 144.372 108.112 144.412 108.882 144.79V143.45L110.071 144.256V145.529C111.011 146.233 111.87 147.084 112.632 148.063L112.69 148.135L111.968 150.085L111.786 149.858C111.238 149.177 110.664 148.58 110.071 148.072V150.183L110.227 150.37C111.372 151.737 112.801 153.443 112.81 155.558C112.868 156.587 112.481 157.046 112.142 157.25C111.536 157.62 110.699 157.442 110.071 157.139V158.925H110.076ZM109.216 157.945L109.746 158.306V156.578L109.996 156.725C110.597 157.081 111.443 157.299 111.977 156.974C112.356 156.743 112.53 156.271 112.489 155.576V155.567C112.481 153.568 111.153 151.982 109.982 150.584L109.751 150.308V147.391L110.018 147.605C110.655 148.117 111.278 148.731 111.866 149.439L112.325 148.197C111.577 147.253 110.735 146.429 109.817 145.748L109.751 145.699V144.429L109.221 144.069V145.347L108.976 145.204C108.228 144.768 107.546 144.683 107.105 144.964C106.66 145.253 106.469 145.926 106.567 146.861C106.758 148.7 108.076 150.259 109.141 151.51L109.221 151.608V154.65L108.954 154.44C108.112 153.781 107.301 152.957 106.535 151.987V153.701C107.284 154.65 108.165 155.487 109.15 156.182L109.221 156.231V157.945H109.216ZM110.307 155.131C110.16 155.131 110 155.077 109.826 154.975L109.746 154.926V152.258L110.036 152.601C110.428 153.064 110.882 153.697 110.922 154.494V154.521L110.917 154.547C110.846 154.828 110.708 155.01 110.517 155.091C110.45 155.117 110.379 155.131 110.303 155.131H110.307ZM110.076 154.739C110.178 154.788 110.303 154.828 110.396 154.788C110.503 154.743 110.561 154.605 110.597 154.489C110.566 153.986 110.343 153.554 110.076 153.185V154.739ZM109.216 149.617L108.931 149.292C108.597 148.918 107.876 147.52 108.241 147.039C108.401 146.825 108.7 146.825 109.127 147.035L109.221 147.079V149.617H109.216ZM108.593 147.204C108.544 147.204 108.513 147.217 108.499 147.235C108.357 147.418 108.606 148.126 108.887 148.642V147.284C108.753 147.226 108.66 147.204 108.593 147.204Z" fill="#F6FB9B"/>
<path opacity="0.23" d="M268.701 117.947V100.847C268.701 97.1727 272.678 94.8793 275.858 96.714L309.934 116.389C313.078 118.206 315.015 121.559 315.015 125.193V142.267C315.015 145.94 311.038 148.234 307.859 146.399L273.76 126.711C270.629 124.903 268.701 121.563 268.701 117.947Z" fill="#6BE6FB"/>
<path opacity="0.27" d="M240.2 163.482V134.233C240.2 127.954 247 124.031 252.438 127.17L310.718 160.819C316.097 163.923 319.411 169.663 319.411 175.875V205.076C319.411 211.355 312.61 215.278 307.173 212.138L248.853 178.467C243.5 175.377 240.2 169.663 240.2 163.482Z" fill="#0878FF"/>
<path opacity="0.23" d="M559.437 135.426V106.177C559.437 99.8977 552.637 95.9744 547.2 99.1139L488.92 132.763C483.54 135.867 480.227 141.607 480.227 147.819V177.019C480.227 183.299 487.027 187.222 492.465 184.082L550.785 150.411C556.137 147.321 559.437 141.607 559.437 135.426Z" fill="#6BE6FB"/>
<path opacity="0.27" d="M440.09 130.973V101.724C440.09 95.4446 433.29 91.5212 427.852 94.6608L369.572 128.31C364.193 131.414 360.879 137.154 360.879 143.366V172.566C360.879 178.845 367.68 182.769 373.117 179.629L431.437 145.958C436.79 142.867 440.09 137.154 440.09 130.973Z" fill="#0878FF"/>
<path opacity="0.27" d="M386.713 198.729V207.774C386.713 209.716 388.815 210.931 390.498 209.96L408.52 199.553C410.186 198.591 411.21 196.819 411.21 194.895V185.864C411.21 183.922 409.108 182.706 407.425 183.677L389.389 194.089C387.733 195.046 386.713 196.81 386.713 198.725V198.729Z" fill="#0878FF"/>
<g opacity="0.15">
<path d="M292.464 546.306L10.3583 383.583C0.146936 377.692 0.138021 362.956 10.3494 357.055L240.788 223.898C252.095 217.365 266.029 217.361 277.341 223.885L548.825 380.48C559.037 386.371 559.045 401.107 548.834 407.008L307.779 546.301C303.04 549.04 297.202 549.04 292.464 546.306Z" fill="#6BE6FB"/>
</g>
<g opacity="0.09">
<path d="M418.621 405.744L307.373 341.92C299.727 337.506 299.723 326.471 307.365 322.058L479.902 222.358C488.368 217.464 498.802 217.464 507.272 222.349L610.565 281.587C618.212 286 618.216 297.035 610.574 301.448L430.088 405.744C426.538 407.792 422.17 407.797 418.621 405.744Z" fill="#0878FF"/>
</g>
<g style="mix-blend-mode:multiply" opacity="0.11">
<path d="M101.16 365.26L13.6716 315.062C7.65965 311.593 7.65519 302.914 13.6671 299.44L149.358 221.032C156.016 217.184 164.223 217.18 170.881 221.023L252.117 267.613C258.129 271.082 258.134 279.761 252.122 283.235L110.178 365.255C107.391 366.867 103.953 366.867 101.16 365.255V365.26Z" fill="#0878FF"/>
</g>
<g style="mix-blend-mode:multiply" opacity="0.06">
<path d="M171.829 406.857L143.177 390.42C141.209 389.285 141.204 386.443 143.177 385.303L187.616 359.626C189.798 358.366 192.484 358.366 194.666 359.626L221.27 374.883C223.238 376.018 223.242 378.86 221.27 380L174.786 406.862C173.873 407.392 172.747 407.392 171.834 406.862L171.829 406.857Z" fill="#0878FF"/>
</g>
<g style="mix-blend-mode:multiply" opacity="0.06">
<path d="M174.056 429.569L145.404 413.132C143.435 411.996 143.431 409.155 145.404 408.015L189.843 382.337C192.025 381.077 194.71 381.077 196.892 382.337L223.496 397.594C225.465 398.73 225.469 401.571 223.496 402.711L177.013 429.573C176.1 430.103 174.973 430.103 174.06 429.573L174.056 429.569Z" fill="#0878FF"/>
</g>
<g style="mix-blend-mode:multiply" opacity="0.06">
<path d="M394.528 452.42L348.201 425.843C345.017 424.008 345.012 419.412 348.201 417.573L420.05 376.055C423.577 374.02 427.919 374.016 431.446 376.055L474.46 400.726C477.644 402.561 477.649 407.157 474.46 408.996L399.298 452.429C397.819 453.284 396.002 453.284 394.524 452.429L394.528 452.42Z" fill="#0878FF"/>
</g>
<g style="mix-blend-mode:multiply" opacity="0.06">
<path d="M583.155 330.413L551.043 311.99C548.834 310.716 548.834 307.532 551.043 306.254L600.848 277.472C603.293 276.061 606.303 276.061 608.748 277.472L638.567 294.573C640.776 295.847 640.776 299.031 638.567 300.309L586.464 330.417C585.44 331.01 584.18 331.01 583.155 330.417V330.413Z" fill="#0878FF"/>
</g>
<g style="mix-blend-mode:multiply" opacity="0.06">
<path d="M469.41 471.118L409.585 436.796C405.475 434.423 405.47 428.491 409.585 426.113L502.369 372.5C506.92 369.868 512.531 369.868 517.087 372.495L572.632 404.35C576.743 406.723 576.747 412.655 572.632 415.033L475.573 471.118C473.667 472.222 471.316 472.222 469.406 471.118H469.41Z" fill="#0878FF"/>
</g>
<path d="M91.0603 107.49V54.0107C91.0603 49.74 95.6828 47.0725 99.379 49.2101L182.824 97.39C186.917 99.7547 189.442 104.123 189.442 108.853V157.892C189.442 162.163 184.819 164.83 181.123 162.693L93.8347 112.291C92.1202 111.302 91.0603 109.472 91.0603 107.49Z" fill="#4095FC"/>
<path d="M187.514 162.096C187.514 162.096 185.612 164.447 180.611 165.493L184.062 161.739L187.514 162.1V162.096Z" fill="#4095FC"/>
<path d="M89.8357 51.5163L94.0307 49.0981L93.1756 51.6365L89.8357 51.5163Z" fill="#4095FC"/>
<path d="M87.4532 109.552V56.0727C87.4532 51.802 92.0757 49.1345 95.7719 51.2721L179.217 99.452C183.31 101.817 185.835 106.185 185.835 110.915V159.954C185.835 164.225 181.212 166.892 177.516 164.755L90.2276 114.353C88.5131 113.364 87.4532 111.534 87.4532 109.552Z" fill="url(#paint3_linear_2107_3438)"/>
<path d="M185.919 128.661L87.569 72.4922V59.6089L185.919 115.778V128.661Z" fill="#4095FC"/>
<path d="M153.878 216.922V53.0325C153.878 44.4555 163.163 39.0937 170.596 43.3822L247.775 87.9461C254.389 91.767 258.463 98.821 258.463 106.458V264.442C258.463 273.019 249.178 278.381 241.746 274.093L159.449 226.576C156.003 224.586 153.878 220.907 153.878 216.926V216.922Z" fill="url(#paint4_linear_2107_3438)"/>
<path d="M159.574 43.5874L151.981 47.1277L158.479 47.5553L159.574 43.5874Z" fill="#0516B1"/>
<path d="M252.153 274.467L244.097 278.239L244.476 273.033L252.153 274.467Z" fill="#0878FF"/>
<path d="M145.8 216.391V56.7948C145.8 48.2267 155.076 42.8694 162.5 47.1534L239.207 91.4456C246.123 95.4402 250.385 102.819 250.385 110.808V268.249C250.385 276.817 241.109 282.175 233.685 277.891L155.107 232.521C149.349 229.194 145.8 223.049 145.8 216.4V216.391Z" fill="url(#paint5_linear_2107_3438)"/>
<path d="M151.981 215.501V61.6138C151.981 56.7286 157.272 53.6737 161.502 56.1185L231.521 96.5497C237.889 100.228 241.813 107.019 241.813 114.376V264.398C241.813 269.283 236.522 272.338 232.291 269.893L158.924 227.529C154.626 225.049 151.981 220.466 151.981 215.505V215.501Z" fill="url(#paint6_linear_2107_3438)"/>
<path d="M179.565 77.5743V66.5658C179.565 63.8182 182.539 62.0992 184.922 63.4753L210.43 78.2022C212.786 79.5605 214.233 82.0721 214.233 84.7931V95.7793C214.233 98.5269 211.259 100.246 208.876 98.8698L183.35 84.1295C181.008 82.7757 179.565 80.2774 179.565 77.5699V77.5743Z" fill="#0878FF"/>
<path d="M184.917 79.3967V79.2809C184.917 78.4927 185.768 78.0028 186.449 78.3947L193.748 82.6119C194.421 82.9994 194.839 83.7208 194.839 84.5001V84.607C194.839 85.3952 193.989 85.8851 193.307 85.4932L186 81.276C185.327 80.8885 184.917 80.1716 184.917 79.3967Z" fill="#0516B1"/>
<path d="M197.262 86.5964V86.4806C197.262 85.6924 198.113 85.2025 198.794 85.5944L206.093 89.8117C206.765 90.1991 207.184 90.9205 207.184 91.6998V91.8067C207.184 92.5949 206.333 93.0848 205.652 92.6929L198.344 88.4757C197.672 88.0882 197.262 87.3713 197.262 86.5964Z" fill="#0516B1"/>
<path d="M509.565 215.139V51.2502C509.565 42.6732 500.28 37.3115 492.847 41.6L415.668 86.1639C409.055 89.9848 404.98 97.0387 404.98 104.676V262.66C404.98 271.237 414.265 276.599 421.698 272.31L503.994 224.794C507.441 222.803 509.565 219.125 509.565 215.144V215.139Z" fill="url(#paint7_linear_2107_3438)"/>
<path d="M503.865 41.8052L511.458 45.3455L504.965 45.773L503.865 41.8052Z" fill="#0516B1"/>
<path d="M411.286 272.684L419.346 276.456L418.963 271.25L411.286 272.684Z" fill="#0878FF"/>
<path d="M517.639 214.61V55.0135C517.639 46.4454 508.363 41.0882 500.939 45.3722L424.232 89.6644C417.316 93.659 413.054 101.038 413.054 109.027V266.468C413.054 275.036 422.33 280.393 429.754 276.109L508.331 230.739C514.09 227.413 517.639 221.267 517.639 214.619V214.61Z" fill="url(#paint8_linear_2107_3438)"/>
<path d="M511.458 213.719V59.8316C511.458 54.9464 506.167 51.8914 501.937 54.3363L431.918 94.7675C425.55 98.4459 421.626 105.237 421.626 112.594V262.616C421.626 267.501 426.917 270.556 431.147 268.111L504.515 225.747C508.812 223.267 511.458 218.684 511.458 213.723V213.719Z" fill="url(#paint9_linear_2107_3438)"/>
<path d="M483.879 75.793V64.7846C483.879 62.0369 480.904 60.3179 478.521 61.694L453.013 76.421C450.657 77.7792 449.21 80.2909 449.21 83.0118V93.998C449.21 96.7457 452.185 98.4646 454.567 97.0886L480.093 82.3483C482.436 80.9945 483.879 78.4962 483.879 75.7886V75.793Z" fill="#0878FF"/>
<path d="M478.521 77.6145V77.4987C478.521 76.7105 477.671 76.2206 476.989 76.6125L469.691 80.8297C469.018 81.2172 468.599 81.9386 468.599 82.7179V82.8248C468.599 83.613 469.45 84.1029 470.131 83.711L477.439 79.4937C478.112 79.1063 478.521 78.3893 478.521 77.6145Z" fill="#0516B1"/>
<path d="M466.177 84.8142V84.6984C466.177 83.9101 465.326 83.4203 464.645 83.8122L457.346 88.0294C456.674 88.4169 456.255 89.1383 456.255 89.9176V90.0245C456.255 90.8127 457.106 91.3026 457.787 90.9107L465.095 86.6934C465.767 86.306 466.177 85.589 466.177 84.8142Z" fill="#0516B1"/>
<path d="M498.41 118.356V94.4691C498.41 89.339 492.857 86.1326 488.417 88.6977L440.816 116.183C436.42 118.722 433.717 123.406 433.717 128.483V152.335C433.717 157.465 439.27 160.671 443.71 158.106L491.342 130.603C495.716 128.078 498.41 123.411 498.41 118.361V118.356Z" fill="#4095FC"/>
<path d="M443.421 161.526L437.885 158.516L441.021 157.763L443.421 161.526Z" fill="#4095FC"/>
<path d="M494.758 88.5244L499.63 91.2409L496.09 90.7822L494.758 88.5244Z" fill="#4095FC"/>
<path d="M503.887 121.344V97.4564C503.887 92.3263 498.334 89.1199 493.894 91.685L446.293 119.171C441.898 121.709 439.195 126.394 439.195 131.471V155.322C439.195 160.452 444.748 163.659 449.188 161.094L496.82 133.59C501.193 131.065 503.887 126.398 503.887 121.348V121.344Z" fill="url(#paint10_linear_2107_3438)"/>
<path d="M502.324 161.331V147.129C502.324 144.079 499.024 142.173 496.383 143.7L474.865 156.65C472.256 158.16 470.643 160.943 470.643 163.963V178.137C470.643 181.188 473.943 183.094 476.584 181.566L498.12 168.607C500.721 167.107 502.32 164.332 502.32 161.331H502.324Z" fill="#4095FC"/>
<path d="M476.415 183.601L473.129 181.811L474.99 181.366L476.415 183.601Z" fill="#4095FC"/>
<path d="M500.155 143.599L503.05 145.215L500.948 144.944L500.155 143.599Z" fill="#4095FC"/>
<path d="M505.579 163.109V148.907C505.579 145.857 502.28 143.951 499.639 145.478L478.121 158.428C475.511 159.938 473.899 162.721 473.899 165.74V179.915C473.899 182.966 477.199 184.872 479.84 183.344L501.376 170.385C503.976 168.884 505.575 166.11 505.575 163.109H505.579Z" fill="url(#paint11_linear_2107_3438)"/>
<path d="M465.055 182.676V168.475C465.055 165.424 461.755 163.518 459.114 165.046L437.596 177.996C434.986 179.506 433.374 182.289 433.374 185.308V199.483C433.374 202.534 436.674 204.44 439.315 202.912L460.851 189.953C463.452 188.452 465.05 185.678 465.05 182.676H465.055Z" fill="#4095FC"/>
<path d="M439.146 204.946L435.855 203.156L437.721 202.711L439.146 204.946Z" fill="#4095FC"/>
<path d="M462.882 164.948L465.781 166.56L463.674 166.288L462.882 164.948Z" fill="#4095FC"/>
<path d="M468.31 184.452V170.25C468.31 167.2 465.01 165.294 462.37 166.821L440.851 179.771C438.242 181.281 436.63 184.064 436.63 187.084V201.258C436.63 204.309 439.93 206.215 442.57 204.688L464.106 191.728C466.707 190.228 468.306 187.453 468.306 184.452H468.31Z" fill="url(#paint12_linear_2107_3438)"/>
<path d="M489.138 129.333V111.248C489.138 109.498 487.241 108.402 485.727 109.28L484.266 109.908C482.765 110.776 481.839 112.375 481.839 114.107V132.178C481.839 133.929 483.736 135.024 485.25 134.147L486.724 133.514C488.216 132.65 489.138 131.061 489.138 129.333Z" fill="#4095FC"/>
<path d="M485.157 135.318L483.268 134.289L484.337 134.031L485.157 135.318Z" fill="#4095FC"/>
<path d="M487.891 109.217L489.557 110.148L488.35 109.988L487.891 109.217Z" fill="#4095FC"/>
<path d="M491.013 130.359V112.274C491.013 110.524 489.116 109.428 487.602 110.306L486.141 110.933C484.64 111.802 483.714 113.401 483.714 115.133V133.204C483.714 134.954 485.611 136.05 487.125 135.173L488.599 134.54C490.091 133.676 491.013 132.087 491.013 130.359Z" fill="#E8F2FF"/>
<path d="M480.187 133.378V111.717C480.187 109.62 478.29 108.306 476.776 109.357L475.315 110.105C473.814 111.143 472.888 113.062 472.888 115.138V136.785C472.888 138.882 474.785 140.196 476.299 139.145L477.773 138.388C479.265 137.355 480.187 135.445 480.187 133.383V133.378Z" fill="#4095FC"/>
<path d="M476.201 140.543L474.313 139.309L475.382 139.002L476.201 140.543Z" fill="#4095FC"/>
<path d="M478.94 109.286L480.601 110.399L479.394 110.208L478.94 109.286Z" fill="#4095FC"/>
<path d="M482.057 134.602V112.942C482.057 110.844 480.16 109.53 478.646 110.581L477.185 111.33C475.685 112.367 474.758 114.287 474.758 116.362V138.009C474.758 140.107 476.655 141.42 478.17 140.369L479.644 139.612C481.135 138.579 482.057 136.669 482.057 134.607V134.602Z" fill="#E8F2FF"/>
<path d="M471.423 138.632V127.873C471.423 125.776 469.526 124.462 468.012 125.513L466.551 126.261C465.05 127.299 464.124 129.218 464.124 131.293V142.039C464.124 144.137 466.021 145.45 467.535 144.399L469.009 143.642C470.501 142.609 471.423 140.699 471.423 138.637V138.632Z" fill="#4095FC"/>
<path d="M467.441 145.797L465.553 144.568L466.622 144.261L467.441 145.797Z" fill="#4095FC"/>
<path d="M470.176 125.442L471.841 126.555L470.634 126.368L470.176 125.442Z" fill="#4095FC"/>
<path d="M473.298 139.858V129.099C473.298 127.001 471.401 125.688 469.886 126.739L468.426 127.487C466.925 128.524 465.999 130.444 465.999 132.519V143.265C465.999 145.362 467.896 146.676 469.41 145.625L470.884 144.868C472.376 143.835 473.298 141.924 473.298 139.862V139.858Z" fill="#E8F2FF"/>
<path d="M462.276 143.696V122.618C462.276 120.521 460.379 119.207 458.865 120.258L457.404 121.006C455.903 122.044 454.977 123.963 454.977 126.038V147.102C454.977 149.2 456.874 150.514 458.388 149.463L459.862 148.706C461.354 147.672 462.276 145.762 462.276 143.7V143.696Z" fill="#4095FC"/>
<path d="M458.29 150.861L456.402 149.628L457.471 149.32L458.29 150.861Z" fill="#4095FC"/>
<path d="M461.029 120.187L462.695 121.3L461.483 121.109L461.029 120.187Z" fill="#4095FC"/>
<path d="M464.146 144.916V123.839C464.146 121.741 462.249 120.427 460.735 121.478L459.274 122.227C457.774 123.264 456.847 125.183 456.847 127.259V148.323C456.847 150.42 458.744 151.734 460.259 150.683L461.733 149.926C463.224 148.893 464.146 146.982 464.146 144.92V144.916Z" fill="#E8F2FF"/>
<path d="M502.324 196.91V182.708C502.324 179.658 499.024 177.752 496.383 179.279L474.865 192.229C472.256 193.739 470.643 196.522 470.643 199.542V213.716C470.643 216.767 473.943 218.673 476.584 217.145L498.12 204.186C500.721 202.686 502.32 199.911 502.32 196.91H502.324Z" fill="#4095FC"/>
<path d="M476.415 219.18L473.128 217.39L474.99 216.944L476.415 219.18Z" fill="#4095FC"/>
<path d="M500.155 179.178L503.05 180.794L500.948 180.523L500.155 179.178Z" fill="#4095FC"/>
<path d="M505.579 198.686V184.484C505.579 181.434 502.28 179.528 499.639 181.055L478.121 194.005C475.511 195.515 473.899 198.298 473.899 201.318V215.492C473.899 218.543 477.199 220.449 479.84 218.921L501.376 205.962C503.976 204.462 505.575 201.687 505.575 198.686H505.579Z" fill="url(#paint13_linear_2107_3438)"/>
<path d="M465.055 218.254V204.052C465.055 201.002 461.755 199.096 459.114 200.623L437.596 213.573C434.986 215.083 433.374 217.866 433.374 220.885V235.06C433.374 238.111 436.674 240.017 439.315 238.489L460.851 225.53C463.452 224.029 465.05 221.255 465.05 218.254H465.055Z" fill="#4095FC"/>
<path d="M439.146 240.525L435.855 238.739L437.721 238.294L439.146 240.525Z" fill="#4095FC"/>
<path d="M462.882 200.525L465.781 202.137L463.674 201.865L462.882 200.525Z" fill="#4095FC"/>
<path d="M468.31 220.031V205.829C468.31 202.779 465.01 200.873 462.369 202.4L440.851 215.351C438.242 216.86 436.63 219.644 436.63 222.663V236.838C436.63 239.888 439.929 241.794 442.57 240.267L464.106 227.308C466.707 225.807 468.306 223.032 468.306 220.031H468.31Z" fill="url(#paint14_linear_2107_3438)"/>
<path d="M489.802 155.404C485.339 157.849 481.603 164.016 481.505 169.111C481.407 174.205 484.974 176.361 489.436 173.903C493.899 171.444 497.635 165.277 497.733 160.195C497.835 155.119 494.264 152.963 489.802 155.404Z" stroke="#E8F2FF" stroke-width="3.11729" stroke-miterlimit="10"/>
<path d="M489.802 155.404C485.339 157.849 481.603 164.017 481.505 169.111" stroke="#F9F998" stroke-width="3.11729" stroke-miterlimit="10" stroke-linecap="round"/>
<path d="M500.494 187.053V186.719C500.494 185.82 499.523 185.258 498.744 185.708L480.178 196.512C479.408 196.957 478.936 197.777 478.936 198.667V198.997C478.936 199.896 479.906 200.457 480.686 200.008L499.26 189.2C500.026 188.759 500.498 187.939 500.498 187.053H500.494Z" fill="#4095FC"/>
<path d="M480.632 200.6L479.661 200.074L480.214 199.94L480.632 200.6Z" fill="#4095FC"/>
<path d="M499.857 185.677L500.708 186.149L500.089 186.069L499.857 185.677Z" fill="#4095FC"/>
<path d="M501.456 187.574V187.24C501.456 186.341 500.485 185.779 499.706 186.229L481.14 197.033C480.37 197.478 479.898 198.298 479.898 199.188V199.518C479.898 200.417 480.868 200.978 481.648 200.529L500.222 189.721C500.988 189.28 501.46 188.46 501.46 187.574H501.456Z" fill="#E8F2FF"/>
<path d="M500.494 193.827V193.493C500.494 192.593 499.523 192.032 498.744 192.482L480.178 203.285C479.408 203.731 478.936 204.55 478.936 205.441V205.77C478.936 206.67 479.906 207.231 480.686 206.781L499.26 195.973C500.026 195.532 500.498 194.713 500.498 193.827H500.494Z" fill="#4095FC"/>
<path d="M480.632 207.377L479.662 206.851L480.214 206.718L480.632 207.377Z" fill="#4095FC"/>
<path d="M499.857 192.451L500.708 192.927L500.089 192.847L499.857 192.451Z" fill="#4095FC"/>
<path d="M501.456 194.352V194.018C501.456 193.118 500.485 192.557 499.706 193.007L481.14 203.81C480.37 204.256 479.898 205.075 479.898 205.966V206.295C479.898 207.195 480.868 207.756 481.648 207.306L500.222 196.498C500.988 196.057 501.46 195.238 501.46 194.352H501.456Z" fill="#E8F2FF"/>
<path d="M500.494 200.603V200.269C500.494 199.369 499.523 198.808 498.744 199.258L480.178 210.062C479.408 210.507 478.936 211.326 478.936 212.217V212.547C478.936 213.446 479.907 214.007 480.686 213.558L499.26 202.749C500.026 202.309 500.498 201.489 500.498 200.603H500.494Z" fill="#4095FC"/>
<path d="M480.633 214.154L479.662 213.624L480.214 213.495L480.633 214.154Z" fill="#4095FC"/>
<path d="M499.857 199.227L500.708 199.704L500.089 199.623L499.857 199.227Z" fill="#4095FC"/>
<path d="M501.456 201.129V200.795C501.456 199.896 500.485 199.335 499.706 199.784L481.14 210.588C480.37 211.033 479.898 211.853 479.898 212.743V213.073C479.898 213.973 480.868 214.534 481.648 214.084L500.222 203.276C500.988 202.835 501.46 202.016 501.46 201.129H501.456Z" fill="#E8F2FF"/>
<path d="M5.93152 211.551V185.686C5.93152 180.133 11.9434 176.659 16.753 179.438L68.2951 209.199C73.0512 211.947 75.9814 217.024 75.9814 222.514V248.339C75.9814 253.892 69.9695 257.366 65.16 254.587L13.5822 224.803C8.84841 222.069 5.93152 217.015 5.93152 211.551Z" fill="url(#paint15_linear_2107_3438)"/>
<path d="M65.4719 258.292L71.466 255.033L68.0726 254.222L65.4719 258.292Z" fill="#4095FC"/>
<path d="M9.88613 179.246L4.60901 182.189L8.44327 181.695L9.88613 179.246Z" fill="#4095FC"/>
<path d="M0 214.787V188.923C0 183.37 6.01192 179.896 10.8214 182.675L62.3636 212.436C67.1197 215.184 70.0499 220.26 70.0499 225.751V251.576C70.0499 257.129 64.038 260.603 59.2285 257.824L7.65071 228.04C2.91689 225.306 0 220.252 0 214.787Z" fill="url(#paint16_linear_2107_3438)"/>
<path d="M16.0004 207.285C19.3627 208.634 18.1068 202.622 17.3721 201.357C15.3681 197.902 10.6966 196 7.46799 194.139L5.86926 195.061C9.10234 196.926 13.7649 198.823 15.7733 202.279C16.5081 203.54 17.7639 209.556 14.4017 208.207L16.0004 207.285Z" fill="#4095FC"/>
<path d="M18.7169 213.074C18.7303 210.816 17.7327 208.83 15.996 207.405V207.285C19.3582 208.634 18.1024 202.622 17.3676 201.357C15.3591 197.902 10.6966 196.005 7.4635 194.139V211.658C9.08449 212.593 19.0643 219.843 18.7125 213.074H18.7169ZM10.6832 199.042C12.4111 200.03 15.1053 201.166 15.0296 203.566C14.8826 206.056 11.4937 203.406 10.6832 202.938V199.042ZM10.6832 210.451V205.886C12.6248 207.009 15.4616 208.238 15.3725 210.923C15.417 213.84 11.5204 210.936 10.6832 210.451Z" fill="#4095FC"/>
<path d="M17.1182 214.148C17.1717 211.837 16.1786 209.793 14.4017 208.332V208.212C17.7639 209.561 16.5081 203.549 15.7733 202.285C13.7694 198.829 9.09788 196.927 5.86926 195.066V212.585C7.39228 213.467 17.332 220.735 17.1182 214.148ZM9.08897 199.969C10.7857 200.94 13.4042 202.04 13.4354 204.36C13.5244 207.067 9.86384 204.311 9.08897 203.861V199.965V199.969ZM9.08897 211.378V206.814C10.9994 207.918 13.7471 209.098 13.7783 211.703C14.0499 214.834 9.91283 211.855 9.08897 211.378Z" fill="white"/>
<path d="M46.9773 216.951L45.3786 217.872L46.9773 218.794C46.9728 222.584 46.9639 226.369 47.1332 230.159L47.0619 230.119L40.4711 213.192L36.4142 210.85L34.8154 211.771L36.4142 212.693V228.364L34.8154 229.286L37.6923 230.947L39.291 230.025C39.291 225.559 39.34 221.114 39.095 216.657L39.1885 216.71L45.7883 233.775L48.2777 235.213V237.062L49.8764 236.14V218.621L46.9818 216.951H46.9773Z" fill="#4095FC"/>
<path d="M48.2732 237.065V219.546L45.3786 217.876C45.3786 222.285 45.3385 226.684 45.5344 231.089L45.4632 231.049L38.8724 214.122L34.8154 211.779V229.298L37.6923 230.96C37.6923 226.493 37.7412 222.049 37.4963 217.591L37.5898 217.644L44.1896 234.709L48.2777 237.069L48.2732 237.065Z" fill="white"/>
<path d="M60.56 232.548L65.855 227.85L62.2834 225.788L60.6847 226.71L60.992 226.888C59.5669 228.09 58.133 229.302 56.9083 230.7V222.684L53.6931 220.827L52.0944 221.749L53.6931 222.671V238.342L52.0944 239.264L55.3096 241.121L56.9083 240.199V233.942L58.2666 233.599L62.2434 243.276L60.6446 244.198L64.2963 246.309L65.895 245.387L60.56 232.539V232.548Z" fill="#4095FC"/>
<path d="M64.2963 246.317L58.9612 233.47L64.2517 228.771L60.6802 226.709C58.8544 228.304 56.9261 229.813 55.3051 231.621V223.606L52.0898 221.749V239.268L55.3051 241.125V234.868L56.6633 234.525L60.6401 244.202L64.2918 246.313L64.2963 246.317Z" fill="white"/>
<path d="M34.5038 227.267L29.1287 206.573L25.1964 204.302L23.5977 205.224L24.6353 205.82L19.8436 218.797L18.2449 219.719L21.7095 221.718L23.3082 220.797L24.4082 217.261L29.9392 220.454L31.0391 225.259L32.3395 226.011L32.905 228.185L34.5038 227.263V227.267ZM25.2142 214.62C25.8911 212.478 26.5903 210.336 27.1737 208.167C27.7348 211.097 28.4874 213.997 29.1643 216.905L25.2098 214.62H25.2142Z" fill="#4095FC"/>
<path d="M27.5299 207.5L23.5977 205.229L18.2449 219.728L21.7095 221.728L22.8095 218.192L28.3404 221.385L29.4404 226.19L32.905 228.19L27.5299 207.495V207.5ZM23.6155 215.547C24.2924 213.405 24.9916 211.263 25.5749 209.094C26.1361 212.024 26.8887 214.923 27.5656 217.831L23.6111 215.547H23.6155Z" fill="white"/>
<path d="M166.917 121.328V98.545C166.917 93.6508 172.212 90.5959 176.452 93.0407L221.853 119.257C226.044 121.675 228.626 126.146 228.626 130.987V153.734C228.626 158.628 223.331 161.683 219.092 159.239L173.66 133.004C169.487 130.595 166.917 126.146 166.917 121.328Z" fill="#4095FC"/>
<path d="M219.364 162.503L224.641 159.631L221.648 158.914L219.364 162.503Z" fill="#4095FC"/>
<path d="M170.4 92.8765L165.751 95.4683L169.126 95.0274L170.4 92.8765Z" fill="#4095FC"/>
<path d="M161.689 124.179V101.396C161.689 96.5019 166.984 93.447 171.224 95.8918L216.625 122.108C220.815 124.526 223.398 128.997 223.398 133.838V156.585C223.398 161.48 218.103 164.534 213.864 162.09L168.431 135.855C164.259 133.446 161.689 128.997 161.689 124.179Z" fill="url(#paint17_linear_2107_3438)"/>
<path d="M166.579 128.208C166.606 121.012 171.736 118.077 177.984 121.68C184.227 125.287 189.34 134.135 189.34 141.345L187.768 142.396L165.011 129.255L166.583 128.204L166.579 128.208Z" fill="#4095FC"/>
<path d="M165.007 129.259C165.034 122.062 170.164 119.128 176.412 122.73C182.655 126.338 187.767 135.186 187.767 142.396L165.011 129.254L165.007 129.259Z" fill="#E8F2FF"/>
<path d="M175.922 122.49C172.359 120.432 169.456 115.404 169.474 111.321C169.491 107.237 172.404 105.567 175.949 107.616C179.493 109.664 182.397 114.692 182.397 118.784C182.397 122.881 179.485 124.547 175.922 122.49Z" fill="#4095FC"/>
<path d="M174.136 123.385C170.573 121.327 167.67 116.299 167.688 112.216C167.706 108.132 170.618 106.462 174.163 108.511C177.708 110.559 180.611 115.587 180.611 119.679C180.611 123.776 177.699 125.442 174.136 123.385Z" fill="#E8F2FF"/>
<path d="M192.755 120.511V120.128C192.755 119.104 193.864 118.462 194.755 118.975L215.943 131.301C216.821 131.809 217.364 132.744 217.364 133.759V134.133C217.364 135.158 216.255 135.799 215.364 135.287L194.171 122.956C193.298 122.453 192.76 121.517 192.76 120.506L192.755 120.511Z" fill="#4095FC"/>
<path d="M215.422 135.972L216.527 135.371L215.899 135.22L215.422 135.972Z" fill="#4095FC"/>
<path d="M193.486 118.938L192.51 119.482L193.218 119.388L193.486 118.938Z" fill="#4095FC"/>
<path d="M191.66 121.109V120.726C191.66 119.701 192.769 119.06 193.659 119.572L214.848 131.899C215.725 132.406 216.268 133.342 216.268 134.357V134.731C216.268 135.755 215.16 136.397 214.269 135.884L193.076 123.553C192.203 123.05 191.664 122.115 191.664 121.104L191.66 121.109Z" fill="#E8F2FF"/>
<path d="M192.755 128.197V127.814C192.755 126.79 193.864 126.148 194.755 126.661L215.943 138.987C216.821 139.495 217.364 140.43 217.364 141.445V141.819C217.364 142.844 216.255 143.485 215.364 142.973L194.171 130.642C193.299 130.139 192.76 129.203 192.76 128.192L192.755 128.197Z" fill="#4095FC"/>
<path d="M215.422 143.658L216.527 143.057L215.899 142.905L215.422 143.658Z" fill="#4095FC"/>
<path d="M193.486 126.625L192.51 127.168L193.218 127.074L193.486 126.625Z" fill="#4095FC"/>
<path d="M191.66 128.794V128.411C191.66 127.387 192.769 126.746 193.659 127.258L214.848 139.584C215.725 140.092 216.268 141.027 216.268 142.043V142.417C216.268 143.441 215.16 144.082 214.269 143.57L193.076 131.239C192.203 130.736 191.664 129.801 191.664 128.79L191.66 128.794Z" fill="#E8F2FF"/>
<path d="M192.755 136.74V136.357C192.755 135.333 193.864 134.692 194.755 135.204L215.943 147.531C216.821 148.038 217.364 148.974 217.364 149.989V150.363C217.364 151.387 216.255 152.028 215.364 151.516L194.171 139.185C193.298 138.682 192.76 137.747 192.76 136.736L192.755 136.74Z" fill="#4095FC"/>
<path d="M215.422 152.201L216.527 151.6L215.899 151.448L215.422 152.201Z" fill="#4095FC"/>
<path d="M193.486 135.168L192.51 135.712L193.218 135.618L193.486 135.168Z" fill="#4095FC"/>
<path d="M191.66 137.338V136.955C191.66 135.931 192.769 135.29 193.659 135.802L214.848 148.128C215.725 148.636 216.268 149.571 216.268 150.587V150.961C216.268 151.985 215.16 152.626 214.269 152.114L193.076 139.783C192.203 139.28 191.664 138.344 191.664 137.334L191.66 137.338Z" fill="#E8F2FF"/>
<path d="M167.643 210.963V151.294C167.643 148.898 170.235 147.402 172.31 148.6L219.123 175.631C221.421 176.958 222.837 179.407 222.837 182.061V239.241C222.837 241.637 220.245 243.133 218.17 241.936L169.202 213.662C168.24 213.105 167.648 212.081 167.648 210.968L167.643 210.963Z" fill="#337AF7"/>
<path d="M222.245 240.987C222.245 240.987 221.234 243.512 216.442 243.761L218.714 240.987H222.245Z" fill="#337AF7"/>
<path d="M165.982 149.903L169.042 148.714L168.663 149.841L165.982 149.903Z" fill="#337AF7"/>
<path d="M164.107 212.369V152.7C164.107 150.304 166.699 148.808 168.774 150.006L215.587 177.037C217.885 178.364 219.301 180.813 219.301 183.468V240.648C219.301 243.043 216.709 244.54 214.634 243.342L165.666 215.068C164.704 214.511 164.112 213.487 164.112 212.374L164.107 212.369Z" fill="url(#paint18_linear_2107_3438)"/>
<path d="M134.186 183.671V147.533C134.186 146.081 135.758 145.177 137.013 145.903L165.367 162.273C166.757 163.075 167.616 164.562 167.616 166.165V200.798C167.616 202.25 166.044 203.154 164.789 202.428L135.13 185.305C134.546 184.967 134.186 184.348 134.186 183.676V183.671Z" fill="url(#paint19_linear_2107_3438)"/>
<path d="M167.256 201.854C167.256 201.854 166.645 203.381 163.742 203.533L165.118 201.854H167.256Z" fill="#04A6BC"/>
<path d="M133.179 146.691L135.032 145.97L134.8 146.651L133.179 146.691Z" fill="#00B5A3"/>
<path d="M132.044 184.527V148.388C132.044 146.937 133.616 146.033 134.872 146.758L163.225 163.129C164.615 163.93 165.474 165.418 165.474 167.021V201.654C165.474 203.106 163.902 204.01 162.647 203.284L132.988 186.161C132.404 185.822 132.044 185.203 132.044 184.531V184.527Z" fill="url(#paint20_linear_2107_3438)"/>
<path d="M171.059 161.629V166.96L175.73 169.654V164.292L171.059 161.629Z" fill="#0753E2"/>
<path d="M171.059 167.044V172.375L175.73 175.073V169.707L171.059 167.044Z" fill="#0753E2"/>
<path d="M171.059 172.46V177.791L175.73 180.49V175.124L171.059 172.46Z" fill="#0753E2"/>
<path d="M171.059 183.291V188.621L175.73 191.32V185.958L171.059 183.291Z" fill="#0753E2"/>
<path d="M171.059 194.125V199.451L175.73 202.15V196.788L171.059 194.125Z" fill="#0753E2"/>
<path d="M171.059 199.54V204.866L175.73 207.564V202.203L171.059 199.54Z" fill="#0753E2"/>
<path d="M171.059 204.954V210.285L175.73 212.979V207.617L171.059 204.954Z" fill="#0753E2"/>
<path d="M175.721 169.724V175.055L180.397 177.753V172.387L175.721 169.724Z" fill="#0753E2"/>
<path d="M175.721 175.141V180.471L180.397 183.17V177.804L175.721 175.141Z" fill="#0753E2"/>
<path d="M175.721 180.556V185.887L180.397 188.585V183.224L175.721 180.556Z" fill="#0753E2"/>
<path d="M175.721 185.971V191.301L180.397 194V188.638L175.721 185.971Z" fill="#0753E2"/>
<path d="M175.721 191.387V196.718L180.397 199.416V194.055L175.721 191.387Z" fill="#0753E2"/>
<path d="M175.721 196.805V202.131L180.397 204.83V199.468L175.721 196.805Z" fill="#0753E2"/>
<path d="M175.721 207.636V212.967L180.397 215.661V210.299L175.721 207.636Z" fill="#0753E2"/>
<path d="M180.388 166.992V172.322L185.06 175.016V169.655L180.388 166.992Z" fill="#0753E2"/>
<path d="M180.388 177.821V183.151L185.06 185.85V180.488L180.388 177.821Z" fill="#0753E2"/>
<path d="M180.388 188.651V193.981L185.06 196.68V191.318L180.388 188.651Z" fill="#0753E2"/>
<path d="M180.388 199.486V204.812L185.06 207.511V202.149L180.388 199.486Z" fill="#0753E2"/>
<path d="M180.388 204.902V210.232L185.06 212.927V207.565L180.388 204.902Z" fill="#0753E2"/>
<path d="M180.388 210.316V215.647L185.06 218.346V212.979L180.388 210.316Z" fill="#0753E2"/>
<path d="M185.051 169.672V175.002L189.727 177.701V172.335L185.051 169.672Z" fill="#0753E2"/>
<path d="M185.051 175.086V180.417L189.727 183.116V177.749L185.051 175.086Z" fill="#0753E2"/>
<path d="M185.051 185.917V191.248L189.727 193.947V188.585L185.051 185.917Z" fill="#0753E2"/>
<path d="M185.051 191.332V196.663L189.727 199.361V194L185.051 191.332Z" fill="#0753E2"/>
<path d="M185.051 196.752V202.079L189.727 204.777V199.415L185.051 196.752Z" fill="#0753E2"/>
<path d="M185.051 207.583V212.913L189.727 215.607V210.246L185.051 207.583Z" fill="#0753E2"/>
<path d="M189.718 172.353V177.683L194.389 180.382V175.016L189.718 172.353Z" fill="#0753E2"/>
<path d="M189.718 183.184V188.514L194.389 191.213V185.851L189.718 183.184Z" fill="#0753E2"/>
<path d="M189.718 188.598V193.929L194.389 196.627V191.266L189.718 188.598Z" fill="#0753E2"/>
<path d="M189.718 194.013V199.343L194.389 202.042V196.68L189.718 194.013Z" fill="#0753E2"/>
<path d="M189.718 199.433V204.759L194.389 207.457V202.096L189.718 199.433Z" fill="#0753E2"/>
<path d="M189.718 215.679V221.01L194.389 223.708V218.342L189.718 215.679Z" fill="#0753E2"/>
<path d="M194.385 191.279V196.61L199.056 199.309V193.947L194.385 191.279Z" fill="#0753E2"/>
<path d="M194.385 196.695V202.025L199.056 204.724V199.362L194.385 196.695Z" fill="#0753E2"/>
<path d="M194.385 202.114V207.44L199.056 210.139V204.777L194.385 202.114Z" fill="#0753E2"/>
<path d="M194.385 207.529V212.86L199.056 215.554V210.192L194.385 207.529Z" fill="#0753E2"/>
<path d="M194.385 212.945V218.275L199.056 220.974V215.608L194.385 212.945Z" fill="#0753E2"/>
<path d="M199.048 177.715V183.045L203.719 185.744V180.378L199.048 177.715Z" fill="#0753E2"/>
<path d="M199.048 183.129V188.46L203.719 191.159V185.797L199.048 183.129Z" fill="#0753E2"/>
<path d="M199.048 188.545V193.875L203.719 196.574V191.212L199.048 188.545Z" fill="#0753E2"/>
<path d="M199.048 193.959V199.29L203.719 201.989V196.627L199.048 193.959Z" fill="#0753E2"/>
<path d="M199.048 199.379V204.706L203.719 207.404V202.042L199.048 199.379Z" fill="#0753E2"/>
<path d="M199.048 210.21V215.541L203.719 218.235V212.874L199.048 210.21Z" fill="#0753E2"/>
<path d="M199.048 221.041V226.371L203.719 229.07V223.704L199.048 221.041Z" fill="#0753E2"/>
<path d="M203.715 180.395V185.726L208.386 188.424V183.058L203.715 180.395Z" fill="#0753E2"/>
<path d="M203.715 191.226V196.557L208.386 199.255V193.894L203.715 191.226Z" fill="#0753E2"/>
<path d="M203.715 196.642V201.972L208.386 204.671V199.309L203.715 196.642Z" fill="#0753E2"/>
<path d="M203.715 207.476V212.807L208.386 215.501V210.139L203.715 207.476Z" fill="#0753E2"/>
<path d="M203.715 223.721V229.051L208.386 231.75V226.388L203.715 223.721Z" fill="#0753E2"/>
<path d="M208.377 183.075V188.406L213.049 191.104V185.743L208.377 183.075Z" fill="#0753E2"/>
<path d="M208.377 188.492V193.822L213.049 196.521V191.159L208.377 188.492Z" fill="#0753E2"/>
<path d="M208.377 193.906V199.237L213.049 201.935V196.574L208.377 193.906Z" fill="#0753E2"/>
<path d="M208.377 204.741V210.067L213.049 212.766V207.404L208.377 204.741Z" fill="#0753E2"/>
<path d="M208.377 215.571V220.902L213.049 223.601V218.234L208.377 215.571Z" fill="#0753E2"/>
<path d="M208.377 220.987V226.318L213.049 229.017V223.65L208.377 220.987Z" fill="#0753E2"/>
<path d="M208.377 226.402V231.732L213.049 234.431V229.069L208.377 226.402Z" fill="#0753E2"/>
<path d="M137.628 169.98L146.268 186.377L156.924 170.314L137.628 169.98Z" fill="white"/>
<path d="M156.924 170.313L141.427 179.206L141.244 176.837L156.924 170.313Z" fill="#0878FF"/>
<path d="M182.352 326.782L191.214 321.853L218.825 337.866L209.887 342.663L182.352 326.782Z" fill="#0515B1"/>
<path d="M191.214 321.853V332.26L182.352 326.782L191.214 321.853Z" fill="#0878FF"/>
<path d="M214.817 390.047L175.561 367.781L182.352 326.784L209.887 342.665L214.817 390.047Z" fill="url(#paint21_linear_2107_3438)"/>
<path d="M229.513 380.636L214.817 390.046L209.887 342.663L218.825 337.867L229.513 380.636Z" fill="url(#paint22_linear_2107_3438)"/>
<path d="M195.222 325.416C195.222 325.416 196.785 307.46 204.574 312.056C212.363 316.652 213.035 335.659 213.035 335.659" stroke="#0515B1" stroke-width="1.33598" stroke-miterlimit="10"/>
<path d="M187.652 330.759C187.652 330.759 189.215 312.803 197.004 317.399C204.792 321.995 205.465 341.001 205.465 341.001" stroke="url(#paint23_linear_2107_3438)" stroke-width="1.33598" stroke-miterlimit="10"/>
<path d="M191.793 364.574L197.894 361.18L216.901 372.202L210.746 375.506L191.793 364.574Z" fill="#0000D4"/>
<path d="M197.894 361.18V368.341L191.793 364.574L197.894 361.18Z" fill="#5E60FF"/>
<path d="M200.655 363.634C200.655 363.634 201.728 351.276 207.095 354.437C212.456 357.599 212.92 370.687 212.92 370.687" stroke="#0000D4" stroke-width="1.33598" stroke-miterlimit="10"/>
<path d="M195.441 367.311C195.441 367.311 196.514 354.953 201.88 358.115C207.242 361.277 207.705 374.365 207.705 374.365" stroke="url(#paint24_linear_2107_3438)" stroke-width="1.33598" stroke-miterlimit="10"/>
<path d="M214.14 408.125L187.117 392.793L191.793 364.572L210.746 375.505L214.14 408.125Z" fill="url(#paint25_linear_2107_3438)"/>
<path d="M224.258 401.647L214.14 408.126L210.746 375.506L216.901 372.202L224.258 401.647Z" fill="url(#paint26_linear_2107_3438)"/>
<path d="M542.965 132.759V84.4543C542.965 82.5171 540.867 81.3058 539.188 82.2722L501.291 104.156C499.43 105.229 498.285 107.215 498.285 109.361V155.653C498.285 157.59 500.383 158.802 502.061 157.835L541.704 134.945C542.484 134.496 542.965 133.663 542.965 132.763V132.759Z" fill="#4095FC"/>
<path d="M498.762 157.06C498.762 157.06 499.577 159.104 503.46 159.309L501.621 157.06H498.762Z" fill="#4095FC"/>
<path d="M544.31 83.3282L541.833 82.3618L542.141 83.2747L544.31 83.3282Z" fill="#4095FC"/>
<path d="M545.828 133.899V85.5944C545.828 83.6572 543.73 82.446 542.052 83.4123L504.154 105.296C502.293 106.369 501.148 108.355 501.148 110.502V156.793C501.148 158.73 503.246 159.942 504.925 158.975L544.568 136.086C545.347 135.636 545.828 134.803 545.828 133.903V133.899Z" fill="url(#paint27_linear_2107_3438)"/>
<path d="M521.157 104.632C513.867 111.107 509.534 124.222 511.529 133.783C513.524 143.345 521.112 145.843 528.394 139.337C535.675 132.83 540.008 119.715 538.022 110.185C536.035 100.66 528.447 98.1617 521.157 104.632Z" stroke="white" stroke-width="1.78131" stroke-linecap="round" stroke-linejoin="round"/>
<path d="M518.53 125.02L523.971 131.308L530.999 113.442" stroke="white" stroke-width="2.67196" stroke-linecap="round" stroke-linejoin="round"/>
<path d="M452.666 181.875V175.573C452.666 175.279 452.287 175.164 452.123 175.404L445.42 184.128C445.238 184.395 445.558 184.72 445.83 184.547L452.532 182.124C452.617 182.071 452.67 181.973 452.67 181.875H452.666Z" fill="#E8F2FF"/>
<path d="M445.661 184.889C445.509 184.889 445.358 184.827 445.242 184.711C445.042 184.506 445.015 184.203 445.175 183.967L445.184 183.954L451.882 175.239C452.029 175.03 452.292 174.936 452.537 175.012C452.786 175.088 452.955 175.315 452.955 175.577V181.879C452.955 182.079 452.853 182.266 452.684 182.373L452.657 182.391L452.626 182.404L445.95 184.818C445.861 184.867 445.759 184.894 445.661 184.894V184.889ZM445.656 184.297C445.656 184.297 445.656 184.306 445.665 184.306L445.728 184.275L452.376 181.87V175.573V175.582H452.354L445.661 184.292L445.656 184.297Z" fill="#6BE6FB"/>
<path d="M462.147 187.525V176.775C462.147 175.546 460.811 174.789 459.756 175.412L446.062 183.544C445.581 183.829 445.287 184.346 445.287 184.907V195.43C445.287 196.65 446.605 197.412 447.66 196.802L461.354 188.897C461.844 188.616 462.147 188.091 462.147 187.525Z" fill="#E8F2FF"/>
<path d="M445.937 197.051C445.349 196.713 444.997 196.107 444.997 195.426V184.902C444.997 184.243 445.349 183.629 445.915 183.29L459.608 175.159C460.196 174.811 460.9 174.802 461.492 175.141C462.085 175.479 462.441 176.089 462.441 176.771V187.521C462.441 188.189 462.08 188.812 461.506 189.146L447.812 197.051C447.518 197.22 447.197 197.305 446.872 197.305C446.547 197.305 446.226 197.22 445.937 197.051ZM459.907 175.662L446.213 183.794C445.826 184.025 445.581 184.448 445.581 184.902V195.426C445.581 195.893 445.821 196.312 446.226 196.543C446.632 196.775 447.113 196.775 447.518 196.543L461.212 188.639C461.608 188.407 461.857 187.98 461.857 187.521V176.771C461.857 176.299 461.612 175.88 461.203 175.649C461.002 175.533 460.784 175.479 460.566 175.479C460.348 175.479 460.112 175.542 459.907 175.662Z" fill="#6BE6FB"/>
<path d="M463.082 179.473L459.096 181.837C458.753 182.042 458.544 182.407 458.544 182.808V183.743C458.544 184.603 459.47 185.146 460.223 184.723L464.2 182.487C464.552 182.292 464.77 181.917 464.774 181.517L464.783 180.457C464.792 179.58 463.835 179.032 463.082 179.477V179.473Z" fill="#E8F2FF"/>
<path d="M458.918 185.026C458.455 184.754 458.179 184.273 458.179 183.739V182.804C458.179 182.278 458.46 181.789 458.909 181.521L462.895 179.157C463.363 178.881 463.928 178.876 464.4 179.148C464.872 179.419 465.153 179.909 465.148 180.453L465.14 181.512C465.135 182.047 464.846 182.537 464.378 182.799L460.401 185.035C460.17 185.164 459.92 185.231 459.671 185.231C459.422 185.231 459.154 185.164 458.918 185.026ZM463.269 179.789L459.283 182.154C459.052 182.292 458.909 182.541 458.909 182.808V183.744C458.909 184.015 459.052 184.265 459.288 184.403C459.524 184.541 459.809 184.545 460.045 184.407L464.022 182.172C464.258 182.038 464.409 181.784 464.409 181.512L464.418 180.453C464.418 180.172 464.276 179.927 464.035 179.785C463.915 179.718 463.786 179.682 463.657 179.682C463.527 179.682 463.389 179.718 463.269 179.789Z" fill="#6BE6FB"/>
<path d="M447.024 186.644C447.073 186.644 447.126 186.63 447.171 186.604L455.463 181.705C455.601 181.625 455.65 181.442 455.565 181.304C455.485 181.166 455.302 181.117 455.164 181.202L446.872 186.1C446.734 186.181 446.685 186.363 446.77 186.501C446.823 186.595 446.921 186.644 447.024 186.644Z" fill="#6BE6FB"/>
<path d="M446.592 224.408L447.781 223.722V228.785L445.995 229.814C445.861 229.89 445.781 230.032 445.781 230.188V230.958C445.79 231.288 446.146 231.488 446.431 231.323L460.423 223.156C460.557 223.08 460.637 222.938 460.637 222.787V222.105C460.628 221.78 460.276 221.575 459.991 221.74L458.054 222.858V217.794L460.023 216.659C460.606 216.32 460.606 215.483 460.023 215.145L453.32 211.284C452.902 211.043 452.372 211.186 452.127 211.604L445.398 223.219C444.948 223.993 445.817 224.857 446.592 224.412V224.408ZM454.216 220.043V225.107L451.757 226.532V221.468L454.216 220.043ZM456.678 223.65L455.596 224.314V219.251L456.678 218.587V223.65ZM449.161 222.925L450.381 222.261V227.324L449.161 227.988V222.925Z" fill="#E8F2FF"/>
<path d="M446.218 231.497C446.124 231.497 446.035 231.475 445.95 231.426C445.781 231.328 445.679 231.154 445.679 230.962V230.192C445.67 229.996 445.772 229.818 445.941 229.72L447.669 228.722V223.917L446.649 224.505C446.249 224.737 445.781 224.674 445.456 224.349C445.131 224.024 445.069 223.557 445.3 223.156L452.029 211.542C452.301 211.07 452.906 210.909 453.374 211.181L460.076 215.042C460.383 215.22 460.57 215.541 460.57 215.897C460.57 216.253 460.388 216.574 460.076 216.752L458.166 217.856V222.657L459.929 221.637C460.098 221.539 460.299 221.539 460.468 221.637C460.637 221.735 460.74 221.909 460.74 222.1V222.782C460.744 222.973 460.642 223.156 460.477 223.254L446.485 231.421C446.4 231.47 446.307 231.497 446.213 231.497H446.218ZM447.781 223.606C447.781 223.606 447.821 223.61 447.839 223.619C447.874 223.641 447.896 223.677 447.896 223.717V228.78C447.896 228.82 447.874 228.86 447.839 228.878L446.053 229.907C445.955 229.965 445.897 230.067 445.897 230.179V230.949C445.906 231.06 445.964 231.163 446.062 231.221C446.16 231.279 446.275 231.274 446.373 231.221L460.366 223.053C460.464 222.995 460.521 222.893 460.521 222.782V222.1C460.517 221.989 460.455 221.887 460.361 221.833C460.268 221.78 460.147 221.775 460.049 221.833L458.112 222.951C458.077 222.973 458.032 222.973 457.996 222.951C457.961 222.929 457.939 222.893 457.939 222.853V217.79C457.939 217.75 457.961 217.709 457.996 217.692L459.965 216.556C460.201 216.418 460.343 216.173 460.343 215.897C460.343 215.621 460.201 215.376 459.965 215.238L453.263 211.377C452.902 211.168 452.434 211.292 452.225 211.653L445.496 223.267C445.282 223.641 445.425 223.993 445.616 224.185C445.808 224.376 446.16 224.523 446.534 224.305L447.723 223.619C447.723 223.619 447.758 223.606 447.781 223.606ZM449.161 228.103C449.161 228.103 449.121 228.099 449.103 228.086C449.068 228.063 449.05 228.028 449.05 227.988V222.924C449.05 222.884 449.072 222.844 449.108 222.826L450.328 222.163C450.364 222.145 450.404 222.145 450.439 222.163C450.475 222.185 450.493 222.221 450.493 222.261V227.324C450.493 227.364 450.47 227.404 450.435 227.422L449.215 228.086C449.215 228.086 449.179 228.099 449.161 228.099V228.103ZM449.277 222.991V227.796L450.27 227.257V222.452L449.277 222.991ZM451.762 226.643C451.762 226.643 451.722 226.638 451.704 226.629C451.668 226.607 451.646 226.571 451.646 226.531V221.468C451.646 221.428 451.668 221.388 451.704 221.37L454.162 219.945C454.198 219.923 454.242 219.923 454.278 219.945C454.314 219.967 454.336 220.003 454.336 220.043V225.106C454.336 225.146 454.314 225.186 454.278 225.204L451.82 226.629C451.82 226.629 451.784 226.643 451.762 226.643ZM451.878 221.53V226.331L454.109 225.04V220.239L451.878 221.53ZM455.601 224.425C455.601 224.425 455.56 224.421 455.547 224.412C455.511 224.389 455.489 224.354 455.489 224.314V219.25C455.489 219.21 455.512 219.175 455.543 219.152L456.625 218.489C456.66 218.467 456.705 218.467 456.741 218.489C456.776 218.511 456.798 218.547 456.798 218.587V223.65C456.798 223.69 456.776 223.726 456.745 223.748L455.663 224.412C455.663 224.412 455.623 224.429 455.605 224.429L455.601 224.425ZM455.716 219.308V224.109L456.571 223.588V218.787L455.716 219.308Z" fill="#6BE6FB"/>
<path d="M460.633 224.673V225.354C460.637 225.506 460.557 225.648 460.428 225.724L446.436 233.891C446.151 234.056 445.799 233.856 445.794 233.526V232.756C445.785 232.6 445.87 232.457 445.999 232.382L459.996 224.303C460.281 224.139 460.633 224.343 460.637 224.669L460.633 224.673Z" fill="#E8F2FF"/>
<path d="M446.217 234.124C446.115 234.124 446.017 234.097 445.924 234.044C445.736 233.937 445.625 233.745 445.621 233.531V232.761C445.612 232.547 445.728 232.347 445.915 232.24L459.911 224.162C460.098 224.055 460.321 224.055 460.508 224.162C460.695 224.269 460.806 224.46 460.811 224.674V225.355C460.815 225.569 460.704 225.769 460.521 225.876L446.529 234.044C446.436 234.097 446.333 234.124 446.226 234.124H446.217ZM460.205 224.42C460.161 224.42 460.116 224.433 460.076 224.456L446.079 232.534C445.999 232.578 445.95 232.667 445.95 232.757V233.527C445.959 233.62 446.004 233.701 446.088 233.75C446.168 233.794 446.262 233.794 446.342 233.75L460.334 225.582C460.414 225.538 460.463 225.449 460.463 225.36V224.678C460.459 224.585 460.41 224.505 460.33 224.456C460.29 224.433 460.245 224.42 460.201 224.42H460.205Z" fill="#6BE6FB"/>
<path d="M101.054 230.859C101.054 230.859 93.7861 243.439 93.8885 248.467C93.9909 253.495 104.728 264.744 115.144 261.573C125.565 258.407 127.667 253.495 126.967 249.282C126.268 245.069 123.267 236.755 123.267 236.755L101.054 230.854V230.859Z" fill="#337AF7"/>
<path d="M89.1147 317.889C89.1147 317.889 87.7832 321.332 88.7897 322.73C89.7961 324.128 99.1257 323.63 102.305 320.25C105.481 316.874 96.8679 315.547 96.8679 315.547L89.1147 317.889Z" fill="#0515B1"/>
<path d="M119.143 332.902C119.143 332.902 117.812 336.344 118.818 337.743C119.824 339.141 129.154 338.642 132.334 335.262C135.509 331.887 126.896 330.56 126.896 330.56L119.143 332.902Z" fill="#0515B1"/>
<path d="M109.292 262.126C109.292 262.126 113.563 286.654 113.95 299.894C114.338 313.134 112.623 331.824 114.338 335.583C115.38 337.863 129.069 339.092 129.145 329.25C129.221 319.355 126.967 249.287 126.967 249.287C126.967 249.287 121.085 258.835 109.292 262.13V262.126Z" fill="url(#paint28_linear_2107_3438)"/>
<path d="M93.8885 248.467C93.8885 248.467 92.5882 274.545 91.7376 282.352C91.1052 288.172 84.8929 310.737 85.2893 317.435C85.5743 322.249 100.306 321.549 101.708 313.128C102.056 311.053 109.292 262.125 109.292 262.125L93.8885 248.462V248.467Z" fill="url(#paint29_linear_2107_3438)"/>
<path d="M98.1994 193.857C98.1994 193.857 89.1681 217.624 89.8228 220.475C90.4774 223.325 101.049 230.86 101.049 230.86L98.1994 193.857Z" fill="url(#paint30_linear_2107_3438)"/>
<path d="M102.283 190.913C108.86 191.038 119.949 195.264 126.847 200.488C126.847 200.488 126.803 226.548 123.267 236.76C121.356 242.273 101.802 235.589 101.054 230.859C100.475 227.19 98.6536 205.235 97.8698 195.594C97.6605 193.029 99.7134 190.864 102.287 190.913H102.283Z" fill="url(#paint31_linear_2107_3438)"/>
<path d="M126.847 200.484L138.31 216.32L142.398 202.274C142.398 202.274 150.699 199.696 152.222 205.783C152.926 208.589 141.699 228.232 141.699 228.232C141.699 228.232 128.192 222.621 124.157 217.006C120.123 211.394 116.199 200.092 126.843 200.479L126.847 200.484Z" fill="url(#paint32_linear_2107_3438)"/>
<path d="M106.425 193.75C106.425 193.75 108.023 199.473 114.338 195.26L114.307 189.186L106.425 187.249V193.746V193.75Z" fill="#CEB499"/>
<path d="M112.232 188.945L117.201 190.584C117.981 190.855 118.831 190.468 119.143 189.706C119.544 188.74 120.069 187.253 120.488 185.534C120.63 184.959 122.051 184.652 122.051 184.033C122.051 183.329 120.791 183.209 120.648 180.524C120.55 178.689 120.835 176.333 119.945 174.913C116.435 169.302 113.345 169.662 111.523 169.302C108.014 168.598 101 172.904 101 177.019C101 179.825 101.628 185.73 103.107 186.843C105.431 188.589 112.227 188.949 112.227 188.949L112.232 188.945Z" fill="#F4D6AE"/>
<path d="M113.634 169.302C113.634 169.302 119.949 170.705 121.352 172.811C122.755 174.917 122.755 178.422 122.755 178.422C122.755 178.422 119.455 181.473 116.547 179.95C116.547 179.95 115.518 191.533 116.444 192.454C117.148 193.158 110.668 199.125 103.383 193.683C103.383 193.683 99.6066 191.047 99.6066 188.945C99.6066 186.843 98.8005 170.807 106.62 170.001C106.62 170.001 108.727 168.598 113.634 169.297V169.302Z" fill="url(#paint33_linear_2107_3438)"/>
<path d="M148.481 195.304H148.504C148.504 195.304 149.416 191.051 149.416 190.352C149.416 189.653 148.713 190.352 148.713 190.352C148.009 191.755 147.31 195.264 147.31 195.264C146.606 195.264 145.907 197.371 145.907 197.371C144.504 198.074 145.204 200.88 145.48 201.762L150.276 202.83C150.276 202.83 152.222 199.477 152.222 197.375C152.222 195.834 149.964 195.42 148.481 195.313V195.304Z" fill="#F4D6AE"/>
<path d="M119.317 181.662C119.358 181.231 119.111 180.855 118.766 180.822C118.42 180.79 118.108 181.112 118.067 181.543C118.026 181.974 118.273 182.35 118.618 182.383C118.963 182.415 119.276 182.093 119.317 181.662Z" fill="#0C1A7A"/>
<path d="M120.167 179.13C118.863 179.036 117.589 179.455 116.743 180.47C116.667 180.555 116.525 180.453 116.578 180.35C117.188 179.028 118.871 178.457 120.216 178.93C120.332 178.97 120.288 179.148 120.167 179.13Z" fill="#0C1A7A"/>
<path d="M120.02 187.253C119.718 187.864 118.773 187.81 118.431 187.253C118.952 187.503 119.513 187.583 120.02 187.253Z" fill="#0C1A7A"/>
<path d="M120.63 179.812C120.706 180.551 120.76 181.29 120.956 181.981C121.209 182.667 121.726 183.214 122.047 183.873C121.588 183.29 121.005 182.751 120.742 182.048C120.533 181.317 120.524 180.556 120.626 179.816L120.63 179.812Z" fill="#0C1A7A"/>
<path d="M125.306 200.516C122.202 201.474 119.735 204.11 120.092 207.512C120.083 207.156 120.007 206.671 120.047 206.319C120.132 203.415 122.634 201.211 125.306 200.516Z" fill="#0C1A7A"/>
<path d="M126.09 219.121C123.49 216.889 121.094 213.937 120.675 210.428C121.236 213.906 123.583 216.778 126.09 219.121Z" fill="#0C1A7A"/>
<path d="M97.9366 196.432C98.903 206.683 99.7981 216.939 100.626 227.204C99.6601 216.952 98.765 206.696 97.9366 196.432Z" fill="#0C1A7A"/>
<path d="M138.31 216.323C138.31 216.323 139.829 218.198 139.829 219.752" stroke="#0C1A7A" stroke-width="0.111332" stroke-miterlimit="10"/>
<path d="M109.293 262.125C107.035 261.333 105.187 259.658 103.686 257.841L103.076 257.026C104.773 259.115 106.781 261.074 109.297 262.13L109.293 262.125Z" fill="#0C1A7A"/>
<path d="M100.243 234.829C104.563 239.496 111.065 241.767 117.339 241.762C118.756 241.785 120.31 241.638 121.713 241.5C120.319 241.664 118.76 241.847 117.339 241.829C111.06 241.896 104.474 239.598 100.243 234.833V234.829Z" fill="#0C1A7A"/>
<path d="M104.625 243.564C103.851 246.125 102.849 248.659 102.555 251.331C102.711 248.646 103.721 246.072 104.625 243.564Z" fill="#0C1A7A"/>
<path d="M548.367 220.317C548.367 220.317 552.477 229.985 552.374 235.013C552.272 240.041 542.056 250.934 531.636 247.767C521.215 244.601 519.113 239.689 519.812 235.476C520.511 231.264 521.197 222.989 521.197 222.989L548.362 220.317H548.367Z" fill="url(#paint34_linear_2107_3438)"/>
<path d="M529.454 317.916C529.454 317.916 532.62 322.031 531.818 324.315C531.017 326.6 518.227 329.646 512.598 326.355C506.969 323.064 518.058 317.845 518.058 317.845L529.449 317.916H529.454Z" fill="#0515B1"/>
<path d="M557.661 301.527C557.661 301.527 560.694 305.74 559.816 308.002C558.939 310.265 546.06 312.892 540.543 309.418C535.021 305.945 546.278 301.091 546.278 301.091L557.661 301.532V301.527Z" fill="#0515B1"/>
<path d="M539.905 247.929C539.905 247.929 536.73 270.766 536.343 284.001C535.955 297.236 534.161 318.019 532.442 321.778C531.4 324.058 517.71 325.287 517.635 315.445C517.559 305.55 519.812 235.482 519.812 235.482C519.812 235.482 528.109 244.638 539.901 247.934L539.905 247.929Z" fill="url(#paint35_linear_2107_3438)"/>
<path d="M552.375 233.678C552.375 233.678 554.192 260.736 555.042 268.547C555.674 274.367 561.887 296.932 561.49 303.63C561.205 308.444 543.98 307.562 542.573 299.141C542.226 297.066 537.483 248.32 537.483 248.32L552.37 233.678H552.375Z" fill="url(#paint36_linear_2107_3438)"/>
<path d="M547.476 182.02C547.476 182.02 557.483 199.21 556.828 202.06C556.173 204.91 547.921 221.654 547.921 221.654L547.476 182.02Z" fill="#F4D6AE"/>
<path d="M546.986 179.946L553.711 190.037C553.711 190.037 553.007 194.65 547.792 194.348C542.577 194.045 546.986 179.946 546.986 179.946Z" fill="url(#paint37_linear_2107_3438)"/>
<path d="M543.606 178.44C537.028 178.564 523.428 183.227 519.932 186.46C519.932 186.46 517.661 217.513 521.202 227.452C523.112 232.819 547.031 227.884 548.366 220.082C548.977 216.515 547.24 192.387 548.024 182.996C548.233 180.497 546.18 178.391 543.606 178.44Z" fill="url(#paint38_linear_2107_3438)"/>
<path d="M537.233 180.391C537.233 180.391 535.007 185.784 529.601 181.575L529.218 175.786L537.233 173.894V180.391Z" fill="#CEB499"/>
<path d="M532.322 176.922L527.352 178.56C526.572 178.832 525.722 178.445 525.41 177.683C525.009 176.717 524.484 175.229 524.065 173.51C523.923 172.936 522.502 172.629 522.502 172.01C522.502 171.391 523.762 171.186 523.905 168.5C524.003 166.666 523.718 164.31 524.609 162.889C528.118 157.278 531.208 157.639 533.03 157.278C536.539 156.575 543.553 160.881 543.553 164.996C543.553 167.801 542.925 173.706 541.446 174.82C539.122 176.565 532.326 176.926 532.326 176.926L532.322 176.922Z" fill="#F4D6AE"/>
<path d="M525.962 170.301C526.307 170.268 526.554 169.892 526.513 169.461C526.473 169.03 526.16 168.708 525.814 168.74C525.469 168.773 525.222 169.149 525.263 169.58C525.304 170.011 525.617 170.333 525.962 170.301Z" fill="#0C1A7A"/>
<path d="M524.35 166.95C525.677 166.567 527.272 167.097 527.935 168.353C527.971 168.411 527.882 168.473 527.842 168.416C527.053 167.329 525.677 166.879 524.373 167.062C524.306 167.075 524.279 166.973 524.346 166.955L524.35 166.95Z" fill="#0C1A7A"/>
<path d="M524.537 175.228C525.009 175.629 525.633 175.558 526.127 175.228L525.962 175.379C525.548 175.727 524.844 175.687 524.537 175.228Z" fill="#0C1A7A"/>
<path d="M523.923 167.788C523.981 168.527 523.958 169.284 523.754 170.005C523.486 170.713 522.934 171.239 522.502 171.849C522.854 171.212 523.402 170.651 523.647 169.974C523.852 169.271 523.887 168.522 523.918 167.792L523.923 167.788Z" fill="#0C1A7A"/>
<path d="M521.473 186.709C524.145 187.404 526.644 189.609 526.733 192.512C526.773 192.859 526.697 193.349 526.688 193.706C527.044 190.303 524.577 187.671 521.473 186.709Z" fill="#0C1A7A"/>
<path d="M520.689 205.315C523.197 202.977 525.544 200.1 526.105 196.622C525.686 200.127 523.29 203.084 520.689 205.315Z" fill="#0C1A7A"/>
<path d="M539.269 248.767C541.785 247.716 543.793 245.756 545.49 243.663L544.88 244.478C543.375 246.295 541.526 247.969 539.273 248.762L539.269 248.767Z" fill="#0C1A7A"/>
<path d="M547.877 223.694C543.646 228.459 537.06 230.757 530.781 230.69C529.365 230.708 527.806 230.525 526.408 230.36C527.806 230.498 529.365 230.645 530.781 230.623C537.056 230.632 543.557 228.361 547.877 223.689V223.694Z" fill="#0C1A7A"/>
<path d="M542.154 229.76C543.058 232.267 544.069 234.841 544.225 237.526C543.931 234.854 542.929 232.32 542.154 229.76Z" fill="#0C1A7A"/>
<path d="M532.335 176.231C532.335 176.231 531.56 175.509 531.889 174.45C532.241 173.314 534.116 172.223 532.78 170.887C531.373 169.48 530.215 171.6 530.215 171.6L529.235 167.926C529.235 167.926 530.553 168.215 526.991 163.762C526.991 163.762 523.428 162.871 523.428 161.535C523.428 160.199 524.363 158.258 524.363 158.258C524.363 158.258 525.21 159.754 526.1 158.863C526.991 157.973 535.007 154.855 539.015 158.418C539.015 158.418 545.249 160.199 543.913 169.996C543.913 169.996 542.074 174.895 540.796 175.786C539.242 176.868 536.343 179.348 532.335 176.231Z" fill="url(#paint39_linear_2107_3438)"/>
<path d="M531.221 170.665L524.542 169.329L523.206 168.884" stroke="#4095FC" stroke-width="0.445327" stroke-miterlimit="10"/>
<path d="M513.569 199.459C513.569 199.459 512.74 198.942 512.74 198.497C512.74 198.052 514.744 196.471 515.078 197.263C515.412 198.052 513.569 199.463 513.569 199.463V199.459Z" fill="#0515B1"/>
<path d="M523.206 168.804C523.206 168.804 523.166 171.689 523.856 171.845C524.546 172.001 524.542 169.329 524.542 169.329" stroke="#4095FC" stroke-width="0.445327" stroke-miterlimit="10"/>
<path d="M522.181 206.108C522.181 206.108 522.092 206.959 522.983 206.959C522.983 206.959 523.126 205.868 523.054 204.857C522.983 203.842 522.181 206.108 522.181 206.108Z" fill="#32DFFF"/>
<path d="M519.933 186.677C519.933 186.677 509.178 208.739 508.733 212.747C508.287 216.755 517.194 226.552 516.303 231.005C515.413 235.458 521.073 236.14 520.69 230.676C520.307 225.211 521.202 220.317 519.79 213.192C519.79 213.192 526.63 202.638 526.59 196.336C526.546 190.035 527.129 187.332 519.937 186.677H519.933Z" fill="#F4D6AE"/>
<path d="M516.303 231.007L517.109 235.251C517.158 235.887 517.657 236.395 518.294 236.449L519.42 237.241C520.289 237.317 519.87 236.302 519.87 235.429C519.87 234.124 520.382 232.583 521.202 232.343C521.959 232.116 522.324 233.345 523.384 233.318C524.087 233.3 524.377 232.401 523.811 231.982C523.059 231.421 521.527 227.725 519.866 227.894C516.37 228.25 516.303 231.011 516.303 231.011V231.007Z" fill="#F4D6AE"/>
<path d="M519.42 186.474L512.74 198.498C512.74 198.498 513.711 196.877 515.078 197.264C518.659 198.275 525.076 202.038 523.874 207.404L527.557 199.793C527.557 199.793 531.066 181.78 519.42 186.474Z" fill="url(#paint40_linear_2107_3438)"/>
<path d="M522.778 185.922C526.692 185.365 528.416 188.781 528.313 192.205L528.229 193.577L528.202 192.21C528.113 188.852 526.608 185.686 522.778 185.922Z" fill="#0C1A7A"/>
<path d="M404 389.803V345.266L442.57 367.537V412.074L404 389.803Z" fill="#00B5A3"/>
<path d="M480.601 345.266L442.57 367.537V412.074L481.135 389.803L480.601 345.266Z" fill="#55D1D1"/>
<path d="M404 345.266L442.57 323L480.601 345.266L442.57 367.537L404 345.266Z" fill="#2FD5C5"/>
<path d="M442.303 345.266L435.329 349.207L442.57 367.536L480.601 345.266L451.361 339.855L442.303 345.266Z" fill="url(#paint41_linear_2107_3438)"/>
<path d="M442.57 323L451.36 339.856L435.329 349.207L404 345.266L442.57 323Z" fill="url(#paint42_linear_2107_3438)"/>
<path d="M404 366.075L441.92 388.613L480.868 367.536L480.752 376.816L442.436 399.065L404.156 375.48L404 366.075Z" fill="url(#paint43_linear_2107_3438)"/>
<path d="M609 286.804V256.267L635.446 271.537V302.074L609 286.804Z" fill="#00B5A3"/>
<path d="M661.522 256.267L635.446 271.537V302.074L661.888 286.804L661.522 256.267Z" fill="#55D1D1"/>
<path d="M609 256.267L635.446 241L661.522 256.267L635.446 271.537L609 256.267Z" fill="#2FD5C5"/>
<path d="M635.262 256.267L630.481 258.969L635.446 271.537L661.522 256.267L641.473 252.557L635.262 256.267Z" fill="url(#paint44_linear_2107_3438)"/>
<path d="M635.446 241L641.473 252.557L630.481 258.969L609 256.267L635.446 241Z" fill="url(#paint45_linear_2107_3438)"/>
<path d="M609 270.535L635 285.988L661.705 271.536L661.625 277.899L635.354 293.154L609.107 276.983L609 270.535Z" fill="url(#paint46_linear_2107_3438)"/>
<path d="M516.142 384.01V428.547L570.53 397.138V353.042L516.142 384.01Z" fill="#55D1D1"/>
<path d="M477.573 361.739L516.142 384.01L569.769 353.042L531.306 330.713L477.573 361.739Z" fill="#2FD5C5"/>
<path d="M477.038 406.276L477.572 361.739L516.142 384.01V428.547L477.038 406.276Z" fill="#00B5A3"/>
<path d="M477.189 382.161L515.483 404.508L570.53 373.972V384.009L516.142 414.706L477.189 391.513V382.161Z" fill="url(#paint47_linear_2107_3438)"/>
<path d="M524.496 356.863L517.527 360.804L516.378 383.944L570.263 353.216L533.559 351.453L524.496 356.863Z" fill="url(#paint48_linear_2107_3438)"/>
<path d="M531.519 330.505L533.559 351.453L517.527 360.805L477.635 361.678L531.519 330.505Z" fill="url(#paint49_linear_2107_3438)"/>
<defs>
<linearGradient id="paint0_linear_2107_3438" x1="317.073" y1="21.4391" x2="294.615" y2="51.9573" gradientUnits="userSpaceOnUse">
<stop offset="0.09" stop-color="#CEBD45"/>
<stop offset="0.53" stop-color="#F6FB9B"/>
<stop offset="0.82" stop-color="#CEBD45"/>
</linearGradient>
<linearGradient id="paint1_linear_2107_3438" x1="367.956" y1="82.1651" x2="381.529" y2="100.615" gradientUnits="userSpaceOnUse">
<stop offset="0.09" stop-color="#CEBD45"/>
<stop offset="0.53" stop-color="#F6FB9B"/>
<stop offset="0.82" stop-color="#CEBD45"/>
</linearGradient>
<linearGradient id="paint2_linear_2107_3438" x1="104.175" y1="134.283" x2="123.137" y2="160.05" gradientUnits="userSpaceOnUse">
<stop offset="0.09" stop-color="#CEBD45"/>
<stop offset="0.53" stop-color="#F6FB9B"/>
<stop offset="0.82" stop-color="#CEBD45"/>
</linearGradient>
<linearGradient id="paint3_linear_2107_3438" x1="112.65" y1="154.61" x2="141.249" y2="99.069" gradientUnits="userSpaceOnUse">
<stop stop-color="#265CE2"/>
<stop offset="0.06" stop-color="#3172E6"/>
<stop offset="0.17" stop-color="#4396EC"/>
<stop offset="0.29" stop-color="#51B3F1"/>
<stop offset="0.42" stop-color="#5CC9F5"/>
<stop offset="0.56" stop-color="#64D9F8"/>
<stop offset="0.71" stop-color="#69E3FA"/>
<stop offset="0.92" stop-color="#6BE6FB"/>
</linearGradient>
<linearGradient id="paint4_linear_2107_3438" x1="175.944" y1="252.94" x2="237.382" y2="61.4402" gradientUnits="userSpaceOnUse">
<stop offset="0.1" stop-color="#0878FF"/>
<stop offset="0.76" stop-color="#0525BC"/>
<stop offset="0.88" stop-color="#0516B1"/>
</linearGradient>
<linearGradient id="paint5_linear_2107_3438" x1="150.155" y1="237.851" x2="252.612" y2="76.8479" gradientUnits="userSpaceOnUse">
<stop stop-color="#0516B1"/>
<stop offset="0.45" stop-color="#0645D6"/>
<stop offset="0.9" stop-color="#0878FF"/>
</linearGradient>
<linearGradient id="paint6_linear_2107_3438" x1="172.698" y1="275.25" x2="217.302" y2="68.3605" gradientUnits="userSpaceOnUse">
<stop stop-color="#83BBFF"/>
<stop offset="0.04" stop-color="#92C3FF"/>
<stop offset="0.11" stop-color="#ACD1FF"/>
<stop offset="0.19" stop-color="#C2DDFF"/>
<stop offset="0.28" stop-color="#D3E6FF"/>
<stop offset="0.39" stop-color="#DFEDFF"/>
<stop offset="0.55" stop-color="#E6F0FF"/>
<stop offset="1" stop-color="#E8F2FF"/>
</linearGradient>
<linearGradient id="paint7_linear_2107_3438" x1="487.495" y1="251.157" x2="426.057" y2="59.658" gradientUnits="userSpaceOnUse">
<stop offset="0.1" stop-color="#0878FF"/>
<stop offset="0.76" stop-color="#0525BC"/>
<stop offset="0.88" stop-color="#0516B1"/>
</linearGradient>
<linearGradient id="paint8_linear_2107_3438" x1="513.284" y1="236.07" x2="410.827" y2="75.0666" gradientUnits="userSpaceOnUse">
<stop stop-color="#0516B1"/>
<stop offset="0.45" stop-color="#0645D6"/>
<stop offset="0.9" stop-color="#0878FF"/>
</linearGradient>
<linearGradient id="paint9_linear_2107_3438" x1="490.741" y1="273.468" x2="446.137" y2="66.5783" gradientUnits="userSpaceOnUse">
<stop stop-color="#83BBFF"/>
<stop offset="0.04" stop-color="#92C3FF"/>
<stop offset="0.11" stop-color="#ACD1FF"/>
<stop offset="0.19" stop-color="#C2DDFF"/>
<stop offset="0.28" stop-color="#D3E6FF"/>
<stop offset="0.39" stop-color="#DFEDFF"/>
<stop offset="0.55" stop-color="#E6F0FF"/>
<stop offset="1" stop-color="#E8F2FF"/>
</linearGradient>
<linearGradient id="paint10_linear_2107_3438" x1="462.997" y1="182.879" x2="475.275" y2="101.7" gradientUnits="userSpaceOnUse">
<stop stop-color="#265CE2"/>
<stop offset="0.06" stop-color="#3172E6"/>
<stop offset="0.17" stop-color="#4396EC"/>
<stop offset="0.29" stop-color="#51B3F1"/>
<stop offset="0.42" stop-color="#5CC9F5"/>
<stop offset="0.56" stop-color="#64D9F8"/>
<stop offset="0.71" stop-color="#69E3FA"/>
<stop offset="0.92" stop-color="#6BE6FB"/>
</linearGradient>
<linearGradient id="paint11_linear_2107_3438" x1="473.173" y1="197.047" x2="495.457" y2="153.16" gradientUnits="userSpaceOnUse">
<stop stop-color="#265CE2"/>
<stop offset="0.06" stop-color="#3172E6"/>
<stop offset="0.17" stop-color="#4396EC"/>
<stop offset="0.29" stop-color="#51B3F1"/>
<stop offset="0.42" stop-color="#5CC9F5"/>
<stop offset="0.56" stop-color="#64D9F8"/>
<stop offset="0.71" stop-color="#69E3FA"/>
<stop offset="0.92" stop-color="#6BE6FB"/>
</linearGradient>
<linearGradient id="paint12_linear_2107_3438" x1="437.707" y1="217.598" x2="456.585" y2="176.89" gradientUnits="userSpaceOnUse">
<stop stop-color="#265CE2"/>
<stop offset="0.06" stop-color="#3172E6"/>
<stop offset="0.17" stop-color="#4396EC"/>
<stop offset="0.29" stop-color="#51B3F1"/>
<stop offset="0.42" stop-color="#5CC9F5"/>
<stop offset="0.56" stop-color="#64D9F8"/>
<stop offset="0.71" stop-color="#69E3FA"/>
<stop offset="0.92" stop-color="#6BE6FB"/>
</linearGradient>
<linearGradient id="paint13_linear_2107_3438" x1="468.119" y1="234.619" x2="498.365" y2="186.185" gradientUnits="userSpaceOnUse">
<stop stop-color="#265CE2"/>
<stop offset="0.06" stop-color="#3172E6"/>
<stop offset="0.17" stop-color="#4396EC"/>
<stop offset="0.29" stop-color="#51B3F1"/>
<stop offset="0.42" stop-color="#5CC9F5"/>
<stop offset="0.56" stop-color="#64D9F8"/>
<stop offset="0.71" stop-color="#69E3FA"/>
<stop offset="0.92" stop-color="#6BE6FB"/>
</linearGradient>
<linearGradient id="paint14_linear_2107_3438" x1="429.633" y1="258.489" x2="463.745" y2="203.002" gradientUnits="userSpaceOnUse">
<stop stop-color="#265CE2"/>
<stop offset="0.06" stop-color="#3172E6"/>
<stop offset="0.17" stop-color="#4396EC"/>
<stop offset="0.29" stop-color="#51B3F1"/>
<stop offset="0.42" stop-color="#5CC9F5"/>
<stop offset="0.56" stop-color="#64D9F8"/>
<stop offset="0.71" stop-color="#69E3FA"/>
<stop offset="0.92" stop-color="#6BE6FB"/>
</linearGradient>
<linearGradient id="paint15_linear_2107_3438" x1="16.1785" y1="235.843" x2="62.1184" y2="200.93" gradientUnits="userSpaceOnUse">
<stop stop-color="#265CE2"/>
<stop offset="0.64" stop-color="#3884F4"/>
<stop offset="1" stop-color="#4095FC"/>
</linearGradient>
<linearGradient id="paint16_linear_2107_3438" x1="-10.8482" y1="240.71" x2="48.0552" y2="214.436" gradientUnits="userSpaceOnUse">
<stop stop-color="#619BFF"/>
<stop offset="0.16" stop-color="#62A8FE"/>
<stop offset="0.72" stop-color="#68D4FB"/>
<stop offset="1" stop-color="#6BE6FB"/>
</linearGradient>
<linearGradient id="paint17_linear_2107_3438" x1="152.707" y1="147.639" x2="229.406" y2="111.732" gradientUnits="userSpaceOnUse">
<stop stop-color="#265CE2"/>
<stop offset="0.06" stop-color="#3172E6"/>
<stop offset="0.17" stop-color="#4396EC"/>
<stop offset="0.29" stop-color="#51B3F1"/>
<stop offset="0.42" stop-color="#5CC9F5"/>
<stop offset="0.56" stop-color="#64D9F8"/>
<stop offset="0.71" stop-color="#69E3FA"/>
<stop offset="0.92" stop-color="#6BE6FB"/>
</linearGradient>
<linearGradient id="paint18_linear_2107_3438" x1="144.647" y1="235.994" x2="228.034" y2="166.309" gradientUnits="userSpaceOnUse">
<stop stop-color="#265CE2"/>
<stop offset="0.06" stop-color="#3172E6"/>
<stop offset="0.17" stop-color="#4396EC"/>
<stop offset="0.29" stop-color="#51B3F1"/>
<stop offset="0.42" stop-color="#5CC9F5"/>
<stop offset="0.56" stop-color="#64D9F8"/>
<stop offset="0.71" stop-color="#69E3FA"/>
<stop offset="0.92" stop-color="#6BE6FB"/>
</linearGradient>
<linearGradient id="paint19_linear_2107_3438" x1="134.186" y1="174.163" x2="167.612" y2="174.163" gradientUnits="userSpaceOnUse">
<stop offset="0.1" stop-color="#00B5A3"/>
<stop offset="0.58125" stop-color="#3AEBD6"/>
<stop offset="0.919792" stop-color="#23909E"/>
</linearGradient>
<linearGradient id="paint20_linear_2107_3438" x1="125.996" y1="186.526" x2="168.382" y2="165.093" gradientUnits="userSpaceOnUse">
<stop stop-color="#55D1D1"/>
<stop offset="1" stop-color="#9CF1F5"/>
</linearGradient>
<linearGradient id="paint21_linear_2107_3438" x1="189.291" y1="386.048" x2="208.319" y2="329.465" gradientUnits="userSpaceOnUse">
<stop stop-color="#4095FC"/>
<stop offset="0.17" stop-color="#499AFB"/>
<stop offset="0.45" stop-color="#62A8FB"/>
<stop offset="0.8" stop-color="#8ABEFA"/>
<stop offset="1" stop-color="#A4CDFA"/>
</linearGradient>
<linearGradient id="paint22_linear_2107_3438" x1="217.547" y1="389.538" x2="220.887" y2="346.266" gradientUnits="userSpaceOnUse">
<stop stop-color="#81B9F8"/>
<stop offset="0.35" stop-color="#94C6F8"/>
<stop offset="1" stop-color="#C2E5FA"/>
</linearGradient>
<linearGradient id="paint23_linear_2107_3438" x1="186.988" y1="328.501" x2="206.133" y2="328.501" gradientUnits="userSpaceOnUse">
<stop stop-color="#81B9F8"/>
<stop offset="0.6" stop-color="#94C4F9"/>
<stop offset="1" stop-color="#A4CDFA"/>
</linearGradient>
<linearGradient id="paint24_linear_2107_3438" x1="194.777" y1="365.655" x2="208.373" y2="365.655" gradientUnits="userSpaceOnUse">
<stop offset="0.68" stop-color="#A4CDFA"/>
<stop offset="0.96" stop-color="#A4CDFA"/>
</linearGradient>
<linearGradient id="paint25_linear_2107_3438" x1="196.077" y1="405.752" x2="208.649" y2="370.353" gradientUnits="userSpaceOnUse">
<stop offset="0.04" stop-color="#708AFF"/>
<stop offset="0.57" stop-color="#8EB1FC"/>
<stop offset="1" stop-color="#A4CDFA"/>
</linearGradient>
<linearGradient id="paint26_linear_2107_3438" x1="220.909" y1="376.455" x2="212.345" y2="406.928" gradientUnits="userSpaceOnUse">
<stop offset="0.24" stop-color="#D1E5FC"/>
<stop offset="0.52" stop-color="#BFDBFB"/>
<stop offset="1" stop-color="#A4CDFA"/>
</linearGradient>
<linearGradient id="paint27_linear_2107_3438" x1="471.837" y1="194.085" x2="541.878" y2="95.8458" gradientUnits="userSpaceOnUse">
<stop stop-color="#265CE2"/>
<stop offset="0.15" stop-color="#3083D4"/>
<stop offset="0.34" stop-color="#3BAFC5"/>
<stop offset="0.53" stop-color="#44D2BA"/>
<stop offset="0.71" stop-color="#4AEAB1"/>
<stop offset="0.87" stop-color="#4EF9AC"/>
<stop offset="1" stop-color="#50FFAB"/>
</linearGradient>
<linearGradient id="paint28_linear_2107_3438" x1="117.424" y1="338.548" x2="121.067" y2="251.759" gradientUnits="userSpaceOnUse">
<stop stop-color="#1F4ED8"/>
<stop offset="0.51" stop-color="#2B69EB"/>
<stop offset="0.91" stop-color="#337AF7"/>
</linearGradient>
<linearGradient id="paint29_linear_2107_3438" x1="91.515" y1="324.333" x2="103.027" y2="245.439" gradientUnits="userSpaceOnUse">
<stop stop-color="#1C48D4"/>
<stop offset="0.55" stop-color="#2B69EB"/>
<stop offset="0.91" stop-color="#337AF7"/>
</linearGradient>
<linearGradient id="paint30_linear_2107_3438" x1="95.4205" y1="230.86" x2="95.4205" y2="193.857" gradientUnits="userSpaceOnUse">
<stop stop-color="#81B9F8"/>
<stop offset="0.65" stop-color="#ABC7F9"/>
<stop offset="1" stop-color="#BCCDFA"/>
</linearGradient>
<linearGradient id="paint31_linear_2107_3438" x1="112.352" y1="238.831" x2="112.352" y2="190.909" gradientUnits="userSpaceOnUse">
<stop stop-color="#81B9F8"/>
<stop offset="0.65" stop-color="#ABC7F9"/>
<stop offset="1" stop-color="#BCCDFA"/>
</linearGradient>
<linearGradient id="paint32_linear_2107_3438" x1="136.123" y1="228.237" x2="136.123" y2="200.475" gradientUnits="userSpaceOnUse">
<stop stop-color="#81B9F8"/>
<stop offset="0.65" stop-color="#ABC7F9"/>
<stop offset="1" stop-color="#BCCDFA"/>
</linearGradient>
<linearGradient id="paint33_linear_2107_3438" x1="115.131" y1="166.919" x2="104.563" y2="199.851" gradientUnits="userSpaceOnUse">
<stop stop-color="#1F4ED8"/>
<stop offset="0.64" stop-color="#0C25BC"/>
<stop offset="1" stop-color="#0515B1"/>
</linearGradient>
<linearGradient id="paint34_linear_2107_3438" x1="535.274" y1="195.646" x2="536.187" y2="243.853" gradientUnits="userSpaceOnUse">
<stop stop-color="#0087ED"/>
<stop offset="0.06" stop-color="#138FEE"/>
<stop offset="0.21" stop-color="#3CA0F1"/>
<stop offset="0.35" stop-color="#5DAEF4"/>
<stop offset="0.51" stop-color="#77B9F6"/>
<stop offset="0.66" stop-color="#8AC1F7"/>
<stop offset="0.82" stop-color="#95C6F8"/>
<stop offset="1" stop-color="#99C8F9"/>
</linearGradient>
<linearGradient id="paint35_linear_2107_3438" x1="529.65" y1="332.497" x2="527.833" y2="227.44" gradientUnits="userSpaceOnUse">
<stop stop-color="#0087ED"/>
<stop offset="0.11" stop-color="#1690EE"/>
<stop offset="0.42" stop-color="#53AAF3"/>
<stop offset="0.68" stop-color="#7EBDF7"/>
<stop offset="0.88" stop-color="#99C8F9"/>
<stop offset="1" stop-color="#A4CDFA"/>
</linearGradient>
<linearGradient id="paint36_linear_2107_3438" x1="550.794" y1="312.999" x2="548.064" y2="233.865" gradientUnits="userSpaceOnUse">
<stop stop-color="#0087ED"/>
<stop offset="0.11" stop-color="#1690EE"/>
<stop offset="0.42" stop-color="#53AAF3"/>
<stop offset="0.68" stop-color="#7EBDF7"/>
<stop offset="0.88" stop-color="#99C8F9"/>
<stop offset="1" stop-color="#A4CDFA"/>
</linearGradient>
<linearGradient id="paint37_linear_2107_3438" x1="545.245" y1="187.156" x2="553.711" y2="187.156" gradientUnits="userSpaceOnUse">
<stop stop-color="#0037ED"/>
<stop offset="0.33" stop-color="#275DF5"/>
<stop offset="0.62" stop-color="#4177FB"/>
<stop offset="0.79" stop-color="#4C81FE"/>
</linearGradient>
<linearGradient id="paint38_linear_2107_3438" x1="535.577" y1="232.569" x2="533.306" y2="191.181" gradientUnits="userSpaceOnUse">
<stop stop-color="#0037ED"/>
<stop offset="0.33" stop-color="#275DF5"/>
<stop offset="0.62" stop-color="#4177FB"/>
<stop offset="0.79" stop-color="#4C81FE"/>
</linearGradient>
<linearGradient id="paint39_linear_2107_3438" x1="535.799" y1="181.161" x2="533.074" y2="158.195" gradientUnits="userSpaceOnUse">
<stop stop-color="#0515B1"/>
<stop offset="1" stop-color="#1E80D1"/>
</linearGradient>
<linearGradient id="paint40_linear_2107_3438" x1="512.74" y1="196.547" x2="528.055" y2="196.547" gradientUnits="userSpaceOnUse">
<stop stop-color="#0037ED"/>
<stop offset="0.33" stop-color="#275DF5"/>
<stop offset="0.62" stop-color="#4177FB"/>
<stop offset="0.79" stop-color="#4C81FE"/>
</linearGradient>
<linearGradient id="paint41_linear_2107_3438" x1="435.329" y1="353.696" x2="480.601" y2="353.696" gradientUnits="userSpaceOnUse">
<stop stop-color="#0CC4B2"/>
<stop offset="0.24" stop-color="#25D1C0"/>
<stop offset="0.607292" stop-color="#70FFF9"/>
<stop offset="1" stop-color="#BDEBF2"/>
</linearGradient>
<linearGradient id="paint42_linear_2107_3438" x1="404" y1="336.102" x2="451.36" y2="336.102" gradientUnits="userSpaceOnUse">
<stop stop-color="#19CAB9"/>
<stop offset="0.24" stop-color="#37DACA"/>
<stop offset="0.617708" stop-color="#75FDFD"/>
<stop offset="1" stop-color="#BAEAF1"/>
</linearGradient>
<linearGradient id="paint43_linear_2107_3438" x1="404" y1="382.57" x2="480.868" y2="382.57" gradientUnits="userSpaceOnUse">
<stop stop-color="#0516B1"/>
<stop offset="0.45" stop-color="#0645D6"/>
<stop offset="0.9" stop-color="#0878FF"/>
</linearGradient>
<linearGradient id="paint44_linear_2107_3438" x1="630.481" y1="262.047" x2="661.522" y2="262.047" gradientUnits="userSpaceOnUse">
<stop stop-color="#0CC4B2"/>
<stop offset="0.24" stop-color="#25D1C0"/>
<stop offset="0.607292" stop-color="#70FFF9"/>
<stop offset="1" stop-color="#BDEBF2"/>
</linearGradient>
<linearGradient id="paint45_linear_2107_3438" x1="609" y1="249.983" x2="641.473" y2="249.983" gradientUnits="userSpaceOnUse">
<stop stop-color="#19CAB9"/>
<stop offset="0.24" stop-color="#37DACA"/>
<stop offset="0.617708" stop-color="#75FDFD"/>
<stop offset="1" stop-color="#BAEAF1"/>
</linearGradient>
<linearGradient id="paint46_linear_2107_3438" x1="609" y1="281.844" x2="661.705" y2="281.844" gradientUnits="userSpaceOnUse">
<stop stop-color="#0516B1"/>
<stop offset="0.45" stop-color="#0645D6"/>
<stop offset="0.9" stop-color="#0878FF"/>
</linearGradient>
<linearGradient id="paint47_linear_2107_3438" x1="477.189" y1="394.341" x2="570.53" y2="394.341" gradientUnits="userSpaceOnUse">
<stop stop-color="#0516B1"/>
<stop offset="0.45" stop-color="#0645D6"/>
<stop offset="0.9" stop-color="#0878FF"/>
</linearGradient>
<linearGradient id="paint48_linear_2107_3438" x1="516.378" y1="367.698" x2="570.263" y2="367.698" gradientUnits="userSpaceOnUse">
<stop stop-color="#0CC4B2"/>
<stop offset="0.336458" stop-color="#4AE0D2"/>
<stop offset="0.680208" stop-color="#A3F8FE"/>
<stop offset="1" stop-color="#E7F6FD"/>
</linearGradient>
<linearGradient id="paint49_linear_2107_3438" x1="477.635" y1="346.091" x2="533.559" y2="346.091" gradientUnits="userSpaceOnUse">
<stop stop-color="#13C8B6"/>
<stop offset="0.3" stop-color="#45CFCB"/>
<stop offset="0.648958" stop-color="#94FFF4"/>
<stop offset="0.96254" stop-color="#BCEBF2"/>
</linearGradient>
</defs>
</svg>
